<svg width="8" height="6" viewBox="0 0 8 6" fill="none" xmlns="http://www.w3.org/2000/svg">
<path d="M3.86184 0H5.19684C6.85184 0 7.53184 1.175 6.70184 2.61L6.03184 3.765L5.36184 4.92C4.53184 6.355 3.17684 6.355 2.34684 4.92L1.67684 3.765L1.00684 2.61C0.191842 1.175 0.866842 0 2.52684 0H3.86184Z" fill="#4C3C90"/>
<path d="M3.86184 0H5.19684C6.85184 0 7.53184 1.175 6.70184 2.61L6.03184 3.765L5.36184 4.92C4.53184 6.355 3.17684 6.355 2.34684 4.92L1.67684 3.765L1.00684 2.61C0.191842 1.175 0.866842 0 2.52684 0H3.86184Z" fill="black" fill-opacity="0.4"/>
</svg>
