<svg width="65" height="64" viewBox="0 0 65 64" fill="none" xmlns="http://www.w3.org/2000/svg">
<path d="M0.651123 31.9482V-0.182129H32.7815H64.9118V31.9482V64.0786H32.7815H0.651123V31.9482ZM40.4342 56.4578C37.2523 54.468 35.027 51.1727 34.4016 47.5246C34.1434 46.0179 34.1189 46.0882 34.8733 46.172C38.1308 46.5339 41.332 47.9013 43.2057 49.7312C44.5391 51.0335 44.8387 51.8913 44.9146 54.6235L44.9696 56.6038H50.8686H56.7677V54.4914C56.7677 52.2753 56.6539 51.4014 56.2117 50.2194C55.3683 47.9652 53.3993 46.4031 50.3501 45.569C48.6059 45.0919 45.831 44.7812 43.2964 44.7792C42.386 44.7785 41.8181 44.7352 41.8181 44.6665C41.8181 44.6051 41.9813 44.5547 42.1807 44.5545C43.0348 44.5534 45.7926 44.3107 47.3209 44.1021C52.4994 43.3953 55.5274 42.0585 56.4718 40.0621C56.7139 39.5505 56.7674 39.2784 56.7664 38.5653C56.7616 35.4867 54.8025 33.691 50.6939 32.9993C48.9852 32.7117 44.1808 32.6226 34.3225 32.6957L24.8745 32.7658L25.3416 33.0637C27.9926 34.7545 30.1205 37.6574 30.8824 40.6223C31.1326 41.5957 31.3649 43.1081 31.2776 43.1953C31.1844 43.2885 28.9463 42.8918 28.1842 42.647C25.5456 41.7995 22.8183 39.7622 21.3669 37.5543L20.8999 36.844L20.8706 40.7552C20.8545 42.9064 20.8545 46.4291 20.8706 48.5833L20.8999 52.5001L21.4544 51.6792C22.5139 50.1106 24.5912 48.3116 26.3666 47.4249C27.2808 46.9684 28.9465 46.4567 30.1273 46.2697C30.7362 46.1732 31.2623 46.1223 31.2965 46.1565C31.3972 46.2572 31.0223 48.2719 30.7604 49.0375C29.911 51.521 28.1613 53.4721 25.8282 54.5371C24.7347 55.0363 23.9794 55.202 22.7965 55.2024C21.1663 55.203 20.0639 54.6553 19.4736 53.5517L19.2265 53.0895L19.1963 42.8536L19.1662 32.6176H13.9807H8.79528V40.8664C8.79528 49.6964 8.79524 49.6958 9.36775 51.2487C10.0351 53.059 11.5174 54.5486 13.4844 55.3857C14.7756 55.9351 16.1979 56.2633 18.4455 56.5306C18.6296 56.5525 23.7002 56.5749 29.7135 56.5805C38.2134 56.5884 40.5994 56.5611 40.4342 56.4578ZM34.2936 42.5747C34.4909 40.9503 35.3222 38.9149 36.3602 37.5147C37.0812 36.5421 38.493 35.2035 39.2618 34.7637C40.8468 33.8569 42.651 33.8586 43.8408 34.7681C45.2942 35.8791 45.1177 37.7084 43.3903 39.4358C41.5861 41.24 38.7065 42.6115 35.7937 43.0539C34.1248 43.3073 34.2017 43.3319 34.2936 42.5747V42.5747Z" fill="black"/>
<path d="M0.651123 31.9482V-0.182129H32.7815H64.9118V31.9482V64.0786H32.7815H0.651123V31.9482ZM40.4342 56.4578C37.2523 54.468 35.027 51.1727 34.4016 47.5246C34.1434 46.0179 34.1189 46.0882 34.8733 46.172C38.1308 46.5339 41.332 47.9013 43.2057 49.7312C44.5391 51.0335 44.8387 51.8913 44.9146 54.6235L44.9696 56.6038H50.8686H56.7677V54.4914C56.7677 52.2753 56.6539 51.4014 56.2117 50.2194C55.3683 47.9652 53.3993 46.4031 50.3501 45.569C48.6059 45.0919 45.831 44.7812 43.2964 44.7792C42.386 44.7785 41.8181 44.7352 41.8181 44.6665C41.8181 44.6051 41.9813 44.5547 42.1807 44.5545C43.0348 44.5534 45.7926 44.3107 47.3209 44.1021C52.4994 43.3953 55.5274 42.0585 56.4718 40.0621C56.7139 39.5505 56.7674 39.2784 56.7664 38.5653C56.7616 35.4867 54.8025 33.691 50.6939 32.9993C48.9852 32.7117 44.1808 32.6226 34.3225 32.6957L24.8745 32.7658L25.3416 33.0637C27.9926 34.7545 30.1205 37.6574 30.8824 40.6223C31.1326 41.5957 31.3649 43.1081 31.2776 43.1953C31.1844 43.2885 28.9463 42.8918 28.1842 42.647C25.5456 41.7995 22.8183 39.7622 21.3669 37.5543L20.8999 36.844L20.8706 40.7552C20.8545 42.9064 20.8545 46.4291 20.8706 48.5833L20.8999 52.5001L21.4544 51.6792C22.5139 50.1106 24.5912 48.3116 26.3666 47.4249C27.2808 46.9684 28.9465 46.4567 30.1273 46.2697C30.7362 46.1732 31.2623 46.1223 31.2965 46.1565C31.3972 46.2572 31.0223 48.2719 30.7604 49.0375C29.911 51.521 28.1613 53.4721 25.8282 54.5371C24.7347 55.0363 23.9794 55.202 22.7965 55.2024C21.1663 55.203 20.0639 54.6553 19.4736 53.5517L19.2265 53.0895L19.1963 42.8536L19.1662 32.6176H13.9807H8.79528V40.8664C8.79528 49.6964 8.79524 49.6958 9.36775 51.2487C10.0351 53.059 11.5174 54.5486 13.4844 55.3857C14.7756 55.9351 16.1979 56.2633 18.4455 56.5306C18.6296 56.5525 23.7002 56.5749 29.7135 56.5805C38.2134 56.5884 40.5994 56.5611 40.4342 56.4578ZM34.2936 42.5747C34.4909 40.9503 35.3222 38.9149 36.3602 37.5147C37.0812 36.5421 38.493 35.2035 39.2618 34.7637C40.8468 33.8569 42.651 33.8586 43.8408 34.7681C45.2942 35.8791 45.1177 37.7084 43.3903 39.4358C41.5861 41.24 38.7065 42.6115 35.7937 43.0539C34.1248 43.3073 34.2017 43.3319 34.2936 42.5747V42.5747Z" fill="#4C3C90"/>
</svg>
