<svg width="153" height="48" viewBox="0 0 153 48" fill="none" xmlns="http://www.w3.org/2000/svg">
<g style="mix-blend-mode:color">
<path d="M19.6487 19.8003C19.7281 22.6751 19.8319 25.5499 19.8474 28.4251C19.8489 28.7008 19.3003 28.9793 19.007 29.2566C18.7348 28.9094 18.2427 28.5713 18.2278 28.2135C18.1582 26.5481 18.2206 24.877 18.2358 23.208L18.241 22.3935C18.313 21.5287 18.385 20.6639 18.4569 19.7992C18.3062 19.4329 18.186 19.0547 18.0976 18.6685C17.8684 17.1294 16.9966 16.219 15.4821 15.9374C13.8115 15.6277 12.3303 16.1268 11.052 17.1703C10.8192 17.3603 10.889 17.9207 10.8191 18.3101C10.8577 21.5811 10.9244 24.8522 10.8969 28.1226C10.8936 28.5021 10.3676 28.877 10.0839 29.254C9.80735 28.8607 9.30179 28.4732 9.29152 28.0731C9.22627 25.5296 9.29955 22.983 9.26373 20.4383C9.24986 19.453 9.07063 18.47 8.96669 17.486C7.84049 15.2795 4.23436 15.594 2.53235 16.6521C2.15254 16.8883 2.16217 17.7504 1.9925 18.3243C2.02485 21.5442 2.0913 24.7645 2.04882 27.9834C2.04317 28.4124 1.48527 28.8341 1.18313 29.2592C0.913745 28.8225 0.416318 28.3885 0.411349 27.9487C0.373837 24.6378 0.433191 21.3257 0.462321 18.0138C0.126025 16.1948 0.343124 15.5938 2.02692 14.9306C4.52329 13.9475 7.02348 13.7439 9.44037 15.3221C9.7617 15.532 10.4554 15.429 10.8502 15.2257C12.7449 14.2496 14.6981 13.8852 16.7596 14.5034C17.3006 14.6558 17.8058 14.9148 18.2453 15.2652C18.6848 15.6156 19.0499 16.0503 19.319 16.5437C19.5882 17.0372 19.756 17.5795 19.8126 18.1387C19.8692 18.698 19.8135 19.2629 19.6487 19.8003ZM53.5746 27.5546C50.9416 28.259 49.7886 27.4096 49.7525 24.6634C49.7221 22.351 49.7028 20.0386 49.6785 17.7262L48.1954 17.7214C48.1991 20.5696 48.0775 23.4253 48.2488 26.2634C48.3696 28.2663 49.8341 29.4166 51.8307 29.4469C52.5541 29.4546 53.2759 29.3771 53.9811 29.2157C54.7443 29.043 55.887 28.9263 55.6094 27.8341C55.291 26.5817 54.2737 27.3676 53.5746 27.5546ZM49.6686 16.6195C51.1028 16.5483 52.5429 16.5309 53.9675 16.3732C54.3951 16.3259 54.7795 15.8878 55.1837 15.6287C54.7958 15.3434 54.4308 14.8599 54.0152 14.8117C52.9767 14.7136 51.9316 14.705 50.8916 14.7862C50.0387 14.8353 49.796 14.4926 49.8166 13.6831C49.8592 12.007 49.8288 10.3288 49.8122 8.65167C49.8056 7.98688 49.9251 7.08256 48.9152 7.22704C48.5706 7.27635 48.1035 8.12951 48.0983 8.61967C48.0663 11.6528 48.1503 14.6874 48.1954 17.7214L49.6785 17.7262L49.6658 16.9704C49.6668 16.8535 49.6677 16.7365 49.6686 16.6195ZM42.3606 6.86339C42.0794 7.15213 41.5573 7.43884 41.5549 7.72987C41.5355 10.0706 41.614 12.4122 41.6626 14.7535C41.6626 15.0379 41.6626 15.3224 41.6626 15.6068L41.6458 17.4526C41.6135 20.9466 41.5518 24.441 41.5852 27.9344C41.5895 28.3788 42.0911 28.8184 42.3624 29.2603C42.6363 28.8243 43.1428 28.3907 43.1472 27.9521C43.1819 24.4588 43.1213 20.9644 43.0899 17.4705C43.1414 14.3038 43.2226 11.1371 43.2048 7.9708C43.2029 7.60008 42.6554 7.23245 42.3606 6.86339ZM36.4317 15.5596C36.4066 15.1765 35.8726 14.8268 35.5713 14.462C35.2825 14.8002 34.7633 15.1276 34.7468 15.4785C34.6902 16.6849 34.8096 17.8995 34.8618 19.1109C34.842 20.6952 34.8156 22.2793 34.8039 23.8636C34.7806 27.0257 34.4316 27.4113 31.2192 27.7556C30.8595 27.7982 30.497 27.8134 30.1349 27.8013C27.6332 27.6891 26.2285 26.263 26.1626 23.7486C26.12 22.1199 26.1151 20.4902 26.0932 18.8609C26.1128 17.6907 26.1896 16.5167 26.1132 15.3528C26.0929 15.0443 25.6009 14.7669 25.3255 14.4752C25.0515 14.7687 24.5614 15.0491 24.5424 15.3582C24.4769 16.427 24.5757 17.5058 24.612 18.5808C24.6465 18.8027 24.6811 19.0246 24.7157 19.2465L24.5806 20.331C24.5537 21.6023 24.4875 22.8742 24.508 24.1447C24.5499 26.734 26.0688 28.6631 28.5973 29.2507C29.7729 29.5358 30.9941 29.5791 32.1869 29.3779C33.3797 29.1766 34.5191 28.7351 35.536 28.08C35.7747 27.9006 35.9728 27.6729 36.1176 27.4117C36.2623 27.1506 36.3504 26.8619 36.376 26.5644C36.4401 24.0663 36.367 21.5648 36.3427 19.0645C36.4324 17.8985 36.462 16.7286 36.4317 15.5596ZM60.7699 15.3603C60.7323 15.0378 60.25 14.7673 59.9689 14.4733C59.6968 14.7719 59.2323 15.0469 59.192 15.3742C59.1047 16.0827 59.2347 16.8179 59.2758 17.5422C59.2273 21.0793 59.1793 24.6165 59.1319 28.1536C59.1301 28.2889 59.0978 28.4798 59.1708 28.5501C59.4353 28.8044 59.7387 29.0182 60.0274 29.2474C60.21 28.9907 60.5448 28.7383 60.552 28.4767C60.6456 25.0898 60.6927 21.7017 60.7513 18.3138C60.7345 18.123 60.7177 17.9322 60.7009 17.7414C60.6724 17.6151 60.6439 17.4888 60.6154 17.3625C60.6811 16.6932 60.8461 16.0127 60.7699 15.3603ZM59.8738 9.45162C60.3574 9.39549 60.7904 8.9044 61.6019 8.35378C60.8157 7.80429 60.2986 7.19592 59.9927 7.288C59.5466 7.42227 59.0901 8.01724 58.9617 8.50159C58.8977 8.74313 59.5883 9.48477 59.8738 9.45162Z" fill="black"/>
<path d="M19.6487 19.8003C19.7281 22.6751 19.8319 25.5499 19.8474 28.4251C19.8489 28.7008 19.3003 28.9793 19.007 29.2566C18.7348 28.9094 18.2427 28.5713 18.2278 28.2135C18.1582 26.5481 18.2206 24.877 18.2358 23.208L18.241 22.3935C18.313 21.5287 18.385 20.6639 18.4569 19.7992C18.3062 19.4329 18.186 19.0547 18.0976 18.6685C17.8684 17.1294 16.9966 16.219 15.4821 15.9374C13.8115 15.6277 12.3303 16.1268 11.052 17.1703C10.8192 17.3603 10.889 17.9207 10.8191 18.3101C10.8577 21.5811 10.9244 24.8522 10.8969 28.1226C10.8936 28.5021 10.3676 28.877 10.0839 29.254C9.80735 28.8607 9.30179 28.4732 9.29152 28.0731C9.22627 25.5296 9.29955 22.983 9.26373 20.4383C9.24986 19.453 9.07063 18.47 8.96669 17.486C7.84049 15.2795 4.23436 15.594 2.53235 16.6521C2.15254 16.8883 2.16217 17.7504 1.9925 18.3243C2.02485 21.5442 2.0913 24.7645 2.04882 27.9834C2.04317 28.4124 1.48527 28.8341 1.18313 29.2592C0.913745 28.8225 0.416318 28.3885 0.411349 27.9487C0.373837 24.6378 0.433191 21.3257 0.462321 18.0138C0.126025 16.1948 0.343124 15.5938 2.02692 14.9306C4.52329 13.9475 7.02348 13.7439 9.44037 15.3221C9.7617 15.532 10.4554 15.429 10.8502 15.2257C12.7449 14.2496 14.6981 13.8852 16.7596 14.5034C17.3006 14.6558 17.8058 14.9148 18.2453 15.2652C18.6848 15.6156 19.0499 16.0503 19.319 16.5437C19.5882 17.0372 19.756 17.5795 19.8126 18.1387C19.8692 18.698 19.8135 19.2629 19.6487 19.8003ZM53.5746 27.5546C50.9416 28.259 49.7886 27.4096 49.7525 24.6634C49.7221 22.351 49.7028 20.0386 49.6785 17.7262L48.1954 17.7214C48.1991 20.5696 48.0775 23.4253 48.2488 26.2634C48.3696 28.2663 49.8341 29.4166 51.8307 29.4469C52.5541 29.4546 53.2759 29.3771 53.9811 29.2157C54.7443 29.043 55.887 28.9263 55.6094 27.8341C55.291 26.5817 54.2737 27.3676 53.5746 27.5546ZM49.6686 16.6195C51.1028 16.5483 52.5429 16.5309 53.9675 16.3732C54.3951 16.3259 54.7795 15.8878 55.1837 15.6287C54.7958 15.3434 54.4308 14.8599 54.0152 14.8117C52.9767 14.7136 51.9316 14.705 50.8916 14.7862C50.0387 14.8353 49.796 14.4926 49.8166 13.6831C49.8592 12.007 49.8288 10.3288 49.8122 8.65167C49.8056 7.98688 49.9251 7.08256 48.9152 7.22704C48.5706 7.27635 48.1035 8.12951 48.0983 8.61967C48.0663 11.6528 48.1503 14.6874 48.1954 17.7214L49.6785 17.7262L49.6658 16.9704C49.6668 16.8535 49.6677 16.7365 49.6686 16.6195ZM42.3606 6.86339C42.0794 7.15213 41.5573 7.43884 41.5549 7.72987C41.5355 10.0706 41.614 12.4122 41.6626 14.7535C41.6626 15.0379 41.6626 15.3224 41.6626 15.6068L41.6458 17.4526C41.6135 20.9466 41.5518 24.441 41.5852 27.9344C41.5895 28.3788 42.0911 28.8184 42.3624 29.2603C42.6363 28.8243 43.1428 28.3907 43.1472 27.9521C43.1819 24.4588 43.1213 20.9644 43.0899 17.4705C43.1414 14.3038 43.2226 11.1371 43.2048 7.9708C43.2029 7.60008 42.6554 7.23245 42.3606 6.86339ZM36.4317 15.5596C36.4066 15.1765 35.8726 14.8268 35.5713 14.462C35.2825 14.8002 34.7633 15.1276 34.7468 15.4785C34.6902 16.6849 34.8096 17.8995 34.8618 19.1109C34.842 20.6952 34.8156 22.2793 34.8039 23.8636C34.7806 27.0257 34.4316 27.4113 31.2192 27.7556C30.8595 27.7982 30.497 27.8134 30.1349 27.8013C27.6332 27.6891 26.2285 26.263 26.1626 23.7486C26.12 22.1199 26.1151 20.4902 26.0932 18.8609C26.1128 17.6907 26.1896 16.5167 26.1132 15.3528C26.0929 15.0443 25.6009 14.7669 25.3255 14.4752C25.0515 14.7687 24.5614 15.0491 24.5424 15.3582C24.4769 16.427 24.5757 17.5058 24.612 18.5808C24.6465 18.8027 24.6811 19.0246 24.7157 19.2465L24.5806 20.331C24.5537 21.6023 24.4875 22.8742 24.508 24.1447C24.5499 26.734 26.0688 28.6631 28.5973 29.2507C29.7729 29.5358 30.9941 29.5791 32.1869 29.3779C33.3797 29.1766 34.5191 28.7351 35.536 28.08C35.7747 27.9006 35.9728 27.6729 36.1176 27.4117C36.2623 27.1506 36.3504 26.8619 36.376 26.5644C36.4401 24.0663 36.367 21.5648 36.3427 19.0645C36.4324 17.8985 36.462 16.7286 36.4317 15.5596ZM60.7699 15.3603C60.7323 15.0378 60.25 14.7673 59.9689 14.4733C59.6968 14.7719 59.2323 15.0469 59.192 15.3742C59.1047 16.0827 59.2347 16.8179 59.2758 17.5422C59.2273 21.0793 59.1793 24.6165 59.1319 28.1536C59.1301 28.2889 59.0978 28.4798 59.1708 28.5501C59.4353 28.8044 59.7387 29.0182 60.0274 29.2474C60.21 28.9907 60.5448 28.7383 60.552 28.4767C60.6456 25.0898 60.6927 21.7017 60.7513 18.3138C60.7345 18.123 60.7177 17.9322 60.7009 17.7414C60.6724 17.6151 60.6439 17.4888 60.6154 17.3625C60.6811 16.6932 60.8461 16.0127 60.7699 15.3603ZM59.8738 9.45162C60.3574 9.39549 60.7904 8.9044 61.6019 8.35378C60.8157 7.80429 60.2986 7.19592 59.9927 7.288C59.5466 7.42227 59.0901 8.01724 58.9617 8.50159C58.8977 8.74313 59.5883 9.48477 59.8738 9.45162Z" fill="#4C3C90"/>
<path d="M152.797 26.3415C152.717 25.3022 152.746 24.2547 152.727 23.2109C152.745 21.7312 152.868 20.2427 152.749 18.7741C152.653 17.599 152.263 16.448 152.003 15.2862C151.503 13.9336 150.408 13.2192 149.134 12.8149C146.396 11.9462 143.692 12.1728 141.061 13.3024C140.034 13.7435 139.647 14.4891 140.029 15.5764C140.543 16.8277 141.507 16.617 142.541 16.4209C143.911 16.1611 145.303 15.8476 146.683 15.8601C148.288 15.8745 149.016 16.8051 149.142 18.3875C149.206 19.1917 149.042 19.5184 148.109 19.3894C146.767 19.166 145.405 19.0938 144.047 19.1743C141.64 19.3893 139.685 20.396 138.931 22.9406C137.86 26.4049 140.042 29.5584 143.843 30.0125C146.387 30.3196 148.966 29.8952 151.277 28.7889C152.361 28.2838 152.889 27.5606 152.797 26.3415ZM149.16 24.0275C149.109 26.2529 148.77 26.6074 146.505 26.755C146.052 26.786 145.598 26.7903 145.145 26.7681C142.985 26.6548 142.258 25.7734 142.42 23.489C143.681 22.11 147.266 21.5675 148.82 22.5744C149.054 22.7261 149.094 23.1772 149.224 23.4898C149.201 23.669 149.164 23.8478 149.16 24.0275ZM95.7796 46.0105C95.8842 47.0478 95.3139 47.7726 94.281 47.9581C93.1869 48.1547 92.3235 47.6608 92.1447 46.5681C91.824 44.6091 91.656 42.6241 91.4565 40.6467C91.3021 39.1174 91.1967 37.5832 91.0696 36.0511C90.5468 31.3445 90.0253 26.6378 89.5049 21.931C89.4116 21.0792 89.3644 20.2224 89.2959 19.368C89.0914 17.5765 88.9011 15.7833 88.6675 13.9956C88.6316 13.7212 88.3962 13.4729 88.2531 13.2125C88.1506 13.457 88.0606 13.7064 87.9833 13.96C87.6384 15.3124 87.3057 16.6678 86.9688 18.0224C86.8964 18.3263 86.8239 18.6303 86.7515 18.9343L86.7957 19.0129L86.7257 19.082C85.5282 24.2744 84.3306 29.4667 83.1331 34.659C83.052 35.2396 82.9327 35.8142 82.7761 36.3792C82.4637 37.2927 81.7778 37.7436 80.7958 37.7294C80.358 37.7514 79.9267 37.6165 79.5795 37.3489C79.2323 37.0812 78.9921 36.6984 78.902 36.2694C78.7349 35.4734 78.6156 34.668 78.5448 33.8577C78.3933 33.1189 78.2165 32.3843 78.0948 31.6408C77.4245 27.5465 76.7618 23.4509 76.1065 19.3542C75.7338 17.2693 75.3789 15.1809 74.973 13.1024C74.8951 12.7035 74.6167 12.3437 74.4307 11.9659C74.1952 12.3181 73.9972 12.6941 73.8401 13.0876C73.342 14.8236 72.8907 16.5731 72.4224 18.3177C71.5813 21.7602 70.759 25.2074 69.8889 28.6426C69.5854 29.8405 68.7221 30.3913 67.7072 30.1744C66.6771 29.9541 66.0669 29.0344 66.3404 27.8963C67.0898 24.7775 67.8976 21.6727 68.6823 18.5624C69.353 15.9295 70.0236 13.2965 70.6942 10.6635L70.8504 10.3378L70.8364 10.3359C70.9192 10.0332 71.0215 9.73612 71.1426 9.44658C71.9675 7.76384 73.1633 6.95316 74.6078 7.07353C76.0892 7.19698 77.259 8.41524 77.7679 10.3645L77.7622 10.3657L77.896 10.6554C78.3775 13.3876 78.8591 16.1197 79.3406 18.8518C79.849 21.2346 80.3525 23.6184 80.8712 25.9989C80.9601 26.3153 81.069 26.6258 81.1974 26.9283C81.3485 26.6214 81.4754 26.3032 81.5769 25.9765C82.1481 23.5133 82.6998 21.0455 83.2577 18.5791C83.8774 15.7631 84.4971 12.9471 85.1169 10.1311C85.16 9.91754 85.2032 9.70401 85.2463 9.49047C85.2825 9.34379 85.3186 9.19711 85.3547 9.05043C85.8668 6.57149 86.3446 4.08495 86.9065 1.61744C87.158 0.51316 87.9607 -0.0665522 89.111 0.00666957C90.2581 0.0797549 90.972 0.743174 91.0964 1.87828C91.4068 4.71056 91.6597 7.54909 91.9357 10.3851C92.1941 13.3873 92.4525 16.3895 92.7108 19.3918C93.2645 23.7694 93.8285 28.1457 94.3652 32.5254C94.508 33.6901 94.5671 34.8651 94.6646 36.0353C95.0412 39.3599 95.4438 42.6818 95.7796 46.0105ZM128.079 5.73145C128.058 4.51434 127.304 3.81491 126.224 3.82277C125.132 3.83066 124.405 4.53484 124.387 5.74404C124.36 7.5579 124.409 9.37289 124.426 11.1874C124.313 12.954 124.313 12.9535 122.551 12.5727C122.331 12.5251 122.11 12.4691 121.887 12.4438C119.177 12.1366 116.645 12.3623 114.864 14.8116C114.56 15.1962 114.296 15.6109 114.075 16.0492C113.074 18.648 113.116 21.3303 113.523 24.0328L113.611 24.5759C113.878 25.2485 114.145 25.9211 114.412 26.5938L114.432 26.6691L114.494 26.7819C114.867 27.4969 115.383 28.1274 116.01 28.6342C116.637 29.1409 117.362 29.513 118.14 29.7273C121.379 30.6203 124.397 29.9483 127.208 28.224C127.545 28.017 127.716 27.5391 127.964 27.1868L128.03 27.1428L127.984 27.0798C127.989 26.5246 127.994 25.9695 127.998 25.4142C128.001 22.137 128.003 18.8598 128.005 15.5825L127.999 10.8986C128.031 9.17615 128.11 7.45282 128.079 5.73145ZM122.742 26.2118C121.243 26.6354 119.815 26.6191 118.407 25.9353L117.848 25.4039L117.637 25.1047L117.378 24.751L117.418 24.6933C117.313 22.7989 117.045 20.896 117.144 19.0124C117.26 16.811 118.592 15.8176 120.805 15.9051C124.048 16.0334 124.357 16.3583 124.367 19.583C124.372 21.0813 124.406 22.5795 124.427 24.0777C124.579 25.354 123.875 25.8914 122.742 26.2118ZM98.1976 14.7658C97.7801 15.3987 97.2202 15.9803 96.9706 16.6737C96.0749 19.1629 96.1658 21.7285 96.6104 24.297C97.029 26.9772 98.5718 28.829 101.093 29.6225C103.956 30.524 106.833 30.3749 109.503 28.7739C109.541 28.7509 109.598 28.7193 109.603 28.6857C109.703 27.9566 109.952 27.1962 109.817 26.5115C109.762 26.2287 108.877 25.9386 108.377 25.9521C107.585 25.9735 106.801 26.2529 106.012 26.4132C102.458 27.1351 100.829 26.611 99.9534 23.3181C100.323 23.111 100.69 22.7319 101.063 22.7244C103.638 22.6723 106.214 22.6899 108.789 22.702C109.921 22.7075 110.835 22.2776 110.972 21.1181C111.242 18.8345 111.092 16.5966 109.392 14.7763C106.693 11.4607 100.988 11.4554 98.1976 14.7658ZM106.39 19.7028C104.756 19.6347 103.117 19.704 101.481 19.6717C101.02 19.6626 100.176 19.5249 100.168 19.4051C100.128 18.7677 100.074 17.9017 100.444 17.5165C101.191 16.7374 102.208 16.2168 103.114 15.5896L103.665 15.5606C105.986 15.8349 107.052 16.692 107.39 18.4839C107.552 19.3381 107.38 19.744 106.39 19.7028ZM135.574 7.14287C135.571 7.6798 135.357 8.19388 134.977 8.57372C134.598 8.95356 134.084 9.16857 133.547 9.17216C133.01 9.17575 132.493 8.96764 132.109 8.59291C131.724 8.21818 131.503 7.70701 131.492 7.17017C131.483 6.89768 131.529 6.62615 131.627 6.3716C131.724 6.11705 131.872 5.88463 132.061 5.68806C132.25 5.49149 132.476 5.33476 132.727 5.22709C132.977 5.11943 133.247 5.06302 133.519 5.06119C133.792 5.05937 134.062 5.11217 134.314 5.21647C134.566 5.32078 134.794 5.47448 134.986 5.6685C135.177 5.86252 135.328 6.09295 135.429 6.34617C135.53 6.59939 135.58 6.87028 135.574 7.14287ZM135.221 25.9468L135.222 25.3822L135.227 14.76C135.215 13.3615 134.656 12.6079 133.598 12.5628C132.514 12.5167 131.799 13.3013 131.759 14.6114C131.746 15.016 131.794 15.4224 131.814 15.828C131.816 19.0168 131.818 22.2056 131.819 25.3943C131.805 26.3468 131.592 27.3563 131.843 28.2328C132.029 28.8849 132.747 29.6845 133.361 29.8207C133.858 29.931 134.658 29.2451 135.119 28.7292C135.372 28.4455 135.201 27.7834 135.221 27.2919C135.221 26.8435 135.221 26.3951 135.221 25.9468Z" fill="black"/>
<path d="M152.797 26.3415C152.717 25.3022 152.746 24.2547 152.727 23.2109C152.745 21.7312 152.868 20.2427 152.749 18.7741C152.653 17.599 152.263 16.448 152.003 15.2862C151.503 13.9336 150.408 13.2192 149.134 12.8149C146.396 11.9462 143.692 12.1728 141.061 13.3024C140.034 13.7435 139.647 14.4891 140.029 15.5764C140.543 16.8277 141.507 16.617 142.541 16.4209C143.911 16.1611 145.303 15.8476 146.683 15.8601C148.288 15.8745 149.016 16.8051 149.142 18.3875C149.206 19.1917 149.042 19.5184 148.109 19.3894C146.767 19.166 145.405 19.0938 144.047 19.1743C141.64 19.3893 139.685 20.396 138.931 22.9406C137.86 26.4049 140.042 29.5584 143.843 30.0125C146.387 30.3196 148.966 29.8952 151.277 28.7889C152.361 28.2838 152.889 27.5606 152.797 26.3415ZM149.16 24.0275C149.109 26.2529 148.77 26.6074 146.505 26.755C146.052 26.786 145.598 26.7903 145.145 26.7681C142.985 26.6548 142.258 25.7734 142.42 23.489C143.681 22.11 147.266 21.5675 148.82 22.5744C149.054 22.7261 149.094 23.1772 149.224 23.4898C149.201 23.669 149.164 23.8478 149.16 24.0275ZM95.7796 46.0105C95.8842 47.0478 95.3139 47.7726 94.281 47.9581C93.1869 48.1547 92.3235 47.6608 92.1447 46.5681C91.824 44.6091 91.656 42.6241 91.4565 40.6467C91.3021 39.1174 91.1967 37.5832 91.0696 36.0511C90.5468 31.3445 90.0253 26.6378 89.5049 21.931C89.4116 21.0792 89.3644 20.2224 89.2959 19.368C89.0914 17.5765 88.9011 15.7833 88.6675 13.9956C88.6316 13.7212 88.3962 13.4729 88.2531 13.2125C88.1506 13.457 88.0606 13.7064 87.9833 13.96C87.6384 15.3124 87.3057 16.6678 86.9688 18.0224C86.8964 18.3263 86.8239 18.6303 86.7515 18.9343L86.7957 19.0129L86.7257 19.082C85.5282 24.2744 84.3306 29.4667 83.1331 34.659C83.052 35.2396 82.9327 35.8142 82.7761 36.3792C82.4637 37.2927 81.7778 37.7436 80.7958 37.7294C80.358 37.7514 79.9267 37.6165 79.5795 37.3489C79.2323 37.0812 78.9921 36.6984 78.902 36.2694C78.7349 35.4734 78.6156 34.668 78.5448 33.8577C78.3933 33.1189 78.2165 32.3843 78.0948 31.6408C77.4245 27.5465 76.7618 23.4509 76.1065 19.3542C75.7338 17.2693 75.3789 15.1809 74.973 13.1024C74.8951 12.7035 74.6167 12.3437 74.4307 11.9659C74.1952 12.3181 73.9972 12.6941 73.8401 13.0876C73.342 14.8236 72.8907 16.5731 72.4224 18.3177C71.5813 21.7602 70.759 25.2074 69.8889 28.6426C69.5854 29.8405 68.7221 30.3913 67.7072 30.1744C66.6771 29.9541 66.0669 29.0344 66.3404 27.8963C67.0898 24.7775 67.8976 21.6727 68.6823 18.5624C69.353 15.9295 70.0236 13.2965 70.6942 10.6635L70.8504 10.3378L70.8364 10.3359C70.9192 10.0332 71.0215 9.73612 71.1426 9.44658C71.9675 7.76384 73.1633 6.95316 74.6078 7.07353C76.0892 7.19698 77.259 8.41524 77.7679 10.3645L77.7622 10.3657L77.896 10.6554C78.3775 13.3876 78.8591 16.1197 79.3406 18.8518C79.849 21.2346 80.3525 23.6184 80.8712 25.9989C80.9601 26.3153 81.069 26.6258 81.1974 26.9283C81.3485 26.6214 81.4754 26.3032 81.5769 25.9765C82.1481 23.5133 82.6998 21.0455 83.2577 18.5791C83.8774 15.7631 84.4971 12.9471 85.1169 10.1311C85.16 9.91754 85.2032 9.70401 85.2463 9.49047C85.2825 9.34379 85.3186 9.19711 85.3547 9.05043C85.8668 6.57149 86.3446 4.08495 86.9065 1.61744C87.158 0.51316 87.9607 -0.0665522 89.111 0.00666957C90.2581 0.0797549 90.972 0.743174 91.0964 1.87828C91.4068 4.71056 91.6597 7.54909 91.9357 10.3851C92.1941 13.3873 92.4525 16.3895 92.7108 19.3918C93.2645 23.7694 93.8285 28.1457 94.3652 32.5254C94.508 33.6901 94.5671 34.8651 94.6646 36.0353C95.0412 39.3599 95.4438 42.6818 95.7796 46.0105ZM128.079 5.73145C128.058 4.51434 127.304 3.81491 126.224 3.82277C125.132 3.83066 124.405 4.53484 124.387 5.74404C124.36 7.5579 124.409 9.37289 124.426 11.1874C124.313 12.954 124.313 12.9535 122.551 12.5727C122.331 12.5251 122.11 12.4691 121.887 12.4438C119.177 12.1366 116.645 12.3623 114.864 14.8116C114.56 15.1962 114.296 15.6109 114.075 16.0492C113.074 18.648 113.116 21.3303 113.523 24.0328L113.611 24.5759C113.878 25.2485 114.145 25.9211 114.412 26.5938L114.432 26.6691L114.494 26.7819C114.867 27.4969 115.383 28.1274 116.01 28.6342C116.637 29.1409 117.362 29.513 118.14 29.7273C121.379 30.6203 124.397 29.9483 127.208 28.224C127.545 28.017 127.716 27.5391 127.964 27.1868L128.03 27.1428L127.984 27.0798C127.989 26.5246 127.994 25.9695 127.998 25.4142C128.001 22.137 128.003 18.8598 128.005 15.5825L127.999 10.8986C128.031 9.17615 128.11 7.45282 128.079 5.73145ZM122.742 26.2118C121.243 26.6354 119.815 26.6191 118.407 25.9353L117.848 25.4039L117.637 25.1047L117.378 24.751L117.418 24.6933C117.313 22.7989 117.045 20.896 117.144 19.0124C117.26 16.811 118.592 15.8176 120.805 15.9051C124.048 16.0334 124.357 16.3583 124.367 19.583C124.372 21.0813 124.406 22.5795 124.427 24.0777C124.579 25.354 123.875 25.8914 122.742 26.2118ZM98.1976 14.7658C97.7801 15.3987 97.2202 15.9803 96.9706 16.6737C96.0749 19.1629 96.1658 21.7285 96.6104 24.297C97.029 26.9772 98.5718 28.829 101.093 29.6225C103.956 30.524 106.833 30.3749 109.503 28.7739C109.541 28.7509 109.598 28.7193 109.603 28.6857C109.703 27.9566 109.952 27.1962 109.817 26.5115C109.762 26.2287 108.877 25.9386 108.377 25.9521C107.585 25.9735 106.801 26.2529 106.012 26.4132C102.458 27.1351 100.829 26.611 99.9534 23.3181C100.323 23.111 100.69 22.7319 101.063 22.7244C103.638 22.6723 106.214 22.6899 108.789 22.702C109.921 22.7075 110.835 22.2776 110.972 21.1181C111.242 18.8345 111.092 16.5966 109.392 14.7763C106.693 11.4607 100.988 11.4554 98.1976 14.7658ZM106.39 19.7028C104.756 19.6347 103.117 19.704 101.481 19.6717C101.02 19.6626 100.176 19.5249 100.168 19.4051C100.128 18.7677 100.074 17.9017 100.444 17.5165C101.191 16.7374 102.208 16.2168 103.114 15.5896L103.665 15.5606C105.986 15.8349 107.052 16.692 107.39 18.4839C107.552 19.3381 107.38 19.744 106.39 19.7028ZM135.574 7.14287C135.571 7.6798 135.357 8.19388 134.977 8.57372C134.598 8.95356 134.084 9.16857 133.547 9.17216C133.01 9.17575 132.493 8.96764 132.109 8.59291C131.724 8.21818 131.503 7.70701 131.492 7.17017C131.483 6.89768 131.529 6.62615 131.627 6.3716C131.724 6.11705 131.872 5.88463 132.061 5.68806C132.25 5.49149 132.476 5.33476 132.727 5.22709C132.977 5.11943 133.247 5.06302 133.519 5.06119C133.792 5.05937 134.062 5.11217 134.314 5.21647C134.566 5.32078 134.794 5.47448 134.986 5.6685C135.177 5.86252 135.328 6.09295 135.429 6.34617C135.53 6.59939 135.58 6.87028 135.574 7.14287ZM135.221 25.9468L135.222 25.3822L135.227 14.76C135.215 13.3615 134.656 12.6079 133.598 12.5628C132.514 12.5167 131.799 13.3013 131.759 14.6114C131.746 15.016 131.794 15.4224 131.814 15.828C131.816 19.0168 131.818 22.2056 131.819 25.3943C131.805 26.3468 131.592 27.3563 131.843 28.2328C132.029 28.8849 132.747 29.6845 133.361 29.8207C133.858 29.931 134.658 29.2451 135.119 28.7292C135.372 28.4455 135.201 27.7834 135.221 27.2919C135.221 26.8435 135.221 26.3951 135.221 25.9468Z" fill="#4C3C90"/>
</g>
</svg>
