<svg width="153" height="48" viewBox="0 0 153 48" fill="none" xmlns="http://www.w3.org/2000/svg">
<g style="mix-blend-mode:color">
<path fill-rule="evenodd" clip-rule="evenodd" d="M67.5027 25.2821C66.5762 26.6849 65.2843 27.3759 63.6098 27.3759C62.5651 27.3759 61.7686 27.0291 61.1886 26.3404C60.6108 25.6468 60.3206 24.6767 60.3206 23.4216C60.3206 21.4477 60.8174 19.8105 61.8153 18.506C62.8072 17.1891 64.0362 16.5457 65.4871 16.5457C67.7537 16.5457 68.8864 17.8592 68.8864 20.4821C68.8864 22.2827 68.4188 23.8983 67.5027 25.2821ZM71.3669 15.3152C70.0445 14.1123 68.2836 13.5057 66.0884 13.5057C62.7283 13.5057 60.1096 14.6372 58.2438 16.9353C56.6535 18.8635 55.8607 21.1891 55.8607 23.8845C55.8607 25.8265 56.518 27.3948 57.8288 28.5997C59.1367 29.8135 60.8946 30.4121 63.0984 30.4121C66.4514 30.4121 69.0731 29.272 70.9614 26.9673C72.5493 25.0496 73.3474 22.7392 73.3474 20.0348C73.3474 18.1033 72.6878 16.526 71.3669 15.3152Z" fill="black"/>
<path fill-rule="evenodd" clip-rule="evenodd" d="M67.5027 25.2821C66.5762 26.6849 65.2843 27.3759 63.6098 27.3759C62.5651 27.3759 61.7686 27.0291 61.1886 26.3404C60.6108 25.6468 60.3206 24.6767 60.3206 23.4216C60.3206 21.4477 60.8174 19.8105 61.8153 18.506C62.8072 17.1891 64.0362 16.5457 65.4871 16.5457C67.7537 16.5457 68.8864 17.8592 68.8864 20.4821C68.8864 22.2827 68.4188 23.8983 67.5027 25.2821ZM71.3669 15.3152C70.0445 14.1123 68.2836 13.5057 66.0884 13.5057C62.7283 13.5057 60.1096 14.6372 58.2438 16.9353C56.6535 18.8635 55.8607 21.1891 55.8607 23.8845C55.8607 25.8265 56.518 27.3948 57.8288 28.5997C59.1367 29.8135 60.8946 30.4121 63.0984 30.4121C66.4514 30.4121 69.0731 29.272 70.9614 26.9673C72.5493 25.0496 73.3474 22.7392 73.3474 20.0348C73.3474 18.1033 72.6878 16.526 71.3669 15.3152Z" fill="#4C3C90"/>
<path fill-rule="evenodd" clip-rule="evenodd" d="M92.6099 15.0496C91.3019 16.0792 90.6459 17.4365 90.6459 19.1236C90.6459 21.2538 91.9075 22.6324 94.4171 23.24L96.1547 23.668C96.9483 23.8592 97.4891 24.049 97.7723 24.2313C98.1411 24.4684 98.3291 24.8207 98.3291 25.2736C98.3291 25.8782 98.0291 26.3724 97.4475 26.7705C96.8579 27.1791 96.0643 27.3759 95.0795 27.3759C93.3083 27.3759 91.4619 26.8185 89.5339 25.694L88.8603 29.2494C90.8779 30.03 92.9547 30.4121 95.0987 30.4121C97.4075 30.4121 99.2251 29.8775 100.548 28.7932C101.876 27.713 102.543 26.2931 102.543 24.5547C102.543 22.4084 101.152 20.9892 98.3643 20.3016L96.6363 19.8793C95.8891 19.6944 95.3867 19.5203 95.1307 19.3435C94.7987 19.13 94.6339 18.8218 94.6339 18.4069C94.6339 17.834 94.9243 17.3829 95.5139 17.0458C96.0891 16.7102 96.9163 16.5457 97.9755 16.5457C99.5203 16.5457 101.12 16.9484 102.789 17.754L103.456 14.3087C101.527 13.7736 99.6699 13.5057 97.8851 13.5057C95.6723 13.5057 93.9107 14.0181 92.6099 15.0496Z" fill="black"/>
<path fill-rule="evenodd" clip-rule="evenodd" d="M92.6099 15.0496C91.3019 16.0792 90.6459 17.4365 90.6459 19.1236C90.6459 21.2538 91.9075 22.6324 94.4171 23.24L96.1547 23.668C96.9483 23.8592 97.4891 24.049 97.7723 24.2313C98.1411 24.4684 98.3291 24.8207 98.3291 25.2736C98.3291 25.8782 98.0291 26.3724 97.4475 26.7705C96.8579 27.1791 96.0643 27.3759 95.0795 27.3759C93.3083 27.3759 91.4619 26.8185 89.5339 25.694L88.8603 29.2494C90.8779 30.03 92.9547 30.4121 95.0987 30.4121C97.4075 30.4121 99.2251 29.8775 100.548 28.7932C101.876 27.713 102.543 26.2931 102.543 24.5547C102.543 22.4084 101.152 20.9892 98.3643 20.3016L96.6363 19.8793C95.8891 19.6944 95.3867 19.5203 95.1307 19.3435C94.7987 19.13 94.6339 18.8218 94.6339 18.4069C94.6339 17.834 94.9243 17.3829 95.5139 17.0458C96.0891 16.7102 96.9163 16.5457 97.9755 16.5457C99.5203 16.5457 101.12 16.9484 102.789 17.754L103.456 14.3087C101.527 13.7736 99.6699 13.5057 97.8851 13.5057C95.6723 13.5057 93.9107 14.0181 92.6099 15.0496Z" fill="#4C3C90"/>
<path fill-rule="evenodd" clip-rule="evenodd" d="M123.444 13.6593H118.348L111.385 19.5201L112.537 13.6593H108.316L105.126 29.9585H109.346L110.701 23.0241L110.892 23.385L114.208 27.5138C115.019 28.3182 115.552 29.9585 119.713 29.9585H121.138L114.064 21.5778L123.444 13.6593Z" fill="black"/>
<path fill-rule="evenodd" clip-rule="evenodd" d="M123.444 13.6593H118.348L111.385 19.5201L112.537 13.6593H108.316L105.126 29.9585H109.346L110.701 23.0241L110.892 23.385L114.208 27.5138C115.019 28.3182 115.552 29.9585 119.713 29.9585H121.138L114.064 21.5778L123.444 13.6593Z" fill="#4C3C90"/>
<path fill-rule="evenodd" clip-rule="evenodd" d="M132.744 24.0306C132.579 24.0306 129.919 24.0306 129.262 24.0306C128.717 24.0306 128.272 24.175 128.174 24.3693C128.207 24.2952 131.764 17.7475 131.764 17.7475L132.756 24.0306H132.744ZM134.881 13.6593H130.059L120.802 29.9585H125.14L126.752 26.9921H130.183C132.464 26.9921 132.963 24.5661 132.963 24.5661L133.76 29.9585H137.782L134.881 13.6593Z" fill="black"/>
<path fill-rule="evenodd" clip-rule="evenodd" d="M132.744 24.0306C132.579 24.0306 129.919 24.0306 129.262 24.0306C128.717 24.0306 128.272 24.175 128.174 24.3693C128.207 24.2952 131.764 17.7475 131.764 17.7475L132.756 24.0306H132.744ZM134.881 13.6593H130.059L120.802 29.9585H125.14L126.752 26.9921H130.183C132.464 26.9921 132.963 24.5661 132.963 24.5661L133.76 29.9585H137.782L134.881 13.6593Z" fill="#4C3C90"/>
<path fill-rule="evenodd" clip-rule="evenodd" d="M49.7104 18.946C49.362 20.7458 47.7576 21.612 44.7134 21.612H43.8687L44.911 16.2029H45.9746C48.931 16.2029 50.0779 17.0413 49.7104 18.946ZM52.0028 14.4705C50.7708 13.9145 48.9909 13.6593 46.3314 13.6593H41.4622L38.3172 29.9585H42.6214L43.7011 24.3693H44.6654C46.9274 24.3693 48.8669 24.0924 50.1385 23.593C52.386 22.7064 53.8952 21.0033 54.2896 18.9485C54.6713 16.9865 53.8119 15.3277 52.0028 14.4705Z" fill="black"/>
<path fill-rule="evenodd" clip-rule="evenodd" d="M49.7104 18.946C49.362 20.7458 47.7576 21.612 44.7134 21.612H43.8687L44.911 16.2029H45.9746C48.931 16.2029 50.0779 17.0413 49.7104 18.946ZM52.0028 14.4705C50.7708 13.9145 48.9909 13.6593 46.3314 13.6593H41.4622L38.3172 29.9585H42.6214L43.7011 24.3693H44.6654C46.9274 24.3693 48.8669 24.0924 50.1385 23.593C52.386 22.7064 53.8952 21.0033 54.2896 18.9485C54.6713 16.9865 53.8119 15.3277 52.0028 14.4705Z" fill="#4C3C90"/>
<path fill-rule="evenodd" clip-rule="evenodd" d="M79.7189 26.8672L82.3299 13.5057H78.0666L74.8507 29.9586H85.7643L86.3715 26.7444C86.3715 26.7444 81.3251 26.7444 81.0211 26.7444C80.3531 26.7444 79.7189 26.8672 79.7189 26.8672Z" fill="black"/>
<path fill-rule="evenodd" clip-rule="evenodd" d="M79.7189 26.8672L82.3299 13.5057H78.0666L74.8507 29.9586H85.7643L86.3715 26.7444C86.3715 26.7444 81.3251 26.7444 81.0211 26.7444C80.3531 26.7444 79.7189 26.8672 79.7189 26.8672Z" fill="#4C3C90"/>
<path fill-rule="evenodd" clip-rule="evenodd" d="M94.1595 37.1155H97.2075L93.3051 40.9555L93.1243 41.9017H98.3523L98.5859 40.7497C98.5859 40.7497 95.6483 40.7497 95.5315 40.7497C95.4147 40.7497 95.3059 40.7899 95.3059 40.7899L99.2475 36.9019L99.4379 35.9564H94.3843L94.1595 37.1155ZM132.498 37.1155H134.265L133.325 41.9017H134.878L135.81 37.1155H137.553L137.782 35.9564H132.733L132.498 37.1155ZM90.5347 39.7186C90.4731 39.7186 89.4995 39.7186 89.2643 39.7186C89.0667 39.7186 88.9003 39.7722 88.8643 39.8355C88.8731 39.8161 90.1763 37.4228 90.1763 37.4228L90.5347 39.7186ZM89.5499 35.9285L86.1771 41.8804H87.7571L88.3483 40.7985H89.5971C90.4275 40.7985 90.6123 39.9099 90.6123 39.9099L90.9075 41.8804H92.3715L91.3139 35.9285H89.5499ZM145.316 35.9564L143.565 40.1153L143.527 40.343L143.297 35.9564H141.824L139.985 40.0877L139.935 40.279L139.926 40.0792L139.756 35.9564H138.322L138.577 41.9017H140.37L142.266 37.5099L142.292 37.3529L142.513 41.9017H144.269L146.856 35.9564H145.316ZM120.082 39.4831C120.031 39.7614 120.031 40.132 120.031 40.132C120.031 40.132 119.931 39.7402 119.832 39.4905C119.732 39.2368 118.43 35.9422 118.43 35.9422H116.803L115.659 41.8804H117.181C117.181 41.8804 117.715 38.7906 117.76 38.481C117.812 38.1815 117.819 37.7912 117.819 37.7912C117.819 37.7912 117.868 38.1547 117.992 38.465C118.095 38.7084 119.396 41.8804 119.396 41.8804H121.064L122.216 35.9422H120.674C120.674 35.9422 120.114 39.2796 120.082 39.4831ZM122.803 41.9017H124.351L125.523 35.9564H123.973L122.803 41.9017ZM103.96 40.1633C103.619 40.6741 103.144 40.9309 102.516 40.9309C102.132 40.9309 101.84 40.8036 101.627 40.5468C101.413 40.2928 101.309 39.9359 101.309 39.4764C101.309 38.7549 101.492 38.1547 101.857 37.6751C102.224 37.1969 102.685 36.9495 103.216 36.9495C104.056 36.9495 104.473 37.4418 104.473 38.401C104.473 39.0637 104.304 39.6487 103.96 40.1633ZM103.433 35.8392C102.201 35.8392 101.244 36.2585 100.556 37.0905C99.9707 37.8101 99.6787 38.6552 99.6787 39.6487C99.6787 40.356 99.9211 40.938 100.404 41.3815C100.883 41.8225 101.529 42.0457 102.337 42.0457C103.567 42.0457 104.535 41.6189 105.224 40.7825C105.804 40.0733 106.096 39.2278 106.096 38.2373C106.096 37.5266 105.856 36.9495 105.372 36.5004C104.893 36.0647 104.244 35.8392 103.433 35.8392ZM114.309 35.9564L112.557 40.1153L112.518 40.343L112.291 35.9564H110.813L108.98 40.0877L108.931 40.279L108.921 40.0792L108.752 35.9564H107.316L107.571 41.9017H109.364L111.257 37.5099L111.286 37.3529L111.508 41.9017H113.264L115.848 35.9564H114.309ZM83.2443 39.9262H84.1603L83.9739 40.8959C83.7515 40.951 83.6027 40.9729 83.3339 40.9729C82.1627 40.9729 81.5211 40.17 81.7499 38.986C81.9939 37.7112 83.0763 36.9287 84.5755 36.9287C85.1555 36.9287 85.6563 37.0042 86.2075 37.2055L86.4203 36.1335C85.7691 35.9162 85.1891 35.8247 84.5259 35.8247C82.2315 35.8247 80.4355 37.0872 80.0717 38.9662C79.7158 40.8219 80.9363 42.0762 83.1131 42.0762C83.8579 42.0762 84.7115 41.7707 85.3435 41.9453C85.6251 40.5551 85.9307 38.8557 85.9307 38.8557L83.4571 38.858L83.2443 39.9262ZM59.7494 40.7899L60.0828 38.9662L61.5206 38.3385L61.7776 37.1233L60.3185 37.7513L60.6886 35.9564H59.1406L58.6424 38.5216L57.9761 38.8122L57.7326 40.0472L58.4015 39.7402L57.9668 41.9017H62.2385L62.4596 40.7497C62.4596 40.7497 60.2281 40.7497 60.1717 40.7497C59.9697 40.7497 59.7494 40.7899 59.7494 40.7899ZM48.563 37.9345C48.4368 38.59 47.853 38.903 46.7446 38.903H46.4388L46.8182 36.9394H47.2033C48.2792 36.9394 48.6941 37.2397 48.563 37.9345ZM49.2857 36.2518C48.8349 36.0494 48.1873 35.9564 47.217 35.9564H45.4382L44.2898 41.9017H45.8632L46.2558 39.8675H46.6072C47.4351 39.8675 48.1429 39.7614 48.609 39.5761C49.4257 39.2587 49.9788 38.6336 50.1218 37.8857C50.2619 37.1705 49.9459 36.5614 49.2857 36.2518ZM150.236 39.7186C150.177 39.7186 149.208 39.7186 148.964 39.7186C148.77 39.7186 148.605 39.7722 148.566 39.8355C148.58 39.8161 149.874 37.4228 149.874 37.4228L150.237 39.7186H150.236ZM151.021 35.9285H149.256L145.875 41.8804H147.462L148.048 40.7985H149.301C150.128 40.7985 150.312 39.9099 150.312 39.9099L150.605 41.8804H152.072L151.021 35.9285ZM39.6435 36.4062C39.1617 36.7877 38.9286 37.2833 38.9286 37.9002C38.9286 38.6856 39.3839 39.1888 40.3053 39.4113L40.9361 39.5661C41.2251 39.6393 41.4257 39.7097 41.5287 39.7722C41.6632 39.8633 41.7353 39.9925 41.7353 40.1562C41.7353 40.3784 41.6251 40.561 41.407 40.7091C41.1941 40.8546 40.9058 40.9309 40.5386 40.9309C39.8889 40.9309 39.2095 40.7221 38.5059 40.3125L38.2575 41.6189C39.0007 41.9017 39.7611 42.0457 40.5454 42.0457C41.3921 42.0457 42.0621 41.8466 42.5509 41.4504C43.045 41.0585 43.2851 40.5413 43.2851 39.8965C43.2851 39.1088 42.7694 38.5871 41.7472 38.334L41.1142 38.1778C40.8453 38.1116 40.6604 38.0479 40.5674 37.978C40.4472 37.9054 40.3841 37.7912 40.3841 37.6341C40.3841 37.4281 40.4954 37.2621 40.7098 37.1422C40.923 37.0157 41.2251 36.9495 41.6142 36.9495C42.177 36.9495 42.7679 37.1009 43.3789 37.4009L43.6231 36.1373C42.9117 35.9389 42.2372 35.8392 41.5806 35.8392C40.7669 35.8392 40.1197 36.0319 39.6435 36.4062ZM127.046 37.1233C126.444 37.8291 126.141 38.6685 126.141 39.6327C126.141 40.353 126.384 40.9342 126.868 41.3778C127.346 41.8224 127.99 42.042 128.804 42.042C129.42 42.042 130.101 41.9099 130.84 41.6501L131.104 40.3188C130.376 40.7266 129.744 40.9309 129.217 40.9309C128.765 40.9309 128.412 40.7985 128.156 40.5413C127.898 40.2701 127.767 39.9099 127.767 39.4533C127.767 38.7374 127.98 38.1373 128.396 37.6654C128.821 37.191 129.332 36.9495 129.948 36.9495C130.529 36.9495 131.067 37.146 131.568 37.5229L131.813 36.2813C131.169 35.9888 130.535 35.8392 129.915 35.8392C128.729 35.8392 127.776 36.2708 127.046 37.1233ZM69.8901 35.9564H68.0339L65.4918 38.0922L65.9082 35.9564H64.3736L63.2043 41.9017H64.7463L65.2401 39.3718L65.311 39.5065L66.5202 41.0094C66.8134 41.3071 67.0147 41.9017 68.5306 41.9017H69.049L66.4669 38.8405L69.8901 35.9564ZM73.5563 39.7186C73.5021 39.7186 72.5285 39.7186 72.2913 39.7186C72.0953 39.7186 71.9287 39.7722 71.891 39.8355C71.9078 39.8161 73.2022 37.4228 73.2022 37.4228L73.5589 39.7186H73.5563ZM72.5838 35.9285L69.2029 41.8804H70.7845L71.3738 40.7985H72.6291C73.4563 40.7985 73.64 39.9099 73.64 39.9099L73.9313 41.8804H75.3994L74.341 35.9285H72.5838ZM54.917 40.1633C54.5734 40.6741 54.0928 40.9309 53.4706 40.9309C53.0897 40.9309 52.7958 40.8036 52.5791 40.5468C52.3671 40.2928 52.2621 39.9359 52.2621 39.4764C52.2621 38.7549 52.4421 38.1547 52.8111 37.6751C53.1815 37.1969 53.6338 36.9495 54.1694 36.9495C55.0097 36.9495 55.4246 37.4418 55.4246 38.401C55.4246 39.0637 55.2532 39.6487 54.917 40.1633ZM54.3851 35.8392C53.1531 35.8392 52.194 36.2585 51.5061 37.0905C50.9242 37.8101 50.633 38.6552 50.633 39.6487C50.633 40.356 50.8731 40.938 51.3552 41.3815C51.8337 41.8225 52.4801 42.0457 53.2875 42.0457C54.523 42.0457 55.485 41.6189 56.1804 40.7825C56.7615 40.0733 57.0543 39.2278 57.0543 38.2373C57.0543 37.5266 56.8134 36.9495 56.3261 36.5004C55.8424 36.0647 55.1963 35.8392 54.3851 35.8392Z" fill="black"/>
<path fill-rule="evenodd" clip-rule="evenodd" d="M94.1595 37.1155H97.2075L93.3051 40.9555L93.1243 41.9017H98.3523L98.5859 40.7497C98.5859 40.7497 95.6483 40.7497 95.5315 40.7497C95.4147 40.7497 95.3059 40.7899 95.3059 40.7899L99.2475 36.9019L99.4379 35.9564H94.3843L94.1595 37.1155ZM132.498 37.1155H134.265L133.325 41.9017H134.878L135.81 37.1155H137.553L137.782 35.9564H132.733L132.498 37.1155ZM90.5347 39.7186C90.4731 39.7186 89.4995 39.7186 89.2643 39.7186C89.0667 39.7186 88.9003 39.7722 88.8643 39.8355C88.8731 39.8161 90.1763 37.4228 90.1763 37.4228L90.5347 39.7186ZM89.5499 35.9285L86.1771 41.8804H87.7571L88.3483 40.7985H89.5971C90.4275 40.7985 90.6123 39.9099 90.6123 39.9099L90.9075 41.8804H92.3715L91.3139 35.9285H89.5499ZM145.316 35.9564L143.565 40.1153L143.527 40.343L143.297 35.9564H141.824L139.985 40.0877L139.935 40.279L139.926 40.0792L139.756 35.9564H138.322L138.577 41.9017H140.37L142.266 37.5099L142.292 37.3529L142.513 41.9017H144.269L146.856 35.9564H145.316ZM120.082 39.4831C120.031 39.7614 120.031 40.132 120.031 40.132C120.031 40.132 119.931 39.7402 119.832 39.4905C119.732 39.2368 118.43 35.9422 118.43 35.9422H116.803L115.659 41.8804H117.181C117.181 41.8804 117.715 38.7906 117.76 38.481C117.812 38.1815 117.819 37.7912 117.819 37.7912C117.819 37.7912 117.868 38.1547 117.992 38.465C118.095 38.7084 119.396 41.8804 119.396 41.8804H121.064L122.216 35.9422H120.674C120.674 35.9422 120.114 39.2796 120.082 39.4831ZM122.803 41.9017H124.351L125.523 35.9564H123.973L122.803 41.9017ZM103.96 40.1633C103.619 40.6741 103.144 40.9309 102.516 40.9309C102.132 40.9309 101.84 40.8036 101.627 40.5468C101.413 40.2928 101.309 39.9359 101.309 39.4764C101.309 38.7549 101.492 38.1547 101.857 37.6751C102.224 37.1969 102.685 36.9495 103.216 36.9495C104.056 36.9495 104.473 37.4418 104.473 38.401C104.473 39.0637 104.304 39.6487 103.96 40.1633ZM103.433 35.8392C102.201 35.8392 101.244 36.2585 100.556 37.0905C99.9707 37.8101 99.6787 38.6552 99.6787 39.6487C99.6787 40.356 99.9211 40.938 100.404 41.3815C100.883 41.8225 101.529 42.0457 102.337 42.0457C103.567 42.0457 104.535 41.6189 105.224 40.7825C105.804 40.0733 106.096 39.2278 106.096 38.2373C106.096 37.5266 105.856 36.9495 105.372 36.5004C104.893 36.0647 104.244 35.8392 103.433 35.8392ZM114.309 35.9564L112.557 40.1153L112.518 40.343L112.291 35.9564H110.813L108.98 40.0877L108.931 40.279L108.921 40.0792L108.752 35.9564H107.316L107.571 41.9017H109.364L111.257 37.5099L111.286 37.3529L111.508 41.9017H113.264L115.848 35.9564H114.309ZM83.2443 39.9262H84.1603L83.9739 40.8959C83.7515 40.951 83.6027 40.9729 83.3339 40.9729C82.1627 40.9729 81.5211 40.17 81.7499 38.986C81.9939 37.7112 83.0763 36.9287 84.5755 36.9287C85.1555 36.9287 85.6563 37.0042 86.2075 37.2055L86.4203 36.1335C85.7691 35.9162 85.1891 35.8247 84.5259 35.8247C82.2315 35.8247 80.4355 37.0872 80.0717 38.9662C79.7158 40.8219 80.9363 42.0762 83.1131 42.0762C83.8579 42.0762 84.7115 41.7707 85.3435 41.9453C85.6251 40.5551 85.9307 38.8557 85.9307 38.8557L83.4571 38.858L83.2443 39.9262ZM59.7494 40.7899L60.0828 38.9662L61.5206 38.3385L61.7776 37.1233L60.3185 37.7513L60.6886 35.9564H59.1406L58.6424 38.5216L57.9761 38.8122L57.7326 40.0472L58.4015 39.7402L57.9668 41.9017H62.2385L62.4596 40.7497C62.4596 40.7497 60.2281 40.7497 60.1717 40.7497C59.9697 40.7497 59.7494 40.7899 59.7494 40.7899ZM48.563 37.9345C48.4368 38.59 47.853 38.903 46.7446 38.903H46.4388L46.8182 36.9394H47.2033C48.2792 36.9394 48.6941 37.2397 48.563 37.9345ZM49.2857 36.2518C48.8349 36.0494 48.1873 35.9564 47.217 35.9564H45.4382L44.2898 41.9017H45.8632L46.2558 39.8675H46.6072C47.4351 39.8675 48.1429 39.7614 48.609 39.5761C49.4257 39.2587 49.9788 38.6336 50.1218 37.8857C50.2619 37.1705 49.9459 36.5614 49.2857 36.2518ZM150.236 39.7186C150.177 39.7186 149.208 39.7186 148.964 39.7186C148.77 39.7186 148.605 39.7722 148.566 39.8355C148.58 39.8161 149.874 37.4228 149.874 37.4228L150.237 39.7186H150.236ZM151.021 35.9285H149.256L145.875 41.8804H147.462L148.048 40.7985H149.301C150.128 40.7985 150.312 39.9099 150.312 39.9099L150.605 41.8804H152.072L151.021 35.9285ZM39.6435 36.4062C39.1617 36.7877 38.9286 37.2833 38.9286 37.9002C38.9286 38.6856 39.3839 39.1888 40.3053 39.4113L40.9361 39.5661C41.2251 39.6393 41.4257 39.7097 41.5287 39.7722C41.6632 39.8633 41.7353 39.9925 41.7353 40.1562C41.7353 40.3784 41.6251 40.561 41.407 40.7091C41.1941 40.8546 40.9058 40.9309 40.5386 40.9309C39.8889 40.9309 39.2095 40.7221 38.5059 40.3125L38.2575 41.6189C39.0007 41.9017 39.7611 42.0457 40.5454 42.0457C41.3921 42.0457 42.0621 41.8466 42.5509 41.4504C43.045 41.0585 43.2851 40.5413 43.2851 39.8965C43.2851 39.1088 42.7694 38.5871 41.7472 38.334L41.1142 38.1778C40.8453 38.1116 40.6604 38.0479 40.5674 37.978C40.4472 37.9054 40.3841 37.7912 40.3841 37.6341C40.3841 37.4281 40.4954 37.2621 40.7098 37.1422C40.923 37.0157 41.2251 36.9495 41.6142 36.9495C42.177 36.9495 42.7679 37.1009 43.3789 37.4009L43.6231 36.1373C42.9117 35.9389 42.2372 35.8392 41.5806 35.8392C40.7669 35.8392 40.1197 36.0319 39.6435 36.4062ZM127.046 37.1233C126.444 37.8291 126.141 38.6685 126.141 39.6327C126.141 40.353 126.384 40.9342 126.868 41.3778C127.346 41.8224 127.99 42.042 128.804 42.042C129.42 42.042 130.101 41.9099 130.84 41.6501L131.104 40.3188C130.376 40.7266 129.744 40.9309 129.217 40.9309C128.765 40.9309 128.412 40.7985 128.156 40.5413C127.898 40.2701 127.767 39.9099 127.767 39.4533C127.767 38.7374 127.98 38.1373 128.396 37.6654C128.821 37.191 129.332 36.9495 129.948 36.9495C130.529 36.9495 131.067 37.146 131.568 37.5229L131.813 36.2813C131.169 35.9888 130.535 35.8392 129.915 35.8392C128.729 35.8392 127.776 36.2708 127.046 37.1233ZM69.8901 35.9564H68.0339L65.4918 38.0922L65.9082 35.9564H64.3736L63.2043 41.9017H64.7463L65.2401 39.3718L65.311 39.5065L66.5202 41.0094C66.8134 41.3071 67.0147 41.9017 68.5306 41.9017H69.049L66.4669 38.8405L69.8901 35.9564ZM73.5563 39.7186C73.5021 39.7186 72.5285 39.7186 72.2913 39.7186C72.0953 39.7186 71.9287 39.7722 71.891 39.8355C71.9078 39.8161 73.2022 37.4228 73.2022 37.4228L73.5589 39.7186H73.5563ZM72.5838 35.9285L69.2029 41.8804H70.7845L71.3738 40.7985H72.6291C73.4563 40.7985 73.64 39.9099 73.64 39.9099L73.9313 41.8804H75.3994L74.341 35.9285H72.5838ZM54.917 40.1633C54.5734 40.6741 54.0928 40.9309 53.4706 40.9309C53.0897 40.9309 52.7958 40.8036 52.5791 40.5468C52.3671 40.2928 52.2621 39.9359 52.2621 39.4764C52.2621 38.7549 52.4421 38.1547 52.8111 37.6751C53.1815 37.1969 53.6338 36.9495 54.1694 36.9495C55.0097 36.9495 55.4246 37.4418 55.4246 38.401C55.4246 39.0637 55.2532 39.6487 54.917 40.1633ZM54.3851 35.8392C53.1531 35.8392 52.194 36.2585 51.5061 37.0905C50.9242 37.8101 50.633 38.6552 50.633 39.6487C50.633 40.356 50.8731 40.938 51.3552 41.3815C51.8337 41.8225 52.4801 42.0457 53.2875 42.0457C54.523 42.0457 55.485 41.6189 56.1804 40.7825C56.7615 40.0733 57.0543 39.2278 57.0543 38.2373C57.0543 37.5266 56.8134 36.9495 56.3261 36.5004C55.8424 36.0647 55.1963 35.8392 54.3851 35.8392Z" fill="#4C3C90"/>
<path fill-rule="evenodd" clip-rule="evenodd" d="M55.3402 35.0413C55.5698 34.8236 55.8323 34.3205 55.9074 33.8867H54.6705C54.5995 34.2863 54.1626 35.1451 53.9411 35.3535H54.5342C54.7434 35.3535 55.1 35.2619 55.3402 35.0413Z" fill="black"/>
<path fill-rule="evenodd" clip-rule="evenodd" d="M55.3402 35.0413C55.5698 34.8236 55.8323 34.3205 55.9074 33.8867H54.6705C54.5995 34.2863 54.1626 35.1451 53.9411 35.3535H54.5342C54.7434 35.3535 55.1 35.2619 55.3402 35.0413Z" fill="#4C3C90"/>
<path fill-rule="evenodd" clip-rule="evenodd" d="M24.1137 22.2422C23.0082 20.2921 20.8567 17.7019 20.0546 16.4922C16.3367 10.8852 20.8063 3.95864 20.8063 3.95864C20.8063 3.95864 20.621 5.68739 21.1902 8.51645C21.5603 10.3538 22.6322 11.6119 23.8826 13.0605C24.6104 13.9013 25.3809 14.8301 25.8989 16.3977C26.2047 17.3272 26.381 18.896 26.2667 20.0919C26.0785 22.0613 25.7357 23.2424 25.413 23.7559C25.2072 24.0888 25.0037 24.1949 25.0037 24.1949C25.0037 24.1949 24.7744 23.4072 24.1137 22.2422Z" fill="black"/>
<path fill-rule="evenodd" clip-rule="evenodd" d="M24.1137 22.2422C23.0082 20.2921 20.8567 17.7019 20.0546 16.4922C16.3367 10.8852 20.8063 3.95864 20.8063 3.95864C20.8063 3.95864 20.621 5.68739 21.1902 8.51645C21.5603 10.3538 22.6322 11.6119 23.8826 13.0605C24.6104 13.9013 25.3809 14.8301 25.8989 16.3977C26.2047 17.3272 26.381 18.896 26.2667 20.0919C26.0785 22.0613 25.7357 23.2424 25.413 23.7559C25.2072 24.0888 25.0037 24.1949 25.0037 24.1949C25.0037 24.1949 24.7744 23.4072 24.1137 22.2422Z" fill="#4C3C90"/>
<path fill-rule="evenodd" clip-rule="evenodd" d="M16.7726 0.00483721C10.3105 3.16688 2.57906 12.7799 11.2845 27.0542C13.6564 30.9362 15.4718 34.0424 16.2322 36.6854C18.588 44.8662 14.4108 47.6622 14.4108 47.6622C14.4108 47.6622 23.4467 43.2752 24.1709 34.9526C24.3083 33.3775 23.9513 30.407 22.3831 27.3287C19.6803 22.0178 17.5837 20.8406 15.6686 15.6714C12.4456 6.95628 17.0426 0.0141395 16.789 0L16.7726 0.00483721Z" fill="black"/>
<path fill-rule="evenodd" clip-rule="evenodd" d="M16.7726 0.00483721C10.3105 3.16688 2.57906 12.7799 11.2845 27.0542C13.6564 30.9362 15.4718 34.0424 16.2322 36.6854C18.588 44.8662 14.4108 47.6622 14.4108 47.6622C14.4108 47.6622 23.4467 43.2752 24.1709 34.9526C24.3083 33.3775 23.9513 30.407 22.3831 27.3287C19.6803 22.0178 17.5837 20.8406 15.6686 15.6714C12.4456 6.95628 17.0426 0.0141395 16.789 0L16.7726 0.00483721Z" fill="#4C3C90"/>
<path fill-rule="evenodd" clip-rule="evenodd" d="M10.7802 44.8564C10.7802 44.8564 6.64378 43.544 3.35131 37.566C-3.93423 24.3329 4.06426 13.5057 4.06426 13.5057C4.06426 13.5057 2.68095 17.4737 4.47395 22.6563C6.02532 27.134 8.02895 29.6032 10.5177 34.2808C12.9863 38.9256 10.7802 44.8564 10.7802 44.8564Z" fill="black"/>
<path fill-rule="evenodd" clip-rule="evenodd" d="M10.7802 44.8564C10.7802 44.8564 6.64378 43.544 3.35131 37.566C-3.93423 24.3329 4.06426 13.5057 4.06426 13.5057C4.06426 13.5057 2.68095 17.4737 4.47395 22.6563C6.02532 27.134 8.02895 29.6032 10.5177 34.2808C12.9863 38.9256 10.7802 44.8564 10.7802 44.8564Z" fill="#4C3C90"/>
</g>
</svg>
