<svg width="65" height="64" viewBox="0 0 65 64" fill="none" xmlns="http://www.w3.org/2000/svg">
<g clip-path="url(#clip0_236_1237)">
<path d="M0.144165 0V64H64.1442V0H0.144165Z" fill="white"/>
<path d="M0.700684 0.556641H63.5876V63.4436H0.700684V0.556641Z" fill="#0050AA"/>
<path d="M32.1442 2.22607C26.2544 2.22497 20.4965 3.97044 15.5986 7.24175C10.7008 10.5131 6.88302 15.1633 4.62808 20.6044C2.37313 26.0454 1.78229 32.033 2.93028 37.8099C4.07827 43.5868 6.91353 48.8935 11.0775 53.059C15.2415 57.2245 20.5472 60.0617 26.3236 61.2118C32.1001 62.3619 38.0879 61.7732 43.5298 59.5203C48.9717 57.2673 53.6233 53.4512 56.8964 48.5546C60.1695 43.6579 61.9171 37.9007 61.9181 32.0108C61.9166 24.1138 58.7795 16.5405 53.1965 10.9554C47.6134 5.3703 40.0412 2.2305 32.1442 2.22607Z" fill="#E60A14"/>
<path fill-rule="evenodd" clip-rule="evenodd" d="M32.1442 4.10693C26.628 4.10693 21.2357 5.74254 16.6489 8.80696C12.0622 11.8714 8.48711 16.227 6.37564 21.3231C4.26417 26.4192 3.71114 32.027 4.7865 37.4373C5.86185 42.8477 8.51728 47.8178 12.4171 51.7191C16.3168 55.6204 21.2858 58.2779 26.6958 59.3554C32.1057 60.4329 37.7137 59.8821 42.8107 57.7727C47.9076 55.6632 52.2646 52.0898 55.3309 47.5043C58.3971 42.9189 60.0349 37.5271 60.0371 32.0109C60.0371 24.6123 57.0988 17.5165 51.8681 12.2838C46.6375 7.05106 39.5429 4.10988 32.1442 4.10693Z" fill="#FFF000"/>
<path fill-rule="evenodd" clip-rule="evenodd" d="M30.4134 32.7846L25.4882 27.8594L19.8116 33.547V35.4559L21.2419 34.0201L25.2043 37.9936L23.7407 39.4517L24.6923 40.4089L32.6172 32.4729V30.5696L30.4134 32.7846Z" fill="#E60A14"/>
<path fill-rule="evenodd" clip-rule="evenodd" d="M7.42346 26.8242H16.1942V28.7164H14.7306V34.8381L19.8116 32.011V37.1922H7.42346V35.2889H8.89268V28.7164H7.42346V26.8242ZM44.4043 26.8242V28.7164H45.8736V35.2889H44.4043V37.1922H56.8036V32.011L51.717 34.8381V28.7164H53.1862V26.8242H44.4043Z" fill="#0050AA"/>
<path fill-rule="evenodd" clip-rule="evenodd" d="M24.7647 20.9307C25.3826 20.9307 25.9867 21.1141 26.5004 21.4576C27.014 21.8012 27.4142 22.2894 27.6502 22.8606C27.8861 23.4317 27.9473 24.06 27.8259 24.666C27.7046 25.2719 27.4061 25.8282 26.9684 26.2644C26.5306 26.7005 25.9733 26.997 25.3669 27.1162C24.7606 27.2354 24.1325 27.172 23.5622 26.934C22.9919 26.696 22.5051 26.2941 22.1633 25.7792C21.8216 25.2643 21.6404 24.6596 21.6426 24.0416C21.6426 23.6322 21.7234 23.2267 21.8805 22.8486C22.0375 22.4704 22.2676 22.1269 22.5577 21.8379C22.8478 21.5489 23.192 21.32 23.5708 21.1643C23.9495 21.0086 24.3552 20.9292 24.7647 20.9307Z" fill="#E60A14"/>
<path d="M31.1702 26.8238V28.7162H32.6344V35.289H31.1539V37.1922H39.5018C45.7014 37.1922 45.7789 26.8237 39.5181 26.8237H31.1702L31.1702 26.8238ZM37.9267 30.052H38.2767C40.1077 30.052 40.1083 33.9477 38.3441 33.9477H37.9267V30.052Z" fill="#0050AA"/>
<g style="mix-blend-mode:color">
<path d="M0.144165 0V64H64.1442V0H0.144165Z" fill="black"/>
<path d="M0.144165 0V64H64.1442V0H0.144165Z" fill="#4C3C90"/>
</g>
</g>
<defs>
<clipPath id="clip0_236_1237">
<rect width="64" height="64" fill="white" transform="translate(0.144165)"/>
</clipPath>
</defs>
</svg>
