<svg width="268" height="310" viewBox="0 0 268 310" fill="none" xmlns="http://www.w3.org/2000/svg">
<path d="M266 2H268V0H266V2ZM2 2V0H0V2H2ZM266 92.75V94.75H268V92.75H266ZM266 175.25H268V173.25H266V175.25ZM266 266V268H268V266H266ZM175.25 266V264H173.25V266H175.25ZM92.75 266H94.75V264H92.75V266ZM2 266H0V268H2V266ZM266 0H2V4H266V0ZM268 92.75V2H264V92.75H268ZM226.75 134C226.75 112.323 244.323 94.75 266 94.75V90.75C242.114 90.75 222.75 110.114 222.75 134H226.75ZM266 173.25C244.323 173.25 226.75 155.677 226.75 134H222.75C222.75 157.886 242.114 177.25 266 177.25V173.25ZM268 266V175.25H264V266H268ZM175.25 268H266V264H175.25V268ZM134 309.25C157.886 309.25 177.25 289.886 177.25 266H173.25C173.25 287.677 155.677 305.25 134 305.25V309.25ZM90.75 266C90.75 289.886 110.114 309.25 134 309.25V305.25C112.323 305.25 94.75 287.677 94.75 266H90.75ZM2 268H92.75V264H2V268ZM0 2V266H4V2H0Z" fill="#4C3C90"/>
<path d="M28.208 58L28.24 34.96H32.144V49.04L38.464 40.72H43.28L36.576 49.36L43.856 58H38.752L32.144 49.68V58H28.208ZM52.1383 58.48C50.4103 58.48 48.9009 58.0907 47.6103 57.312C46.3196 56.5333 45.3169 55.4613 44.6023 54.096C43.8983 52.72 43.5463 51.1413 43.5463 49.36C43.5463 47.5467 43.9089 45.9573 44.6343 44.592C45.3596 43.2267 46.3676 42.16 47.6583 41.392C48.9489 40.624 50.4423 40.24 52.1383 40.24C53.8769 40.24 55.3916 40.6293 56.6823 41.408C57.9729 42.1867 58.9756 43.264 59.6903 44.64C60.4049 46.0053 60.7623 47.5787 60.7623 49.36C60.7623 51.152 60.3996 52.736 59.6743 54.112C58.9596 55.4773 57.9569 56.5493 56.6663 57.328C55.3756 58.096 53.8663 58.48 52.1383 58.48ZM52.1383 54.864C53.6743 54.864 54.8156 54.352 55.5623 53.328C56.3089 52.304 56.6823 50.9813 56.6823 49.36C56.6823 47.6853 56.3036 46.352 55.5463 45.36C54.7889 44.3573 53.6529 43.856 52.1383 43.856C51.1036 43.856 50.2503 44.0907 49.5783 44.56C48.9169 45.0187 48.4263 45.664 48.1063 46.496C47.7863 47.3173 47.6263 48.272 47.6263 49.36C47.6263 51.0347 48.0049 52.3733 48.7623 53.376C49.5303 54.368 50.6556 54.864 52.1383 54.864ZM84.3995 58V47.504C84.3995 46.32 84.1062 45.3973 83.5195 44.736C82.9328 44.064 82.1382 43.728 81.1355 43.728C80.5168 43.728 79.9622 43.872 79.4715 44.16C78.9808 44.4373 78.5915 44.8533 78.3035 45.408C78.0155 45.952 77.8715 46.6027 77.8715 47.36L76.1595 46.352C76.1488 45.1573 76.4155 44.1067 76.9595 43.2C77.5142 42.2827 78.2608 41.568 79.1995 41.056C80.1382 40.544 81.1835 40.288 82.3355 40.288C84.2448 40.288 85.7062 40.864 86.7195 42.016C87.7435 43.1573 88.2555 44.6613 88.2555 46.528V58H84.3995ZM63.6155 58V40.72H67.0235V46.08H67.5035V58H63.6155ZM74.0315 58V47.552C74.0315 46.3467 73.7382 45.408 73.1515 44.736C72.5648 44.064 71.7648 43.728 70.7515 43.728C69.7702 43.728 68.9808 44.064 68.3835 44.736C67.7968 45.408 67.5035 46.2827 67.5035 47.36L65.7755 46.208C65.7755 45.088 66.0528 44.08 66.6075 43.184C67.1622 42.288 67.9088 41.584 68.8475 41.072C69.7968 40.5493 70.8582 40.288 72.0315 40.288C73.3222 40.288 74.3995 40.5653 75.2635 41.12C76.1382 41.664 76.7888 42.4107 77.2155 43.36C77.6528 44.2987 77.8715 45.36 77.8715 46.544V58H74.0315ZM98.2688 58.496C96.9888 58.496 95.9328 58.2827 95.1008 57.856C94.2688 57.4293 93.6074 56.8853 93.1168 56.224C92.6261 55.5627 92.2634 54.8587 92.0288 54.112C91.7941 53.3653 91.6394 52.6613 91.5648 52C91.5008 51.328 91.4688 50.784 91.4688 50.368V40.72H95.3728V49.04C95.3728 49.5733 95.4101 50.176 95.4848 50.848C95.5594 51.5093 95.7301 52.1493 95.9968 52.768C96.2741 53.376 96.6794 53.8773 97.2128 54.272C97.7568 54.6667 98.4874 54.864 99.4048 54.864C99.8954 54.864 100.381 54.784 100.861 54.624C101.341 54.464 101.773 54.192 102.157 53.808C102.551 53.4133 102.866 52.8747 103.101 52.192C103.335 51.5093 103.453 50.6453 103.453 49.6L105.741 50.576C105.741 52.048 105.453 53.3813 104.877 54.576C104.311 55.7707 103.474 56.7253 102.365 57.44C101.255 58.144 99.8901 58.496 98.2688 58.496ZM103.917 58V52.64H103.453V40.72H107.325V58H103.917ZM123.132 58V49.68C123.132 49.136 123.095 48.5333 123.02 47.872C122.945 47.2107 122.769 46.576 122.492 45.968C122.225 45.3493 121.82 44.8427 121.276 44.448C120.743 44.0533 120.017 43.856 119.1 43.856C118.609 43.856 118.124 43.936 117.644 44.096C117.164 44.256 116.727 44.5333 116.332 44.928C115.948 45.312 115.639 45.8453 115.404 46.528C115.169 47.2 115.052 48.064 115.052 49.12L112.764 48.144C112.764 46.672 113.047 45.3387 113.612 44.144C114.188 42.9493 115.031 42 116.14 41.296C117.249 40.5813 118.615 40.224 120.236 40.224C121.516 40.224 122.572 40.4373 123.404 40.864C124.236 41.2907 124.897 41.8347 125.388 42.496C125.879 43.1573 126.241 43.8613 126.476 44.608C126.711 45.3547 126.86 46.064 126.924 46.736C126.999 47.3973 127.036 47.936 127.036 48.352V58H123.132ZM111.148 58V40.72H114.588V46.08H115.052V58H111.148ZM130.891 38.096V34.56H134.747V38.096H130.891ZM130.891 58V40.72H134.747V58H130.891ZM138.868 58L138.9 34.96H142.804V49.04L149.124 40.72H153.94L147.236 49.36L154.516 58H149.412L142.804 49.68V58H138.868ZM160.311 58.48C159.063 58.48 158.007 58.2453 157.143 57.776C156.279 57.296 155.623 56.6613 155.175 55.872C154.737 55.0827 154.519 54.2133 154.519 53.264C154.519 52.432 154.657 51.6853 154.935 51.024C155.212 50.352 155.639 49.776 156.215 49.296C156.791 48.8053 157.537 48.4053 158.455 48.096C159.148 47.872 159.959 47.6693 160.887 47.488C161.825 47.3067 162.839 47.1413 163.927 46.992C165.025 46.832 166.172 46.6613 167.367 46.48L165.991 47.264C166.001 46.0693 165.735 45.1893 165.191 44.624C164.647 44.0587 163.729 43.776 162.439 43.776C161.66 43.776 160.908 43.9573 160.183 44.32C159.457 44.6827 158.951 45.3067 158.663 46.192L155.143 45.088C155.569 43.6267 156.38 42.4533 157.575 41.568C158.78 40.6827 160.401 40.24 162.439 40.24C163.975 40.24 165.324 40.4907 166.487 40.992C167.66 41.4933 168.529 42.3147 169.095 43.456C169.404 44.064 169.591 44.688 169.655 45.328C169.719 45.9573 169.751 46.6453 169.751 47.392V58H166.375V54.256L166.935 54.864C166.156 56.112 165.244 57.0293 164.199 57.616C163.164 58.192 161.868 58.48 160.311 58.48ZM161.079 55.408C161.953 55.408 162.7 55.2533 163.319 54.944C163.937 54.6347 164.428 54.256 164.791 53.808C165.164 53.36 165.415 52.9387 165.543 52.544C165.745 52.0533 165.857 51.4933 165.879 50.864C165.911 50.224 165.927 49.7067 165.927 49.312L167.111 49.664C165.948 49.8453 164.951 50.0053 164.119 50.144C163.287 50.2827 162.572 50.416 161.975 50.544C161.377 50.6613 160.849 50.7947 160.391 50.944C159.943 51.104 159.564 51.2907 159.255 51.504C158.945 51.7173 158.705 51.9627 158.535 52.24C158.375 52.5173 158.295 52.8427 158.295 53.216C158.295 53.6427 158.401 54.0213 158.615 54.352C158.828 54.672 159.137 54.928 159.543 55.12C159.959 55.312 160.471 55.408 161.079 55.408ZM180.78 58.48C178.999 58.48 177.479 58.0853 176.22 57.296C174.962 56.496 173.996 55.408 173.324 54.032C172.663 52.656 172.327 51.0987 172.316 49.36C172.327 47.5893 172.674 46.0213 173.356 44.656C174.05 43.28 175.031 42.2027 176.3 41.424C177.57 40.6347 179.079 40.24 180.828 40.24C182.791 40.24 184.45 40.736 185.804 41.728C187.17 42.7093 188.06 44.0533 188.476 45.76L184.636 46.8C184.338 45.872 183.842 45.152 183.148 44.64C182.455 44.1173 181.666 43.856 180.78 43.856C179.778 43.856 178.951 44.096 178.3 44.576C177.65 45.0453 177.17 45.696 176.86 46.528C176.551 47.36 176.396 48.304 176.396 49.36C176.396 51.0027 176.764 52.3307 177.5 53.344C178.236 54.3573 179.33 54.864 180.78 54.864C181.804 54.864 182.61 54.6293 183.196 54.16C183.794 53.6907 184.242 53.0133 184.54 52.128L188.476 53.008C187.943 54.768 187.01 56.1227 185.676 57.072C184.343 58.0107 182.711 58.48 180.78 58.48ZM188.483 65.68V62.064H189.299C190.237 62.064 190.904 61.8453 191.299 61.408C191.693 60.9707 191.891 60.3253 191.891 59.472V40.72H195.731V61.2C195.731 62.5973 195.32 63.6907 194.499 64.48C193.688 65.28 192.557 65.68 191.107 65.68H188.483ZM191.891 38.096V34.56H195.731V38.096H191.891ZM199.941 38.096V34.56H203.797V38.096H199.941ZM199.941 58V40.72H203.797V58H199.941ZM31.92 98L26.64 80.688L30.416 80.72L33.792 91.808L37.216 80.72H40.464L43.872 91.808L47.264 80.72H51.04L45.76 98H42.752L38.832 86.112L34.928 98H31.92ZM60.5185 98.48C58.7692 98.48 57.2332 98.1013 55.9105 97.344C54.5878 96.5867 53.5532 95.536 52.8065 94.192C52.0705 92.848 51.7025 91.3013 51.7025 89.552C51.7025 87.664 52.0652 86.0267 52.7905 84.64C53.5158 83.2427 54.5238 82.16 55.8145 81.392C57.1052 80.624 58.5985 80.24 60.2945 80.24C62.0865 80.24 63.6065 80.6613 64.8545 81.504C66.1132 82.336 67.0465 83.5147 67.6545 85.04C68.2625 86.5653 68.4918 88.3627 68.3425 90.432H64.5185V89.024C64.5078 87.1467 64.1772 85.776 63.5265 84.912C62.8758 84.048 61.8518 83.616 60.4545 83.616C58.8758 83.616 57.7025 84.1067 56.9345 85.088C56.1665 86.0587 55.7825 87.4827 55.7825 89.36C55.7825 91.1093 56.1665 92.464 56.9345 93.424C57.7025 94.384 58.8225 94.864 60.2945 94.864C61.2438 94.864 62.0598 94.656 62.7425 94.24C63.4358 93.8133 63.9692 93.2 64.3425 92.4L68.1505 93.552C67.4892 95.1093 66.4652 96.32 65.0785 97.184C63.7025 98.048 62.1825 98.48 60.5185 98.48ZM54.5665 90.432V87.52H66.4545V90.432H54.5665ZM74.3275 98L69.0475 80.688L72.8235 80.72L76.1995 91.808L79.6235 80.72H82.8715L86.2795 91.808L89.6715 80.72H93.4475L88.1675 98H85.1595L81.2395 86.112L77.3355 98H74.3275ZM107.647 98V89.68C107.647 89.136 107.61 88.5333 107.535 87.872C107.46 87.2107 107.284 86.576 107.007 85.968C106.74 85.3493 106.335 84.8427 105.791 84.448C105.258 84.0533 104.532 83.856 103.615 83.856C103.124 83.856 102.639 83.936 102.159 84.096C101.679 84.256 101.242 84.5333 100.847 84.928C100.463 85.312 100.154 85.8453 99.919 86.528C99.6843 87.2 99.567 88.064 99.567 89.12L97.279 88.144C97.279 86.672 97.5617 85.3387 98.127 84.144C98.703 82.9493 99.5457 82 100.655 81.296C101.764 80.5813 103.13 80.224 104.751 80.224C106.031 80.224 107.087 80.4373 107.919 80.864C108.751 81.2907 109.412 81.8347 109.903 82.496C110.394 83.1573 110.756 83.8613 110.991 84.608C111.226 85.3547 111.375 86.064 111.439 86.736C111.514 87.3973 111.551 87.936 111.551 88.352V98H107.647ZM95.663 98V80.72H99.103V86.08H99.567V98H95.663ZM128.158 105.376C127.444 105.685 126.692 105.739 125.902 105.536C125.124 105.333 124.494 104.939 124.014 104.352C123.609 103.84 123.348 103.216 123.23 102.48C123.124 101.744 123.22 101.019 123.518 100.304C123.721 99.8347 123.972 99.3493 124.27 98.848C124.569 98.3573 124.841 97.9307 125.086 97.568C125.246 97.3333 125.465 97.024 125.742 96.64C126.02 96.256 126.313 95.856 126.622 95.44C126.942 95.024 127.236 94.6347 127.502 94.272L129.998 94.64C129.753 95.0453 129.508 95.4453 129.262 95.84C129.017 96.224 128.777 96.5973 128.542 96.96C128.318 97.3227 128.11 97.6587 127.918 97.968C127.726 98.2667 127.561 98.5387 127.422 98.784C127.134 99.2747 126.889 99.7333 126.686 100.16C126.484 100.597 126.334 100.976 126.238 101.296C126.196 101.435 126.169 101.621 126.158 101.856C126.158 102.101 126.233 102.309 126.382 102.48C126.617 102.736 126.921 102.816 127.294 102.72C127.678 102.635 128.009 102.48 128.286 102.256L129.678 104.064C129.508 104.331 129.294 104.576 129.038 104.8C128.793 105.024 128.5 105.216 128.158 105.376ZM122.942 98.48C121.193 98.48 119.657 98.1013 118.334 97.344C117.012 96.5867 115.977 95.536 115.23 94.192C114.494 92.848 114.126 91.3013 114.126 89.552C114.126 87.664 114.489 86.0267 115.214 84.64C115.94 83.2427 116.948 82.16 118.238 81.392C119.529 80.624 121.022 80.24 122.718 80.24C124.51 80.24 126.03 80.6613 127.278 81.504C128.537 82.336 129.47 83.5147 130.078 85.04C130.686 86.5653 130.916 88.3627 130.766 90.432H126.942V89.024C126.932 87.1467 126.601 85.776 125.95 84.912C125.3 84.048 124.276 83.616 122.878 83.616C121.3 83.616 120.126 84.1067 119.358 85.088C118.59 86.0587 118.206 87.4827 118.206 89.36C118.206 91.1093 118.59 92.464 119.358 93.424C120.126 94.384 121.246 94.864 122.718 94.864C123.668 94.864 124.484 94.656 125.166 94.24C125.86 93.8133 126.393 93.2 126.766 92.4L130.574 93.552C129.913 95.1093 128.889 96.32 127.502 97.184C126.126 98.048 124.606 98.48 122.942 98.48ZM116.99 90.432V87.52H128.878V90.432H116.99ZM143.824 98C142.683 98.2133 141.563 98.304 140.464 98.272C139.376 98.2507 138.4 98.0533 137.536 97.68C136.672 97.296 136.016 96.6933 135.568 95.872C135.174 95.1253 134.966 94.3627 134.944 93.584C134.923 92.8053 134.912 91.9253 134.912 90.944V75.92H138.752V90.72C138.752 91.4133 138.758 92.0213 138.768 92.544C138.79 93.0667 138.902 93.4933 139.104 93.824C139.488 94.464 140.102 94.8213 140.944 94.896C141.787 94.9707 142.747 94.928 143.824 94.768V98ZM131.776 83.744V80.72H143.824V83.744H131.776ZM146.9 98V80.72H150.308V84.928L149.892 84.384C150.105 83.808 150.388 83.2853 150.74 82.816C151.103 82.336 151.535 81.9413 152.036 81.632C152.463 81.344 152.932 81.12 153.444 80.96C153.967 80.7893 154.5 80.688 155.044 80.656C155.588 80.6133 156.116 80.6347 156.628 80.72V84.32C156.116 84.1707 155.524 84.1227 154.852 84.176C154.191 84.2293 153.593 84.416 153.06 84.736C152.527 85.024 152.089 85.392 151.748 85.84C151.417 86.288 151.172 86.8 151.012 87.376C150.852 87.9413 150.772 88.5547 150.772 89.216V98H146.9ZM157.441 98V97.472L166.593 84.096H158.369V80.72H172.593V81.264L163.473 94.624H172.209V98H157.441ZM187.416 98V89.68C187.416 89.136 187.378 88.5333 187.304 87.872C187.229 87.2107 187.053 86.576 186.776 85.968C186.509 85.3493 186.104 84.8427 185.56 84.448C185.026 84.0533 184.301 83.856 183.384 83.856C182.893 83.856 182.408 83.936 181.928 84.096C181.448 84.256 181.01 84.5333 180.616 84.928C180.232 85.312 179.922 85.8453 179.688 86.528C179.453 87.2 179.336 88.064 179.336 89.12L177.048 88.144C177.048 86.672 177.33 85.3387 177.896 84.144C178.472 82.9493 179.314 82 180.424 81.296C181.533 80.5813 182.898 80.224 184.52 80.224C185.8 80.224 186.856 80.4373 187.688 80.864C188.52 81.2907 189.181 81.8347 189.672 82.496C190.162 83.1573 190.525 83.8613 190.76 84.608C190.994 85.3547 191.144 86.064 191.208 86.736C191.282 87.3973 191.32 87.936 191.32 88.352V98H187.416ZM175.432 98V80.72H178.872V86.08H179.336V98H175.432ZM202.43 98.48C200.68 98.48 199.144 98.1013 197.822 97.344C196.499 96.5867 195.464 95.536 194.718 94.192C193.982 92.848 193.614 91.3013 193.614 89.552C193.614 87.664 193.976 86.0267 194.702 84.64C195.427 83.2427 196.435 82.16 197.726 81.392C199.016 80.624 200.51 80.24 202.206 80.24C203.998 80.24 205.518 80.6613 206.766 81.504C208.024 82.336 208.958 83.5147 209.566 85.04C210.174 86.5653 210.403 88.3627 210.254 90.432H206.43V89.024C206.419 87.1467 206.088 85.776 205.438 84.912C204.787 84.048 203.763 83.616 202.366 83.616C200.787 83.616 199.614 84.1067 198.846 85.088C198.078 86.0587 197.694 87.4827 197.694 89.36C197.694 91.1093 198.078 92.464 198.846 93.424C199.614 94.384 200.734 94.864 202.206 94.864C203.155 94.864 203.971 94.656 204.654 94.24C205.347 93.8133 205.88 93.2 206.254 92.4L210.062 93.552C209.4 95.1093 208.376 96.32 206.99 97.184C205.614 98.048 204.094 98.48 202.43 98.48ZM196.478 90.432V87.52H208.366V90.432H196.478ZM210.624 105.68V102.064H211.44C212.378 102.064 213.045 101.845 213.44 101.408C213.834 100.971 214.032 100.325 214.032 99.472V80.72H217.872V101.2C217.872 102.597 217.461 103.691 216.64 104.48C215.829 105.28 214.698 105.68 213.248 105.68H210.624ZM214.032 78.096V74.56H217.872V78.096H214.032Z" fill="#4C3C90"/>
</svg>
