<svg width="310" height="268" viewBox="0 0 310 268" fill="none" xmlns="http://www.w3.org/2000/svg">

<path d="M308 266L308 268L310 268L310 266L308 266ZM308 2L310 2L310 8.74228e-08L308 0L308 2ZM217.25 266L215.25 266L215.25 268L217.25 268L217.25 266ZM134.75 266L134.75 268L136.75 268L136.75 266L134.75 266ZM44 266L42 266L42 268L44 268L44 266ZM44 175.25L46 175.25L46 173.25L44 173.25L44 175.25ZM44 92.75L44 94.75L46 94.75L46 92.75L44 92.75ZM44 1.99999L44 -1.15398e-05L42 -1.16272e-05L42 1.99999L44 1.99999ZM310 266L310 2L306 2L306 266L310 266ZM217.25 268L308 268L308 264L217.25 264L217.25 268ZM176 226.75C197.677 226.75 215.25 244.323 215.25 266L219.25 266C219.25 242.114 199.886 222.75 176 222.75L176 226.75ZM136.75 266C136.75 244.323 154.323 226.75 176 226.75L176 222.75C152.114 222.75 132.75 242.114 132.75 266L136.75 266ZM44 268L134.75 268L134.75 264L44 264L44 268ZM42 175.25L42 266L46 266L46 175.25L42 175.25ZM0.750025 134C0.750024 157.886 20.1137 177.25 44 177.25L44 173.25C22.3229 173.25 4.75002 155.677 4.75002 134L0.750025 134ZM44 90.75C20.1137 90.75 0.750026 110.114 0.750025 134L4.75002 134C4.75003 112.323 22.3229 94.75 44 94.75L44 90.75ZM42 1.99999L42 92.75L46 92.75L46 1.99999L42 1.99999ZM308 0L44 -1.15398e-05L44 3.99999L308 4L308 0Z" fill="#4C3C90"/>
<path d="M135.259 58L129.979 40.688L133.755 40.72L137.131 51.808L140.555 40.72H143.803L147.211 51.808L150.603 40.72H154.379L149.099 58H146.091L142.171 46.112L138.267 58H135.259ZM156.946 38.096V34.56H160.802V38.096H156.946ZM156.946 58V40.72H160.802V58H156.946ZM163.355 58V57.472L172.507 44.096H164.283V40.72H178.507V41.264L169.387 54.624H178.123V58H163.355ZM187.952 58.48C186.203 58.48 184.667 58.1013 183.344 57.344C182.022 56.5867 180.987 55.536 180.24 54.192C179.504 52.848 179.136 51.3013 179.136 49.552C179.136 47.664 179.499 46.0267 180.224 44.64C180.95 43.2427 181.958 42.16 183.248 41.392C184.539 40.624 186.032 40.24 187.728 40.24C189.52 40.24 191.04 40.6613 192.288 41.504C193.547 42.336 194.48 43.5147 195.088 45.04C195.696 46.5653 195.926 48.3627 195.776 50.432H191.952V49.024C191.942 47.1467 191.611 45.776 190.96 44.912C190.31 44.048 189.286 43.616 187.888 43.616C186.31 43.616 185.136 44.1067 184.368 45.088C183.6 46.0587 183.216 47.4827 183.216 49.36C183.216 51.1093 183.6 52.464 184.368 53.424C185.136 54.384 186.256 54.864 187.728 54.864C188.678 54.864 189.494 54.656 190.176 54.24C190.87 53.8133 191.403 53.2 191.776 52.4L195.584 53.552C194.923 55.1093 193.899 56.32 192.512 57.184C191.136 58.048 189.616 58.48 187.952 58.48ZM182 50.432V47.52H193.888V50.432H182ZM198.706 58V40.72H202.114V44.928L201.698 44.384C201.912 43.808 202.194 43.2853 202.546 42.816C202.909 42.336 203.341 41.9413 203.842 41.632C204.269 41.344 204.738 41.12 205.25 40.96C205.773 40.7893 206.306 40.688 206.85 40.656C207.394 40.6133 207.922 40.6347 208.434 40.72V44.32C207.922 44.1707 207.33 44.1227 206.658 44.176C205.997 44.2293 205.4 44.416 204.866 44.736C204.333 45.024 203.896 45.392 203.554 45.84C203.224 46.288 202.978 46.8 202.818 47.376C202.658 47.9413 202.578 48.5547 202.578 49.216V58H198.706ZM217.327 58.496C216.047 58.496 214.991 58.2827 214.159 57.856C213.327 57.4293 212.666 56.8853 212.175 56.224C211.685 55.5627 211.322 54.8587 211.087 54.112C210.853 53.3653 210.698 52.6613 210.623 52C210.559 51.328 210.527 50.784 210.527 50.368V40.72H214.431V49.04C214.431 49.5733 214.469 50.176 214.543 50.848C214.618 51.5093 214.789 52.1493 215.055 52.768C215.333 53.376 215.738 53.8773 216.271 54.272C216.815 54.6667 217.546 54.864 218.463 54.864C218.954 54.864 219.439 54.784 219.919 54.624C220.399 54.464 220.831 54.192 221.215 53.808C221.61 53.4133 221.925 52.8747 222.159 52.192C222.394 51.5093 222.511 50.6453 222.511 49.6L224.799 50.576C224.799 52.048 224.511 53.3813 223.935 54.576C223.37 55.7707 222.533 56.7253 221.423 57.44C220.314 58.144 218.949 58.496 217.327 58.496ZM222.975 58V52.64H222.511V40.72H226.383V58H222.975ZM242.191 58V49.68C242.191 49.136 242.153 48.5333 242.079 47.872C242.004 47.2107 241.828 46.576 241.551 45.968C241.284 45.3493 240.879 44.8427 240.335 44.448C239.801 44.0533 239.076 43.856 238.159 43.856C237.668 43.856 237.183 43.936 236.703 44.096C236.223 44.256 235.785 44.5333 235.391 44.928C235.007 45.312 234.697 45.8453 234.463 46.528C234.228 47.2 234.111 48.064 234.111 49.12L231.823 48.144C231.823 46.672 232.105 45.3387 232.671 44.144C233.247 42.9493 234.089 42 235.199 41.296C236.308 40.5813 237.673 40.224 239.295 40.224C240.575 40.224 241.631 40.4373 242.463 40.864C243.295 41.2907 243.956 41.8347 244.447 42.496C244.937 43.1573 245.3 43.8613 245.535 44.608C245.769 45.3547 245.919 46.064 245.983 46.736C246.057 47.3973 246.095 47.936 246.095 48.352V58H242.191ZM230.207 58V40.72H233.647V46.08H234.111V58H230.207ZM249.598 58L249.63 34.96H253.534V49.04L259.854 40.72H264.67L257.966 49.36L265.246 58H260.142L253.534 49.68V58H249.598ZM272.689 58.496C271.409 58.496 270.353 58.2827 269.521 57.856C268.689 57.4293 268.027 56.8853 267.537 56.224C267.046 55.5627 266.683 54.8587 266.449 54.112C266.214 53.3653 266.059 52.6613 265.985 52C265.921 51.328 265.889 50.784 265.889 50.368V40.72H269.793V49.04C269.793 49.5733 269.83 50.176 269.905 50.848C269.979 51.5093 270.15 52.1493 270.417 52.768C270.694 53.376 271.099 53.8773 271.633 54.272C272.177 54.6667 272.907 54.864 273.825 54.864C274.315 54.864 274.801 54.784 275.281 54.624C275.761 54.464 276.193 54.192 276.577 53.808C276.971 53.4133 277.286 52.8747 277.521 52.192C277.755 51.5093 277.873 50.6453 277.873 49.6L280.161 50.576C280.161 52.048 279.873 53.3813 279.297 54.576C278.731 55.7707 277.894 56.7253 276.785 57.44C275.675 58.144 274.31 58.496 272.689 58.496ZM278.337 58V52.64H277.873V40.72H281.745V58H278.337ZM113.741 98.48C112.056 98.48 110.643 98.08 109.501 97.28C108.36 96.48 107.501 95.392 106.925 94.016C106.349 92.6293 106.061 91.0773 106.061 89.36C106.061 87.6213 106.349 86.064 106.925 84.688C107.501 83.312 108.344 82.2293 109.453 81.44C110.573 80.64 111.955 80.24 113.597 80.24C115.229 80.24 116.643 80.64 117.837 81.44C119.043 82.2293 119.976 83.312 120.637 84.688C121.299 86.0533 121.629 87.6107 121.629 89.36C121.629 91.088 121.304 92.64 120.653 94.016C120.003 95.392 119.085 96.48 117.901 97.28C116.717 98.08 115.331 98.48 113.741 98.48ZM105.405 105.68V80.72H108.813V92.848H109.293V105.68H105.405ZM113.149 95.024C114.152 95.024 114.979 94.7733 115.629 94.272C116.28 93.7707 116.76 93.0933 117.069 92.24C117.389 91.376 117.549 90.416 117.549 89.36C117.549 88.3147 117.389 87.3653 117.069 86.512C116.749 85.648 116.253 84.9653 115.581 84.464C114.909 83.952 114.056 83.696 113.021 83.696C112.04 83.696 111.24 83.936 110.621 84.416C110.003 84.8853 109.544 85.5467 109.245 86.4C108.957 87.2427 108.813 88.2293 108.813 89.36C108.813 90.48 108.957 91.4667 109.245 92.32C109.544 93.1733 110.008 93.84 110.637 94.32C111.277 94.7893 112.115 95.024 113.149 95.024ZM124.516 98V80.72H127.924V84.928L127.508 84.384C127.722 83.808 128.004 83.2853 128.356 82.816C128.719 82.336 129.151 81.9413 129.652 81.632C130.079 81.344 130.548 81.12 131.06 80.96C131.583 80.7893 132.116 80.688 132.66 80.656C133.204 80.6133 133.732 80.6347 134.244 80.72V84.32C133.732 84.1707 133.14 84.1227 132.468 84.176C131.807 84.2293 131.21 84.416 130.676 84.736C130.143 85.024 129.706 85.392 129.364 85.84C129.034 86.288 128.788 86.8 128.628 87.376C128.468 87.9413 128.388 88.5547 128.388 89.216V98H124.516ZM141.083 98.48C139.835 98.48 138.779 98.2453 137.915 97.776C137.051 97.296 136.395 96.6613 135.947 95.872C135.51 95.0827 135.291 94.2133 135.291 93.264C135.291 92.432 135.43 91.6853 135.707 91.024C135.985 90.352 136.411 89.776 136.987 89.296C137.563 88.8053 138.31 88.4053 139.227 88.096C139.921 87.872 140.731 87.6693 141.659 87.488C142.598 87.3067 143.611 87.1413 144.699 86.992C145.798 86.832 146.945 86.6613 148.139 86.48L146.763 87.264C146.774 86.0693 146.507 85.1893 145.963 84.624C145.419 84.0587 144.502 83.776 143.211 83.776C142.433 83.776 141.681 83.9573 140.955 84.32C140.23 84.6827 139.723 85.3067 139.435 86.192L135.915 85.088C136.342 83.6267 137.153 82.4533 138.347 81.568C139.553 80.6827 141.174 80.24 143.211 80.24C144.747 80.24 146.097 80.4907 147.259 80.992C148.433 81.4933 149.302 82.3147 149.867 83.456C150.177 84.064 150.363 84.688 150.427 85.328C150.491 85.9573 150.523 86.6453 150.523 87.392V98H147.147V94.256L147.707 94.864C146.929 96.112 146.017 97.0293 144.971 97.616C143.937 98.192 142.641 98.48 141.083 98.48ZM141.851 95.408C142.726 95.408 143.473 95.2533 144.091 94.944C144.71 94.6347 145.201 94.256 145.563 93.808C145.937 93.36 146.187 92.9387 146.315 92.544C146.518 92.0533 146.63 91.4933 146.651 90.864C146.683 90.224 146.699 89.7067 146.699 89.312L147.883 89.664C146.721 89.8453 145.723 90.0053 144.891 90.144C144.059 90.2827 143.345 90.416 142.747 90.544C142.15 90.6613 141.622 90.7947 141.163 90.944C140.715 91.104 140.337 91.2907 140.027 91.504C139.718 91.7173 139.478 91.9627 139.307 92.24C139.147 92.5173 139.067 92.8427 139.067 93.216C139.067 93.6427 139.174 94.0213 139.387 94.352C139.601 94.672 139.91 94.928 140.315 95.12C140.731 95.312 141.243 95.408 141.851 95.408ZM161.553 98.48C159.771 98.48 158.251 98.0853 156.993 97.296C155.734 96.496 154.769 95.408 154.097 94.032C153.435 92.656 153.099 91.0987 153.089 89.36C153.099 87.5893 153.446 86.0213 154.129 84.656C154.822 83.28 155.803 82.2027 157.073 81.424C158.342 80.6347 159.851 80.24 161.601 80.24C163.563 80.24 165.222 80.736 166.577 81.728C167.942 82.7093 168.833 84.0533 169.249 85.76L165.409 86.8C165.11 85.872 164.614 85.152 163.921 84.64C163.227 84.1173 162.438 83.856 161.553 83.856C160.55 83.856 159.723 84.096 159.073 84.576C158.422 85.0453 157.942 85.696 157.633 86.528C157.323 87.36 157.169 88.304 157.169 89.36C157.169 91.0027 157.537 92.3307 158.273 93.344C159.009 94.3573 160.102 94.864 161.553 94.864C162.577 94.864 163.382 94.6293 163.969 94.16C164.566 93.6907 165.014 93.0133 165.313 92.128L169.249 93.008C168.715 94.768 167.782 96.1227 166.449 97.072C165.115 98.0107 163.483 98.48 161.553 98.48ZM178.978 98.48C177.25 98.48 175.741 98.0907 174.45 97.312C173.16 96.5333 172.157 95.4613 171.442 94.096C170.738 92.72 170.386 91.1413 170.386 89.36C170.386 87.5467 170.749 85.9573 171.474 84.592C172.2 83.2267 173.208 82.16 174.498 81.392C175.789 80.624 177.282 80.24 178.978 80.24C180.717 80.24 182.232 80.6293 183.522 81.408C184.813 82.1867 185.816 83.264 186.53 84.64C187.245 86.0053 187.602 87.5787 187.602 89.36C187.602 91.152 187.24 92.736 186.514 94.112C185.8 95.4773 184.797 96.5493 183.506 97.328C182.216 98.096 180.706 98.48 178.978 98.48ZM178.978 94.864C180.514 94.864 181.656 94.352 182.402 93.328C183.149 92.304 183.522 90.9813 183.522 89.36C183.522 87.6853 183.144 86.352 182.386 85.36C181.629 84.3573 180.493 83.856 178.978 83.856C177.944 83.856 177.09 84.0907 176.418 84.56C175.757 85.0187 175.266 85.664 174.946 86.496C174.626 87.3173 174.466 88.272 174.466 89.36C174.466 91.0347 174.845 92.3733 175.602 93.376C176.37 94.368 177.496 94.864 178.978 94.864ZM197.415 98.48C195.826 98.48 194.439 98.08 193.255 97.28C192.071 96.48 191.154 95.392 190.503 94.016C189.853 92.64 189.527 91.088 189.527 89.36C189.527 87.6107 189.853 86.0533 190.503 84.688C191.165 83.312 192.098 82.2293 193.303 81.44C194.509 80.64 195.927 80.24 197.559 80.24C199.202 80.24 200.578 80.64 201.687 81.44C202.807 82.2293 203.655 83.312 204.231 84.688C204.807 86.064 205.095 87.6213 205.095 89.36C205.095 91.0773 204.807 92.6293 204.231 94.016C203.655 95.392 202.797 96.48 201.655 97.28C200.514 98.08 199.101 98.48 197.415 98.48ZM198.007 95.024C199.042 95.024 199.874 94.7893 200.503 94.32C201.143 93.84 201.607 93.1733 201.895 92.32C202.194 91.4667 202.343 90.48 202.343 89.36C202.343 88.2293 202.194 87.2427 201.895 86.4C201.607 85.5467 201.154 84.8853 200.535 84.416C199.917 83.936 199.117 83.696 198.135 83.696C197.101 83.696 196.247 83.952 195.575 84.464C194.903 84.9653 194.407 85.648 194.087 86.512C193.767 87.3653 193.607 88.3147 193.607 89.36C193.607 90.416 193.762 91.376 194.071 92.24C194.391 93.0933 194.877 93.7707 195.527 94.272C196.178 94.7733 197.005 95.024 198.007 95.024ZM202.343 98V85.872H201.863V74.96H205.751V98H202.343ZM214.429 98.48C213.181 98.48 212.125 98.2453 211.261 97.776C210.397 97.296 209.741 96.6613 209.293 95.872C208.856 95.0827 208.637 94.2133 208.637 93.264C208.637 92.432 208.776 91.6853 209.053 91.024C209.331 90.352 209.757 89.776 210.333 89.296C210.909 88.8053 211.656 88.4053 212.573 88.096C213.267 87.872 214.077 87.6693 215.005 87.488C215.944 87.3067 216.957 87.1413 218.045 86.992C219.144 86.832 220.291 86.6613 221.485 86.48L220.109 87.264C220.12 86.0693 219.853 85.1893 219.309 84.624C218.765 84.0587 217.848 83.776 216.557 83.776C215.779 83.776 215.027 83.9573 214.301 84.32C213.576 84.6827 213.069 85.3067 212.781 86.192L209.261 85.088C209.688 83.6267 210.499 82.4533 211.693 81.568C212.899 80.6827 214.52 80.24 216.557 80.24C218.093 80.24 219.443 80.4907 220.605 80.992C221.779 81.4933 222.648 82.3147 223.213 83.456C223.523 84.064 223.709 84.688 223.773 85.328C223.837 85.9573 223.869 86.6453 223.869 87.392V98H220.493V94.256L221.053 94.864C220.275 96.112 219.363 97.0293 218.317 97.616C217.283 98.192 215.987 98.48 214.429 98.48ZM215.197 95.408C216.072 95.408 216.819 95.2533 217.437 94.944C218.056 94.6347 218.547 94.256 218.909 93.808C219.283 93.36 219.533 92.9387 219.661 92.544C219.864 92.0533 219.976 91.4933 219.997 90.864C220.029 90.224 220.045 89.7067 220.045 89.312L221.229 89.664C220.067 89.8453 219.069 90.0053 218.237 90.144C217.405 90.2827 216.691 90.416 216.093 90.544C215.496 90.6613 214.968 90.7947 214.509 90.944C214.061 91.104 213.683 91.2907 213.373 91.504C213.064 91.7173 212.824 91.9627 212.653 92.24C212.493 92.5173 212.413 92.8427 212.413 93.216C212.413 93.6427 212.52 94.0213 212.733 94.352C212.947 94.672 213.256 94.928 213.661 95.12C214.077 95.312 214.589 95.408 215.197 95.408ZM230.45 98L225.17 80.688L228.946 80.72L232.322 91.808L235.746 80.72H238.994L242.402 91.808L245.794 80.72H249.57L244.29 98H241.282L237.362 86.112L233.458 98H230.45ZM258.696 98.48C256.915 98.48 255.395 98.0853 254.136 97.296C252.878 96.496 251.912 95.408 251.24 94.032C250.579 92.656 250.243 91.0987 250.232 89.36C250.243 87.5893 250.59 86.0213 251.272 84.656C251.966 83.28 252.947 82.2027 254.216 81.424C255.486 80.6347 256.995 80.24 258.745 80.24C260.707 80.24 262.366 80.736 263.72 81.728C265.086 82.7093 265.976 84.0533 266.392 85.76L262.552 86.8C262.254 85.872 261.758 85.152 261.064 84.64C260.371 84.1173 259.582 83.856 258.696 83.856C257.694 83.856 256.867 84.096 256.216 84.576C255.566 85.0453 255.086 85.696 254.776 86.528C254.467 87.36 254.312 88.304 254.312 89.36C254.312 91.0027 254.68 92.3307 255.416 93.344C256.152 94.3573 257.246 94.864 258.696 94.864C259.72 94.864 260.526 94.6293 261.113 94.16C261.71 93.6907 262.158 93.0133 262.457 92.128L266.392 93.008C265.859 94.768 264.926 96.1227 263.592 97.072C262.259 98.0107 260.627 98.48 258.696 98.48ZM270.606 105.68L273.934 96.544L273.998 99.232L266.462 80.72H270.478L275.822 94.416H274.798L279.998 80.72H283.854L274.222 105.68H270.606Z" fill="#4C3C90"/>
</svg>
