<svg width="440" height="398" viewBox="0 0 440 398" fill="none" xmlns="http://www.w3.org/2000/svg">
<g filter="url(#filter0_dddddd_207_9244)">
<path fill-rule="evenodd" clip-rule="evenodd" d="M67 293L67 29L157.75 29C157.75 51.7818 176.218 70.25 199 70.25C221.782 70.25 240.25 51.7818 240.25 29L331 29L331 119.75C353.782 119.75 372.25 138.218 372.25 161C372.25 183.782 353.782 202.25 331 202.25L331 293L67 293Z" fill="transaparent"/>
<path d="M67 29L67 27L65 27L65 29L67 29ZM67 293L65 293L65 295L67 295L67 293ZM157.75 29L159.75 29L159.75 27L157.75 27L157.75 29ZM240.25 29L240.25 27L238.25 27L238.25 29L240.25 29ZM331 29L333 29L333 27L331 27L331 29ZM331 119.75L329 119.75L329 121.75L331 121.75L331 119.75ZM331 202.25L331 200.25L329 200.25L329 202.25L331 202.25ZM331 293L331 295L333 295L333 293L331 293ZM65 29L65 293L69 293L69 29L65 29ZM157.75 27L67 27L67 31L157.75 31L157.75 27ZM199 68.25C177.323 68.25 159.75 50.6772 159.75 29L155.75 29C155.75 52.8863 175.114 72.25 199 72.25L199 68.25ZM238.25 29C238.25 50.6772 220.677 68.25 199 68.25L199 72.25C222.886 72.25 242.25 52.8863 242.25 29L238.25 29ZM331 27L240.25 27L240.25 31L331 31L331 27ZM333 119.75L333 29L329 29L329 119.75L333 119.75ZM374.25 161C374.25 137.114 354.886 117.75 331 117.75L331 121.75C352.677 121.75 370.25 139.323 370.25 161L374.25 161ZM331 204.25C354.886 204.25 374.25 184.886 374.25 161L370.25 161C370.25 182.677 352.677 200.25 331 200.25L331 204.25ZM333 293L333 202.25L329 202.25L329 293L333 293ZM67 295L331 295L331 291L67 291L67 295Z" fill="#4C3C90"/>
</g>
<path d="M101.544 181.48C99.8587 181.48 98.4453 181.08 97.304 180.28C96.1627 179.48 95.304 178.392 94.728 177.016C94.152 175.629 93.864 174.077 93.864 172.36C93.864 170.621 94.152 169.064 94.728 167.688C95.304 166.312 96.1467 165.229 97.256 164.44C98.376 163.64 99.7573 163.24 101.4 163.24C103.032 163.24 104.445 163.64 105.64 164.44C106.845 165.229 107.779 166.312 108.44 167.688C109.101 169.053 109.432 170.611 109.432 172.36C109.432 174.088 109.107 175.64 108.456 177.016C107.805 178.392 106.888 179.48 105.704 180.28C104.52 181.08 103.133 181.48 101.544 181.48ZM93.208 188.68V163.72H96.616V175.848H97.096V188.68H93.208ZM100.952 178.024C101.955 178.024 102.781 177.773 103.432 177.272C104.083 176.771 104.563 176.093 104.872 175.24C105.192 174.376 105.352 173.416 105.352 172.36C105.352 171.315 105.192 170.365 104.872 169.512C104.552 168.648 104.056 167.965 103.384 167.464C102.712 166.952 101.859 166.696 100.824 166.696C99.8427 166.696 99.0427 166.936 98.424 167.416C97.8053 167.885 97.3467 168.547 97.048 169.4C96.76 170.243 96.616 171.229 96.616 172.36C96.616 173.48 96.76 174.467 97.048 175.32C97.3467 176.173 97.8107 176.84 98.44 177.32C99.08 177.789 99.9173 178.024 100.952 178.024ZM119.951 181.48C118.223 181.48 116.713 181.091 115.423 180.312C114.132 179.533 113.129 178.461 112.415 177.096C111.711 175.72 111.359 174.141 111.359 172.36C111.359 170.547 111.721 168.957 112.447 167.592C113.172 166.227 114.18 165.16 115.471 164.392C116.761 163.624 118.255 163.24 119.951 163.24C121.689 163.24 123.204 163.629 124.495 164.408C125.785 165.187 126.788 166.264 127.503 167.64C128.217 169.005 128.575 170.579 128.575 172.36C128.575 174.152 128.212 175.736 127.487 177.112C126.772 178.477 125.769 179.549 124.479 180.328C123.188 181.096 121.679 181.48 119.951 181.48ZM119.951 177.864C121.487 177.864 122.628 177.352 123.375 176.328C124.121 175.304 124.495 173.981 124.495 172.36C124.495 170.685 124.116 169.352 123.359 168.36C122.601 167.357 121.465 166.856 119.951 166.856C118.916 166.856 118.063 167.091 117.391 167.56C116.729 168.019 116.239 168.664 115.919 169.496C115.599 170.317 115.439 171.272 115.439 172.36C115.439 174.035 115.817 175.373 116.575 176.376C117.343 177.368 118.468 177.864 119.951 177.864ZM129.235 181V180.472L138.387 167.096H130.163V163.72H144.387V164.264L135.267 177.624H144.003V181H129.235ZM147.578 161.096V157.56H151.434V161.096H147.578ZM147.578 181V163.72H151.434V181H147.578ZM163.218 181.48C161.49 181.48 159.981 181.091 158.69 180.312C157.4 179.533 156.397 178.461 155.682 177.096C154.978 175.72 154.626 174.141 154.626 172.36C154.626 170.547 154.989 168.957 155.714 167.592C156.44 166.227 157.448 165.16 158.738 164.392C160.029 163.624 161.522 163.24 163.218 163.24C164.957 163.24 166.472 163.629 167.762 164.408C169.053 165.187 170.056 166.264 170.77 167.64C171.485 169.005 171.842 170.579 171.842 172.36C171.842 174.152 171.48 175.736 170.754 177.112C170.04 178.477 169.037 179.549 167.746 180.328C166.456 181.096 164.946 181.48 163.218 181.48ZM163.218 177.864C164.754 177.864 165.896 177.352 166.642 176.328C167.389 175.304 167.762 173.981 167.762 172.36C167.762 170.685 167.384 169.352 166.626 168.36C165.869 167.357 164.733 166.856 163.218 166.856C162.184 166.856 161.33 167.091 160.658 167.56C159.997 168.019 159.506 168.664 159.186 169.496C158.866 170.317 158.706 171.272 158.706 172.36C158.706 174.035 159.085 175.373 159.842 176.376C160.61 177.368 161.736 177.864 163.218 177.864ZM195.48 181V170.504C195.48 169.32 195.186 168.397 194.6 167.736C194.013 167.064 193.218 166.728 192.216 166.728C191.597 166.728 191.042 166.872 190.552 167.16C190.061 167.437 189.672 167.853 189.384 168.408C189.096 168.952 188.952 169.603 188.952 170.36L187.24 169.352C187.229 168.157 187.496 167.107 188.04 166.2C188.594 165.283 189.341 164.568 190.28 164.056C191.218 163.544 192.264 163.288 193.416 163.288C195.325 163.288 196.786 163.864 197.8 165.016C198.824 166.157 199.336 167.661 199.336 169.528V181H195.48ZM174.696 181V163.72H178.104V169.08H178.584V181H174.696ZM185.112 181V170.552C185.112 169.347 184.818 168.408 184.232 167.736C183.645 167.064 182.845 166.728 181.832 166.728C180.85 166.728 180.061 167.064 179.464 167.736C178.877 168.408 178.584 169.283 178.584 170.36L176.856 169.208C176.856 168.088 177.133 167.08 177.688 166.184C178.242 165.288 178.989 164.584 179.928 164.072C180.877 163.549 181.938 163.288 183.112 163.288C184.402 163.288 185.48 163.565 186.344 164.12C187.218 164.664 187.869 165.411 188.296 166.36C188.733 167.299 188.952 168.36 188.952 169.544V181H185.112ZM209.349 181.496C208.069 181.496 207.013 181.283 206.181 180.856C205.349 180.429 204.687 179.885 204.197 179.224C203.706 178.563 203.343 177.859 203.109 177.112C202.874 176.365 202.719 175.661 202.645 175C202.581 174.328 202.549 173.784 202.549 173.368V163.72H206.453V172.04C206.453 172.573 206.49 173.176 206.565 173.848C206.639 174.509 206.81 175.149 207.077 175.768C207.354 176.376 207.759 176.877 208.293 177.272C208.837 177.667 209.567 177.864 210.485 177.864C210.975 177.864 211.461 177.784 211.941 177.624C212.421 177.464 212.853 177.192 213.237 176.808C213.631 176.413 213.946 175.875 214.181 175.192C214.415 174.509 214.533 173.645 214.533 172.6L216.821 173.576C216.821 175.048 216.533 176.381 215.957 177.576C215.391 178.771 214.554 179.725 213.445 180.44C212.335 181.144 210.97 181.496 209.349 181.496ZM214.997 181V175.64H214.533V163.72H218.405V181H214.997ZM99.912 221.48C97.7787 221.48 96.0453 221 94.712 220.04C93.3787 219.08 92.568 217.731 92.28 215.992L96.216 215.384C96.4187 216.237 96.8667 216.909 97.56 217.4C98.2533 217.891 99.128 218.136 100.184 218.136C101.112 218.136 101.827 217.955 102.328 217.592C102.84 217.219 103.096 216.712 103.096 216.072C103.096 215.677 103 215.363 102.808 215.128C102.627 214.883 102.221 214.648 101.592 214.424C100.963 214.2 99.9973 213.917 98.696 213.576C97.2453 213.192 96.0933 212.781 95.24 212.344C94.3867 211.896 93.7733 211.368 93.4 210.76C93.0267 210.152 92.84 209.416 92.84 208.552C92.84 207.475 93.1227 206.536 93.688 205.736C94.2533 204.936 95.0427 204.323 96.056 203.896C97.0693 203.459 98.264 203.24 99.64 203.24C100.984 203.24 102.173 203.448 103.208 203.864C104.253 204.28 105.096 204.872 105.736 205.64C106.376 206.408 106.771 207.309 106.92 208.344L102.984 209.048C102.888 208.312 102.552 207.731 101.976 207.304C101.411 206.877 100.653 206.637 99.704 206.584C98.7973 206.531 98.0667 206.669 97.512 207C96.9573 207.32 96.68 207.773 96.68 208.36C96.68 208.691 96.792 208.973 97.016 209.208C97.24 209.443 97.688 209.677 98.36 209.912C99.0427 210.147 100.056 210.435 101.4 210.776C102.776 211.128 103.875 211.533 104.696 211.992C105.528 212.44 106.125 212.979 106.488 213.608C106.861 214.237 107.048 215 107.048 215.896C107.048 217.635 106.413 219 105.144 219.992C103.885 220.984 102.141 221.48 99.912 221.48ZM114.745 221.48C113.497 221.48 112.441 221.245 111.577 220.776C110.713 220.296 110.057 219.661 109.609 218.872C109.171 218.083 108.953 217.213 108.953 216.264C108.953 215.432 109.091 214.685 109.369 214.024C109.646 213.352 110.073 212.776 110.649 212.296C111.225 211.805 111.971 211.405 112.889 211.096C113.582 210.872 114.393 210.669 115.321 210.488C116.259 210.307 117.273 210.141 118.361 209.992C119.459 209.832 120.606 209.661 121.801 209.48L120.425 210.264C120.435 209.069 120.169 208.189 119.625 207.624C119.081 207.059 118.163 206.776 116.873 206.776C116.094 206.776 115.342 206.957 114.617 207.32C113.891 207.683 113.385 208.307 113.097 209.192L109.577 208.088C110.003 206.627 110.814 205.453 112.009 204.568C113.214 203.683 114.835 203.24 116.873 203.24C118.409 203.24 119.758 203.491 120.921 203.992C122.094 204.493 122.963 205.315 123.529 206.456C123.838 207.064 124.025 207.688 124.089 208.328C124.153 208.957 124.185 209.645 124.185 210.392V221H120.809V217.256L121.369 217.864C120.59 219.112 119.678 220.029 118.633 220.616C117.598 221.192 116.302 221.48 114.745 221.48ZM115.513 218.408C116.387 218.408 117.134 218.253 117.753 217.944C118.371 217.635 118.862 217.256 119.225 216.808C119.598 216.36 119.849 215.939 119.977 215.544C120.179 215.053 120.291 214.493 120.313 213.864C120.345 213.224 120.361 212.707 120.361 212.312L121.545 212.664C120.382 212.845 119.385 213.005 118.553 213.144C117.721 213.283 117.006 213.416 116.409 213.544C115.811 213.661 115.283 213.795 114.825 213.944C114.377 214.104 113.998 214.291 113.689 214.504C113.379 214.717 113.139 214.963 112.969 215.24C112.809 215.517 112.729 215.843 112.729 216.216C112.729 216.643 112.835 217.021 113.049 217.352C113.262 217.672 113.571 217.928 113.977 218.12C114.393 218.312 114.905 218.408 115.513 218.408ZM137.838 221C136.697 221.213 135.577 221.304 134.478 221.272C133.39 221.251 132.414 221.053 131.55 220.68C130.686 220.296 130.03 219.693 129.582 218.872C129.187 218.125 128.979 217.363 128.958 216.584C128.937 215.805 128.926 214.925 128.926 213.944V198.92H132.766V213.72C132.766 214.413 132.771 215.021 132.782 215.544C132.803 216.067 132.915 216.493 133.118 216.824C133.502 217.464 134.115 217.821 134.958 217.896C135.801 217.971 136.761 217.928 137.838 217.768V221ZM125.79 206.744V203.72H137.838V206.744H125.79ZM142.717 228.68L146.045 219.544L146.109 222.232L138.573 203.72H142.589L147.933 217.416H146.909L152.109 203.72H155.965L146.333 228.68H142.717ZM164.383 221.48C162.25 221.48 160.517 221 159.183 220.04C157.85 219.08 157.039 217.731 156.751 215.992L160.687 215.384C160.89 216.237 161.338 216.909 162.031 217.4C162.725 217.891 163.599 218.136 164.655 218.136C165.583 218.136 166.298 217.955 166.799 217.592C167.311 217.219 167.567 216.712 167.567 216.072C167.567 215.677 167.471 215.363 167.279 215.128C167.098 214.883 166.693 214.648 166.063 214.424C165.434 214.2 164.469 213.917 163.167 213.576C161.717 213.192 160.565 212.781 159.711 212.344C158.858 211.896 158.245 211.368 157.871 210.76C157.498 210.152 157.311 209.416 157.311 208.552C157.311 207.475 157.594 206.536 158.159 205.736C158.725 204.936 159.514 204.323 160.527 203.896C161.541 203.459 162.735 203.24 164.111 203.24C165.455 203.24 166.645 203.448 167.679 203.864C168.725 204.28 169.567 204.872 170.207 205.64C170.847 206.408 171.242 207.309 171.391 208.344L167.455 209.048C167.359 208.312 167.023 207.731 166.447 207.304C165.882 206.877 165.125 206.637 164.175 206.584C163.269 206.531 162.538 206.669 161.983 207C161.429 207.32 161.151 207.773 161.151 208.36C161.151 208.691 161.263 208.973 161.487 209.208C161.711 209.443 162.159 209.677 162.831 209.912C163.514 210.147 164.527 210.435 165.871 210.776C167.247 211.128 168.346 211.533 169.167 211.992C169.999 212.44 170.597 212.979 170.959 213.608C171.333 214.237 171.519 215 171.519 215.896C171.519 217.635 170.885 219 169.615 219.992C168.357 220.984 166.613 221.48 164.383 221.48ZM175.888 221V203.448C175.888 203.011 175.904 202.531 175.936 202.008C175.968 201.475 176.058 200.947 176.208 200.424C176.357 199.901 176.629 199.427 177.024 199C177.514 198.456 178.042 198.083 178.608 197.88C179.184 197.667 179.749 197.549 180.304 197.528C180.858 197.496 181.344 197.48 181.76 197.48H183.92V200.616H181.92C181.184 200.616 180.634 200.803 180.272 201.176C179.92 201.539 179.744 202.019 179.744 202.616V221H175.888ZM173.104 206.744V203.72H183.92V206.744H173.104ZM190.201 221.48C188.953 221.48 187.897 221.245 187.033 220.776C186.169 220.296 185.513 219.661 185.065 218.872C184.627 218.083 184.409 217.213 184.409 216.264C184.409 215.432 184.547 214.685 184.825 214.024C185.102 213.352 185.529 212.776 186.105 212.296C186.681 211.805 187.427 211.405 188.345 211.096C189.038 210.872 189.849 210.669 190.777 210.488C191.715 210.307 192.729 210.141 193.817 209.992C194.915 209.832 196.062 209.661 197.257 209.48L195.881 210.264C195.891 209.069 195.625 208.189 195.081 207.624C194.537 207.059 193.619 206.776 192.329 206.776C191.55 206.776 190.798 206.957 190.073 207.32C189.347 207.683 188.841 208.307 188.553 209.192L185.033 208.088C185.459 206.627 186.27 205.453 187.465 204.568C188.67 203.683 190.291 203.24 192.329 203.24C193.865 203.24 195.214 203.491 196.377 203.992C197.55 204.493 198.419 205.315 198.985 206.456C199.294 207.064 199.481 207.688 199.545 208.328C199.609 208.957 199.641 209.645 199.641 210.392V221H196.265V217.256L196.825 217.864C196.046 219.112 195.134 220.029 194.089 220.616C193.054 221.192 191.758 221.48 190.201 221.48ZM190.969 218.408C191.843 218.408 192.59 218.253 193.209 217.944C193.827 217.635 194.318 217.256 194.681 216.808C195.054 216.36 195.305 215.939 195.433 215.544C195.635 215.053 195.747 214.493 195.769 213.864C195.801 213.224 195.817 212.707 195.817 212.312L197.001 212.664C195.838 212.845 194.841 213.005 194.009 213.144C193.177 213.283 192.462 213.416 191.865 213.544C191.267 213.661 190.739 213.795 190.281 213.944C189.833 214.104 189.454 214.291 189.145 214.504C188.835 214.717 188.595 214.963 188.425 215.24C188.265 215.517 188.185 215.843 188.185 216.216C188.185 216.643 188.291 217.021 188.505 217.352C188.718 217.672 189.027 217.928 189.433 218.12C189.849 218.312 190.361 218.408 190.969 218.408ZM203.134 221L203.166 197.96H207.07V212.04L213.39 203.72H218.206L211.502 212.36L218.782 221H213.678L207.07 212.68V221H203.134ZM226.936 221.48C225.155 221.48 223.635 221.085 222.376 220.296C221.118 219.496 220.152 218.408 219.48 217.032C218.819 215.656 218.483 214.099 218.472 212.36C218.483 210.589 218.83 209.021 219.512 207.656C220.206 206.28 221.187 205.203 222.456 204.424C223.726 203.635 225.235 203.24 226.984 203.24C228.947 203.24 230.606 203.736 231.96 204.728C233.326 205.709 234.216 207.053 234.632 208.76L230.792 209.8C230.494 208.872 229.998 208.152 229.304 207.64C228.611 207.117 227.822 206.856 226.936 206.856C225.934 206.856 225.107 207.096 224.456 207.576C223.806 208.045 223.326 208.696 223.016 209.528C222.707 210.36 222.552 211.304 222.552 212.36C222.552 214.003 222.92 215.331 223.656 216.344C224.392 217.357 225.486 217.864 226.936 217.864C227.96 217.864 228.766 217.629 229.352 217.16C229.95 216.691 230.398 216.013 230.696 215.128L234.632 216.008C234.099 217.768 233.166 219.123 231.832 220.072C230.499 221.011 228.867 221.48 226.936 221.48ZM234.639 228.68V225.064H235.455C236.393 225.064 237.06 224.845 237.455 224.408C237.849 223.971 238.047 223.325 238.047 222.472V203.72H241.887V224.2C241.887 225.597 241.476 226.691 240.655 227.48C239.844 228.28 238.713 228.68 237.263 228.68H234.639ZM238.047 201.096V197.56H241.887V201.096H238.047ZM246.098 201.096V197.56H249.954V201.096H246.098ZM246.098 221V203.72H249.954V221H246.098ZM101.544 261.48C99.8587 261.48 98.4453 261.08 97.304 260.28C96.1627 259.48 95.304 258.392 94.728 257.016C94.152 255.629 93.864 254.077 93.864 252.36C93.864 250.621 94.152 249.064 94.728 247.688C95.304 246.312 96.1467 245.229 97.256 244.44C98.376 243.64 99.7573 243.24 101.4 243.24C103.032 243.24 104.445 243.64 105.64 244.44C106.845 245.229 107.779 246.312 108.44 247.688C109.101 249.053 109.432 250.611 109.432 252.36C109.432 254.088 109.107 255.64 108.456 257.016C107.805 258.392 106.888 259.48 105.704 260.28C104.52 261.08 103.133 261.48 101.544 261.48ZM93.208 268.68V243.72H96.616V255.848H97.096V268.68H93.208ZM100.952 258.024C101.955 258.024 102.781 257.773 103.432 257.272C104.083 256.771 104.563 256.093 104.872 255.24C105.192 254.376 105.352 253.416 105.352 252.36C105.352 251.315 105.192 250.365 104.872 249.512C104.552 248.648 104.056 247.965 103.384 247.464C102.712 246.952 101.859 246.696 100.824 246.696C99.8427 246.696 99.0427 246.936 98.424 247.416C97.8053 247.885 97.3467 248.547 97.048 249.4C96.76 250.243 96.616 251.229 96.616 252.36C96.616 253.48 96.76 254.467 97.048 255.32C97.3467 256.173 97.8107 256.84 98.44 257.32C99.08 257.789 99.9173 258.024 100.952 258.024ZM112.319 261V243.72H115.727V247.928L115.311 247.384C115.524 246.808 115.807 246.285 116.159 245.816C116.521 245.336 116.953 244.941 117.455 244.632C117.881 244.344 118.351 244.12 118.863 243.96C119.385 243.789 119.919 243.688 120.463 243.656C121.007 243.613 121.535 243.635 122.047 243.72V247.32C121.535 247.171 120.943 247.123 120.271 247.176C119.609 247.229 119.012 247.416 118.479 247.736C117.945 248.024 117.508 248.392 117.167 248.84C116.836 249.288 116.591 249.8 116.431 250.376C116.271 250.941 116.191 251.555 116.191 252.216V261H112.319ZM128.886 261.48C127.638 261.48 126.582 261.245 125.718 260.776C124.854 260.296 124.198 259.661 123.75 258.872C123.312 258.083 123.094 257.213 123.094 256.264C123.094 255.432 123.232 254.685 123.51 254.024C123.787 253.352 124.214 252.776 124.79 252.296C125.366 251.805 126.112 251.405 127.03 251.096C127.723 250.872 128.534 250.669 129.462 250.488C130.4 250.307 131.414 250.141 132.502 249.992C133.6 249.832 134.747 249.661 135.942 249.48L134.566 250.264C134.576 249.069 134.31 248.189 133.766 247.624C133.222 247.059 132.304 246.776 131.014 246.776C130.235 246.776 129.483 246.957 128.758 247.32C128.032 247.683 127.526 248.307 127.238 249.192L123.718 248.088C124.144 246.627 124.955 245.453 126.15 244.568C127.355 243.683 128.976 243.24 131.014 243.24C132.55 243.24 133.899 243.491 135.062 243.992C136.235 244.493 137.104 245.315 137.67 246.456C137.979 247.064 138.166 247.688 138.23 248.328C138.294 248.957 138.326 249.645 138.326 250.392V261H134.95V257.256L135.51 257.864C134.731 259.112 133.819 260.029 132.774 260.616C131.739 261.192 130.443 261.48 128.886 261.48ZM129.654 258.408C130.528 258.408 131.275 258.253 131.894 257.944C132.512 257.635 133.003 257.256 133.366 256.808C133.739 256.36 133.99 255.939 134.118 255.544C134.32 255.053 134.432 254.493 134.454 253.864C134.486 253.224 134.502 252.707 134.502 252.312L135.686 252.664C134.523 252.845 133.526 253.005 132.694 253.144C131.862 253.283 131.147 253.416 130.55 253.544C129.952 253.661 129.424 253.795 128.966 253.944C128.518 254.104 128.139 254.291 127.83 254.504C127.52 254.717 127.28 254.963 127.11 255.24C126.95 255.517 126.87 255.843 126.87 256.216C126.87 256.643 126.976 257.021 127.19 257.352C127.403 257.672 127.712 257.928 128.118 258.12C128.534 258.312 129.046 258.408 129.654 258.408ZM149.355 261.48C147.574 261.48 146.054 261.085 144.795 260.296C143.537 259.496 142.571 258.408 141.899 257.032C141.238 255.656 140.902 254.099 140.891 252.36C140.902 250.589 141.249 249.021 141.931 247.656C142.625 246.28 143.606 245.203 144.875 244.424C146.145 243.635 147.654 243.24 149.403 243.24C151.366 243.24 153.025 243.736 154.379 244.728C155.745 245.709 156.635 247.053 157.051 248.76L153.211 249.8C152.913 248.872 152.417 248.152 151.723 247.64C151.03 247.117 150.241 246.856 149.355 246.856C148.353 246.856 147.526 247.096 146.875 247.576C146.225 248.045 145.745 248.696 145.435 249.528C145.126 250.36 144.971 251.304 144.971 252.36C144.971 254.003 145.339 255.331 146.075 256.344C146.811 257.357 147.905 257.864 149.355 257.864C150.379 257.864 151.185 257.629 151.771 257.16C152.369 256.691 152.817 256.013 153.115 255.128L157.051 256.008C156.518 257.768 155.585 259.123 154.251 260.072C152.918 261.011 151.286 261.48 149.355 261.48ZM166.781 261.48C165.053 261.48 163.543 261.091 162.253 260.312C160.962 259.533 159.959 258.461 159.245 257.096C158.541 255.72 158.189 254.141 158.189 252.36C158.189 250.547 158.551 248.957 159.277 247.592C160.002 246.227 161.01 245.16 162.301 244.392C163.591 243.624 165.085 243.24 166.781 243.24C168.519 243.24 170.034 243.629 171.325 244.408C172.615 245.187 173.618 246.264 174.333 247.64C175.047 249.005 175.405 250.579 175.405 252.36C175.405 254.152 175.042 255.736 174.317 257.112C173.602 258.477 172.599 259.549 171.309 260.328C170.018 261.096 168.509 261.48 166.781 261.48ZM166.781 257.864C168.317 257.864 169.458 257.352 170.205 256.328C170.951 255.304 171.325 253.981 171.325 252.36C171.325 250.685 170.946 249.352 170.189 248.36C169.431 247.357 168.295 246.856 166.781 246.856C165.746 246.856 164.893 247.091 164.221 247.56C163.559 248.019 163.069 248.664 162.749 249.496C162.429 250.317 162.269 251.272 162.269 252.36C162.269 254.035 162.647 255.373 163.405 256.376C164.173 257.368 165.298 257.864 166.781 257.864ZM181.345 261L176.065 243.688L179.841 243.72L183.217 254.808L186.641 243.72H189.889L193.297 254.808L196.689 243.72H200.465L195.185 261H192.177L188.257 249.112L184.353 261H181.345ZM214.665 261V252.68C214.665 252.136 214.627 251.533 214.553 250.872C214.478 250.211 214.302 249.576 214.025 248.968C213.758 248.349 213.353 247.843 212.809 247.448C212.275 247.053 211.55 246.856 210.633 246.856C210.142 246.856 209.657 246.936 209.177 247.096C208.697 247.256 208.259 247.533 207.865 247.928C207.481 248.312 207.171 248.845 206.937 249.528C206.702 250.2 206.585 251.064 206.585 252.12L204.297 251.144C204.297 249.672 204.579 248.339 205.145 247.144C205.721 245.949 206.563 245 207.673 244.296C208.782 243.581 210.147 243.224 211.769 243.224C213.049 243.224 214.105 243.437 214.937 243.864C215.769 244.291 216.43 244.835 216.921 245.496C217.411 246.157 217.774 246.861 218.009 247.608C218.243 248.355 218.393 249.064 218.457 249.736C218.531 250.397 218.569 250.936 218.569 251.352V261H214.665ZM202.681 261V243.72H206.121V249.08H206.585V261H202.681ZM222.424 241.096V237.56H226.28V241.096H222.424ZM222.424 261V243.72H226.28V261H222.424ZM230.401 261L230.433 237.96H234.337V252.04L240.657 243.72H245.473L238.769 252.36L246.049 261H240.945L234.337 252.68V261H230.401ZM255.851 241.24H252.923L255.387 235.32H258.315L255.851 241.24ZM254.331 261.48C252.603 261.48 251.093 261.091 249.803 260.312C248.512 259.533 247.509 258.461 246.795 257.096C246.091 255.72 245.739 254.141 245.739 252.36C245.739 250.547 246.101 248.957 246.827 247.592C247.552 246.227 248.56 245.16 249.851 244.392C251.141 243.624 252.635 243.24 254.331 243.24C256.069 243.24 257.584 243.629 258.875 244.408C260.165 245.187 261.168 246.264 261.883 247.64C262.597 249.005 262.955 250.579 262.955 252.36C262.955 254.152 262.592 255.736 261.867 257.112C261.152 258.477 260.149 259.549 258.859 260.328C257.568 261.096 256.059 261.48 254.331 261.48ZM254.331 257.864C255.867 257.864 257.008 257.352 257.755 256.328C258.501 255.304 258.875 253.981 258.875 252.36C258.875 250.685 258.496 249.352 257.739 248.36C256.981 247.357 255.845 246.856 254.331 246.856C253.296 246.856 252.443 247.091 251.771 247.56C251.109 248.019 250.619 248.664 250.299 249.496C249.979 250.317 249.819 251.272 249.819 252.36C249.819 254.035 250.197 255.373 250.955 256.376C251.723 257.368 252.848 257.864 254.331 257.864ZM268.895 261L263.615 243.688L267.391 243.72L270.767 254.808L274.191 243.72H277.439L280.847 254.808L284.239 243.72H288.015L282.735 261H279.727L275.807 249.112L271.903 261H268.895Z" fill="#4C3C90"/>
<defs>
<filter id="filter0_dddddd_207_9244" x="0" y="0" width="439.25" height="398" filterUnits="userSpaceOnUse" color-interpolation-filters="sRGB">
<feFlood flood-opacity="0" result="BackgroundImageFix"/>
<feColorMatrix in="SourceAlpha" type="matrix" values="0 0 0 0 0 0 0 0 0 0 0 0 0 0 0 0 0 0 127 0" result="hardAlpha"/>
<feOffset dy="0.703704"/>
<feGaussianBlur stdDeviation="1.27894"/>
<feColorMatrix type="matrix" values="0 0 0 0 0.298039 0 0 0 0 0.235294 0 0 0 0 0.564706 0 0 0 0.0914815 0"/>
<feBlend mode="normal" in2="BackgroundImageFix" result="effect1_dropShadow_207_9244"/>
<feColorMatrix in="SourceAlpha" type="matrix" values="0 0 0 0 0 0 0 0 0 0 0 0 0 0 0 0 0 0 127 0" result="hardAlpha"/>
<feOffset dy="3.0963"/>
<feGaussianBlur stdDeviation="2.64815"/>
<feColorMatrix type="matrix" values="0 0 0 0 0.298039 0 0 0 0 0.235294 0 0 0 0 0.564706 0 0 0 0.149185 0"/>
<feBlend mode="normal" in2="effect1_dropShadow_207_9244" result="effect2_dropShadow_207_9244"/>
<feColorMatrix in="SourceAlpha" type="matrix" values="0 0 0 0 0 0 0 0 0 0 0 0 0 0 0 0 0 0 127 0" result="hardAlpha"/>
<feOffset dy="7.6"/>
<feGaussianBlur stdDeviation="5.28125"/>
<feColorMatrix type="matrix" values="0 0 0 0 0.298039 0 0 0 0 0.235294 0 0 0 0 0.564706 0 0 0 0.19 0"/>
<feBlend mode="normal" in2="effect2_dropShadow_207_9244" result="effect3_dropShadow_207_9244"/>
<feColorMatrix in="SourceAlpha" type="matrix" values="0 0 0 0 0 0 0 0 0 0 0 0 0 0 0 0 0 0 127 0" result="hardAlpha"/>
<feOffset dy="14.637"/>
<feGaussianBlur stdDeviation="10.3519"/>
<feColorMatrix type="matrix" values="0 0 0 0 0.298039 0 0 0 0 0.235294 0 0 0 0 0.564706 0 0 0 0.230815 0"/>
<feBlend mode="normal" in2="effect3_dropShadow_207_9244" result="effect4_dropShadow_207_9244"/>
<feColorMatrix in="SourceAlpha" type="matrix" values="0 0 0 0 0 0 0 0 0 0 0 0 0 0 0 0 0 0 127 0" result="hardAlpha"/>
<feOffset dy="24.6296"/>
<feGaussianBlur stdDeviation="19.0336"/>
<feColorMatrix type="matrix" values="0 0 0 0 0.298039 0 0 0 0 0.235294 0 0 0 0 0.564706 0 0 0 0.288519 0"/>
<feBlend mode="normal" in2="effect4_dropShadow_207_9244" result="effect5_dropShadow_207_9244"/>
<feColorMatrix in="SourceAlpha" type="matrix" values="0 0 0 0 0 0 0 0 0 0 0 0 0 0 0 0 0 0 127 0" result="hardAlpha"/>
<feOffset dy="38"/>
<feGaussianBlur stdDeviation="32.5"/>
<feColorMatrix type="matrix" values="0 0 0 0 0.298039 0 0 0 0 0.235294 0 0 0 0 0.564706 0 0 0 0.38 0"/>
<feBlend mode="normal" in2="effect5_dropShadow_207_9244" result="effect6_dropShadow_207_9244"/>
<feBlend mode="normal" in="SourceGraphic" in2="effect6_dropShadow_207_9244" result="shape"/>
</filter>
</defs>
</svg>
