<svg width="268" height="310" viewBox="0 0 268 310" fill="none" xmlns="http://www.w3.org/2000/svg">
<path d="M2.00006 308L6.10352e-05 308L6.08603e-05 310L2.00006 310L2.00006 308ZM266 308L266 310L268 310L268 308L266 308ZM2.00004 217.25L2.00004 215.25L3.8626e-05 215.25L3.84512e-05 217.25L2.00004 217.25ZM2.00005 134.75L4.56636e-05 134.75L4.54887e-05 136.75L2.00005 136.75L2.00005 134.75ZM2.00008 44L2.00008 42L8.42896e-05 42L8.41148e-05 44L2.00008 44ZM92.7501 44L92.7501 46L94.7501 46L94.7501 44L92.7501 44ZM175.25 44L173.25 44L173.25 46L175.25 46L175.25 44ZM266 44L268 44L268 42L266 42L266 44ZM2.00006 310L266 310L266 306L2.00006 306L2.00006 310ZM3.84512e-05 217.25L6.10352e-05 308L4.00006 308L4.00004 217.25L3.84512e-05 217.25ZM41.25 176C41.25 197.677 23.6772 215.25 2.00004 215.25L2.00004 219.25C25.8864 219.25 45.25 199.886 45.25 176L41.25 176ZM2.00005 136.75C23.6772 136.75 41.25 154.323 41.25 176L45.25 176C45.25 152.114 25.8864 132.75 2.00005 132.75L2.00005 136.75ZM8.41148e-05 44L4.56636e-05 134.75L4.00005 134.75L4.00008 44L8.41148e-05 44ZM92.7501 42L2.00008 42L2.00008 46L92.7501 46L92.7501 42ZM134 0.750019C110.114 0.750017 90.7501 20.1137 90.7501 44L94.7501 44C94.7501 22.3229 112.323 4.75002 134 4.75002L134 0.750019ZM177.25 44C177.25 20.1137 157.886 0.750021 134 0.750019L134 4.75002C155.677 4.75002 173.25 22.3229 173.25 44L177.25 44ZM266 42L175.25 42L175.25 46L266 46L266 42ZM268 308L268 44L264 44L264 308L268 308Z" fill="#4C3C90"/>
<path d="M135.509 236.48C133.824 236.48 132.41 236.08 131.269 235.28C130.128 234.48 129.269 233.392 128.693 232.016C128.117 230.629 127.829 229.077 127.829 227.36C127.829 225.621 128.117 224.064 128.693 222.688C129.269 221.312 130.112 220.229 131.221 219.44C132.341 218.64 133.722 218.24 135.365 218.24C136.997 218.24 138.41 218.64 139.605 219.44C140.81 220.229 141.744 221.312 142.405 222.688C143.066 224.053 143.397 225.611 143.397 227.36C143.397 229.088 143.072 230.64 142.421 232.016C141.77 233.392 140.853 234.48 139.669 235.28C138.485 236.08 137.098 236.48 135.509 236.48ZM127.173 243.68V218.72H130.581V230.848H131.061V243.68H127.173ZM134.917 233.024C135.92 233.024 136.746 232.773 137.397 232.272C138.048 231.771 138.528 231.093 138.837 230.24C139.157 229.376 139.317 228.416 139.317 227.36C139.317 226.315 139.157 225.365 138.837 224.512C138.517 223.648 138.021 222.965 137.349 222.464C136.677 221.952 135.824 221.696 134.789 221.696C133.808 221.696 133.008 221.936 132.389 222.416C131.77 222.885 131.312 223.547 131.013 224.4C130.725 225.243 130.581 226.229 130.581 227.36C130.581 228.48 130.725 229.467 131.013 230.32C131.312 231.173 131.776 231.84 132.405 232.32C133.045 232.789 133.882 233.024 134.917 233.024ZM153.916 236.48C152.188 236.48 150.678 236.091 149.388 235.312C148.097 234.533 147.094 233.461 146.38 232.096C145.676 230.72 145.324 229.141 145.324 227.36C145.324 225.547 145.686 223.957 146.412 222.592C147.137 221.227 148.145 220.16 149.436 219.392C150.726 218.624 152.22 218.24 153.916 218.24C155.654 218.24 157.169 218.629 158.46 219.408C159.75 220.187 160.753 221.264 161.468 222.64C162.182 224.005 162.54 225.579 162.54 227.36C162.54 229.152 162.177 230.736 161.452 232.112C160.737 233.477 159.734 234.549 158.444 235.328C157.153 236.096 155.644 236.48 153.916 236.48ZM153.916 232.864C155.452 232.864 156.593 232.352 157.34 231.328C158.086 230.304 158.46 228.981 158.46 227.36C158.46 225.685 158.081 224.352 157.324 223.36C156.566 222.357 155.43 221.856 153.916 221.856C152.881 221.856 152.028 222.091 151.356 222.56C150.694 223.019 150.204 223.664 149.884 224.496C149.564 225.317 149.404 226.272 149.404 227.36C149.404 229.035 149.782 230.373 150.54 231.376C151.308 232.368 152.433 232.864 153.916 232.864ZM175.553 236C174.412 236.213 173.292 236.304 172.193 236.272C171.105 236.251 170.129 236.053 169.265 235.68C168.401 235.296 167.745 234.693 167.297 233.872C166.902 233.125 166.694 232.363 166.673 231.584C166.652 230.805 166.641 229.925 166.641 228.944V213.92H170.481V228.72C170.481 229.413 170.486 230.021 170.497 230.544C170.518 231.067 170.63 231.493 170.833 231.824C171.217 232.464 171.83 232.821 172.673 232.896C173.516 232.971 174.476 232.928 175.553 232.768V236ZM163.505 221.744V218.72H175.553V221.744H163.505ZM178.629 236V218.72H182.037V222.928L181.621 222.384C181.834 221.808 182.117 221.285 182.469 220.816C182.831 220.336 183.263 219.941 183.765 219.632C184.191 219.344 184.661 219.12 185.173 218.96C185.695 218.789 186.229 218.688 186.773 218.656C187.317 218.613 187.845 218.635 188.357 218.72V222.32C187.845 222.171 187.253 222.123 186.581 222.176C185.919 222.229 185.322 222.416 184.789 222.736C184.255 223.024 183.818 223.392 183.477 223.84C183.146 224.288 182.901 224.8 182.741 225.376C182.581 225.941 182.501 226.555 182.501 227.216V236H178.629ZM189.17 236V235.472L198.322 222.096H190.098V218.72H204.322V219.264L195.202 232.624H203.938V236H189.17ZM213.767 236.48C212.018 236.48 210.482 236.101 209.159 235.344C207.837 234.587 206.802 233.536 206.055 232.192C205.319 230.848 204.951 229.301 204.951 227.552C204.951 225.664 205.314 224.027 206.039 222.64C206.765 221.243 207.773 220.16 209.063 219.392C210.354 218.624 211.847 218.24 213.543 218.24C215.335 218.24 216.855 218.661 218.103 219.504C219.362 220.336 220.295 221.515 220.903 223.04C221.511 224.565 221.741 226.363 221.591 228.432H217.767V227.024C217.757 225.147 217.426 223.776 216.775 222.912C216.125 222.048 215.101 221.616 213.703 221.616C212.125 221.616 210.951 222.107 210.183 223.088C209.415 224.059 209.031 225.483 209.031 227.36C209.031 229.109 209.415 230.464 210.183 231.424C210.951 232.384 212.071 232.864 213.543 232.864C214.493 232.864 215.309 232.656 215.991 232.24C216.685 231.813 217.218 231.2 217.591 230.4L221.399 231.552C220.738 233.109 219.714 234.32 218.327 235.184C216.951 236.048 215.431 236.48 213.767 236.48ZM207.815 228.432V225.52H219.703V228.432H207.815ZM232.825 236.48C231.14 236.48 229.727 236.08 228.585 235.28C227.444 234.48 226.585 233.392 226.009 232.016C225.433 230.629 225.145 229.077 225.145 227.36C225.145 225.621 225.433 224.064 226.009 222.688C226.585 221.312 227.428 220.229 228.537 219.44C229.657 218.64 231.039 218.24 232.681 218.24C234.313 218.24 235.727 218.64 236.921 219.44C238.127 220.229 239.06 221.312 239.721 222.688C240.383 224.053 240.713 225.611 240.713 227.36C240.713 229.088 240.388 230.64 239.737 232.016C239.087 233.392 238.169 234.48 236.985 235.28C235.801 236.08 234.415 236.48 232.825 236.48ZM224.489 236V212.96H228.377V223.872H227.897V236H224.489ZM232.233 233.024C233.236 233.024 234.063 232.773 234.713 232.272C235.364 231.771 235.844 231.093 236.153 230.24C236.473 229.376 236.633 228.416 236.633 227.36C236.633 226.315 236.473 225.365 236.153 224.512C235.833 223.648 235.337 222.965 234.665 222.464C233.993 221.952 233.14 221.696 232.105 221.696C231.124 221.696 230.324 221.936 229.705 222.416C229.087 222.885 228.628 223.547 228.329 224.4C228.041 225.243 227.897 226.229 227.897 227.36C227.897 228.48 228.041 229.467 228.329 230.32C228.628 231.173 229.092 231.84 229.721 232.32C230.361 232.789 231.199 233.024 232.233 233.024ZM30.3732 276.48C28.2399 276.48 26.5066 276 25.1732 275.04C23.8399 274.08 23.0292 272.731 22.7412 270.992L26.6772 270.384C26.8799 271.237 27.3279 271.909 28.0212 272.4C28.7146 272.891 29.5892 273.136 30.6452 273.136C31.5732 273.136 32.2879 272.955 32.7892 272.592C33.3012 272.219 33.5572 271.712 33.5572 271.072C33.5572 270.677 33.4612 270.363 33.2692 270.128C33.0879 269.883 32.6826 269.648 32.0532 269.424C31.4239 269.2 30.4586 268.917 29.1572 268.576C27.7066 268.192 26.5546 267.781 25.7012 267.344C24.8479 266.896 24.2346 266.368 23.8612 265.76C23.4879 265.152 23.3012 264.416 23.3012 263.552C23.3012 262.475 23.5839 261.536 24.1492 260.736C24.7146 259.936 25.5039 259.323 26.5172 258.896C27.5306 258.459 28.7252 258.24 30.1012 258.24C31.4452 258.24 32.6346 258.448 33.6692 258.864C34.7146 259.28 35.5572 259.872 36.1972 260.64C36.8372 261.408 37.2319 262.309 37.3812 263.344L33.4452 264.048C33.3492 263.312 33.0132 262.731 32.4372 262.304C31.8719 261.877 31.1146 261.637 30.1652 261.584C29.2586 261.531 28.5279 261.669 27.9732 262C27.4186 262.32 27.1412 262.773 27.1412 263.36C27.1412 263.691 27.2532 263.973 27.4772 264.208C27.7012 264.443 28.1492 264.677 28.8212 264.912C29.5039 265.147 30.5172 265.435 31.8612 265.776C33.2372 266.128 34.3359 266.533 35.1572 266.992C35.9892 267.44 36.5866 267.979 36.9492 268.608C37.3226 269.237 37.5092 270 37.5092 270.896C37.5092 272.635 36.8746 274 35.6052 274.992C34.3466 275.984 32.6026 276.48 30.3732 276.48ZM38.7737 276V275.472L47.9257 262.096H39.7017V258.72H53.9257V259.264L44.8057 272.624H53.5417V276H38.7737ZM56.7642 276L56.7962 252.96H60.7002V267.04L67.0202 258.72H71.8362L65.1322 267.36L72.4122 276H67.3082L60.7002 267.68V276H56.7642ZM80.6945 276.48C78.9665 276.48 77.4572 276.091 76.1665 275.312C74.8758 274.533 73.8732 273.461 73.1585 272.096C72.4545 270.72 72.1025 269.141 72.1025 267.36C72.1025 265.547 72.4652 263.957 73.1905 262.592C73.9158 261.227 74.9238 260.16 76.2145 259.392C77.5052 258.624 78.9985 258.24 80.6945 258.24C82.4332 258.24 83.9478 258.629 85.2385 259.408C86.5292 260.187 87.5318 261.264 88.2465 262.64C88.9612 264.005 89.3185 265.579 89.3185 267.36C89.3185 269.152 88.9558 270.736 88.2305 272.112C87.5158 273.477 86.5132 274.549 85.2225 275.328C83.9318 276.096 82.4225 276.48 80.6945 276.48ZM80.6945 272.864C82.2305 272.864 83.3718 272.352 84.1185 271.328C84.8652 270.304 85.2385 268.981 85.2385 267.36C85.2385 265.685 84.8598 264.352 84.1025 263.36C83.3452 262.357 82.2092 261.856 80.6945 261.856C79.6598 261.856 78.8065 262.091 78.1345 262.56C77.4732 263.019 76.9825 263.664 76.6625 264.496C76.3425 265.317 76.1825 266.272 76.1825 267.36C76.1825 269.035 76.5612 270.373 77.3185 271.376C78.0865 272.368 79.2118 272.864 80.6945 272.864ZM92.5237 276V252.48H96.3797V276H92.5237ZM108.388 276.48C106.639 276.48 105.103 276.101 103.78 275.344C102.458 274.587 101.423 273.536 100.676 272.192C99.9405 270.848 99.5725 269.301 99.5725 267.552C99.5725 265.664 99.9352 264.027 100.66 262.64C101.386 261.243 102.394 260.16 103.684 259.392C104.975 258.624 106.468 258.24 108.164 258.24C109.956 258.24 111.476 258.661 112.724 259.504C113.983 260.336 114.916 261.515 115.524 263.04C116.132 264.565 116.362 266.363 116.212 268.432H112.388V267.024C112.378 265.147 112.047 263.776 111.396 262.912C110.746 262.048 109.722 261.616 108.324 261.616C106.746 261.616 105.572 262.107 104.804 263.088C104.036 264.059 103.652 265.483 103.652 267.36C103.652 269.109 104.036 270.464 104.804 271.424C105.572 272.384 106.692 272.864 108.164 272.864C109.114 272.864 109.93 272.656 110.612 272.24C111.306 271.813 111.839 271.2 112.212 270.4L116.02 271.552C115.359 273.109 114.335 274.32 112.948 275.184C111.572 276.048 110.052 276.48 108.388 276.48ZM102.436 268.432V265.52H114.324V268.432H102.436ZM130.626 276V267.68C130.626 267.136 130.588 266.533 130.514 265.872C130.439 265.211 130.263 264.576 129.986 263.968C129.719 263.349 129.314 262.843 128.77 262.448C128.236 262.053 127.511 261.856 126.594 261.856C126.103 261.856 125.618 261.936 125.138 262.096C124.658 262.256 124.22 262.533 123.826 262.928C123.442 263.312 123.132 263.845 122.898 264.528C122.663 265.2 122.546 266.064 122.546 267.12L120.258 266.144C120.258 264.672 120.54 263.339 121.106 262.144C121.682 260.949 122.524 260 123.634 259.296C124.743 258.581 126.108 258.224 127.73 258.224C129.01 258.224 130.066 258.437 130.898 258.864C131.73 259.291 132.391 259.835 132.882 260.496C133.372 261.157 133.735 261.861 133.97 262.608C134.204 263.355 134.354 264.064 134.418 264.736C134.492 265.397 134.53 265.936 134.53 266.352V276H130.626ZM118.642 276V258.72H122.082V264.08H122.546V276H118.642ZM138.385 256.096V252.56H142.241V256.096H138.385ZM138.385 276V258.72H142.241V276H138.385ZM154.026 276.48C152.298 276.48 150.788 276.091 149.498 275.312C148.207 274.533 147.204 273.461 146.49 272.096C145.786 270.72 145.434 269.141 145.434 267.36C145.434 265.547 145.796 263.957 146.522 262.592C147.247 261.227 148.255 260.16 149.546 259.392C150.836 258.624 152.33 258.24 154.026 258.24C155.764 258.24 157.279 258.629 158.57 259.408C159.86 260.187 160.863 261.264 161.578 262.64C162.292 264.005 162.65 265.579 162.65 267.36C162.65 269.152 162.287 270.736 161.562 272.112C160.847 273.477 159.844 274.549 158.554 275.328C157.263 276.096 155.754 276.48 154.026 276.48ZM154.026 272.864C155.562 272.864 156.703 272.352 157.45 271.328C158.196 270.304 158.57 268.981 158.57 267.36C158.57 265.685 158.191 264.352 157.434 263.36C156.676 262.357 155.54 261.856 154.026 261.856C152.991 261.856 152.138 262.091 151.466 262.56C150.804 263.019 150.314 263.664 149.994 264.496C149.674 265.317 149.514 266.272 149.514 267.36C149.514 269.035 149.892 270.373 150.65 271.376C151.418 272.368 152.543 272.864 154.026 272.864ZM168.59 276L163.31 258.688L167.086 258.72L170.462 269.808L173.886 258.72H177.134L180.542 269.808L183.934 258.72H187.71L182.43 276H179.422L175.502 264.112L171.598 276H168.59ZM192.073 283.68L195.401 274.544L195.465 277.232L187.929 258.72H191.945L197.289 272.416H196.265L201.465 258.72H205.321L195.689 283.68H192.073ZM213.946 276.48C212.165 276.48 210.645 276.085 209.386 275.296C208.128 274.496 207.162 273.408 206.49 272.032C205.829 270.656 205.493 269.099 205.482 267.36C205.493 265.589 205.84 264.021 206.522 262.656C207.216 261.28 208.197 260.203 209.466 259.424C210.736 258.635 212.245 258.24 213.995 258.24C215.957 258.24 217.616 258.736 218.97 259.728C220.336 260.709 221.226 262.053 221.642 263.76L217.802 264.8C217.504 263.872 217.008 263.152 216.314 262.64C215.621 262.117 214.832 261.856 213.946 261.856C212.944 261.856 212.117 262.096 211.466 262.576C210.816 263.045 210.336 263.696 210.026 264.528C209.717 265.36 209.562 266.304 209.562 267.36C209.562 269.003 209.93 270.331 210.666 271.344C211.402 272.357 212.496 272.864 213.946 272.864C214.97 272.864 215.776 272.629 216.363 272.16C216.96 271.691 217.408 271.013 217.707 270.128L221.642 271.008C221.109 272.768 220.176 274.123 218.842 275.072C217.509 276.011 215.877 276.48 213.946 276.48ZM236.161 276V267.68C236.161 267.136 236.123 266.533 236.049 265.872C235.974 265.211 235.798 264.576 235.521 263.968C235.254 263.349 234.849 262.843 234.305 262.448C233.771 262.053 233.046 261.856 232.129 261.856C231.638 261.856 231.153 261.936 230.673 262.096C230.193 262.256 229.755 262.533 229.361 262.928C228.977 263.312 228.667 263.845 228.433 264.528C228.198 265.2 228.081 266.064 228.081 267.12L225.793 266.144C225.793 264.672 226.075 263.339 226.641 262.144C227.217 260.949 228.059 260 229.169 259.296C230.278 258.581 231.643 258.224 233.265 258.224C234.545 258.224 235.601 258.437 236.433 258.864C237.265 259.291 237.926 259.835 238.417 260.496C238.907 261.157 239.27 261.861 239.505 262.608C239.739 263.355 239.889 264.064 239.953 264.736C240.027 265.397 240.065 265.936 240.065 266.352V276H236.161ZM224.177 276V252.96H227.617V265.088H228.081V276H224.177Z" fill="#4C3C90"/>
</svg>
