<svg width="258" height="58" viewBox="0 0 258 58" fill="none" xmlns="http://www.w3.org/2000/svg">
<path d="M20.9246 14.44C24.5513 14.44 27.5246 15.32 29.8446 17.08C32.1646 18.84 33.5646 21.2133 34.0446 24.2H25.7646C25.338 23.4267 24.7113 22.8133 23.8846 22.36C23.058 21.9067 22.0846 21.68 20.9646 21.68C19.0446 21.68 17.5113 22.3333 16.3646 23.64C15.2446 24.92 14.6846 26.64 14.6846 28.8C14.6846 31.2533 15.2846 33.12 16.4846 34.4C17.7113 35.6533 19.498 36.28 21.8446 36.28C23.178 36.28 24.3513 35.96 25.3646 35.32C26.378 34.68 27.178 33.7333 27.7646 32.48H19.9246V26.88H34.2846V34.68C33.2713 37.0267 31.6446 39.04 29.4046 40.72C27.1913 42.3733 24.3913 43.2 21.0046 43.2C18.1246 43.2 15.6046 42.6 13.4446 41.4C11.2846 40.1733 9.61796 38.4667 8.44462 36.28C7.29796 34.0933 6.72462 31.6 6.72462 28.8C6.72462 26 7.29796 23.52 8.44462 21.36C9.61796 19.1733 11.2713 17.48 13.4046 16.28C15.538 15.0533 18.0446 14.44 20.9246 14.44ZM56.1981 43L50.4781 32.56H49.6781V43H41.7981V14.68H54.2381C56.5047 14.68 58.4247 15.08 59.9981 15.88C61.5981 16.6533 62.7981 17.7333 63.5981 19.12C64.3981 20.5067 64.7981 22.0667 64.7981 23.8C64.7981 25.7733 64.2514 27.4933 63.1581 28.96C62.0647 30.4 60.4914 31.4133 58.4381 32L64.8781 43H56.1981ZM49.6781 27.28H53.5581C55.7447 27.28 56.8381 26.2933 56.8381 24.32C56.8381 23.3867 56.5581 22.6533 55.9981 22.12C55.4647 21.5867 54.6514 21.32 53.5581 21.32H49.6781V27.28ZM79.6109 14.68V30.84C79.6109 32.44 79.9575 33.68 80.6509 34.56C81.3709 35.4133 82.4509 35.84 83.8909 35.84C85.3309 35.84 86.4109 35.4 87.1309 34.52C87.8775 33.64 88.2509 32.4133 88.2509 30.84V14.68H96.0909V30.84C96.0909 33.5067 95.5442 35.7733 94.4509 37.64C93.3842 39.5067 91.9175 40.92 90.0509 41.88C88.1842 42.8133 86.0775 43.28 83.7309 43.28C81.3842 43.28 79.3042 42.8133 77.4909 41.88C75.7042 40.9467 74.3042 39.5467 73.2909 37.68C72.2775 35.8133 71.7709 33.5333 71.7709 30.84V14.68H79.6109ZM112.131 33.52V43H104.251V14.68H116.011C119.425 14.68 122.025 15.5467 123.811 17.28C125.625 18.9867 126.531 21.28 126.531 24.16C126.531 25.9467 126.131 27.5467 125.331 28.96C124.531 30.3733 123.331 31.4933 121.731 32.32C120.158 33.12 118.251 33.52 116.011 33.52H112.131ZM115.131 27.32C117.425 27.32 118.571 26.2667 118.571 24.16C118.571 22.08 117.425 21.04 115.131 21.04H112.131V27.32H115.131ZM151.483 38.28H141.443L139.883 43H131.603L141.963 14.8H151.043L161.363 43H153.043L151.483 38.28ZM149.523 32.36L146.483 23.16L143.403 32.36H149.523Z" fill="#4C3C90"/>
<path d="M204.07 5L205.947 8.75351L205.998 8.85645H248.779V49.1436H226.026L227.954 53H252.635V5H204.07ZM174.221 49.1436V8.85645H200.239L198.337 5H170.365V53H222.221L220.293 49.1436H174.221Z" fill="#4C3C90"/>
<path d="M240.989 17.1094L231.117 36.9572L228.263 42.7162L225.383 36.9572L222.684 31.5068L219.959 36.9572L217.105 42.7162L214.225 36.9572L211.526 31.5068L208.801 36.9572L205.947 42.7162L203.067 36.9572L200.368 31.5325L197.668 36.9572L194.789 42.7162L191.935 36.9572L182.063 17.1094H187.822L194.815 31.1725L197.488 25.7478L200.368 19.9889L203.247 25.7478L205.947 31.1725L208.646 25.7478L205.947 20.2974L204.353 17.1094H210.112L211.526 19.9631L212.94 17.1094H215.511L218.696 17.1145L214.38 25.7478L217.105 31.1725L219.804 25.7221L222.684 19.9631L225.538 25.7221L228.263 31.1725L235.256 17.1094H240.989Z" fill="#4C3C90"/>
</svg>
