<svg xmlns="http://www.w3.org/2000/svg" viewBox="0 0 456.32 99.31"><defs><style>.cls-1{fill:#58595b;}.cls-2{fill:#c23f27;}</style></defs><g id="Warstwa_2" data-name="Warstwa 2"><g id="Layer_1" data-name="Layer 1"><path class="cls-1" d="M7.46,32.08a25.78,25.78,0,0,1,18.19-6.92,24.79,24.79,0,0,1,19.11,8.37l-8.71,7.29a13.85,13.85,0,0,0-10.4-4.19,12.5,12.5,0,0,0-9.11,3.65,12.23,12.23,0,0,0-3.71,9.11,12.12,12.12,0,0,0,3.71,9.08,12.54,12.54,0,0,0,9.11,3.61q6.29,0,9.79-4V54.86H23.29V44.2H46.51V63.1a24.08,24.08,0,0,1-8.81,7.59,25.69,25.69,0,0,1-12.05,2.87A25.85,25.85,0,0,1,7.46,66.67,22.54,22.54,0,0,1,0,49.39,22.63,22.63,0,0,1,7.46,32.08Z"/><path class="cls-1" d="M63.3,25.83H84.7a16.65,16.65,0,0,1,12,4.73A15.32,15.32,0,0,1,101.58,42a15.3,15.3,0,0,1-2.2,8.13,13.26,13.26,0,0,1-5.84,5.3l11.75,17.41H90.57L81,58.24H76.13V72.88H63.3ZM83.28,48a5.54,5.54,0,0,0,4-1.46,5.42,5.42,0,0,0,1.49-4.08,5.12,5.12,0,0,0-1.28-3.61,4.19,4.19,0,0,0-3.18-1.39H76.13V48Z"/><path class="cls-1" d="M117.7,25.83h12.83V51.28q0,5.8,2.16,8.24a9,9,0,0,0,12.28,0q2.16-2.43,2.16-8.24V25.83H160v26.8q0,10.2-6,15.56t-15.12,5.37q-9.12,0-15.12-5.37t-6-15.56Z"/><path class="cls-1" d="M177.68,25.83h22.07a15.66,15.66,0,0,1,5.51,1.05,19.33,19.33,0,0,1,5.29,3,15.1,15.1,0,0,1,4.12,5.3,16.47,16.47,0,0,1,1.62,7.36,15.52,15.52,0,0,1-5.16,11.91,16.46,16.46,0,0,1-11.38,4.76h-9.24V72.88H177.68Zm21.53,21.81a3.8,3.8,0,0,0,1-.14,10.4,10.4,0,0,0,1.42-.54,3.13,3.13,0,0,0,1.49-1.55,6.31,6.31,0,0,0,.57-2.83,6.73,6.73,0,0,0-.57-2.94,3.11,3.11,0,0,0-1.52-1.59,7.39,7.39,0,0,0-1.46-.5,4.73,4.73,0,0,0-1-.11h-8.64v10.2Z"/><path class="cls-1" d="M242.48,25.83h11.74L273.4,72.88H259.83l-2.43-6.14H239.31l-2.5,6.14h-13.5Zm11.54,31-5.67-14.58-5.67,14.58Z"/><polygon class="cls-2" points="391.69 90.54 295.96 90.54 295.96 8.76 349.64 8.76 345.13 0 287.2 0 287.2 99.31 396.2 99.31 391.69 90.54"/><polygon class="cls-2" points="356.39 0 360.9 8.76 447.56 8.76 447.56 90.54 402.95 90.54 407.46 99.31 456.32 99.31 456.32 0 356.39 0"/><path class="cls-2" d="M348.55,30.69l11.62,23.37L374.36,25.3h11.49L360.49,76.65h-.64L348.62,53.93,337.38,76.65h-.64L311.38,25.3h11.43l14.25,28.76Z"/><path class="cls-2" d="M394.84,30.69l11.62,23.37L420.65,25.3h11.49L406.78,76.65h-.64L394.91,53.93,383.67,76.65H383L357.67,25.3H369.1l14.25,28.76Z"/></g></g></svg>