<svg width="248" height="32" viewBox="0 0 248 32" fill="none" xmlns="http://www.w3.org/2000/svg">
<g clip-path="url(#clip0_55_3393)">
<path d="M29.2497 5.11348e-05L-0.000244141 29.2238L2.77802 31.9998L32.028 2.77602L29.2497 5.11348e-05Z" fill="#4C3C90"/>
<path d="M29.2497 5.11348e-05L-0.000244141 29.2238L2.77802 31.9998L32.028 2.77602L29.2497 5.11348e-05Z" fill="black" fill-opacity="0.4"/>
<path d="M20.0173 32C20.0208 28.8185 21.2874 25.7683 23.539 23.5186C25.7906 21.2689 28.8434 20.0035 32.0277 19.9999V16C29.9248 16 27.8424 16.4139 25.8995 17.2179C23.9566 18.022 22.1913 19.2006 20.7042 20.6863C19.2172 22.1721 18.0377 23.9359 17.2329 25.8771C16.4281 27.8183 16.0139 29.8989 16.0139 32H20.0173Z" fill="#4C3C90"/>
<path d="M20.0173 32C20.0208 28.8185 21.2874 25.7683 23.539 23.5186C25.7906 21.2689 28.8434 20.0035 32.0277 19.9999V16C29.9248 16 27.8424 16.4139 25.8995 17.2179C23.9566 18.022 22.1913 19.2006 20.7042 20.6863C19.2172 22.1721 18.0377 23.9359 17.2329 25.8771C16.4281 27.8183 16.0139 29.8989 16.0139 32H20.0173Z" fill="black" fill-opacity="0.4"/>
<path d="M12.0104 3.05176e-05C12.0069 3.18156 10.7403 6.23176 8.48872 8.48144C6.2371 10.7311 3.18427 11.9966 0 12.0001V16.0001C4.24712 16.0001 8.32029 14.3144 11.3235 11.3139C14.3266 8.31327 16.0138 4.24361 16.0138 0.00014356H12.0104V3.05176e-05Z" fill="#4C3C90"/>
<path d="M12.0104 3.05176e-05C12.0069 3.18156 10.7403 6.23176 8.48872 8.48144C6.2371 10.7311 3.18427 11.9966 0 12.0001V16.0001C4.24712 16.0001 8.32029 14.3144 11.3235 11.3139C14.3266 8.31327 16.0138 4.24361 16.0138 0.00014356H12.0104V3.05176e-05Z" fill="black" fill-opacity="0.4"/>
<path d="M44.0383 6.66962H58.771V9.7556H47.621V14.6314H57.0414V17.6865H47.621V26.6666H44.0383V6.66962Z" fill="#4C3C90"/>
<path d="M44.0383 6.66962H58.771V9.7556H47.621V14.6314H57.0414V17.6865H47.621V26.6666H44.0383V6.66962Z" fill="black" fill-opacity="0.4"/>
<path d="M59.791 19.0444C59.791 14.6314 62.6634 11.0826 66.8639 11.0826C67.8266 11.0628 68.7819 11.2542 69.6624 11.6435C70.5429 12.0327 71.3272 12.6103 71.9599 13.3355V11.3909H75.3884V26.6665H71.9599V24.7532C70.7556 26.1726 68.9333 26.9752 66.864 26.9752C62.6634 26.9753 59.791 23.4263 59.791 19.0444ZM71.9599 19.0444C71.9599 16.3594 70.1686 14.3844 67.7287 14.3844C65.1341 14.3844 63.281 16.3594 63.281 19.0444C63.281 21.7294 65.134 23.6733 67.7287 23.6733C70.1377 23.6733 71.9599 21.76 71.9599 19.0444Z" fill="#4C3C90"/>
<path d="M59.791 19.0444C59.791 14.6314 62.6634 11.0826 66.8639 11.0826C67.8266 11.0628 68.7819 11.2542 69.6624 11.6435C70.5429 12.0327 71.3272 12.6103 71.9599 13.3355V11.3909H75.3884V26.6665H71.9599V24.7532C70.7556 26.1726 68.9333 26.9752 66.864 26.9752C62.6634 26.9753 59.791 23.4263 59.791 19.0444ZM71.9599 19.0444C71.9599 16.3594 70.1686 14.3844 67.7287 14.3844C65.1341 14.3844 63.281 16.3594 63.281 19.0444C63.281 21.7294 65.134 23.6733 67.7287 23.6733C70.1377 23.6733 71.9599 21.76 71.9599 19.0444Z" fill="black" fill-opacity="0.4"/>
<path d="M78.6631 24.7534L79.9604 21.9452C81.3092 23.108 83.028 23.7533 84.8095 23.7659C86.1992 23.7659 87.8363 23.2412 87.8363 22.1613C87.8363 21.0503 86.2919 20.7725 84.7786 20.3404C81.8753 19.5381 79.4043 18.6741 79.4043 15.6807C79.4043 12.6873 82.462 11.0827 85.149 11.0827C87.4347 11.0827 88.9482 11.6689 90.616 12.6564L89.3496 15.4337C88.0894 14.6818 86.6479 14.2871 85.18 14.2922C84.0374 14.2922 82.8946 14.8167 82.8946 15.619C82.8946 16.6682 84.161 16.9152 85.5199 17.193C88.3615 17.8101 91.3264 18.9519 91.3264 22.0996C91.3264 25.6792 87.651 26.9754 84.8095 26.9754C81.659 26.9753 79.497 25.5557 78.6631 24.7534Z" fill="#4C3C90"/>
<path d="M78.6631 24.7534L79.9604 21.9452C81.3092 23.108 83.028 23.7533 84.8095 23.7659C86.1992 23.7659 87.8363 23.2412 87.8363 22.1613C87.8363 21.0503 86.2919 20.7725 84.7786 20.3404C81.8753 19.5381 79.4043 18.6741 79.4043 15.6807C79.4043 12.6873 82.462 11.0827 85.149 11.0827C87.4347 11.0827 88.9482 11.6689 90.616 12.6564L89.3496 15.4337C88.0894 14.6818 86.6479 14.2871 85.18 14.2922C84.0374 14.2922 82.8946 14.8167 82.8946 15.619C82.8946 16.6682 84.161 16.9152 85.5199 17.193C88.3615 17.8101 91.3264 18.9519 91.3264 22.0996C91.3264 25.6792 87.651 26.9754 84.8095 26.9754C81.659 26.9753 79.497 25.5557 78.6631 24.7534Z" fill="black" fill-opacity="0.4"/>
<path d="M95.6505 21.76V14.1995H93.396V11.3909H95.6505V8.39769L99.079 7.68799V11.3909H103.681V14.1994H99.079V21.8525C99.079 23.4879 99.8511 24.0127 100.716 24.0127C101.512 23.9785 102.282 23.7218 102.94 23.2719L103.959 25.8333C102.875 26.5703 101.595 26.9678 100.284 26.9752C97.1641 26.9753 95.6505 25.2778 95.6505 21.76Z" fill="#4C3C90"/>
<path d="M95.6505 21.76V14.1995H93.396V11.3909H95.6505V8.39769L99.079 7.68799V11.3909H103.681V14.1994H99.079V21.8525C99.079 23.4879 99.8511 24.0127 100.716 24.0127C101.512 23.9785 102.282 23.7218 102.94 23.2719L103.959 25.8333C102.875 26.5703 101.595 26.9678 100.284 26.9752C97.1641 26.9753 95.6505 25.2778 95.6505 21.76Z" fill="black" fill-opacity="0.4"/>
<path d="M115.079 24.1054L116.469 21.3896C118.322 22.9546 120.684 23.7887 123.109 23.735C125.271 23.735 127.433 22.7166 127.433 20.8958C127.433 19.075 125.364 18.5195 123.325 18.0259C119.65 17.1619 115.851 15.9892 115.851 12.0083C115.851 8.2745 119.403 6.36103 123.109 6.36103C125.645 6.32026 128.13 7.07574 130.213 8.52097L128.823 11.2677C127.125 10.1609 125.137 9.58112 123.109 9.60126C121.781 9.60126 119.496 10.1569 119.496 11.9776C119.496 13.5822 121.287 14.1069 123.696 14.6931C127.495 15.588 131.17 17.0077 131.17 20.896C131.17 25.0929 127.032 26.9753 123.078 26.9753C118.723 26.9753 116.407 25.3396 115.079 24.1054Z" fill="#4C3C90"/>
<path d="M115.079 24.1054L116.469 21.3896C118.322 22.9546 120.684 23.7887 123.109 23.735C125.271 23.735 127.433 22.7166 127.433 20.8958C127.433 19.075 125.364 18.5195 123.325 18.0259C119.65 17.1619 115.851 15.9892 115.851 12.0083C115.851 8.2745 119.403 6.36103 123.109 6.36103C125.645 6.32026 128.13 7.07574 130.213 8.52097L128.823 11.2677C127.125 10.1609 125.137 9.58112 123.109 9.60126C121.781 9.60126 119.496 10.1569 119.496 11.9776C119.496 13.5822 121.287 14.1069 123.696 14.6931C127.495 15.588 131.17 17.0077 131.17 20.896C131.17 25.0929 127.032 26.9753 123.078 26.9753C118.723 26.9753 116.407 25.3396 115.079 24.1054Z" fill="black" fill-opacity="0.4"/>
<path d="M134.414 19.0444C134.414 14.6005 138.028 11.0826 142.537 11.0826C147.047 11.0826 150.66 14.6005 150.66 19.0444C150.66 23.4572 147.046 26.9753 142.537 26.9753C138.028 26.9753 134.414 23.4572 134.414 19.0444ZM147.17 19.0444C147.17 18.1289 146.898 17.2339 146.389 16.4726C145.88 15.7114 145.157 15.1181 144.31 14.7677C143.463 14.4173 142.532 14.3256 141.633 14.5042C140.734 14.6828 139.909 15.1237 139.261 15.7711C138.613 16.4185 138.172 17.2433 137.993 18.1412C137.814 19.0392 137.906 19.9699 138.257 20.8158C138.607 21.6616 139.201 22.3846 139.963 22.8932C140.725 23.4018 141.621 23.6733 142.537 23.6733C143.149 23.686 143.757 23.575 144.325 23.3469C144.893 23.1188 145.409 22.7783 145.841 22.3459C146.274 21.9135 146.615 21.3981 146.843 20.8308C147.072 20.2634 147.183 19.6558 147.17 19.0444Z" fill="#4C3C90"/>
<path d="M134.414 19.0444C134.414 14.6005 138.028 11.0826 142.537 11.0826C147.047 11.0826 150.66 14.6005 150.66 19.0444C150.66 23.4572 147.046 26.9753 142.537 26.9753C138.028 26.9753 134.414 23.4572 134.414 19.0444ZM147.17 19.0444C147.17 18.1289 146.898 17.2339 146.389 16.4726C145.88 15.7114 145.157 15.1181 144.31 14.7677C143.463 14.4173 142.532 14.3256 141.633 14.5042C140.734 14.6828 139.909 15.1237 139.261 15.7711C138.613 16.4185 138.172 17.2433 137.993 18.1412C137.814 19.0392 137.906 19.9699 138.257 20.8158C138.607 21.6616 139.201 22.3846 139.963 22.8932C140.725 23.4018 141.621 23.6733 142.537 23.6733C143.149 23.686 143.757 23.575 144.325 23.3469C144.893 23.1188 145.409 22.7783 145.841 22.3459C146.274 21.9135 146.615 21.3981 146.843 20.8308C147.072 20.2634 147.183 19.6558 147.17 19.0444Z" fill="black" fill-opacity="0.4"/>
<path d="M154.213 6.36124H157.641V26.6666H154.213V6.36124Z" fill="#4C3C90"/>
<path d="M154.213 6.36124H157.641V26.6666H154.213V6.36124Z" fill="black" fill-opacity="0.4"/>
<path d="M161.502 20.6799V11.3909H164.93V20.1861C164.93 22.6239 166.011 23.6731 168.142 23.6731C170.52 23.6731 171.787 21.6981 171.787 19.507V11.3909H175.215V26.6665H171.972V24.3212C171.046 25.9878 168.915 26.9753 167.061 26.9753C163.015 26.9752 161.502 24.6916 161.502 20.6799Z" fill="#4C3C90"/>
<path d="M161.502 20.6799V11.3909H164.93V20.1861C164.93 22.6239 166.011 23.6731 168.142 23.6731C170.52 23.6731 171.787 21.6981 171.787 19.507V11.3909H175.215V26.6665H171.972V24.3212C171.046 25.9878 168.915 26.9753 167.061 26.9753C163.015 26.9752 161.502 24.6916 161.502 20.6799Z" fill="black" fill-opacity="0.4"/>
<path d="M180.251 21.76V14.1995H177.996V11.3909H180.251V8.39769L183.679 7.68799V11.3909H188.281V14.1994H183.679V21.8525C183.679 23.4879 184.451 24.0127 185.316 24.0127C186.112 23.9785 186.882 23.7218 187.54 23.2719L188.559 25.8333C187.475 26.5703 186.195 26.9678 184.884 26.9752C181.764 26.9753 180.251 25.2778 180.251 21.76Z" fill="#4C3C90"/>
<path d="M180.251 21.76V14.1995H177.996V11.3909H180.251V8.39769L183.679 7.68799V11.3909H188.281V14.1994H183.679V21.8525C183.679 23.4879 184.451 24.0127 185.316 24.0127C186.112 23.9785 186.882 23.7218 187.54 23.2719L188.559 25.8333C187.475 26.5703 186.195 26.9678 184.884 26.9752C181.764 26.9753 180.251 25.2778 180.251 21.76Z" fill="black" fill-opacity="0.4"/>
<path d="M191.123 7.10179C191.122 6.55021 191.339 6.02045 191.726 5.62755C192.114 5.23464 192.641 5.01032 193.193 5.0033C193.748 5.00916 194.279 5.23215 194.671 5.62443C195.064 6.01672 195.287 6.54708 195.293 7.10179C195.286 7.65329 195.061 8.17977 194.668 8.5669C194.275 8.95402 193.745 9.17053 193.193 9.1694C192.644 9.16938 192.117 8.95153 191.729 8.56379C191.341 8.17604 191.123 7.65014 191.123 7.10179ZM191.494 11.3909H194.922V26.6665H191.494V11.3909Z" fill="#4C3C90"/>
<path d="M191.123 7.10179C191.122 6.55021 191.339 6.02045 191.726 5.62755C192.114 5.23464 192.641 5.01032 193.193 5.0033C193.748 5.00916 194.279 5.23215 194.671 5.62443C195.064 6.01672 195.287 6.54708 195.293 7.10179C195.286 7.65329 195.061 8.17977 194.668 8.5669C194.275 8.95402 193.745 9.17053 193.193 9.1694C192.644 9.16938 192.117 8.95153 191.729 8.56379C191.341 8.17604 191.123 7.65014 191.123 7.10179ZM191.494 11.3909H194.922V26.6665H191.494V11.3909Z" fill="black" fill-opacity="0.4"/>
<path d="M198.474 19.0444C198.474 14.6005 202.088 11.0826 206.597 11.0826C211.107 11.0826 214.72 14.6005 214.72 19.0444C214.72 23.4572 211.106 26.9753 206.597 26.9753C202.088 26.9753 198.474 23.4572 198.474 19.0444ZM211.23 19.0444C211.23 18.1289 210.958 17.2339 210.449 16.4726C209.94 15.7114 209.217 15.118 208.37 14.7677C207.524 14.4173 206.592 14.3256 205.693 14.5042C204.795 14.6828 203.969 15.1237 203.321 15.7711C202.673 16.4185 202.232 17.2433 202.053 18.1413C201.874 19.0392 201.966 19.9699 202.317 20.8158C202.667 21.6616 203.261 22.3846 204.023 22.8932C204.785 23.4018 205.681 23.6733 206.597 23.6733C207.209 23.686 207.817 23.575 208.385 23.3469C208.953 23.1188 209.469 22.7783 209.902 22.3459C210.334 21.9135 210.675 21.3981 210.903 20.8308C211.132 20.2634 211.243 19.6558 211.23 19.0444H211.23Z" fill="#4C3C90"/>
<path d="M198.474 19.0444C198.474 14.6005 202.088 11.0826 206.597 11.0826C211.107 11.0826 214.72 14.6005 214.72 19.0444C214.72 23.4572 211.106 26.9753 206.597 26.9753C202.088 26.9753 198.474 23.4572 198.474 19.0444ZM211.23 19.0444C211.23 18.1289 210.958 17.2339 210.449 16.4726C209.94 15.7114 209.217 15.118 208.37 14.7677C207.524 14.4173 206.592 14.3256 205.693 14.5042C204.795 14.6828 203.969 15.1237 203.321 15.7711C202.673 16.4185 202.232 17.2433 202.053 18.1413C201.874 19.0392 201.966 19.9699 202.317 20.8158C202.667 21.6616 203.261 22.3846 204.023 22.8932C204.785 23.4018 205.681 23.6733 206.597 23.6733C207.209 23.686 207.817 23.575 208.385 23.3469C208.953 23.1188 209.469 22.7783 209.902 22.3459C210.334 21.9135 210.675 21.3981 210.903 20.8308C211.132 20.2634 211.243 19.6558 211.23 19.0444H211.23Z" fill="black" fill-opacity="0.4"/>
<path d="M218.272 11.3909H221.701V13.582C222.844 11.8848 224.604 11.0825 226.643 11.0825C230.781 11.0825 232.14 13.829 232.14 17.9025V26.6665H228.712V18.3344C228.712 15.8349 228.156 14.3844 225.592 14.3844C223.338 14.3844 221.701 16.1436 221.701 18.674V26.6665H218.272V11.3909Z" fill="#4C3C90"/>
<path d="M218.272 11.3909H221.701V13.582C222.844 11.8848 224.604 11.0825 226.643 11.0825C230.781 11.0825 232.14 13.829 232.14 17.9025V26.6665H228.712V18.3344C228.712 15.8349 228.156 14.3844 225.592 14.3844C223.338 14.3844 221.701 16.1436 221.701 18.674V26.6665H218.272V11.3909Z" fill="black" fill-opacity="0.4"/>
<path d="M235.198 24.7534L236.496 21.9452C237.845 23.108 239.563 23.7533 241.345 23.7659C242.735 23.7659 244.372 23.2412 244.372 22.1613C244.372 21.0503 242.827 20.7725 241.314 20.3404C238.411 19.5381 235.94 18.6741 235.94 15.6807C235.94 12.6873 238.997 11.0827 241.684 11.0827C243.97 11.0827 245.484 11.6689 247.151 12.6564L245.885 15.4337C244.625 14.6818 243.183 14.2871 241.715 14.2922C240.573 14.2922 239.43 14.8166 239.43 15.6189C239.43 16.6682 240.696 16.9151 242.055 17.1929C244.897 17.81 247.862 18.9519 247.862 22.0996C247.862 25.6792 244.186 26.9753 241.345 26.9753C238.194 26.9753 236.032 25.5557 235.198 24.7534Z" fill="#4C3C90"/>
<path d="M235.198 24.7534L236.496 21.9452C237.845 23.108 239.563 23.7533 241.345 23.7659C242.735 23.7659 244.372 23.2412 244.372 22.1613C244.372 21.0503 242.827 20.7725 241.314 20.3404C238.411 19.5381 235.94 18.6741 235.94 15.6807C235.94 12.6873 238.997 11.0827 241.684 11.0827C243.97 11.0827 245.484 11.6689 247.151 12.6564L245.885 15.4337C244.625 14.6818 243.183 14.2871 241.715 14.2922C240.573 14.2922 239.43 14.8166 239.43 15.6189C239.43 16.6682 240.696 16.9151 242.055 17.1929C244.897 17.81 247.862 18.9519 247.862 22.0996C247.862 25.6792 244.186 26.9753 241.345 26.9753C238.194 26.9753 236.032 25.5557 235.198 24.7534Z" fill="black" fill-opacity="0.4"/>
</g>
<defs>
<clipPath id="clip0_55_3393">
<rect width="247.862" height="32" fill="white"/>
</clipPath>
</defs>
</svg>
