<svg width="41" height="44" viewBox="0 0 41 44" fill="none" xmlns="http://www.w3.org/2000/svg">
<path d="M37.4435 5.4981e-05L0 40.1828L3.55651 43.9997L41 3.81701L37.4435 5.4981e-05Z" fill="white"/>
<path d="M25.6248 44C25.6294 39.6254 27.2507 35.4314 30.133 32.3381C33.0154 29.2448 36.9233 27.5048 40.9996 27.4999V22C38.3075 22 35.6419 22.5691 33.1547 23.6747C30.6676 24.7803 28.4078 26.4008 26.5042 28.4436C24.6006 30.4865 23.0906 32.9118 22.0604 35.581C21.0302 38.2501 20.5 41.1109 20.5 44H25.6248Z" fill="white"/>
<path d="M15.3748 0C15.3702 4.37461 13.7489 8.56863 10.8666 11.6619C7.98424 14.7553 4.07625 16.4952 0 16.5001V22.0002C5.43683 22.0002 10.651 19.6823 14.4954 15.5565C18.3398 11.4307 20.4996 5.83493 20.4996 0.000155433H15.3748V0Z" fill="white"/>
</svg>
