<svg width="240" height="40" viewBox="0 0 240 40" fill="none" xmlns="http://www.w3.org/2000/svg">
<path d="M33.885 0.285617L0 36.1694L3.21851 39.578L37.1035 3.69422L33.885 0.285617Z" fill="#4C3C90"/>
<path d="M23.1895 39.5785C23.1936 35.6719 24.6609 31.9266 27.2693 29.1642C29.8777 26.4018 33.4143 24.848 37.1031 24.8436V19.9321C34.6669 19.9321 32.2546 20.4403 30.0038 21.4276C27.7531 22.4149 25.708 23.8621 23.9853 25.6864C22.2627 27.5107 20.8962 29.6765 19.9639 32.0601C19.0316 34.4437 18.5518 36.9985 18.5518 39.5785H23.1895Z" fill="#4C3C90"/>
<path d="M13.9139 0.285645C13.9097 4.19224 12.4425 7.93758 9.8341 10.7C7.22568 13.4623 3.6891 15.0162 0.000244141 15.0205V19.9322C4.92037 19.9322 9.63899 17.8623 13.118 14.1779C16.5971 10.4935 18.5516 5.49633 18.5516 0.285783H13.9139V0.285645Z" fill="#4C3C90"/>
<path d="M54.4229 30.9883H55.7999L59.455 39.5785H57.978L57.3395 38.0939H52.8833L52.2448 39.5785H50.7678L54.4229 30.9883ZM56.8387 36.8742L55.9123 34.6471C55.5618 33.7987 55.1112 32.6454 55.1112 32.6454C55.1112 32.6454 54.6731 33.7855 54.3101 34.6471L53.3841 36.8742H56.8387Z" fill="#4C3C90"/>
<path d="M54.4229 30.9883H55.7999L59.455 39.5785H57.978L57.3395 38.0939H52.8833L52.2448 39.5785H50.7678L54.4229 30.9883ZM56.8387 36.8742L55.9123 34.6471C55.5618 33.7987 55.1112 32.6454 55.1112 32.6454C55.1112 32.6454 54.6731 33.7855 54.3101 34.6471L53.3841 36.8742H56.8387Z" fill="black" fill-opacity="0.4"/>
<path d="M61.7069 35.2836C61.7041 34.6935 61.8132 34.1087 62.0279 33.5641C62.2425 33.0195 62.5583 32.526 62.9564 32.1131C63.3545 31.7001 63.8269 31.3761 64.3455 31.1601C64.8641 30.9442 65.4184 30.8407 65.9755 30.856C66.9871 30.8485 67.9695 31.2141 68.7544 31.89L67.8905 32.9372C67.5381 32.6337 67.1225 32.4233 66.6781 32.3235C66.2337 32.2237 65.7732 32.2373 65.3348 32.3633C64.8963 32.4893 64.4925 32.7239 64.1566 33.0479C63.8208 33.3718 63.5625 33.7758 63.4032 34.2263C63.244 34.6769 63.1882 35.1611 63.2406 35.639C63.293 36.1169 63.4521 36.5747 63.7046 36.9746C63.9572 37.3745 64.2959 37.705 64.693 37.9389C65.09 38.1727 65.5339 38.3031 65.9879 38.3193C66.388 38.3209 66.7835 38.2277 67.1452 38.0465C67.5069 37.8653 67.8258 37.6007 68.0784 37.272V35.7874H66.5886V34.5014H69.4803V37.8553C68.9486 38.6196 68.205 39.1892 67.3532 39.4847C66.5013 39.7802 65.5836 39.7869 64.728 39.5038C63.8724 39.2208 63.1214 38.6621 62.5799 37.9056C62.0383 37.1491 61.7331 36.2325 61.7068 35.2836H61.7069Z" fill="#4C3C90"/>
<path d="M61.7069 35.2836C61.7041 34.6935 61.8132 34.1087 62.0279 33.5641C62.2425 33.0195 62.5583 32.526 62.9564 32.1131C63.3545 31.7001 63.8269 31.3761 64.3455 31.1601C64.8641 30.9442 65.4184 30.8407 65.9755 30.856C66.9871 30.8485 67.9695 31.2141 68.7544 31.89L67.8905 32.9372C67.5381 32.6337 67.1225 32.4233 66.6781 32.3235C66.2337 32.2237 65.7732 32.2373 65.3348 32.3633C64.8963 32.4893 64.4925 32.7239 64.1566 33.0479C63.8208 33.3718 63.5625 33.7758 63.4032 34.2263C63.244 34.6769 63.1882 35.1611 63.2406 35.639C63.293 36.1169 63.4521 36.5747 63.7046 36.9746C63.9572 37.3745 64.2959 37.705 64.693 37.9389C65.09 38.1727 65.5339 38.3031 65.9879 38.3193C66.388 38.3209 66.7835 38.2277 67.1452 38.0465C67.5069 37.8653 67.8258 37.6007 68.0784 37.272V35.7874H66.5886V34.5014H69.4803V37.8553C68.9486 38.6196 68.205 39.1892 67.3532 39.4847C66.5013 39.7802 65.5836 39.7869 64.728 39.5038C63.8724 39.2208 63.1214 38.6621 62.5799 37.9056C62.0383 37.1491 61.7331 36.2325 61.7068 35.2836H61.7069Z" fill="black" fill-opacity="0.4"/>
<path d="M72.8965 30.9883H79.193V32.314H74.3485V34.4086H78.9176V35.7211H74.3485V38.2531H79.3682V39.5787H72.8965V30.9883Z" fill="#4C3C90"/>
<path d="M72.8965 30.9883H79.193V32.314H74.3485V34.4086H78.9176V35.7211H74.3485V38.2531H79.3682V39.5787H72.8965V30.9883Z" fill="black" fill-opacity="0.4"/>
<path d="M82.2837 30.9883H83.7607L86.6648 35.204C87.2407 36.0391 87.904 37.2321 87.904 37.2321V30.9883H89.3561V39.5787H87.8539L85.0875 35.5752C84.3863 34.5545 83.7358 33.3878 83.7358 33.3878V39.5787H82.2837V30.9883Z" fill="#4C3C90"/>
<path d="M82.2837 30.9883H83.7607L86.6648 35.204C87.2407 36.0391 87.904 37.2321 87.904 37.2321V30.9883H89.3561V39.5787H87.8539L85.0875 35.5752C84.3863 34.5545 83.7358 33.3878 83.7358 33.3878V39.5787H82.2837V30.9883Z" fill="black" fill-opacity="0.4"/>
<path d="M92.5216 35.2699C92.5201 34.6807 92.6303 34.0973 92.8455 33.554C93.0608 33.0108 93.3768 32.5188 93.7748 32.1072C94.1728 31.6956 94.6448 31.3727 95.1627 31.1577C95.6807 30.9427 96.2341 30.84 96.7902 30.8555C97.7833 30.8412 98.7495 31.1979 99.5189 31.863L98.6804 32.897C98.171 32.4708 97.5394 32.2416 96.8903 32.2475C96.1398 32.2513 95.4207 32.5666 94.8872 33.1257C94.3538 33.6848 94.0486 34.443 94.0372 35.2377C94.0257 36.0324 94.3089 36.8002 94.8259 37.3762C95.343 37.9523 96.0527 38.2907 96.8027 38.3188C97.5615 38.3299 98.2941 38.0253 98.8431 37.4704L99.7318 38.5309C98.9262 39.3018 97.8759 39.7231 96.7902 39.7106C96.2322 39.7254 95.677 39.6213 95.1578 39.4044C94.6385 39.1876 94.1657 38.8623 93.7675 38.448C93.3692 38.0338 93.0537 37.5389 92.8397 36.993C92.6257 36.447 92.5175 35.861 92.5216 35.2699Z" fill="#4C3C90"/>
<path d="M92.5216 35.2699C92.5201 34.6807 92.6303 34.0973 92.8455 33.554C93.0608 33.0108 93.3768 32.5188 93.7748 32.1072C94.1728 31.6956 94.6448 31.3727 95.1627 31.1577C95.6807 30.9427 96.2341 30.84 96.7902 30.8555C97.7833 30.8412 98.7495 31.1979 99.5189 31.863L98.6804 32.897C98.171 32.4708 97.5394 32.2416 96.8903 32.2475C96.1398 32.2513 95.4207 32.5666 94.8872 33.1257C94.3538 33.6848 94.0486 34.443 94.0372 35.2377C94.0257 36.0324 94.3089 36.8002 94.8259 37.3762C95.343 37.9523 96.0527 38.2907 96.8027 38.3188C97.5615 38.3299 98.2941 38.0253 98.8431 37.4704L99.7318 38.5309C98.9262 39.3018 97.8759 39.7231 96.7902 39.7106C96.2322 39.7254 95.677 39.6213 95.1578 39.4044C94.6385 39.1876 94.1657 38.8623 93.7675 38.448C93.3692 38.0338 93.0537 37.5389 92.8397 36.993C92.6257 36.447 92.5175 35.861 92.5216 35.2699Z" fill="black" fill-opacity="0.4"/>
<path d="M102.059 37.9745L103.11 37.1261C103.624 38.094 104.262 38.306 104.838 38.306C105.852 38.306 106.628 37.6696 106.628 36.0922V30.9883H108.08V36.0656C108.08 38.6772 106.628 39.711 104.875 39.711C104.298 39.7393 103.725 39.5906 103.225 39.2825C102.726 38.9745 102.321 38.5203 102.059 37.9745Z" fill="#4C3C90"/>
<path d="M102.059 37.9745L103.11 37.1261C103.624 38.094 104.262 38.306 104.838 38.306C105.852 38.306 106.628 37.6696 106.628 36.0922V30.9883H108.08V36.0656C108.08 38.6772 106.628 39.711 104.875 39.711C104.298 39.7393 103.725 39.5906 103.225 39.2825C102.726 38.9745 102.321 38.5203 102.059 37.9745Z" fill="black" fill-opacity="0.4"/>
<path d="M113.975 30.9883H115.352L119.007 39.5785H117.53L116.892 38.0939H112.436L111.797 39.5785H110.32L113.975 30.9883ZM116.391 36.8742L115.465 34.6471C115.114 33.7987 114.663 32.6454 114.663 32.6454C114.663 32.6454 114.225 33.7855 113.862 34.6471L112.936 36.8742H116.391Z" fill="#4C3C90"/>
<path d="M113.975 30.9883H115.352L119.007 39.5785H117.53L116.892 38.0939H112.436L111.797 39.5785H110.32L113.975 30.9883ZM116.391 36.8742L115.465 34.6471C115.114 33.7987 114.663 32.6454 114.663 32.6454C114.663 32.6454 114.225 33.7855 113.862 34.6471L112.936 36.8742H116.391Z" fill="black" fill-opacity="0.4"/>
<path d="M126.253 30.9883H130.033C131.373 30.9883 132.462 31.6511 132.462 33.1624C132.459 33.4752 132.379 33.7818 132.23 34.0517C132.081 34.3215 131.867 34.5452 131.611 34.7002C132.078 34.8128 132.495 35.0936 132.789 35.4948C133.084 35.896 133.238 36.3928 133.225 36.9007C133.225 38.6637 131.961 39.5785 130.146 39.5785H126.253V30.9883ZM129.958 34.2361C130.584 34.2361 130.947 33.8782 130.947 33.295C130.947 32.7117 130.597 32.314 129.896 32.314H127.705V34.2361H129.958ZM130.046 38.253C131.06 38.253 131.711 37.8154 131.711 36.9272C131.711 36.0258 131.11 35.5487 130.183 35.5487H127.705V38.253H130.046Z" fill="#4C3C90"/>
<path d="M126.253 30.9883H130.033C131.373 30.9883 132.462 31.6511 132.462 33.1624C132.459 33.4752 132.379 33.7818 132.23 34.0517C132.081 34.3215 131.867 34.5452 131.611 34.7002C132.078 34.8128 132.495 35.0936 132.789 35.4948C133.084 35.896 133.238 36.3928 133.225 36.9007C133.225 38.6637 131.961 39.5785 130.146 39.5785H126.253V30.9883ZM129.958 34.2361C130.584 34.2361 130.947 33.8782 130.947 33.295C130.947 32.7117 130.597 32.314 129.896 32.314H127.705V34.2361H129.958ZM130.046 38.253C131.06 38.253 131.711 37.8154 131.711 36.9272C131.711 36.0258 131.11 35.5487 130.183 35.5487H127.705V38.253H130.046Z" fill="black" fill-opacity="0.4"/>
<path d="M139.345 30.9883H140.722L144.377 39.5785H142.9L142.262 38.0939H137.806L137.167 39.5785H135.69L139.345 30.9883ZM141.761 36.8742L140.835 34.6471C140.485 33.7987 140.034 32.6454 140.034 32.6454C140.034 32.6454 139.596 33.7855 139.233 34.6471L138.306 36.8742H141.761Z" fill="#4C3C90"/>
<path d="M139.345 30.9883H140.722L144.377 39.5785H142.9L142.262 38.0939H137.806L137.167 39.5785H135.69L139.345 30.9883ZM141.761 36.8742L140.835 34.6471C140.485 33.7987 140.034 32.6454 140.034 32.6454C140.034 32.6454 139.596 33.7855 139.233 34.6471L138.306 36.8742H141.761Z" fill="black" fill-opacity="0.4"/>
<path d="M147.13 30.9883H150.31C152.951 30.9883 154.616 32.9371 154.616 35.2835C154.616 37.6299 152.951 39.5785 150.31 39.5785H147.13V30.9883ZM150.247 38.2529C151.962 38.2529 153.101 36.9935 153.101 35.2835C153.101 33.5734 151.962 32.314 150.247 32.314H148.582V38.2529H150.247Z" fill="#4C3C90"/>
<path d="M147.13 30.9883H150.31C152.951 30.9883 154.616 32.9371 154.616 35.2835C154.616 37.6299 152.951 39.5785 150.31 39.5785H147.13V30.9883ZM150.247 38.2529C151.962 38.2529 153.101 36.9935 153.101 35.2835C153.101 33.5734 151.962 32.314 150.247 32.314H148.582V38.2529H150.247Z" fill="black" fill-opacity="0.4"/>
<path d="M160.523 30.9883H161.9L165.555 39.5785H164.078L163.44 38.0939H158.983L158.345 39.5785H156.868L160.523 30.9883ZM162.939 36.8742L162.013 34.6471C161.662 33.7987 161.212 32.6454 161.212 32.6454C161.212 32.6454 160.774 33.7855 160.411 34.6471L159.484 36.8742H162.939Z" fill="#4C3C90"/>
<path d="M160.523 30.9883H161.9L165.555 39.5785H164.078L163.44 38.0939H158.983L158.345 39.5785H156.868L160.523 30.9883ZM162.939 36.8742L162.013 34.6471C161.662 33.7987 161.212 32.6454 161.212 32.6454C161.212 32.6454 160.774 33.7855 160.411 34.6471L159.484 36.8742H162.939Z" fill="black" fill-opacity="0.4"/>
<path d="M166.693 30.9883H168.145L169.685 36.1717C169.885 36.8477 170.06 37.6034 170.06 37.6034C170.06 37.6034 170.235 36.861 170.398 36.1717L171.675 30.9883H173.227L174.504 36.1717C174.679 36.861 174.829 37.6034 174.829 37.6034C174.829 37.6034 175.017 36.861 175.218 36.1717L176.757 30.9883H178.209L175.618 39.6052H174.078L172.776 34.6207C172.589 33.8784 172.451 32.9238 172.451 32.9238C172.451 32.9238 172.313 33.8784 172.126 34.6207L170.824 39.6052H169.272L166.693 30.9883Z" fill="#4C3C90"/>
<path d="M166.693 30.9883H168.145L169.685 36.1717C169.885 36.8477 170.06 37.6034 170.06 37.6034C170.06 37.6034 170.235 36.861 170.398 36.1717L171.675 30.9883H173.227L174.504 36.1717C174.679 36.861 174.829 37.6034 174.829 37.6034C174.829 37.6034 175.017 36.861 175.218 36.1717L176.757 30.9883H178.209L175.618 39.6052H174.078L172.776 34.6207C172.589 33.8784 172.451 32.9238 172.451 32.9238C172.451 32.9238 172.313 33.8784 172.126 34.6207L170.824 39.6052H169.272L166.693 30.9883Z" fill="black" fill-opacity="0.4"/>
<path d="M180.524 35.2699C180.522 34.6808 180.632 34.0973 180.847 33.5541C181.063 33.0108 181.379 32.5189 181.777 32.1072C182.175 31.6956 182.647 31.3728 183.164 31.1578C183.682 30.9428 184.236 30.84 184.792 30.8555C185.785 30.8412 186.751 31.1979 187.521 31.863L186.682 32.897C186.173 32.4707 185.541 32.2416 184.892 32.2475C184.142 32.2513 183.423 32.5666 182.889 33.1257C182.356 33.6848 182.051 34.443 182.039 35.2377C182.028 36.0324 182.311 36.8002 182.828 37.3762C183.345 37.9523 184.055 38.2907 184.805 38.3188C185.563 38.3297 186.296 38.0251 186.845 37.4704L187.734 38.5309C186.928 39.3018 185.878 39.723 184.792 39.7106C184.234 39.7254 183.679 39.6213 183.159 39.4044C182.64 39.1875 182.167 38.8622 181.769 38.4479C181.371 38.0337 181.056 37.5389 180.842 36.9929C180.628 36.4469 180.519 35.861 180.524 35.2699Z" fill="#4C3C90"/>
<path d="M180.524 35.2699C180.522 34.6808 180.632 34.0973 180.847 33.5541C181.063 33.0108 181.379 32.5189 181.777 32.1072C182.175 31.6956 182.647 31.3728 183.164 31.1578C183.682 30.9428 184.236 30.84 184.792 30.8555C185.785 30.8412 186.751 31.1979 187.521 31.863L186.682 32.897C186.173 32.4707 185.541 32.2416 184.892 32.2475C184.142 32.2513 183.423 32.5666 182.889 33.1257C182.356 33.6848 182.051 34.443 182.039 35.2377C182.028 36.0324 182.311 36.8002 182.828 37.3762C183.345 37.9523 184.055 38.2907 184.805 38.3188C185.563 38.3297 186.296 38.0251 186.845 37.4704L187.734 38.5309C186.928 39.3018 185.878 39.723 184.792 39.7106C184.234 39.7254 183.679 39.6213 183.159 39.4044C182.64 39.1875 182.167 38.8622 181.769 38.4479C181.371 38.0337 181.056 37.5389 180.842 36.9929C180.628 36.4469 180.519 35.861 180.524 35.2699Z" fill="black" fill-opacity="0.4"/>
<path d="M190.061 38.4121L194.092 33.2288C194.331 32.9058 194.59 32.6003 194.868 32.3142H190.274V30.9883H196.67V32.1682L192.777 37.1792C192.277 37.8154 191.888 38.2529 191.888 38.2529H196.795V39.5785H190.061V38.4121Z" fill="#4C3C90"/>
<path d="M190.061 38.4121L194.092 33.2288C194.331 32.9058 194.59 32.6003 194.868 32.3142H190.274V30.9883H196.67V32.1682L192.777 37.1792C192.277 37.8154 191.888 38.2529 191.888 38.2529H196.795V39.5785H190.061V38.4121Z" fill="black" fill-opacity="0.4"/>
<path d="M202.79 30.9883H204.167L207.822 39.5785H206.345L205.707 38.0939H201.251L200.612 39.5785H199.135L202.79 30.9883ZM205.206 36.8742L204.28 34.6471C203.929 33.7987 203.479 32.6454 203.479 32.6454C203.479 32.6454 203.041 33.7855 202.678 34.6471L201.751 36.8742H205.206Z" fill="#4C3C90"/>
<path d="M202.79 30.9883H204.167L207.822 39.5785H206.345L205.707 38.0939H201.251L200.612 39.5785H199.135L202.79 30.9883ZM205.206 36.8742L204.28 34.6471C203.929 33.7987 203.479 32.6454 203.479 32.6454C203.479 32.6454 203.041 33.7855 202.678 34.6471L201.751 36.8742H205.206Z" fill="black" fill-opacity="0.4"/>
<path d="M51.0598 2.74023H64.7164V5.77246H54.3807V10.5629H63.1128V13.5647H54.3807V22.3879H51.0598V2.74023Z" fill="#4C3C90"/>
<path d="M51.0598 2.74023H64.7164V5.77246H54.3807V10.5629H63.1128V13.5647H54.3807V22.3879H51.0598V2.74023Z" fill="black" fill-opacity="0.4"/>
<path d="M65.6624 14.8986C65.6624 10.5628 68.3249 7.07609 72.2184 7.07609C73.1108 7.05653 73.9964 7.24462 74.8127 7.6271C75.6291 8.00958 76.3561 8.57713 76.9427 9.28969V7.37931H80.1204V22.388H76.9427V20.5081C76.3544 21.2163 75.6263 21.779 74.8099 22.1563C73.9935 22.5335 73.1088 22.7162 72.2184 22.6913C68.3249 22.691 65.6624 19.2043 65.6624 14.8986ZM76.9427 14.8986C76.9427 12.261 75.2823 10.3205 73.0205 10.3205C70.6154 10.3205 68.8974 12.2611 68.8974 14.8986C68.8974 17.5361 70.6154 19.4466 73.0205 19.4466C75.2535 19.4466 76.9427 17.567 76.9427 14.8986Z" fill="#4C3C90"/>
<path d="M65.6624 14.8986C65.6624 10.5628 68.3249 7.07609 72.2184 7.07609C73.1108 7.05653 73.9964 7.24462 74.8127 7.6271C75.6291 8.00958 76.3561 8.57713 76.9427 9.28969V7.37931H80.1204V22.388H76.9427V20.5081C76.3544 21.2163 75.6263 21.779 74.8099 22.1563C73.9935 22.5335 73.1088 22.7162 72.2184 22.6913C68.3249 22.691 65.6624 19.2043 65.6624 14.8986ZM76.9427 14.8986C76.9427 12.261 75.2823 10.3205 73.0205 10.3205C70.6154 10.3205 68.8974 12.2611 68.8974 14.8986C68.8974 17.5361 70.6154 19.4466 73.0205 19.4466C75.2535 19.4466 76.9427 17.567 76.9427 14.8986Z" fill="black" fill-opacity="0.4"/>
<path d="M83.156 20.5079L84.3588 17.7487C85.609 18.8913 87.2024 19.5254 88.8537 19.5376C90.1421 19.5376 91.6594 19.0222 91.6594 17.9608C91.6594 16.8695 90.2278 16.5967 88.8249 16.172C86.1336 15.3838 83.843 14.5347 83.843 11.5939C83.843 8.65302 86.6775 7.07605 89.1682 7.07605C90.9646 7.05068 92.728 7.58867 94.2363 8.62232L93.0622 11.3513C91.894 10.6124 90.5576 10.2246 89.1969 10.2295C88.1379 10.2295 87.0782 10.7449 87.0782 11.533C87.0782 12.5642 88.2523 12.8065 89.512 13.0796C92.1457 13.6861 94.8946 14.8079 94.8946 17.9004C94.8946 21.4176 91.4875 22.691 88.8537 22.691C86.7647 22.7354 84.7346 21.9574 83.156 20.5079Z" fill="#4C3C90"/>
<path d="M83.156 20.5079L84.3588 17.7487C85.609 18.8913 87.2024 19.5254 88.8537 19.5376C90.1421 19.5376 91.6594 19.0222 91.6594 17.9608C91.6594 16.8695 90.2278 16.5967 88.8249 16.172C86.1336 15.3838 83.843 14.5347 83.843 11.5939C83.843 8.65302 86.6775 7.07605 89.1682 7.07605C90.9646 7.05068 92.728 7.58867 94.2363 8.62232L93.0622 11.3513C91.894 10.6124 90.5576 10.2246 89.1969 10.2295C88.1379 10.2295 87.0782 10.7449 87.0782 11.533C87.0782 12.5642 88.2523 12.8065 89.512 13.0796C92.1457 13.6861 94.8946 14.8079 94.8946 17.9004C94.8946 21.4176 91.4875 22.691 88.8537 22.691C86.7647 22.7354 84.7346 21.9574 83.156 20.5079Z" fill="black" fill-opacity="0.4"/>
<path d="M98.9038 17.5668V10.1382H96.8132V7.37908H98.9038V4.43789L102.081 3.74072V7.37908H106.348V10.1382H102.081V17.6575C102.081 19.2647 102.797 19.7801 103.599 19.7801C104.337 19.7464 105.051 19.4943 105.66 19.0523L106.605 21.5688C105.6 22.293 104.414 22.6836 103.198 22.6907C100.307 22.6908 98.9038 21.0231 98.9038 17.5668Z" fill="#4C3C90"/>
<path d="M98.9038 17.5668V10.1382H96.8132V7.37908H98.9038V4.43789L102.081 3.74072V7.37908H106.348V10.1382H102.081V17.6575C102.081 19.2647 102.797 19.7801 103.599 19.7801C104.337 19.7464 105.051 19.4943 105.66 19.0523L106.605 21.5688C105.6 22.293 104.414 22.6836 103.198 22.6907C100.307 22.6908 98.9038 21.0231 98.9038 17.5668Z" fill="black" fill-opacity="0.4"/>
<path d="M116.913 19.8715L118.201 17.2031C119.919 18.7408 122.108 19.5604 124.357 19.5076C126.361 19.5076 128.365 18.5069 128.365 16.718C128.365 14.929 126.447 14.3832 124.557 13.8983C121.15 13.0493 117.628 11.8972 117.628 7.98578C117.628 4.31699 120.921 2.43708 124.357 2.43708C126.708 2.3971 129.011 3.13951 130.942 4.55964L129.653 7.25819C128.079 6.17079 126.236 5.60112 124.357 5.62092C123.126 5.62092 121.007 6.16644 121.007 7.95532C121.007 9.53208 122.668 10.0474 124.901 10.6237C128.422 11.5029 131.829 12.8975 131.829 16.7179C131.829 20.8415 127.993 22.691 124.328 22.691C120.292 22.6912 118.144 21.0841 116.913 19.8715Z" fill="#4C3C90"/>
<path d="M116.913 19.8715L118.201 17.2031C119.919 18.7408 122.108 19.5604 124.357 19.5076C126.361 19.5076 128.365 18.5069 128.365 16.718C128.365 14.929 126.447 14.3832 124.557 13.8983C121.15 13.0493 117.628 11.8972 117.628 7.98578C117.628 4.31699 120.921 2.43708 124.357 2.43708C126.708 2.3971 129.011 3.13951 130.942 4.55964L129.653 7.25819C128.079 6.17079 126.236 5.60112 124.357 5.62092C123.126 5.62092 121.007 6.16644 121.007 7.95532C121.007 9.53208 122.668 10.0474 124.901 10.6237C128.422 11.5029 131.829 12.8975 131.829 16.7179C131.829 20.8415 127.993 22.691 124.328 22.691C120.292 22.6912 118.144 21.0841 116.913 19.8715Z" fill="black" fill-opacity="0.4"/>
<path d="M134.836 14.8984C134.801 13.3135 135.214 11.7536 136.02 10.4179C136.827 9.0822 137.991 8.0313 139.363 7.39935C140.736 6.76741 142.256 6.58308 143.728 6.86992C145.201 7.15675 146.559 7.90172 147.63 9.00974C148.7 10.1177 149.435 11.5385 149.74 13.0907C150.044 14.6429 149.906 16.256 149.341 17.7242C148.776 19.1924 147.811 20.449 146.568 21.3337C145.326 22.2183 143.863 22.6908 142.366 22.6909C141.387 22.7065 140.416 22.5169 139.507 22.1331C138.598 21.7492 137.769 21.1787 137.07 20.4544C136.37 19.7301 135.812 18.8663 135.429 17.9128C135.045 16.9592 134.844 15.9348 134.836 14.8984ZM146.66 14.8984C146.66 13.9989 146.408 13.1196 145.936 12.3717C145.464 11.6238 144.794 11.0408 144.009 10.6966C143.224 10.3524 142.361 10.2624 141.528 10.4379C140.695 10.6134 139.929 11.0466 139.329 11.6827C138.728 12.3187 138.319 13.1291 138.154 14.0114C137.988 14.8936 138.073 15.8081 138.398 16.6391C138.723 17.4702 139.274 18.1804 139.98 18.6801C140.686 19.1798 141.517 19.4465 142.366 19.4464C142.933 19.459 143.497 19.35 144.023 19.1259C144.55 18.9018 145.028 18.5672 145.429 18.1424C145.83 17.7175 146.146 17.2111 146.358 16.6536C146.569 16.0962 146.672 15.4991 146.66 14.8984H146.66Z" fill="#4C3C90"/>
<path d="M134.836 14.8984C134.801 13.3135 135.214 11.7536 136.02 10.4179C136.827 9.0822 137.991 8.0313 139.363 7.39935C140.736 6.76741 142.256 6.58308 143.728 6.86992C145.201 7.15675 146.559 7.90172 147.63 9.00974C148.7 10.1177 149.435 11.5385 149.74 13.0907C150.044 14.6429 149.906 16.256 149.341 17.7242C148.776 19.1924 147.811 20.449 146.568 21.3337C145.326 22.2183 143.863 22.6908 142.366 22.6909C141.387 22.7065 140.416 22.5169 139.507 22.1331C138.598 21.7492 137.769 21.1787 137.07 20.4544C136.37 19.7301 135.812 18.8663 135.429 17.9128C135.045 16.9592 134.844 15.9348 134.836 14.8984ZM146.66 14.8984C146.66 13.9989 146.408 13.1196 145.936 12.3717C145.464 11.6238 144.794 11.0408 144.009 10.6966C143.224 10.3524 142.361 10.2624 141.528 10.4379C140.695 10.6134 139.929 11.0466 139.329 11.6827C138.728 12.3187 138.319 13.1291 138.154 14.0114C137.988 14.8936 138.073 15.8081 138.398 16.6391C138.723 17.4702 139.274 18.1804 139.98 18.6801C140.686 19.1798 141.517 19.4465 142.366 19.4464C142.933 19.459 143.497 19.35 144.023 19.1259C144.55 18.9018 145.028 18.5672 145.429 18.1424C145.83 17.7175 146.146 17.2111 146.358 16.6536C146.569 16.0962 146.672 15.4991 146.66 14.8984H146.66Z" fill="black" fill-opacity="0.4"/>
<path d="M153.189 2.43701H156.367V22.3878H153.189V2.43701Z" fill="#4C3C90"/>
<path d="M153.189 2.43701H156.367V22.3878H153.189V2.43701Z" fill="black" fill-opacity="0.4"/>
<path d="M159.946 16.5058V7.37939H163.125V16.0206C163.125 18.4159 164.127 19.4467 166.102 19.4467C168.307 19.4467 169.481 17.5061 169.481 15.3535V7.37939H172.658V22.3881H169.652V20.0838C168.794 21.721 166.818 22.6913 165.1 22.6913C161.349 22.6911 159.946 20.4474 159.946 16.5058Z" fill="#4C3C90"/>
<path d="M159.946 16.5058V7.37939H163.125V16.0206C163.125 18.4159 164.127 19.4467 166.102 19.4467C168.307 19.4467 169.481 17.5061 169.481 15.3535V7.37939H172.658V22.3881H169.652V20.0838C168.794 21.721 166.818 22.6913 165.1 22.6913C161.349 22.6911 159.946 20.4474 159.946 16.5058Z" fill="black" fill-opacity="0.4"/>
<path d="M177.326 17.5668V10.1382H175.236V7.37908H177.326V4.43789L180.504 3.74072V7.37908H184.77V10.1382H180.504V17.6575C180.504 19.2647 181.22 19.7801 182.021 19.7801C182.759 19.7464 183.473 19.4943 184.083 19.0523L185.027 21.5688C184.022 22.293 182.836 22.6836 181.62 22.6907C178.729 22.6908 177.326 21.0231 177.326 17.5668Z" fill="#4C3C90"/>
<path d="M177.326 17.5668V10.1382H175.236V7.37908H177.326V4.43789L180.504 3.74072V7.37908H184.77V10.1382H180.504V17.6575C180.504 19.2647 181.22 19.7801 182.021 19.7801C182.759 19.7464 183.473 19.4943 184.083 19.0523L185.027 21.5688C184.022 22.293 182.836 22.6836 181.62 22.6907C178.729 22.6908 177.326 21.0231 177.326 17.5668Z" fill="black" fill-opacity="0.4"/>
<path d="M187.404 3.16494C187.403 2.62294 187.604 2.1024 187.963 1.71634C188.323 1.33029 188.811 1.1099 189.323 1.10303C189.838 1.10885 190.33 1.32797 190.693 1.7134C191.057 2.09884 191.264 2.61992 191.27 3.16494C191.263 3.70677 191.055 4.22398 190.69 4.60428C190.326 4.98458 189.835 5.19727 189.323 5.19615C189.071 5.1962 188.822 5.1437 188.589 5.04165C188.356 4.9396 188.145 4.78999 187.966 4.60138C187.788 4.41276 187.647 4.18883 187.55 3.94236C187.454 3.6959 187.404 3.43173 187.404 3.16494ZM187.748 7.37929H190.926V22.388H187.748V7.37929Z" fill="#4C3C90"/>
<path d="M187.404 3.16494C187.403 2.62294 187.604 2.1024 187.963 1.71634C188.323 1.33029 188.811 1.1099 189.323 1.10303C189.838 1.10885 190.33 1.32797 190.693 1.7134C191.057 2.09884 191.264 2.61992 191.27 3.16494C191.263 3.70677 191.055 4.22398 190.69 4.60428C190.326 4.98458 189.835 5.19727 189.323 5.19615C189.071 5.1962 188.822 5.1437 188.589 5.04165C188.356 4.9396 188.145 4.78999 187.966 4.60138C187.788 4.41276 187.647 4.18883 187.55 3.94236C187.454 3.6959 187.404 3.43173 187.404 3.16494ZM187.748 7.37929H190.926V22.388H187.748V7.37929Z" fill="black" fill-opacity="0.4"/>
<path d="M194.219 14.8984C194.184 13.3135 194.596 11.7536 195.403 10.4179C196.209 9.0822 197.373 8.0313 198.746 7.39935C200.119 6.76741 201.639 6.58308 203.111 6.86992C204.583 7.15675 205.941 7.90172 207.012 9.00974C208.083 10.1177 208.818 11.5385 209.122 13.0907C209.427 14.6429 209.288 16.256 208.723 17.7242C208.158 19.1924 207.193 20.449 205.951 21.3337C204.709 22.2183 203.246 22.6908 201.749 22.6909C200.77 22.7065 199.798 22.5169 198.889 22.1331C197.98 21.7492 197.152 21.1787 196.452 20.4544C195.752 19.7301 195.194 18.8663 194.811 17.9128C194.428 16.9592 194.226 15.9348 194.219 14.8984ZM206.043 14.8984C206.043 13.9989 205.791 13.1196 205.319 12.3717C204.847 11.6237 204.176 11.0408 203.392 10.6966C202.607 10.3523 201.743 10.2623 200.91 10.4378C200.077 10.6133 199.312 11.0465 198.711 11.6826C198.111 12.3187 197.702 13.1291 197.536 14.0113C197.371 14.8936 197.456 15.8081 197.781 16.6391C198.106 17.4701 198.656 18.1804 199.363 18.6801C200.069 19.1798 200.899 19.4465 201.749 19.4464C202.316 19.459 202.88 19.35 203.406 19.1258C203.932 18.9017 204.41 18.5672 204.812 18.1423C205.213 17.7175 205.529 17.2111 205.74 16.6536C205.952 16.0962 206.055 15.4991 206.043 14.8984Z" fill="#4C3C90"/>
<path d="M194.219 14.8984C194.184 13.3135 194.596 11.7536 195.403 10.4179C196.209 9.0822 197.373 8.0313 198.746 7.39935C200.119 6.76741 201.639 6.58308 203.111 6.86992C204.583 7.15675 205.941 7.90172 207.012 9.00974C208.083 10.1177 208.818 11.5385 209.122 13.0907C209.427 14.6429 209.288 16.256 208.723 17.7242C208.158 19.1924 207.193 20.449 205.951 21.3337C204.709 22.2183 203.246 22.6908 201.749 22.6909C200.77 22.7065 199.798 22.5169 198.889 22.1331C197.98 21.7492 197.152 21.1787 196.452 20.4544C195.752 19.7301 195.194 18.8663 194.811 17.9128C194.428 16.9592 194.226 15.9348 194.219 14.8984ZM206.043 14.8984C206.043 13.9989 205.791 13.1196 205.319 12.3717C204.847 11.6237 204.176 11.0408 203.392 10.6966C202.607 10.3523 201.743 10.2623 200.91 10.4378C200.077 10.6133 199.312 11.0465 198.711 11.6826C198.111 12.3187 197.702 13.1291 197.536 14.0113C197.371 14.8936 197.456 15.8081 197.781 16.6391C198.106 17.4701 198.656 18.1804 199.363 18.6801C200.069 19.1798 200.899 19.4465 201.749 19.4464C202.316 19.459 202.88 19.35 203.406 19.1258C203.932 18.9017 204.41 18.5672 204.812 18.1423C205.213 17.7175 205.529 17.2111 205.74 16.6536C205.952 16.0962 206.055 15.4991 206.043 14.8984Z" fill="black" fill-opacity="0.4"/>
<path d="M212.571 7.37939H215.75V9.53207C216.809 7.86469 218.441 7.07617 220.33 7.07617C224.167 7.07617 225.426 9.77472 225.426 13.7768V22.3879H222.249V14.2017C222.249 11.7458 221.733 10.3208 219.357 10.3208C217.267 10.3208 215.75 12.0491 215.75 14.5351V22.3881H212.571V7.37939Z" fill="#4C3C90"/>
<path d="M212.571 7.37939H215.75V9.53207C216.809 7.86469 218.441 7.07617 220.33 7.07617C224.167 7.07617 225.426 9.77472 225.426 13.7768V22.3879H222.249V14.2017C222.249 11.7458 221.733 10.3208 219.357 10.3208C217.267 10.3208 215.75 12.0491 215.75 14.5351V22.3881H212.571V7.37939Z" fill="black" fill-opacity="0.4"/>
<path d="M228.262 20.5078L229.464 17.7487C230.714 18.8912 232.308 19.5253 233.959 19.5376C235.247 19.5376 236.765 19.0222 236.765 17.9608C236.765 16.8695 235.333 16.5967 233.93 16.172C231.24 15.3839 228.949 14.5348 228.949 11.5939C228.949 8.65309 231.784 7.07605 234.274 7.07605C236.07 7.05068 237.834 7.58868 239.342 8.62231L238.168 11.3513C236.999 10.6124 235.663 10.2246 234.303 10.2295C233.243 10.2295 232.184 10.7449 232.184 11.533C232.184 12.5642 233.358 12.8065 234.618 13.0796C237.252 13.6861 240 14.8079 240 17.9004C240 21.4176 236.593 22.691 233.959 22.691C231.87 22.7354 229.84 21.9575 228.262 20.5078Z" fill="#4C3C90"/>
<path d="M228.262 20.5078L229.464 17.7487C230.714 18.8912 232.308 19.5253 233.959 19.5376C235.247 19.5376 236.765 19.0222 236.765 17.9608C236.765 16.8695 235.333 16.5967 233.93 16.172C231.24 15.3839 228.949 14.5348 228.949 11.5939C228.949 8.65309 231.784 7.07605 234.274 7.07605C236.07 7.05068 237.834 7.58868 239.342 8.62231L238.168 11.3513C236.999 10.6124 235.663 10.2246 234.303 10.2295C233.243 10.2295 232.184 10.7449 232.184 11.533C232.184 12.5642 233.358 12.8065 234.618 13.0796C237.252 13.6861 240 14.8079 240 17.9004C240 21.4176 236.593 22.691 233.959 22.691C231.87 22.7354 229.84 21.9575 228.262 20.5078Z" fill="black" fill-opacity="0.4"/>
</svg>
