<svg width="597" height="635" viewBox="0 0 597 635" fill="none" xmlns="http://www.w3.org/2000/svg">
<g filter="url(#filter0_dddddd_207_9235)">
<path fill-rule="evenodd" clip-rule="evenodd" d="M67 530L67 266L157.75 266C157.75 288.782 176.218 307.25 199 307.25C221.782 307.25 240.25 288.782 240.25 266L331 266L331 356.75C353.782 356.75 372.25 375.218 372.25 398C372.25 420.782 353.782 439.25 331 439.25L331 530L67 530Z" fill="#4C3C90"/>
<path d="M67 266L67 264L65 264L65 266L67 266ZM67 530L65 530L65 532L67 532L67 530ZM157.75 266L159.75 266L159.75 264L157.75 264L157.75 266ZM240.25 266L240.25 264L238.25 264L238.25 266L240.25 266ZM331 266L333 266L333 264L331 264L331 266ZM331 356.75L329 356.75L329 358.75L331 358.75L331 356.75ZM331 439.25L331 437.25L329 437.25L329 439.25L331 439.25ZM331 530L331 532L333 532L333 530L331 530ZM65 266L65 530L69 530L69 266L65 266ZM157.75 264L67 264L67 268L157.75 268L157.75 264ZM199 305.25C177.323 305.25 159.75 287.677 159.75 266L155.75 266C155.75 289.886 175.114 309.25 199 309.25L199 305.25ZM238.25 266C238.25 287.677 220.677 305.25 199 305.25L199 309.25C222.886 309.25 242.25 289.886 242.25 266L238.25 266ZM331 264L240.25 264L240.25 268L331 268L331 264ZM333 356.75L333 266L329 266L329 356.75L333 356.75ZM374.25 398C374.25 374.114 354.886 354.75 331 354.75L331 358.75C352.677 358.75 370.25 376.323 370.25 398L374.25 398ZM331 441.25C354.886 441.25 374.25 421.886 374.25 398L370.25 398C370.25 419.677 352.677 437.25 331 437.25L331 441.25ZM333 530L333 439.25L329 439.25L329 530L333 530ZM67 532L331 532L331 528L67 528L67 532Z" fill="#4C3C90"/>
</g>
<path d="M101.544 418.48C99.8587 418.48 98.4453 418.08 97.304 417.28C96.1627 416.48 95.304 415.392 94.728 414.016C94.152 412.629 93.864 411.077 93.864 409.36C93.864 407.621 94.152 406.064 94.728 404.688C95.304 403.312 96.1467 402.229 97.256 401.44C98.376 400.64 99.7573 400.24 101.4 400.24C103.032 400.24 104.445 400.64 105.64 401.44C106.845 402.229 107.779 403.312 108.44 404.688C109.101 406.053 109.432 407.611 109.432 409.36C109.432 411.088 109.107 412.64 108.456 414.016C107.805 415.392 106.888 416.48 105.704 417.28C104.52 418.08 103.133 418.48 101.544 418.48ZM93.208 425.68V400.72H96.616V412.848H97.096V425.68H93.208ZM100.952 415.024C101.955 415.024 102.781 414.773 103.432 414.272C104.083 413.771 104.563 413.093 104.872 412.24C105.192 411.376 105.352 410.416 105.352 409.36C105.352 408.315 105.192 407.365 104.872 406.512C104.552 405.648 104.056 404.965 103.384 404.464C102.712 403.952 101.859 403.696 100.824 403.696C99.8427 403.696 99.0427 403.936 98.424 404.416C97.8053 404.885 97.3467 405.547 97.048 406.4C96.76 407.243 96.616 408.229 96.616 409.36C96.616 410.48 96.76 411.467 97.048 412.32C97.3467 413.173 97.8107 413.84 98.44 414.32C99.08 414.789 99.9173 415.024 100.952 415.024ZM119.951 418.48C118.223 418.48 116.713 418.091 115.423 417.312C114.132 416.533 113.129 415.461 112.415 414.096C111.711 412.72 111.359 411.141 111.359 409.36C111.359 407.547 111.721 405.957 112.447 404.592C113.172 403.227 114.18 402.16 115.471 401.392C116.761 400.624 118.255 400.24 119.951 400.24C121.689 400.24 123.204 400.629 124.495 401.408C125.785 402.187 126.788 403.264 127.503 404.64C128.217 406.005 128.575 407.579 128.575 409.36C128.575 411.152 128.212 412.736 127.487 414.112C126.772 415.477 125.769 416.549 124.479 417.328C123.188 418.096 121.679 418.48 119.951 418.48ZM119.951 414.864C121.487 414.864 122.628 414.352 123.375 413.328C124.121 412.304 124.495 410.981 124.495 409.36C124.495 407.685 124.116 406.352 123.359 405.36C122.601 404.357 121.465 403.856 119.951 403.856C118.916 403.856 118.063 404.091 117.391 404.56C116.729 405.019 116.239 405.664 115.919 406.496C115.599 407.317 115.439 408.272 115.439 409.36C115.439 411.035 115.817 412.373 116.575 413.376C117.343 414.368 118.468 414.864 119.951 414.864ZM129.235 418V417.472L138.387 404.096H130.163V400.72H144.387V401.264L135.267 414.624H144.003V418H129.235ZM147.578 398.096V394.56H151.434V398.096H147.578ZM147.578 418V400.72H151.434V418H147.578ZM163.218 418.48C161.49 418.48 159.981 418.091 158.69 417.312C157.4 416.533 156.397 415.461 155.682 414.096C154.978 412.72 154.626 411.141 154.626 409.36C154.626 407.547 154.989 405.957 155.714 404.592C156.44 403.227 157.448 402.16 158.738 401.392C160.029 400.624 161.522 400.24 163.218 400.24C164.957 400.24 166.472 400.629 167.762 401.408C169.053 402.187 170.056 403.264 170.77 404.64C171.485 406.005 171.842 407.579 171.842 409.36C171.842 411.152 171.48 412.736 170.754 414.112C170.04 415.477 169.037 416.549 167.746 417.328C166.456 418.096 164.946 418.48 163.218 418.48ZM163.218 414.864C164.754 414.864 165.896 414.352 166.642 413.328C167.389 412.304 167.762 410.981 167.762 409.36C167.762 407.685 167.384 406.352 166.626 405.36C165.869 404.357 164.733 403.856 163.218 403.856C162.184 403.856 161.33 404.091 160.658 404.56C159.997 405.019 159.506 405.664 159.186 406.496C158.866 407.317 158.706 408.272 158.706 409.36C158.706 411.035 159.085 412.373 159.842 413.376C160.61 414.368 161.736 414.864 163.218 414.864ZM195.48 418V407.504C195.48 406.32 195.186 405.397 194.6 404.736C194.013 404.064 193.218 403.728 192.216 403.728C191.597 403.728 191.042 403.872 190.552 404.16C190.061 404.437 189.672 404.853 189.384 405.408C189.096 405.952 188.952 406.603 188.952 407.36L187.24 406.352C187.229 405.157 187.496 404.107 188.04 403.2C188.594 402.283 189.341 401.568 190.28 401.056C191.218 400.544 192.264 400.288 193.416 400.288C195.325 400.288 196.786 400.864 197.8 402.016C198.824 403.157 199.336 404.661 199.336 406.528V418H195.48ZM174.696 418V400.72H178.104V406.08H178.584V418H174.696ZM185.112 418V407.552C185.112 406.347 184.818 405.408 184.232 404.736C183.645 404.064 182.845 403.728 181.832 403.728C180.85 403.728 180.061 404.064 179.464 404.736C178.877 405.408 178.584 406.283 178.584 407.36L176.856 406.208C176.856 405.088 177.133 404.08 177.688 403.184C178.242 402.288 178.989 401.584 179.928 401.072C180.877 400.549 181.938 400.288 183.112 400.288C184.402 400.288 185.48 400.565 186.344 401.12C187.218 401.664 187.869 402.411 188.296 403.36C188.733 404.299 188.952 405.36 188.952 406.544V418H185.112ZM209.349 418.496C208.069 418.496 207.013 418.283 206.181 417.856C205.349 417.429 204.687 416.885 204.197 416.224C203.706 415.563 203.343 414.859 203.109 414.112C202.874 413.365 202.719 412.661 202.645 412C202.581 411.328 202.549 410.784 202.549 410.368V400.72H206.453V409.04C206.453 409.573 206.49 410.176 206.565 410.848C206.639 411.509 206.81 412.149 207.077 412.768C207.354 413.376 207.759 413.877 208.293 414.272C208.837 414.667 209.567 414.864 210.485 414.864C210.975 414.864 211.461 414.784 211.941 414.624C212.421 414.464 212.853 414.192 213.237 413.808C213.631 413.413 213.946 412.875 214.181 412.192C214.415 411.509 214.533 410.645 214.533 409.6L216.821 410.576C216.821 412.048 216.533 413.381 215.957 414.576C215.391 415.771 214.554 416.725 213.445 417.44C212.335 418.144 210.97 418.496 209.349 418.496ZM214.997 418V412.64H214.533V400.72H218.405V418H214.997ZM99.912 458.48C97.7787 458.48 96.0453 458 94.712 457.04C93.3787 456.08 92.568 454.731 92.28 452.992L96.216 452.384C96.4187 453.237 96.8667 453.909 97.56 454.4C98.2533 454.891 99.128 455.136 100.184 455.136C101.112 455.136 101.827 454.955 102.328 454.592C102.84 454.219 103.096 453.712 103.096 453.072C103.096 452.677 103 452.363 102.808 452.128C102.627 451.883 102.221 451.648 101.592 451.424C100.963 451.2 99.9973 450.917 98.696 450.576C97.2453 450.192 96.0933 449.781 95.24 449.344C94.3867 448.896 93.7733 448.368 93.4 447.76C93.0267 447.152 92.84 446.416 92.84 445.552C92.84 444.475 93.1227 443.536 93.688 442.736C94.2533 441.936 95.0427 441.323 96.056 440.896C97.0693 440.459 98.264 440.24 99.64 440.24C100.984 440.24 102.173 440.448 103.208 440.864C104.253 441.28 105.096 441.872 105.736 442.64C106.376 443.408 106.771 444.309 106.92 445.344L102.984 446.048C102.888 445.312 102.552 444.731 101.976 444.304C101.411 443.877 100.653 443.637 99.704 443.584C98.7973 443.531 98.0667 443.669 97.512 444C96.9573 444.32 96.68 444.773 96.68 445.36C96.68 445.691 96.792 445.973 97.016 446.208C97.24 446.443 97.688 446.677 98.36 446.912C99.0427 447.147 100.056 447.435 101.4 447.776C102.776 448.128 103.875 448.533 104.696 448.992C105.528 449.44 106.125 449.979 106.488 450.608C106.861 451.237 107.048 452 107.048 452.896C107.048 454.635 106.413 456 105.144 456.992C103.885 457.984 102.141 458.48 99.912 458.48ZM114.745 458.48C113.497 458.48 112.441 458.245 111.577 457.776C110.713 457.296 110.057 456.661 109.609 455.872C109.171 455.083 108.953 454.213 108.953 453.264C108.953 452.432 109.091 451.685 109.369 451.024C109.646 450.352 110.073 449.776 110.649 449.296C111.225 448.805 111.971 448.405 112.889 448.096C113.582 447.872 114.393 447.669 115.321 447.488C116.259 447.307 117.273 447.141 118.361 446.992C119.459 446.832 120.606 446.661 121.801 446.48L120.425 447.264C120.435 446.069 120.169 445.189 119.625 444.624C119.081 444.059 118.163 443.776 116.873 443.776C116.094 443.776 115.342 443.957 114.617 444.32C113.891 444.683 113.385 445.307 113.097 446.192L109.577 445.088C110.003 443.627 110.814 442.453 112.009 441.568C113.214 440.683 114.835 440.24 116.873 440.24C118.409 440.24 119.758 440.491 120.921 440.992C122.094 441.493 122.963 442.315 123.529 443.456C123.838 444.064 124.025 444.688 124.089 445.328C124.153 445.957 124.185 446.645 124.185 447.392V458H120.809V454.256L121.369 454.864C120.59 456.112 119.678 457.029 118.633 457.616C117.598 458.192 116.302 458.48 114.745 458.48ZM115.513 455.408C116.387 455.408 117.134 455.253 117.753 454.944C118.371 454.635 118.862 454.256 119.225 453.808C119.598 453.36 119.849 452.939 119.977 452.544C120.179 452.053 120.291 451.493 120.313 450.864C120.345 450.224 120.361 449.707 120.361 449.312L121.545 449.664C120.382 449.845 119.385 450.005 118.553 450.144C117.721 450.283 117.006 450.416 116.409 450.544C115.811 450.661 115.283 450.795 114.825 450.944C114.377 451.104 113.998 451.291 113.689 451.504C113.379 451.717 113.139 451.963 112.969 452.24C112.809 452.517 112.729 452.843 112.729 453.216C112.729 453.643 112.835 454.021 113.049 454.352C113.262 454.672 113.571 454.928 113.977 455.12C114.393 455.312 114.905 455.408 115.513 455.408ZM137.838 458C136.697 458.213 135.577 458.304 134.478 458.272C133.39 458.251 132.414 458.053 131.55 457.68C130.686 457.296 130.03 456.693 129.582 455.872C129.187 455.125 128.979 454.363 128.958 453.584C128.937 452.805 128.926 451.925 128.926 450.944V435.92H132.766V450.72C132.766 451.413 132.771 452.021 132.782 452.544C132.803 453.067 132.915 453.493 133.118 453.824C133.502 454.464 134.115 454.821 134.958 454.896C135.801 454.971 136.761 454.928 137.838 454.768V458ZM125.79 443.744V440.72H137.838V443.744H125.79ZM142.717 465.68L146.045 456.544L146.109 459.232L138.573 440.72H142.589L147.933 454.416H146.909L152.109 440.72H155.965L146.333 465.68H142.717ZM164.383 458.48C162.25 458.48 160.517 458 159.183 457.04C157.85 456.08 157.039 454.731 156.751 452.992L160.687 452.384C160.89 453.237 161.338 453.909 162.031 454.4C162.725 454.891 163.599 455.136 164.655 455.136C165.583 455.136 166.298 454.955 166.799 454.592C167.311 454.219 167.567 453.712 167.567 453.072C167.567 452.677 167.471 452.363 167.279 452.128C167.098 451.883 166.693 451.648 166.063 451.424C165.434 451.2 164.469 450.917 163.167 450.576C161.717 450.192 160.565 449.781 159.711 449.344C158.858 448.896 158.245 448.368 157.871 447.76C157.498 447.152 157.311 446.416 157.311 445.552C157.311 444.475 157.594 443.536 158.159 442.736C158.725 441.936 159.514 441.323 160.527 440.896C161.541 440.459 162.735 440.24 164.111 440.24C165.455 440.24 166.645 440.448 167.679 440.864C168.725 441.28 169.567 441.872 170.207 442.64C170.847 443.408 171.242 444.309 171.391 445.344L167.455 446.048C167.359 445.312 167.023 444.731 166.447 444.304C165.882 443.877 165.125 443.637 164.175 443.584C163.269 443.531 162.538 443.669 161.983 444C161.429 444.32 161.151 444.773 161.151 445.36C161.151 445.691 161.263 445.973 161.487 446.208C161.711 446.443 162.159 446.677 162.831 446.912C163.514 447.147 164.527 447.435 165.871 447.776C167.247 448.128 168.346 448.533 169.167 448.992C169.999 449.44 170.597 449.979 170.959 450.608C171.333 451.237 171.519 452 171.519 452.896C171.519 454.635 170.885 456 169.615 456.992C168.357 457.984 166.613 458.48 164.383 458.48ZM175.888 458V440.448C175.888 440.011 175.904 439.531 175.936 439.008C175.968 438.475 176.058 437.947 176.208 437.424C176.357 436.901 176.629 436.427 177.024 436C177.514 435.456 178.042 435.083 178.608 434.88C179.184 434.667 179.749 434.549 180.304 434.528C180.858 434.496 181.344 434.48 181.76 434.48H183.92V437.616H181.92C181.184 437.616 180.634 437.803 180.272 438.176C179.92 438.539 179.744 439.019 179.744 439.616V458H175.888ZM173.104 443.744V440.72H183.92V443.744H173.104ZM190.201 458.48C188.953 458.48 187.897 458.245 187.033 457.776C186.169 457.296 185.513 456.661 185.065 455.872C184.627 455.083 184.409 454.213 184.409 453.264C184.409 452.432 184.547 451.685 184.825 451.024C185.102 450.352 185.529 449.776 186.105 449.296C186.681 448.805 187.427 448.405 188.345 448.096C189.038 447.872 189.849 447.669 190.777 447.488C191.715 447.307 192.729 447.141 193.817 446.992C194.915 446.832 196.062 446.661 197.257 446.48L195.881 447.264C195.891 446.069 195.625 445.189 195.081 444.624C194.537 444.059 193.619 443.776 192.329 443.776C191.55 443.776 190.798 443.957 190.073 444.32C189.347 444.683 188.841 445.307 188.553 446.192L185.033 445.088C185.459 443.627 186.27 442.453 187.465 441.568C188.67 440.683 190.291 440.24 192.329 440.24C193.865 440.24 195.214 440.491 196.377 440.992C197.55 441.493 198.419 442.315 198.985 443.456C199.294 444.064 199.481 444.688 199.545 445.328C199.609 445.957 199.641 446.645 199.641 447.392V458H196.265V454.256L196.825 454.864C196.046 456.112 195.134 457.029 194.089 457.616C193.054 458.192 191.758 458.48 190.201 458.48ZM190.969 455.408C191.843 455.408 192.59 455.253 193.209 454.944C193.827 454.635 194.318 454.256 194.681 453.808C195.054 453.36 195.305 452.939 195.433 452.544C195.635 452.053 195.747 451.493 195.769 450.864C195.801 450.224 195.817 449.707 195.817 449.312L197.001 449.664C195.838 449.845 194.841 450.005 194.009 450.144C193.177 450.283 192.462 450.416 191.865 450.544C191.267 450.661 190.739 450.795 190.281 450.944C189.833 451.104 189.454 451.291 189.145 451.504C188.835 451.717 188.595 451.963 188.425 452.24C188.265 452.517 188.185 452.843 188.185 453.216C188.185 453.643 188.291 454.021 188.505 454.352C188.718 454.672 189.027 454.928 189.433 455.12C189.849 455.312 190.361 455.408 190.969 455.408ZM203.134 458L203.166 434.96H207.07V449.04L213.39 440.72H218.206L211.502 449.36L218.782 458H213.678L207.07 449.68V458H203.134ZM226.936 458.48C225.155 458.48 223.635 458.085 222.376 457.296C221.118 456.496 220.152 455.408 219.48 454.032C218.819 452.656 218.483 451.099 218.472 449.36C218.483 447.589 218.83 446.021 219.512 444.656C220.206 443.28 221.187 442.203 222.456 441.424C223.726 440.635 225.235 440.24 226.984 440.24C228.947 440.24 230.606 440.736 231.96 441.728C233.326 442.709 234.216 444.053 234.632 445.76L230.792 446.8C230.494 445.872 229.998 445.152 229.304 444.64C228.611 444.117 227.822 443.856 226.936 443.856C225.934 443.856 225.107 444.096 224.456 444.576C223.806 445.045 223.326 445.696 223.016 446.528C222.707 447.36 222.552 448.304 222.552 449.36C222.552 451.003 222.92 452.331 223.656 453.344C224.392 454.357 225.486 454.864 226.936 454.864C227.96 454.864 228.766 454.629 229.352 454.16C229.95 453.691 230.398 453.013 230.696 452.128L234.632 453.008C234.099 454.768 233.166 456.123 231.832 457.072C230.499 458.011 228.867 458.48 226.936 458.48ZM234.639 465.68V462.064H235.455C236.393 462.064 237.06 461.845 237.455 461.408C237.849 460.971 238.047 460.325 238.047 459.472V440.72H241.887V461.2C241.887 462.597 241.476 463.691 240.655 464.48C239.844 465.28 238.713 465.68 237.263 465.68H234.639ZM238.047 438.096V434.56H241.887V438.096H238.047ZM246.098 438.096V434.56H249.954V438.096H246.098ZM246.098 458V440.72H249.954V458H246.098ZM101.544 498.48C99.8587 498.48 98.4453 498.08 97.304 497.28C96.1627 496.48 95.304 495.392 94.728 494.016C94.152 492.629 93.864 491.077 93.864 489.36C93.864 487.621 94.152 486.064 94.728 484.688C95.304 483.312 96.1467 482.229 97.256 481.44C98.376 480.64 99.7573 480.24 101.4 480.24C103.032 480.24 104.445 480.64 105.64 481.44C106.845 482.229 107.779 483.312 108.44 484.688C109.101 486.053 109.432 487.611 109.432 489.36C109.432 491.088 109.107 492.64 108.456 494.016C107.805 495.392 106.888 496.48 105.704 497.28C104.52 498.08 103.133 498.48 101.544 498.48ZM93.208 505.68V480.72H96.616V492.848H97.096V505.68H93.208ZM100.952 495.024C101.955 495.024 102.781 494.773 103.432 494.272C104.083 493.771 104.563 493.093 104.872 492.24C105.192 491.376 105.352 490.416 105.352 489.36C105.352 488.315 105.192 487.365 104.872 486.512C104.552 485.648 104.056 484.965 103.384 484.464C102.712 483.952 101.859 483.696 100.824 483.696C99.8427 483.696 99.0427 483.936 98.424 484.416C97.8053 484.885 97.3467 485.547 97.048 486.4C96.76 487.243 96.616 488.229 96.616 489.36C96.616 490.48 96.76 491.467 97.048 492.32C97.3467 493.173 97.8107 493.84 98.44 494.32C99.08 494.789 99.9173 495.024 100.952 495.024ZM112.319 498V480.72H115.727V484.928L115.311 484.384C115.524 483.808 115.807 483.285 116.159 482.816C116.521 482.336 116.953 481.941 117.455 481.632C117.881 481.344 118.351 481.12 118.863 480.96C119.385 480.789 119.919 480.688 120.463 480.656C121.007 480.613 121.535 480.635 122.047 480.72V484.32C121.535 484.171 120.943 484.123 120.271 484.176C119.609 484.229 119.012 484.416 118.479 484.736C117.945 485.024 117.508 485.392 117.167 485.84C116.836 486.288 116.591 486.8 116.431 487.376C116.271 487.941 116.191 488.555 116.191 489.216V498H112.319ZM128.886 498.48C127.638 498.48 126.582 498.245 125.718 497.776C124.854 497.296 124.198 496.661 123.75 495.872C123.312 495.083 123.094 494.213 123.094 493.264C123.094 492.432 123.232 491.685 123.51 491.024C123.787 490.352 124.214 489.776 124.79 489.296C125.366 488.805 126.112 488.405 127.03 488.096C127.723 487.872 128.534 487.669 129.462 487.488C130.4 487.307 131.414 487.141 132.502 486.992C133.6 486.832 134.747 486.661 135.942 486.48L134.566 487.264C134.576 486.069 134.31 485.189 133.766 484.624C133.222 484.059 132.304 483.776 131.014 483.776C130.235 483.776 129.483 483.957 128.758 484.32C128.032 484.683 127.526 485.307 127.238 486.192L123.718 485.088C124.144 483.627 124.955 482.453 126.15 481.568C127.355 480.683 128.976 480.24 131.014 480.24C132.55 480.24 133.899 480.491 135.062 480.992C136.235 481.493 137.104 482.315 137.67 483.456C137.979 484.064 138.166 484.688 138.23 485.328C138.294 485.957 138.326 486.645 138.326 487.392V498H134.95V494.256L135.51 494.864C134.731 496.112 133.819 497.029 132.774 497.616C131.739 498.192 130.443 498.48 128.886 498.48ZM129.654 495.408C130.528 495.408 131.275 495.253 131.894 494.944C132.512 494.635 133.003 494.256 133.366 493.808C133.739 493.36 133.99 492.939 134.118 492.544C134.32 492.053 134.432 491.493 134.454 490.864C134.486 490.224 134.502 489.707 134.502 489.312L135.686 489.664C134.523 489.845 133.526 490.005 132.694 490.144C131.862 490.283 131.147 490.416 130.55 490.544C129.952 490.661 129.424 490.795 128.966 490.944C128.518 491.104 128.139 491.291 127.83 491.504C127.52 491.717 127.28 491.963 127.11 492.24C126.95 492.517 126.87 492.843 126.87 493.216C126.87 493.643 126.976 494.021 127.19 494.352C127.403 494.672 127.712 494.928 128.118 495.12C128.534 495.312 129.046 495.408 129.654 495.408ZM149.355 498.48C147.574 498.48 146.054 498.085 144.795 497.296C143.537 496.496 142.571 495.408 141.899 494.032C141.238 492.656 140.902 491.099 140.891 489.36C140.902 487.589 141.249 486.021 141.931 484.656C142.625 483.28 143.606 482.203 144.875 481.424C146.145 480.635 147.654 480.24 149.403 480.24C151.366 480.24 153.025 480.736 154.379 481.728C155.745 482.709 156.635 484.053 157.051 485.76L153.211 486.8C152.913 485.872 152.417 485.152 151.723 484.64C151.03 484.117 150.241 483.856 149.355 483.856C148.353 483.856 147.526 484.096 146.875 484.576C146.225 485.045 145.745 485.696 145.435 486.528C145.126 487.36 144.971 488.304 144.971 489.36C144.971 491.003 145.339 492.331 146.075 493.344C146.811 494.357 147.905 494.864 149.355 494.864C150.379 494.864 151.185 494.629 151.771 494.16C152.369 493.691 152.817 493.013 153.115 492.128L157.051 493.008C156.518 494.768 155.585 496.123 154.251 497.072C152.918 498.011 151.286 498.48 149.355 498.48ZM166.781 498.48C165.053 498.48 163.543 498.091 162.253 497.312C160.962 496.533 159.959 495.461 159.245 494.096C158.541 492.72 158.189 491.141 158.189 489.36C158.189 487.547 158.551 485.957 159.277 484.592C160.002 483.227 161.01 482.16 162.301 481.392C163.591 480.624 165.085 480.24 166.781 480.24C168.519 480.24 170.034 480.629 171.325 481.408C172.615 482.187 173.618 483.264 174.333 484.64C175.047 486.005 175.405 487.579 175.405 489.36C175.405 491.152 175.042 492.736 174.317 494.112C173.602 495.477 172.599 496.549 171.309 497.328C170.018 498.096 168.509 498.48 166.781 498.48ZM166.781 494.864C168.317 494.864 169.458 494.352 170.205 493.328C170.951 492.304 171.325 490.981 171.325 489.36C171.325 487.685 170.946 486.352 170.189 485.36C169.431 484.357 168.295 483.856 166.781 483.856C165.746 483.856 164.893 484.091 164.221 484.56C163.559 485.019 163.069 485.664 162.749 486.496C162.429 487.317 162.269 488.272 162.269 489.36C162.269 491.035 162.647 492.373 163.405 493.376C164.173 494.368 165.298 494.864 166.781 494.864ZM181.345 498L176.065 480.688L179.841 480.72L183.217 491.808L186.641 480.72H189.889L193.297 491.808L196.689 480.72H200.465L195.185 498H192.177L188.257 486.112L184.353 498H181.345ZM214.665 498V489.68C214.665 489.136 214.627 488.533 214.553 487.872C214.478 487.211 214.302 486.576 214.025 485.968C213.758 485.349 213.353 484.843 212.809 484.448C212.275 484.053 211.55 483.856 210.633 483.856C210.142 483.856 209.657 483.936 209.177 484.096C208.697 484.256 208.259 484.533 207.865 484.928C207.481 485.312 207.171 485.845 206.937 486.528C206.702 487.2 206.585 488.064 206.585 489.12L204.297 488.144C204.297 486.672 204.579 485.339 205.145 484.144C205.721 482.949 206.563 482 207.673 481.296C208.782 480.581 210.147 480.224 211.769 480.224C213.049 480.224 214.105 480.437 214.937 480.864C215.769 481.291 216.43 481.835 216.921 482.496C217.411 483.157 217.774 483.861 218.009 484.608C218.243 485.355 218.393 486.064 218.457 486.736C218.531 487.397 218.569 487.936 218.569 488.352V498H214.665ZM202.681 498V480.72H206.121V486.08H206.585V498H202.681ZM222.424 478.096V474.56H226.28V478.096H222.424ZM222.424 498V480.72H226.28V498H222.424ZM230.401 498L230.433 474.96H234.337V489.04L240.657 480.72H245.473L238.769 489.36L246.049 498H240.945L234.337 489.68V498H230.401ZM255.851 478.24H252.923L255.387 472.32H258.315L255.851 478.24ZM254.331 498.48C252.603 498.48 251.093 498.091 249.803 497.312C248.512 496.533 247.509 495.461 246.795 494.096C246.091 492.72 245.739 491.141 245.739 489.36C245.739 487.547 246.101 485.957 246.827 484.592C247.552 483.227 248.56 482.16 249.851 481.392C251.141 480.624 252.635 480.24 254.331 480.24C256.069 480.24 257.584 480.629 258.875 481.408C260.165 482.187 261.168 483.264 261.883 484.64C262.597 486.005 262.955 487.579 262.955 489.36C262.955 491.152 262.592 492.736 261.867 494.112C261.152 495.477 260.149 496.549 258.859 497.328C257.568 498.096 256.059 498.48 254.331 498.48ZM254.331 494.864C255.867 494.864 257.008 494.352 257.755 493.328C258.501 492.304 258.875 490.981 258.875 489.36C258.875 487.685 258.496 486.352 257.739 485.36C256.981 484.357 255.845 483.856 254.331 483.856C253.296 483.856 252.443 484.091 251.771 484.56C251.109 485.019 250.619 485.664 250.299 486.496C249.979 487.317 249.819 488.272 249.819 489.36C249.819 491.035 250.197 492.373 250.955 493.376C251.723 494.368 252.848 494.864 254.331 494.864ZM268.895 498L263.615 480.688L267.391 480.72L270.767 491.808L274.191 480.72H277.439L280.847 491.808L284.239 480.72H288.015L282.735 498H279.727L275.807 486.112L271.903 498H268.895Z" fill="white"/>
<path d="M331 2H333V0H331V2ZM67 2V0H65V2H67ZM331 92.75V94.75H333V92.75H331ZM331 175.25H333V173.25H331V175.25ZM331 266V268H333V266H331ZM240.25 266V264H238.25V266H240.25ZM157.75 266H159.75V264H157.75V266ZM67 266H65V268H67V266ZM331 0H67V4H331V0ZM333 92.75V2H329V92.75H333ZM291.75 134C291.75 112.323 309.323 94.75 331 94.75V90.75C307.114 90.75 287.75 110.114 287.75 134H291.75ZM331 173.25C309.323 173.25 291.75 155.677 291.75 134H287.75C287.75 157.886 307.114 177.25 331 177.25V173.25ZM333 266V175.25H329V266H333ZM240.25 268H331V264H240.25V268ZM199 309.25C222.886 309.25 242.25 289.886 242.25 266H238.25C238.25 287.677 220.677 305.25 199 305.25V309.25ZM155.75 266C155.75 289.886 175.114 309.25 199 309.25V305.25C177.323 305.25 159.75 287.677 159.75 266H155.75ZM67 268H157.75V264H67V268ZM65 2V266H69V2H65Z" fill="#4C3C90"/>
<path d="M93.208 58L93.24 34.96H97.144V49.04L103.464 40.72H108.28L101.576 49.36L108.856 58H103.752L97.144 49.68V58H93.208ZM117.138 58.48C115.41 58.48 113.901 58.0907 112.61 57.312C111.32 56.5333 110.317 55.4613 109.602 54.096C108.898 52.72 108.546 51.1413 108.546 49.36C108.546 47.5467 108.909 45.9573 109.634 44.592C110.36 43.2267 111.368 42.16 112.658 41.392C113.949 40.624 115.442 40.24 117.138 40.24C118.877 40.24 120.392 40.6293 121.682 41.408C122.973 42.1867 123.976 43.264 124.69 44.64C125.405 46.0053 125.762 47.5787 125.762 49.36C125.762 51.152 125.4 52.736 124.674 54.112C123.96 55.4773 122.957 56.5493 121.666 57.328C120.376 58.096 118.866 58.48 117.138 58.48ZM117.138 54.864C118.674 54.864 119.816 54.352 120.562 53.328C121.309 52.304 121.682 50.9813 121.682 49.36C121.682 47.6853 121.304 46.352 120.546 45.36C119.789 44.3573 118.653 43.856 117.138 43.856C116.104 43.856 115.25 44.0907 114.578 44.56C113.917 45.0187 113.426 45.664 113.106 46.496C112.786 47.3173 112.626 48.272 112.626 49.36C112.626 51.0347 113.005 52.3733 113.762 53.376C114.53 54.368 115.656 54.864 117.138 54.864ZM149.4 58V47.504C149.4 46.32 149.106 45.3973 148.52 44.736C147.933 44.064 147.138 43.728 146.136 43.728C145.517 43.728 144.962 43.872 144.472 44.16C143.981 44.4373 143.592 44.8533 143.304 45.408C143.016 45.952 142.872 46.6027 142.872 47.36L141.16 46.352C141.149 45.1573 141.416 44.1067 141.96 43.2C142.514 42.2827 143.261 41.568 144.2 41.056C145.138 40.544 146.184 40.288 147.336 40.288C149.245 40.288 150.706 40.864 151.72 42.016C152.744 43.1573 153.256 44.6613 153.256 46.528V58H149.4ZM128.616 58V40.72H132.024V46.08H132.504V58H128.616ZM139.032 58V47.552C139.032 46.3467 138.738 45.408 138.152 44.736C137.565 44.064 136.765 43.728 135.752 43.728C134.77 43.728 133.981 44.064 133.384 44.736C132.797 45.408 132.504 46.2827 132.504 47.36L130.776 46.208C130.776 45.088 131.053 44.08 131.608 43.184C132.162 42.288 132.909 41.584 133.848 41.072C134.797 40.5493 135.858 40.288 137.032 40.288C138.322 40.288 139.4 40.5653 140.264 41.12C141.138 41.664 141.789 42.4107 142.216 43.36C142.653 44.2987 142.872 45.36 142.872 46.544V58H139.032ZM163.269 58.496C161.989 58.496 160.933 58.2827 160.101 57.856C159.269 57.4293 158.607 56.8853 158.117 56.224C157.626 55.5627 157.263 54.8587 157.029 54.112C156.794 53.3653 156.639 52.6613 156.565 52C156.501 51.328 156.469 50.784 156.469 50.368V40.72H160.373V49.04C160.373 49.5733 160.41 50.176 160.485 50.848C160.559 51.5093 160.73 52.1493 160.997 52.768C161.274 53.376 161.679 53.8773 162.213 54.272C162.757 54.6667 163.487 54.864 164.405 54.864C164.895 54.864 165.381 54.784 165.861 54.624C166.341 54.464 166.773 54.192 167.157 53.808C167.551 53.4133 167.866 52.8747 168.101 52.192C168.335 51.5093 168.453 50.6453 168.453 49.6L170.741 50.576C170.741 52.048 170.453 53.3813 169.877 54.576C169.311 55.7707 168.474 56.7253 167.365 57.44C166.255 58.144 164.89 58.496 163.269 58.496ZM168.917 58V52.64H168.453V40.72H172.325V58H168.917ZM188.132 58V49.68C188.132 49.136 188.095 48.5333 188.02 47.872C187.945 47.2107 187.769 46.576 187.492 45.968C187.225 45.3493 186.82 44.8427 186.276 44.448C185.743 44.0533 185.017 43.856 184.1 43.856C183.609 43.856 183.124 43.936 182.644 44.096C182.164 44.256 181.727 44.5333 181.332 44.928C180.948 45.312 180.639 45.8453 180.404 46.528C180.169 47.2 180.052 48.064 180.052 49.12L177.764 48.144C177.764 46.672 178.047 45.3387 178.612 44.144C179.188 42.9493 180.031 42 181.14 41.296C182.249 40.5813 183.615 40.224 185.236 40.224C186.516 40.224 187.572 40.4373 188.404 40.864C189.236 41.2907 189.897 41.8347 190.388 42.496C190.879 43.1573 191.241 43.8613 191.476 44.608C191.711 45.3547 191.86 46.064 191.924 46.736C191.999 47.3973 192.036 47.936 192.036 48.352V58H188.132ZM176.148 58V40.72H179.588V46.08H180.052V58H176.148ZM195.891 38.096V34.56H199.747V38.096H195.891ZM195.891 58V40.72H199.747V58H195.891ZM203.868 58L203.9 34.96H207.804V49.04L214.124 40.72H218.94L212.236 49.36L219.516 58H214.412L207.804 49.68V58H203.868ZM225.311 58.48C224.063 58.48 223.007 58.2453 222.143 57.776C221.279 57.296 220.623 56.6613 220.175 55.872C219.737 55.0827 219.519 54.2133 219.519 53.264C219.519 52.432 219.657 51.6853 219.935 51.024C220.212 50.352 220.639 49.776 221.215 49.296C221.791 48.8053 222.537 48.4053 223.455 48.096C224.148 47.872 224.959 47.6693 225.887 47.488C226.825 47.3067 227.839 47.1413 228.927 46.992C230.025 46.832 231.172 46.6613 232.367 46.48L230.991 47.264C231.001 46.0693 230.735 45.1893 230.191 44.624C229.647 44.0587 228.729 43.776 227.439 43.776C226.66 43.776 225.908 43.9573 225.183 44.32C224.457 44.6827 223.951 45.3067 223.663 46.192L220.143 45.088C220.569 43.6267 221.38 42.4533 222.575 41.568C223.78 40.6827 225.401 40.24 227.439 40.24C228.975 40.24 230.324 40.4907 231.487 40.992C232.66 41.4933 233.529 42.3147 234.095 43.456C234.404 44.064 234.591 44.688 234.655 45.328C234.719 45.9573 234.751 46.6453 234.751 47.392V58H231.375V54.256L231.935 54.864C231.156 56.112 230.244 57.0293 229.199 57.616C228.164 58.192 226.868 58.48 225.311 58.48ZM226.079 55.408C226.953 55.408 227.7 55.2533 228.319 54.944C228.937 54.6347 229.428 54.256 229.791 53.808C230.164 53.36 230.415 52.9387 230.543 52.544C230.745 52.0533 230.857 51.4933 230.879 50.864C230.911 50.224 230.927 49.7067 230.927 49.312L232.111 49.664C230.948 49.8453 229.951 50.0053 229.119 50.144C228.287 50.2827 227.572 50.416 226.975 50.544C226.377 50.6613 225.849 50.7947 225.391 50.944C224.943 51.104 224.564 51.2907 224.255 51.504C223.945 51.7173 223.705 51.9627 223.535 52.24C223.375 52.5173 223.295 52.8427 223.295 53.216C223.295 53.6427 223.401 54.0213 223.615 54.352C223.828 54.672 224.137 54.928 224.543 55.12C224.959 55.312 225.471 55.408 226.079 55.408ZM245.78 58.48C243.999 58.48 242.479 58.0853 241.22 57.296C239.962 56.496 238.996 55.408 238.324 54.032C237.663 52.656 237.327 51.0987 237.316 49.36C237.327 47.5893 237.674 46.0213 238.356 44.656C239.05 43.28 240.031 42.2027 241.3 41.424C242.57 40.6347 244.079 40.24 245.828 40.24C247.791 40.24 249.45 40.736 250.804 41.728C252.17 42.7093 253.06 44.0533 253.476 45.76L249.636 46.8C249.338 45.872 248.842 45.152 248.148 44.64C247.455 44.1173 246.666 43.856 245.78 43.856C244.778 43.856 243.951 44.096 243.3 44.576C242.65 45.0453 242.17 45.696 241.86 46.528C241.551 47.36 241.396 48.304 241.396 49.36C241.396 51.0027 241.764 52.3307 242.5 53.344C243.236 54.3573 244.33 54.864 245.78 54.864C246.804 54.864 247.61 54.6293 248.196 54.16C248.794 53.6907 249.242 53.0133 249.54 52.128L253.476 53.008C252.943 54.768 252.01 56.1227 250.676 57.072C249.343 58.0107 247.711 58.48 245.78 58.48ZM253.483 65.68V62.064H254.299C255.237 62.064 255.904 61.8453 256.299 61.408C256.693 60.9707 256.891 60.3253 256.891 59.472V40.72H260.731V61.2C260.731 62.5973 260.32 63.6907 259.499 64.48C258.688 65.28 257.557 65.68 256.107 65.68H253.483ZM256.891 38.096V34.56H260.731V38.096H256.891ZM264.941 38.096V34.56H268.797V38.096H264.941ZM264.941 58V40.72H268.797V58H264.941ZM96.92 98L91.64 80.688L95.416 80.72L98.792 91.808L102.216 80.72H105.464L108.872 91.808L112.264 80.72H116.04L110.76 98H107.752L103.832 86.112L99.928 98H96.92ZM125.519 98.48C123.769 98.48 122.233 98.1013 120.911 97.344C119.588 96.5867 118.553 95.536 117.807 94.192C117.071 92.848 116.703 91.3013 116.703 89.552C116.703 87.664 117.065 86.0267 117.791 84.64C118.516 83.2427 119.524 82.16 120.815 81.392C122.105 80.624 123.599 80.24 125.295 80.24C127.087 80.24 128.607 80.6613 129.855 81.504C131.113 82.336 132.047 83.5147 132.655 85.04C133.263 86.5653 133.492 88.3627 133.343 90.432H129.519V89.024C129.508 87.1467 129.177 85.776 128.527 84.912C127.876 84.048 126.852 83.616 125.455 83.616C123.876 83.616 122.703 84.1067 121.935 85.088C121.167 86.0587 120.783 87.4827 120.783 89.36C120.783 91.1093 121.167 92.464 121.935 93.424C122.703 94.384 123.823 94.864 125.295 94.864C126.244 94.864 127.06 94.656 127.743 94.24C128.436 93.8133 128.969 93.2 129.343 92.4L133.151 93.552C132.489 95.1093 131.465 96.32 130.079 97.184C128.703 98.048 127.183 98.48 125.519 98.48ZM119.567 90.432V87.52H131.455V90.432H119.567ZM139.328 98L134.048 80.688L137.824 80.72L141.2 91.808L144.624 80.72H147.872L151.28 91.808L154.672 80.72H158.448L153.168 98H150.16L146.24 86.112L142.336 98H139.328ZM172.647 98V89.68C172.647 89.136 172.61 88.5333 172.535 87.872C172.46 87.2107 172.284 86.576 172.007 85.968C171.74 85.3493 171.335 84.8427 170.791 84.448C170.258 84.0533 169.532 83.856 168.615 83.856C168.124 83.856 167.639 83.936 167.159 84.096C166.679 84.256 166.242 84.5333 165.847 84.928C165.463 85.312 165.154 85.8453 164.919 86.528C164.684 87.2 164.567 88.064 164.567 89.12L162.279 88.144C162.279 86.672 162.562 85.3387 163.127 84.144C163.703 82.9493 164.546 82 165.655 81.296C166.764 80.5813 168.13 80.224 169.751 80.224C171.031 80.224 172.087 80.4373 172.919 80.864C173.751 81.2907 174.412 81.8347 174.903 82.496C175.394 83.1573 175.756 83.8613 175.991 84.608C176.226 85.3547 176.375 86.064 176.439 86.736C176.514 87.3973 176.551 87.936 176.551 88.352V98H172.647ZM160.663 98V80.72H164.103V86.08H164.567V98H160.663ZM193.158 105.376C192.444 105.685 191.692 105.739 190.902 105.536C190.124 105.333 189.494 104.939 189.014 104.352C188.609 103.84 188.348 103.216 188.23 102.48C188.124 101.744 188.22 101.019 188.518 100.304C188.721 99.8347 188.972 99.3493 189.27 98.848C189.569 98.3573 189.841 97.9307 190.086 97.568C190.246 97.3333 190.465 97.024 190.742 96.64C191.02 96.256 191.313 95.856 191.622 95.44C191.942 95.024 192.236 94.6347 192.502 94.272L194.998 94.64C194.753 95.0453 194.508 95.4453 194.262 95.84C194.017 96.224 193.777 96.5973 193.542 96.96C193.318 97.3227 193.11 97.6587 192.918 97.968C192.726 98.2667 192.561 98.5387 192.422 98.784C192.134 99.2747 191.889 99.7333 191.686 100.16C191.484 100.597 191.334 100.976 191.238 101.296C191.196 101.435 191.169 101.621 191.158 101.856C191.158 102.101 191.233 102.309 191.382 102.48C191.617 102.736 191.921 102.816 192.294 102.72C192.678 102.635 193.009 102.48 193.286 102.256L194.678 104.064C194.508 104.331 194.294 104.576 194.038 104.8C193.793 105.024 193.5 105.216 193.158 105.376ZM187.942 98.48C186.193 98.48 184.657 98.1013 183.334 97.344C182.012 96.5867 180.977 95.536 180.23 94.192C179.494 92.848 179.126 91.3013 179.126 89.552C179.126 87.664 179.489 86.0267 180.214 84.64C180.94 83.2427 181.948 82.16 183.238 81.392C184.529 80.624 186.022 80.24 187.718 80.24C189.51 80.24 191.03 80.6613 192.278 81.504C193.537 82.336 194.47 83.5147 195.078 85.04C195.686 86.5653 195.916 88.3627 195.766 90.432H191.942V89.024C191.932 87.1467 191.601 85.776 190.95 84.912C190.3 84.048 189.276 83.616 187.878 83.616C186.3 83.616 185.126 84.1067 184.358 85.088C183.59 86.0587 183.206 87.4827 183.206 89.36C183.206 91.1093 183.59 92.464 184.358 93.424C185.126 94.384 186.246 94.864 187.718 94.864C188.668 94.864 189.484 94.656 190.166 94.24C190.86 93.8133 191.393 93.2 191.766 92.4L195.574 93.552C194.913 95.1093 193.889 96.32 192.502 97.184C191.126 98.048 189.606 98.48 187.942 98.48ZM181.99 90.432V87.52H193.878V90.432H181.99ZM208.824 98C207.683 98.2133 206.563 98.304 205.464 98.272C204.376 98.2507 203.4 98.0533 202.536 97.68C201.672 97.296 201.016 96.6933 200.568 95.872C200.174 95.1253 199.966 94.3627 199.944 93.584C199.923 92.8053 199.912 91.9253 199.912 90.944V75.92H203.752V90.72C203.752 91.4133 203.758 92.0213 203.768 92.544C203.79 93.0667 203.902 93.4933 204.104 93.824C204.488 94.464 205.102 94.8213 205.944 94.896C206.787 94.9707 207.747 94.928 208.824 94.768V98ZM196.776 83.744V80.72H208.824V83.744H196.776ZM211.9 98V80.72H215.308V84.928L214.892 84.384C215.105 83.808 215.388 83.2853 215.74 82.816C216.103 82.336 216.535 81.9413 217.036 81.632C217.463 81.344 217.932 81.12 218.444 80.96C218.967 80.7893 219.5 80.688 220.044 80.656C220.588 80.6133 221.116 80.6347 221.628 80.72V84.32C221.116 84.1707 220.524 84.1227 219.852 84.176C219.191 84.2293 218.593 84.416 218.06 84.736C217.527 85.024 217.089 85.392 216.748 85.84C216.417 86.288 216.172 86.8 216.012 87.376C215.852 87.9413 215.772 88.5547 215.772 89.216V98H211.9ZM222.441 98V97.472L231.593 84.096H223.369V80.72H237.593V81.264L228.473 94.624H237.209V98H222.441ZM252.416 98V89.68C252.416 89.136 252.378 88.5333 252.304 87.872C252.229 87.2107 252.053 86.576 251.776 85.968C251.509 85.3493 251.104 84.8427 250.56 84.448C250.026 84.0533 249.301 83.856 248.384 83.856C247.893 83.856 247.408 83.936 246.928 84.096C246.448 84.256 246.01 84.5333 245.616 84.928C245.232 85.312 244.922 85.8453 244.688 86.528C244.453 87.2 244.336 88.064 244.336 89.12L242.048 88.144C242.048 86.672 242.33 85.3387 242.896 84.144C243.472 82.9493 244.314 82 245.424 81.296C246.533 80.5813 247.898 80.224 249.52 80.224C250.8 80.224 251.856 80.4373 252.688 80.864C253.52 81.2907 254.181 81.8347 254.672 82.496C255.162 83.1573 255.525 83.8613 255.76 84.608C255.994 85.3547 256.144 86.064 256.208 86.736C256.282 87.3973 256.32 87.936 256.32 88.352V98H252.416ZM240.432 98V80.72H243.872V86.08H244.336V98H240.432ZM267.43 98.48C265.68 98.48 264.144 98.1013 262.822 97.344C261.499 96.5867 260.464 95.536 259.718 94.192C258.982 92.848 258.614 91.3013 258.614 89.552C258.614 87.664 258.976 86.0267 259.702 84.64C260.427 83.2427 261.435 82.16 262.726 81.392C264.016 80.624 265.51 80.24 267.206 80.24C268.998 80.24 270.518 80.6613 271.766 81.504C273.024 82.336 273.958 83.5147 274.566 85.04C275.174 86.5653 275.403 88.3627 275.254 90.432H271.43V89.024C271.419 87.1467 271.088 85.776 270.438 84.912C269.787 84.048 268.763 83.616 267.366 83.616C265.787 83.616 264.614 84.1067 263.846 85.088C263.078 86.0587 262.694 87.4827 262.694 89.36C262.694 91.1093 263.078 92.464 263.846 93.424C264.614 94.384 265.734 94.864 267.206 94.864C268.155 94.864 268.971 94.656 269.654 94.24C270.347 93.8133 270.88 93.2 271.254 92.4L275.062 93.552C274.4 95.1093 273.376 96.32 271.99 97.184C270.614 98.048 269.094 98.48 267.43 98.48ZM261.478 90.432V87.52H273.366V90.432H261.478ZM275.624 105.68V102.064H276.44C277.378 102.064 278.045 101.845 278.44 101.408C278.834 100.971 279.032 100.325 279.032 99.472V80.72H282.872V101.2C282.872 102.597 282.461 103.691 281.64 104.48C280.829 105.28 279.698 105.68 278.248 105.68H275.624ZM279.032 78.096V74.56H282.872V78.096H279.032Z" fill="#4C3C90"/>
<path d="M331 530L329 530L329 532L331 532L331 530ZM595 530L595 532L597 532L597 530L595 530ZM331 439.25L331 437.25L329 437.25L329 439.25L331 439.25ZM331 356.75L329 356.75L329 358.75L331 358.75L331 356.75ZM331 266L331 264L329 264L329 266L331 266ZM421.75 266L421.75 268L423.75 268L423.75 266L421.75 266ZM504.25 266L502.25 266L502.25 268L504.25 268L504.25 266ZM595 266L597 266L597 264L595 264L595 266ZM331 532L595 532L595 528L331 528L331 532ZM329 439.25L329 530L333 530L333 439.25L329 439.25ZM370.25 398C370.25 419.677 352.677 437.25 331 437.25L331 441.25C354.886 441.25 374.25 421.886 374.25 398L370.25 398ZM331 358.75C352.677 358.75 370.25 376.323 370.25 398L374.25 398C374.25 374.114 354.886 354.75 331 354.75L331 358.75ZM329 266L329 356.75L333 356.75L333 266L329 266ZM421.75 264L331 264L331 268L421.75 268L421.75 264ZM463 222.75C439.114 222.75 419.75 242.114 419.75 266L423.75 266C423.75 244.323 441.323 226.75 463 226.75L463 222.75ZM506.25 266C506.25 242.114 486.886 222.75 463 222.75L463 226.75C484.677 226.75 502.25 244.323 502.25 266L506.25 266ZM595 264L504.25 264L504.25 268L595 268L595 264ZM597 530L597 266L593 266L593 530L597 530Z" fill="#4C3C90"/>
<path d="M464.509 458.48C462.824 458.48 461.41 458.08 460.269 457.28C459.128 456.48 458.269 455.392 457.693 454.016C457.117 452.629 456.829 451.077 456.829 449.36C456.829 447.621 457.117 446.064 457.693 444.688C458.269 443.312 459.112 442.229 460.221 441.44C461.341 440.64 462.722 440.24 464.365 440.24C465.997 440.24 467.41 440.64 468.605 441.44C469.81 442.229 470.744 443.312 471.405 444.688C472.066 446.053 472.397 447.611 472.397 449.36C472.397 451.088 472.072 452.64 471.421 454.016C470.77 455.392 469.853 456.48 468.669 457.28C467.485 458.08 466.098 458.48 464.509 458.48ZM456.173 465.68V440.72H459.581V452.848H460.061V465.68H456.173ZM463.917 455.024C464.92 455.024 465.746 454.773 466.397 454.272C467.048 453.771 467.528 453.093 467.837 452.24C468.157 451.376 468.317 450.416 468.317 449.36C468.317 448.315 468.157 447.365 467.837 446.512C467.517 445.648 467.021 444.965 466.349 444.464C465.677 443.952 464.824 443.696 463.789 443.696C462.808 443.696 462.008 443.936 461.389 444.416C460.77 444.885 460.312 445.547 460.013 446.4C459.725 447.243 459.581 448.229 459.581 449.36C459.581 450.48 459.725 451.467 460.013 452.32C460.312 453.173 460.776 453.84 461.405 454.32C462.045 454.789 462.882 455.024 463.917 455.024ZM482.916 458.48C481.188 458.48 479.678 458.091 478.388 457.312C477.097 456.533 476.094 455.461 475.38 454.096C474.676 452.72 474.324 451.141 474.324 449.36C474.324 447.547 474.686 445.957 475.412 444.592C476.137 443.227 477.145 442.16 478.436 441.392C479.726 440.624 481.22 440.24 482.916 440.24C484.654 440.24 486.169 440.629 487.46 441.408C488.75 442.187 489.753 443.264 490.468 444.64C491.182 446.005 491.54 447.579 491.54 449.36C491.54 451.152 491.177 452.736 490.452 454.112C489.737 455.477 488.734 456.549 487.444 457.328C486.153 458.096 484.644 458.48 482.916 458.48ZM482.916 454.864C484.452 454.864 485.593 454.352 486.34 453.328C487.086 452.304 487.46 450.981 487.46 449.36C487.46 447.685 487.081 446.352 486.324 445.36C485.566 444.357 484.43 443.856 482.916 443.856C481.881 443.856 481.028 444.091 480.356 444.56C479.694 445.019 479.204 445.664 478.884 446.496C478.564 447.317 478.404 448.272 478.404 449.36C478.404 451.035 478.782 452.373 479.54 453.376C480.308 454.368 481.433 454.864 482.916 454.864ZM504.553 458C503.412 458.213 502.292 458.304 501.193 458.272C500.105 458.251 499.129 458.053 498.265 457.68C497.401 457.296 496.745 456.693 496.297 455.872C495.902 455.125 495.694 454.363 495.673 453.584C495.652 452.805 495.641 451.925 495.641 450.944V435.92H499.481V450.72C499.481 451.413 499.486 452.021 499.497 452.544C499.518 453.067 499.63 453.493 499.833 453.824C500.217 454.464 500.83 454.821 501.673 454.896C502.516 454.971 503.476 454.928 504.553 454.768V458ZM492.505 443.744V440.72H504.553V443.744H492.505ZM507.629 458V440.72H511.037V444.928L510.621 444.384C510.834 443.808 511.117 443.285 511.469 442.816C511.831 442.336 512.263 441.941 512.765 441.632C513.191 441.344 513.661 441.12 514.173 440.96C514.695 440.789 515.229 440.688 515.773 440.656C516.317 440.613 516.845 440.635 517.357 440.72V444.32C516.845 444.171 516.253 444.123 515.581 444.176C514.919 444.229 514.322 444.416 513.789 444.736C513.255 445.024 512.818 445.392 512.477 445.84C512.146 446.288 511.901 446.8 511.741 447.376C511.581 447.941 511.501 448.555 511.501 449.216V458H507.629ZM518.17 458V457.472L527.322 444.096H519.098V440.72H533.322V441.264L524.202 454.624H532.938V458H518.17ZM542.767 458.48C541.018 458.48 539.482 458.101 538.159 457.344C536.837 456.587 535.802 455.536 535.055 454.192C534.319 452.848 533.951 451.301 533.951 449.552C533.951 447.664 534.314 446.027 535.039 444.64C535.765 443.243 536.773 442.16 538.063 441.392C539.354 440.624 540.847 440.24 542.543 440.24C544.335 440.24 545.855 440.661 547.103 441.504C548.362 442.336 549.295 443.515 549.903 445.04C550.511 446.565 550.741 448.363 550.591 450.432H546.767V449.024C546.757 447.147 546.426 445.776 545.775 444.912C545.125 444.048 544.101 443.616 542.703 443.616C541.125 443.616 539.951 444.107 539.183 445.088C538.415 446.059 538.031 447.483 538.031 449.36C538.031 451.109 538.415 452.464 539.183 453.424C539.951 454.384 541.071 454.864 542.543 454.864C543.493 454.864 544.309 454.656 544.991 454.24C545.685 453.813 546.218 453.2 546.591 452.4L550.399 453.552C549.738 455.109 548.714 456.32 547.327 457.184C545.951 458.048 544.431 458.48 542.767 458.48ZM536.815 450.432V447.52H548.703V450.432H536.815ZM561.825 458.48C560.14 458.48 558.727 458.08 557.585 457.28C556.444 456.48 555.585 455.392 555.009 454.016C554.433 452.629 554.145 451.077 554.145 449.36C554.145 447.621 554.433 446.064 555.009 444.688C555.585 443.312 556.428 442.229 557.537 441.44C558.657 440.64 560.039 440.24 561.681 440.24C563.313 440.24 564.727 440.64 565.921 441.44C567.127 442.229 568.06 443.312 568.721 444.688C569.383 446.053 569.713 447.611 569.713 449.36C569.713 451.088 569.388 452.64 568.737 454.016C568.087 455.392 567.169 456.48 565.985 457.28C564.801 458.08 563.415 458.48 561.825 458.48ZM553.489 458V434.96H557.377V445.872H556.897V458H553.489ZM561.233 455.024C562.236 455.024 563.063 454.773 563.713 454.272C564.364 453.771 564.844 453.093 565.153 452.24C565.473 451.376 565.633 450.416 565.633 449.36C565.633 448.315 565.473 447.365 565.153 446.512C564.833 445.648 564.337 444.965 563.665 444.464C562.993 443.952 562.14 443.696 561.105 443.696C560.124 443.696 559.324 443.936 558.705 444.416C558.087 444.885 557.628 445.547 557.329 446.4C557.041 447.243 556.897 448.229 556.897 449.36C556.897 450.48 557.041 451.467 557.329 452.32C557.628 453.173 558.092 453.84 558.721 454.32C559.361 454.789 560.199 455.024 561.233 455.024ZM359.373 498.48C357.24 498.48 355.507 498 354.173 497.04C352.84 496.08 352.029 494.731 351.741 492.992L355.677 492.384C355.88 493.237 356.328 493.909 357.021 494.4C357.715 494.891 358.589 495.136 359.645 495.136C360.573 495.136 361.288 494.955 361.789 494.592C362.301 494.219 362.557 493.712 362.557 493.072C362.557 492.677 362.461 492.363 362.269 492.128C362.088 491.883 361.683 491.648 361.053 491.424C360.424 491.2 359.459 490.917 358.157 490.576C356.707 490.192 355.555 489.781 354.701 489.344C353.848 488.896 353.235 488.368 352.861 487.76C352.488 487.152 352.301 486.416 352.301 485.552C352.301 484.475 352.584 483.536 353.149 482.736C353.715 481.936 354.504 481.323 355.517 480.896C356.531 480.459 357.725 480.24 359.101 480.24C360.445 480.24 361.635 480.448 362.669 480.864C363.715 481.28 364.557 481.872 365.197 482.64C365.837 483.408 366.232 484.309 366.381 485.344L362.445 486.048C362.349 485.312 362.013 484.731 361.437 484.304C360.872 483.877 360.115 483.637 359.165 483.584C358.259 483.531 357.528 483.669 356.973 484C356.419 484.32 356.141 484.773 356.141 485.36C356.141 485.691 356.253 485.973 356.477 486.208C356.701 486.443 357.149 486.677 357.821 486.912C358.504 487.147 359.517 487.435 360.861 487.776C362.237 488.128 363.336 488.533 364.157 488.992C364.989 489.44 365.587 489.979 365.949 490.608C366.323 491.237 366.509 492 366.509 492.896C366.509 494.635 365.875 496 364.605 496.992C363.347 497.984 361.603 498.48 359.373 498.48ZM367.774 498V497.472L376.926 484.096H368.702V480.72H382.926V481.264L373.806 494.624H382.542V498H367.774ZM385.764 498L385.796 474.96H389.7V489.04L396.02 480.72H400.836L394.132 489.36L401.412 498H396.308L389.7 489.68V498H385.764ZM409.694 498.48C407.966 498.48 406.457 498.091 405.166 497.312C403.876 496.533 402.873 495.461 402.158 494.096C401.454 492.72 401.102 491.141 401.102 489.36C401.102 487.547 401.465 485.957 402.19 484.592C402.916 483.227 403.924 482.16 405.214 481.392C406.505 480.624 407.998 480.24 409.694 480.24C411.433 480.24 412.948 480.629 414.238 481.408C415.529 482.187 416.532 483.264 417.246 484.64C417.961 486.005 418.318 487.579 418.318 489.36C418.318 491.152 417.956 492.736 417.23 494.112C416.516 495.477 415.513 496.549 414.222 497.328C412.932 498.096 411.422 498.48 409.694 498.48ZM409.694 494.864C411.23 494.864 412.372 494.352 413.118 493.328C413.865 492.304 414.238 490.981 414.238 489.36C414.238 487.685 413.86 486.352 413.102 485.36C412.345 484.357 411.209 483.856 409.694 483.856C408.66 483.856 407.806 484.091 407.134 484.56C406.473 485.019 405.982 485.664 405.662 486.496C405.342 487.317 405.182 488.272 405.182 489.36C405.182 491.035 405.561 492.373 406.318 493.376C407.086 494.368 408.212 494.864 409.694 494.864ZM421.524 498V474.48H425.38V498H421.524ZM437.388 498.48C435.639 498.48 434.103 498.101 432.78 497.344C431.458 496.587 430.423 495.536 429.676 494.192C428.94 492.848 428.572 491.301 428.572 489.552C428.572 487.664 428.935 486.027 429.66 484.64C430.386 483.243 431.394 482.16 432.684 481.392C433.975 480.624 435.468 480.24 437.164 480.24C438.956 480.24 440.476 480.661 441.724 481.504C442.983 482.336 443.916 483.515 444.524 485.04C445.132 486.565 445.362 488.363 445.212 490.432H441.388V489.024C441.378 487.147 441.047 485.776 440.396 484.912C439.746 484.048 438.722 483.616 437.324 483.616C435.746 483.616 434.572 484.107 433.804 485.088C433.036 486.059 432.652 487.483 432.652 489.36C432.652 491.109 433.036 492.464 433.804 493.424C434.572 494.384 435.692 494.864 437.164 494.864C438.114 494.864 438.93 494.656 439.612 494.24C440.306 493.813 440.839 493.2 441.212 492.4L445.02 493.552C444.359 495.109 443.335 496.32 441.948 497.184C440.572 498.048 439.052 498.48 437.388 498.48ZM431.436 490.432V487.52H443.324V490.432H431.436ZM459.626 498V489.68C459.626 489.136 459.588 488.533 459.514 487.872C459.439 487.211 459.263 486.576 458.986 485.968C458.719 485.349 458.314 484.843 457.77 484.448C457.236 484.053 456.511 483.856 455.594 483.856C455.103 483.856 454.618 483.936 454.138 484.096C453.658 484.256 453.22 484.533 452.826 484.928C452.442 485.312 452.132 485.845 451.898 486.528C451.663 487.2 451.546 488.064 451.546 489.12L449.258 488.144C449.258 486.672 449.54 485.339 450.106 484.144C450.682 482.949 451.524 482 452.634 481.296C453.743 480.581 455.108 480.224 456.73 480.224C458.01 480.224 459.066 480.437 459.898 480.864C460.73 481.291 461.391 481.835 461.882 482.496C462.372 483.157 462.735 483.861 462.97 484.608C463.204 485.355 463.354 486.064 463.418 486.736C463.492 487.397 463.53 487.936 463.53 488.352V498H459.626ZM447.642 498V480.72H451.082V486.08H451.546V498H447.642ZM467.385 478.096V474.56H471.241V478.096H467.385ZM467.385 498V480.72H471.241V498H467.385ZM483.026 498.48C481.298 498.48 479.788 498.091 478.498 497.312C477.207 496.533 476.204 495.461 475.49 494.096C474.786 492.72 474.434 491.141 474.434 489.36C474.434 487.547 474.796 485.957 475.522 484.592C476.247 483.227 477.255 482.16 478.546 481.392C479.836 480.624 481.33 480.24 483.026 480.24C484.764 480.24 486.279 480.629 487.57 481.408C488.86 482.187 489.863 483.264 490.578 484.64C491.292 486.005 491.65 487.579 491.65 489.36C491.65 491.152 491.287 492.736 490.562 494.112C489.847 495.477 488.844 496.549 487.554 497.328C486.263 498.096 484.754 498.48 483.026 498.48ZM483.026 494.864C484.562 494.864 485.703 494.352 486.45 493.328C487.196 492.304 487.57 490.981 487.57 489.36C487.57 487.685 487.191 486.352 486.434 485.36C485.676 484.357 484.54 483.856 483.026 483.856C481.991 483.856 481.138 484.091 480.466 484.56C479.804 485.019 479.314 485.664 478.994 486.496C478.674 487.317 478.514 488.272 478.514 489.36C478.514 491.035 478.892 492.373 479.65 493.376C480.418 494.368 481.543 494.864 483.026 494.864ZM497.59 498L492.31 480.688L496.086 480.72L499.462 491.808L502.886 480.72H506.134L509.542 491.808L512.934 480.72H516.71L511.43 498H508.422L504.502 486.112L500.598 498H497.59ZM521.073 505.68L524.401 496.544L524.465 499.232L516.929 480.72H520.945L526.289 494.416H525.265L530.465 480.72H534.321L524.689 505.68H521.073ZM542.946 498.48C541.165 498.48 539.645 498.085 538.386 497.296C537.128 496.496 536.162 495.408 535.49 494.032C534.829 492.656 534.493 491.099 534.482 489.36C534.493 487.589 534.84 486.021 535.522 484.656C536.216 483.28 537.197 482.203 538.466 481.424C539.736 480.635 541.245 480.24 542.995 480.24C544.957 480.24 546.616 480.736 547.97 481.728C549.336 482.709 550.226 484.053 550.642 485.76L546.802 486.8C546.504 485.872 546.008 485.152 545.314 484.64C544.621 484.117 543.832 483.856 542.946 483.856C541.944 483.856 541.117 484.096 540.466 484.576C539.816 485.045 539.336 485.696 539.026 486.528C538.717 487.36 538.562 488.304 538.562 489.36C538.562 491.003 538.93 492.331 539.666 493.344C540.402 494.357 541.496 494.864 542.946 494.864C543.97 494.864 544.776 494.629 545.363 494.16C545.96 493.691 546.408 493.013 546.707 492.128L550.642 493.008C550.109 494.768 549.176 496.123 547.842 497.072C546.509 498.011 544.877 498.48 542.946 498.48ZM565.161 498V489.68C565.161 489.136 565.123 488.533 565.049 487.872C564.974 487.211 564.798 486.576 564.521 485.968C564.254 485.349 563.849 484.843 563.305 484.448C562.771 484.053 562.046 483.856 561.129 483.856C560.638 483.856 560.153 483.936 559.673 484.096C559.193 484.256 558.755 484.533 558.361 484.928C557.977 485.312 557.667 485.845 557.433 486.528C557.198 487.2 557.081 488.064 557.081 489.12L554.793 488.144C554.793 486.672 555.075 485.339 555.641 484.144C556.217 482.949 557.059 482 558.169 481.296C559.278 480.581 560.643 480.224 562.265 480.224C563.545 480.224 564.601 480.437 565.433 480.864C566.265 481.291 566.926 481.835 567.417 482.496C567.907 483.157 568.27 483.861 568.505 484.608C568.739 485.355 568.889 486.064 568.953 486.736C569.027 487.397 569.065 487.936 569.065 488.352V498H565.161ZM553.177 498V474.96H556.617V487.088H557.081V498H553.177Z" fill="#4C3C90"/>
<path d="M595 266L595 268L597 268L597 266L595 266ZM595 2L597 2L597 8.74228e-08L595 0L595 2ZM504.25 266L502.25 266L502.25 268L504.25 268L504.25 266ZM421.75 266L421.75 268L423.75 268L423.75 266L421.75 266ZM331 266L329 266L329 268L331 268L331 266ZM331 175.25L333 175.25L333 173.25L331 173.25L331 175.25ZM331 92.75L331 94.75L333 94.75L333 92.75L331 92.75ZM331 1.99999L331 -1.15398e-05L329 -1.16272e-05L329 1.99999L331 1.99999ZM597 266L597 2L593 2L593 266L597 266ZM504.25 268L595 268L595 264L504.25 264L504.25 268ZM463 226.75C484.677 226.75 502.25 244.323 502.25 266L506.25 266C506.25 242.114 486.886 222.75 463 222.75L463 226.75ZM423.75 266C423.75 244.323 441.323 226.75 463 226.75L463 222.75C439.114 222.75 419.75 242.114 419.75 266L423.75 266ZM331 268L421.75 268L421.75 264L331 264L331 268ZM329 175.25L329 266L333 266L333 175.25L329 175.25ZM287.75 134C287.75 157.886 307.114 177.25 331 177.25L331 173.25C309.323 173.25 291.75 155.677 291.75 134L287.75 134ZM331 90.75C307.114 90.75 287.75 110.114 287.75 134L291.75 134C291.75 112.323 309.323 94.75 331 94.75L331 90.75ZM329 1.99999L329 92.75L333 92.75L333 1.99999L329 1.99999ZM595 0L331 -1.15398e-05L331 3.99999L595 4L595 0Z" fill="#4C3C90"/>
<path className="suka" d="M422.259 58L416.979 40.688L420.755 40.72L424.131 51.808L427.555 40.72H430.803L434.211 51.808L437.603 40.72H441.379L436.099 58H433.091L429.171 46.112L425.267 58H422.259ZM443.946 38.096V34.56H447.802V38.096H443.946ZM443.946 58V40.72H447.802V58H443.946ZM450.355 58V57.472L459.507 44.096H451.283V40.72H465.507V41.264L456.387 54.624H465.123V58H450.355ZM474.952 58.48C473.203 58.48 471.667 58.1013 470.344 57.344C469.022 56.5867 467.987 55.536 467.24 54.192C466.504 52.848 466.136 51.3013 466.136 49.552C466.136 47.664 466.499 46.0267 467.224 44.64C467.95 43.2427 468.958 42.16 470.248 41.392C471.539 40.624 473.032 40.24 474.728 40.24C476.52 40.24 478.04 40.6613 479.288 41.504C480.547 42.336 481.48 43.5147 482.088 45.04C482.696 46.5653 482.926 48.3627 482.776 50.432H478.952V49.024C478.942 47.1467 478.611 45.776 477.96 44.912C477.31 44.048 476.286 43.616 474.888 43.616C473.31 43.616 472.136 44.1067 471.368 45.088C470.6 46.0587 470.216 47.4827 470.216 49.36C470.216 51.1093 470.6 52.464 471.368 53.424C472.136 54.384 473.256 54.864 474.728 54.864C475.678 54.864 476.494 54.656 477.176 54.24C477.87 53.8133 478.403 53.2 478.776 52.4L482.584 53.552C481.923 55.1093 480.899 56.32 479.512 57.184C478.136 58.048 476.616 58.48 474.952 58.48ZM469 50.432V47.52H480.888V50.432H469ZM485.706 58V40.72H489.114V44.928L488.698 44.384C488.912 43.808 489.194 43.2853 489.546 42.816C489.909 42.336 490.341 41.9413 490.842 41.632C491.269 41.344 491.738 41.12 492.25 40.96C492.773 40.7893 493.306 40.688 493.85 40.656C494.394 40.6133 494.922 40.6347 495.434 40.72V44.32C494.922 44.1707 494.33 44.1227 493.658 44.176C492.997 44.2293 492.4 44.416 491.866 44.736C491.333 45.024 490.896 45.392 490.554 45.84C490.224 46.288 489.978 46.8 489.818 47.376C489.658 47.9413 489.578 48.5547 489.578 49.216V58H485.706ZM504.327 58.496C503.047 58.496 501.991 58.2827 501.159 57.856C500.327 57.4293 499.666 56.8853 499.175 56.224C498.685 55.5627 498.322 54.8587 498.087 54.112C497.853 53.3653 497.698 52.6613 497.623 52C497.559 51.328 497.527 50.784 497.527 50.368V40.72H501.431V49.04C501.431 49.5733 501.469 50.176 501.543 50.848C501.618 51.5093 501.789 52.1493 502.055 52.768C502.333 53.376 502.738 53.8773 503.271 54.272C503.815 54.6667 504.546 54.864 505.463 54.864C505.954 54.864 506.439 54.784 506.919 54.624C507.399 54.464 507.831 54.192 508.215 53.808C508.61 53.4133 508.925 52.8747 509.159 52.192C509.394 51.5093 509.511 50.6453 509.511 49.6L511.799 50.576C511.799 52.048 511.511 53.3813 510.935 54.576C510.37 55.7707 509.533 56.7253 508.423 57.44C507.314 58.144 505.949 58.496 504.327 58.496ZM509.975 58V52.64H509.511V40.72H513.383V58H509.975ZM529.191 58V49.68C529.191 49.136 529.153 48.5333 529.079 47.872C529.004 47.2107 528.828 46.576 528.551 45.968C528.284 45.3493 527.879 44.8427 527.335 44.448C526.801 44.0533 526.076 43.856 525.159 43.856C524.668 43.856 524.183 43.936 523.703 44.096C523.223 44.256 522.785 44.5333 522.391 44.928C522.007 45.312 521.697 45.8453 521.463 46.528C521.228 47.2 521.111 48.064 521.111 49.12L518.823 48.144C518.823 46.672 519.105 45.3387 519.671 44.144C520.247 42.9493 521.089 42 522.199 41.296C523.308 40.5813 524.673 40.224 526.295 40.224C527.575 40.224 528.631 40.4373 529.463 40.864C530.295 41.2907 530.956 41.8347 531.447 42.496C531.937 43.1573 532.3 43.8613 532.535 44.608C532.769 45.3547 532.919 46.064 532.983 46.736C533.057 47.3973 533.095 47.936 533.095 48.352V58H529.191ZM517.207 58V40.72H520.647V46.08H521.111V58H517.207ZM536.598 58L536.63 34.96H540.534V49.04L546.854 40.72H551.67L544.966 49.36L552.246 58H547.142L540.534 49.68V58H536.598ZM559.689 58.496C558.409 58.496 557.353 58.2827 556.521 57.856C555.689 57.4293 555.027 56.8853 554.537 56.224C554.046 55.5627 553.683 54.8587 553.449 54.112C553.214 53.3653 553.059 52.6613 552.985 52C552.921 51.328 552.889 50.784 552.889 50.368V40.72H556.793V49.04C556.793 49.5733 556.83 50.176 556.905 50.848C556.979 51.5093 557.15 52.1493 557.417 52.768C557.694 53.376 558.099 53.8773 558.633 54.272C559.177 54.6667 559.907 54.864 560.825 54.864C561.315 54.864 561.801 54.784 562.281 54.624C562.761 54.464 563.193 54.192 563.577 53.808C563.971 53.4133 564.286 52.8747 564.521 52.192C564.755 51.5093 564.873 50.6453 564.873 49.6L567.161 50.576C567.161 52.048 566.873 53.3813 566.297 54.576C565.731 55.7707 564.894 56.7253 563.785 57.44C562.675 58.144 561.31 58.496 559.689 58.496ZM565.337 58V52.64H564.873V40.72H568.745V58H565.337ZM400.741 98.48C399.056 98.48 397.643 98.08 396.501 97.28C395.36 96.48 394.501 95.392 393.925 94.016C393.349 92.6293 393.061 91.0773 393.061 89.36C393.061 87.6213 393.349 86.064 393.925 84.688C394.501 83.312 395.344 82.2293 396.453 81.44C397.573 80.64 398.955 80.24 400.597 80.24C402.229 80.24 403.643 80.64 404.837 81.44C406.043 82.2293 406.976 83.312 407.637 84.688C408.299 86.0533 408.629 87.6107 408.629 89.36C408.629 91.088 408.304 92.64 407.653 94.016C407.003 95.392 406.085 96.48 404.901 97.28C403.717 98.08 402.331 98.48 400.741 98.48ZM392.405 105.68V80.72H395.813V92.848H396.293V105.68H392.405ZM400.149 95.024C401.152 95.024 401.979 94.7733 402.629 94.272C403.28 93.7707 403.76 93.0933 404.069 92.24C404.389 91.376 404.549 90.416 404.549 89.36C404.549 88.3147 404.389 87.3653 404.069 86.512C403.749 85.648 403.253 84.9653 402.581 84.464C401.909 83.952 401.056 83.696 400.021 83.696C399.04 83.696 398.24 83.936 397.621 84.416C397.003 84.8853 396.544 85.5467 396.245 86.4C395.957 87.2427 395.813 88.2293 395.813 89.36C395.813 90.48 395.957 91.4667 396.245 92.32C396.544 93.1733 397.008 93.84 397.637 94.32C398.277 94.7893 399.115 95.024 400.149 95.024ZM411.516 98V80.72H414.924V84.928L414.508 84.384C414.722 83.808 415.004 83.2853 415.356 82.816C415.719 82.336 416.151 81.9413 416.652 81.632C417.079 81.344 417.548 81.12 418.06 80.96C418.583 80.7893 419.116 80.688 419.66 80.656C420.204 80.6133 420.732 80.6347 421.244 80.72V84.32C420.732 84.1707 420.14 84.1227 419.468 84.176C418.807 84.2293 418.21 84.416 417.676 84.736C417.143 85.024 416.706 85.392 416.364 85.84C416.034 86.288 415.788 86.8 415.628 87.376C415.468 87.9413 415.388 88.5547 415.388 89.216V98H411.516ZM428.083 98.48C426.835 98.48 425.779 98.2453 424.915 97.776C424.051 97.296 423.395 96.6613 422.947 95.872C422.51 95.0827 422.291 94.2133 422.291 93.264C422.291 92.432 422.43 91.6853 422.707 91.024C422.985 90.352 423.411 89.776 423.987 89.296C424.563 88.8053 425.31 88.4053 426.227 88.096C426.921 87.872 427.731 87.6693 428.659 87.488C429.598 87.3067 430.611 87.1413 431.699 86.992C432.798 86.832 433.945 86.6613 435.139 86.48L433.763 87.264C433.774 86.0693 433.507 85.1893 432.963 84.624C432.419 84.0587 431.502 83.776 430.211 83.776C429.433 83.776 428.681 83.9573 427.955 84.32C427.23 84.6827 426.723 85.3067 426.435 86.192L422.915 85.088C423.342 83.6267 424.153 82.4533 425.347 81.568C426.553 80.6827 428.174 80.24 430.211 80.24C431.747 80.24 433.097 80.4907 434.259 80.992C435.433 81.4933 436.302 82.3147 436.867 83.456C437.177 84.064 437.363 84.688 437.427 85.328C437.491 85.9573 437.523 86.6453 437.523 87.392V98H434.147V94.256L434.707 94.864C433.929 96.112 433.017 97.0293 431.971 97.616C430.937 98.192 429.641 98.48 428.083 98.48ZM428.851 95.408C429.726 95.408 430.473 95.2533 431.091 94.944C431.71 94.6347 432.201 94.256 432.563 93.808C432.937 93.36 433.187 92.9387 433.315 92.544C433.518 92.0533 433.63 91.4933 433.651 90.864C433.683 90.224 433.699 89.7067 433.699 89.312L434.883 89.664C433.721 89.8453 432.723 90.0053 431.891 90.144C431.059 90.2827 430.345 90.416 429.747 90.544C429.15 90.6613 428.622 90.7947 428.163 90.944C427.715 91.104 427.337 91.2907 427.027 91.504C426.718 91.7173 426.478 91.9627 426.307 92.24C426.147 92.5173 426.067 92.8427 426.067 93.216C426.067 93.6427 426.174 94.0213 426.387 94.352C426.601 94.672 426.91 94.928 427.315 95.12C427.731 95.312 428.243 95.408 428.851 95.408ZM448.553 98.48C446.771 98.48 445.251 98.0853 443.993 97.296C442.734 96.496 441.769 95.408 441.097 94.032C440.435 92.656 440.099 91.0987 440.089 89.36C440.099 87.5893 440.446 86.0213 441.129 84.656C441.822 83.28 442.803 82.2027 444.073 81.424C445.342 80.6347 446.851 80.24 448.601 80.24C450.563 80.24 452.222 80.736 453.577 81.728C454.942 82.7093 455.833 84.0533 456.249 85.76L452.409 86.8C452.11 85.872 451.614 85.152 450.921 84.64C450.227 84.1173 449.438 83.856 448.553 83.856C447.55 83.856 446.723 84.096 446.073 84.576C445.422 85.0453 444.942 85.696 444.633 86.528C444.323 87.36 444.169 88.304 444.169 89.36C444.169 91.0027 444.537 92.3307 445.273 93.344C446.009 94.3573 447.102 94.864 448.553 94.864C449.577 94.864 450.382 94.6293 450.969 94.16C451.566 93.6907 452.014 93.0133 452.313 92.128L456.249 93.008C455.715 94.768 454.782 96.1227 453.449 97.072C452.115 98.0107 450.483 98.48 448.553 98.48ZM465.978 98.48C464.25 98.48 462.741 98.0907 461.45 97.312C460.16 96.5333 459.157 95.4613 458.442 94.096C457.738 92.72 457.386 91.1413 457.386 89.36C457.386 87.5467 457.749 85.9573 458.474 84.592C459.2 83.2267 460.208 82.16 461.498 81.392C462.789 80.624 464.282 80.24 465.978 80.24C467.717 80.24 469.232 80.6293 470.522 81.408C471.813 82.1867 472.816 83.264 473.53 84.64C474.245 86.0053 474.602 87.5787 474.602 89.36C474.602 91.152 474.24 92.736 473.514 94.112C472.8 95.4773 471.797 96.5493 470.506 97.328C469.216 98.096 467.706 98.48 465.978 98.48ZM465.978 94.864C467.514 94.864 468.656 94.352 469.402 93.328C470.149 92.304 470.522 90.9813 470.522 89.36C470.522 87.6853 470.144 86.352 469.386 85.36C468.629 84.3573 467.493 83.856 465.978 83.856C464.944 83.856 464.09 84.0907 463.418 84.56C462.757 85.0187 462.266 85.664 461.946 86.496C461.626 87.3173 461.466 88.272 461.466 89.36C461.466 91.0347 461.845 92.3733 462.602 93.376C463.37 94.368 464.496 94.864 465.978 94.864ZM484.415 98.48C482.826 98.48 481.439 98.08 480.255 97.28C479.071 96.48 478.154 95.392 477.503 94.016C476.853 92.64 476.527 91.088 476.527 89.36C476.527 87.6107 476.853 86.0533 477.503 84.688C478.165 83.312 479.098 82.2293 480.303 81.44C481.509 80.64 482.927 80.24 484.559 80.24C486.202 80.24 487.578 80.64 488.687 81.44C489.807 82.2293 490.655 83.312 491.231 84.688C491.807 86.064 492.095 87.6213 492.095 89.36C492.095 91.0773 491.807 92.6293 491.231 94.016C490.655 95.392 489.797 96.48 488.655 97.28C487.514 98.08 486.101 98.48 484.415 98.48ZM485.007 95.024C486.042 95.024 486.874 94.7893 487.503 94.32C488.143 93.84 488.607 93.1733 488.895 92.32C489.194 91.4667 489.343 90.48 489.343 89.36C489.343 88.2293 489.194 87.2427 488.895 86.4C488.607 85.5467 488.154 84.8853 487.535 84.416C486.917 83.936 486.117 83.696 485.135 83.696C484.101 83.696 483.247 83.952 482.575 84.464C481.903 84.9653 481.407 85.648 481.087 86.512C480.767 87.3653 480.607 88.3147 480.607 89.36C480.607 90.416 480.762 91.376 481.071 92.24C481.391 93.0933 481.877 93.7707 482.527 94.272C483.178 94.7733 484.005 95.024 485.007 95.024ZM489.343 98V85.872H488.863V74.96H492.751V98H489.343ZM501.429 98.48C500.181 98.48 499.125 98.2453 498.261 97.776C497.397 97.296 496.741 96.6613 496.293 95.872C495.856 95.0827 495.637 94.2133 495.637 93.264C495.637 92.432 495.776 91.6853 496.053 91.024C496.331 90.352 496.757 89.776 497.333 89.296C497.909 88.8053 498.656 88.4053 499.573 88.096C500.267 87.872 501.077 87.6693 502.005 87.488C502.944 87.3067 503.957 87.1413 505.045 86.992C506.144 86.832 507.291 86.6613 508.485 86.48L507.109 87.264C507.12 86.0693 506.853 85.1893 506.309 84.624C505.765 84.0587 504.848 83.776 503.557 83.776C502.779 83.776 502.027 83.9573 501.301 84.32C500.576 84.6827 500.069 85.3067 499.781 86.192L496.261 85.088C496.688 83.6267 497.499 82.4533 498.693 81.568C499.899 80.6827 501.52 80.24 503.557 80.24C505.093 80.24 506.443 80.4907 507.605 80.992C508.779 81.4933 509.648 82.3147 510.213 83.456C510.523 84.064 510.709 84.688 510.773 85.328C510.837 85.9573 510.869 86.6453 510.869 87.392V98H507.493V94.256L508.053 94.864C507.275 96.112 506.363 97.0293 505.317 97.616C504.283 98.192 502.987 98.48 501.429 98.48ZM502.197 95.408C503.072 95.408 503.819 95.2533 504.437 94.944C505.056 94.6347 505.547 94.256 505.909 93.808C506.283 93.36 506.533 92.9387 506.661 92.544C506.864 92.0533 506.976 91.4933 506.997 90.864C507.029 90.224 507.045 89.7067 507.045 89.312L508.229 89.664C507.067 89.8453 506.069 90.0053 505.237 90.144C504.405 90.2827 503.691 90.416 503.093 90.544C502.496 90.6613 501.968 90.7947 501.509 90.944C501.061 91.104 500.683 91.2907 500.373 91.504C500.064 91.7173 499.824 91.9627 499.653 92.24C499.493 92.5173 499.413 92.8427 499.413 93.216C499.413 93.6427 499.52 94.0213 499.733 94.352C499.947 94.672 500.256 94.928 500.661 95.12C501.077 95.312 501.589 95.408 502.197 95.408ZM517.45 98L512.17 80.688L515.946 80.72L519.322 91.808L522.746 80.72H525.994L529.402 91.808L532.794 80.72H536.57L531.29 98H528.282L524.362 86.112L520.458 98H517.45ZM545.696 98.48C543.915 98.48 542.395 98.0853 541.136 97.296C539.878 96.496 538.912 95.408 538.24 94.032C537.579 92.656 537.243 91.0987 537.232 89.36C537.243 87.5893 537.59 86.0213 538.272 84.656C538.966 83.28 539.947 82.2027 541.216 81.424C542.486 80.6347 543.995 80.24 545.745 80.24C547.707 80.24 549.366 80.736 550.72 81.728C552.086 82.7093 552.976 84.0533 553.392 85.76L549.552 86.8C549.254 85.872 548.758 85.152 548.064 84.64C547.371 84.1173 546.582 83.856 545.696 83.856C544.694 83.856 543.867 84.096 543.216 84.576C542.566 85.0453 542.086 85.696 541.776 86.528C541.467 87.36 541.312 88.304 541.312 89.36C541.312 91.0027 541.68 92.3307 542.416 93.344C543.152 94.3573 544.246 94.864 545.696 94.864C546.72 94.864 547.526 94.6293 548.113 94.16C548.71 93.6907 549.158 93.0133 549.457 92.128L553.392 93.008C552.859 94.768 551.926 96.1227 550.592 97.072C549.259 98.0107 547.627 98.48 545.696 98.48ZM557.606 105.68L560.934 96.544L560.998 99.232L553.462 80.72H557.478L562.822 94.416H561.798L566.998 80.72H570.854L561.222 105.68H557.606Z" fill="#4C3C90"/>
<defs>
<filter id="filter0_dddddd_207_9235" x="0" y="237" width="439.25" height="398" filterUnits="userSpaceOnUse" color-interpolation-filters="sRGB">
<feFlood flood-opacity="0" result="BackgroundImageFix"/>
<feColorMatrix in="SourceAlpha" type="matrix" values="0 0 0 0 0 0 0 0 0 0 0 0 0 0 0 0 0 0 127 0" result="hardAlpha"/>
<feOffset dy="0.703704"/>
<feGaussianBlur stdDeviation="1.27894"/>
<feColorMatrix type="matrix" values="0 0 0 0 0.298039 0 0 0 0 0.235294 0 0 0 0 0.564706 0 0 0 0.0914815 0"/>
<feBlend mode="normal" in2="BackgroundImageFix" result="effect1_dropShadow_207_9235"/>
<feColorMatrix in="SourceAlpha" type="matrix" values="0 0 0 0 0 0 0 0 0 0 0 0 0 0 0 0 0 0 127 0" result="hardAlpha"/>
<feOffset dy="3.0963"/>
<feGaussianBlur stdDeviation="2.64815"/>
<feColorMatrix type="matrix" values="0 0 0 0 0.298039 0 0 0 0 0.235294 0 0 0 0 0.564706 0 0 0 0.149185 0"/>
<feBlend mode="normal" in2="effect1_dropShadow_207_9235" result="effect2_dropShadow_207_9235"/>
<feColorMatrix in="SourceAlpha" type="matrix" values="0 0 0 0 0 0 0 0 0 0 0 0 0 0 0 0 0 0 127 0" result="hardAlpha"/>
<feOffset dy="7.6"/>
<feGaussianBlur stdDeviation="5.28125"/>
<feColorMatrix type="matrix" values="0 0 0 0 0.298039 0 0 0 0 0.235294 0 0 0 0 0.564706 0 0 0 0.19 0"/>
<feBlend mode="normal" in2="effect2_dropShadow_207_9235" result="effect3_dropShadow_207_9235"/>
<feColorMatrix in="SourceAlpha" type="matrix" values="0 0 0 0 0 0 0 0 0 0 0 0 0 0 0 0 0 0 127 0" result="hardAlpha"/>
<feOffset dy="14.637"/>
<feGaussianBlur stdDeviation="10.3519"/>
<feColorMatrix type="matrix" values="0 0 0 0 0.298039 0 0 0 0 0.235294 0 0 0 0 0.564706 0 0 0 0.230815 0"/>
<feBlend mode="normal" in2="effect3_dropShadow_207_9235" result="effect4_dropShadow_207_9235"/>
<feColorMatrix in="SourceAlpha" type="matrix" values="0 0 0 0 0 0 0 0 0 0 0 0 0 0 0 0 0 0 127 0" result="hardAlpha"/>
<feOffset dy="24.6296"/>
<feGaussianBlur stdDeviation="19.0336"/>
<feColorMatrix type="matrix" values="0 0 0 0 0.298039 0 0 0 0 0.235294 0 0 0 0 0.564706 0 0 0 0.288519 0"/>
<feBlend mode="normal" in2="effect4_dropShadow_207_9235" result="effect5_dropShadow_207_9235"/>
<feColorMatrix in="SourceAlpha" type="matrix" values="0 0 0 0 0 0 0 0 0 0 0 0 0 0 0 0 0 0 127 0" result="hardAlpha"/>
<feOffset dy="38"/>
<feGaussianBlur stdDeviation="32.5"/>
<feColorMatrix type="matrix" values="0 0 0 0 0.298039 0 0 0 0 0.235294 0 0 0 0 0.564706 0 0 0 0.38 0"/>
<feBlend mode="normal" in2="effect5_dropShadow_207_9235" result="effect6_dropShadow_207_9235"/>
<feBlend mode="normal" in="SourceGraphic" in2="effect6_dropShadow_207_9235" result="shape"/>
</filter>
</defs>
</svg>
