<svg width="24" height="24" viewBox="0 0 24 24" fill="none" xmlns="http://www.w3.org/2000/svg">
<g opacity="0.4">
<path d="M8.25 4L18 4C21 4 22 5.79 22 8L22 16C22 18.21 21 20 18 20L8.25 20C5 20 4.25 18.21 4.25 16C4.87 16 5.43 15.75 5.84 15.34C6.25 14.93 6.5 14.37 6.5 13.75L6.5 10.25C6.5 9.01 5.49 8 4.25 8C4.25 5.79 5 4 8.25 4Z" fill="#4C3C90"/>
<path d="M8.25 4L18 4C21 4 22 5.79 22 8L22 16C22 18.21 21 20 18 20L8.25 20C5 20 4.25 18.21 4.25 16C4.87 16 5.43 15.75 5.84 15.34C6.25 14.93 6.5 14.37 6.5 13.75L6.5 10.25C6.5 9.01 5.49 8 4.25 8C4.25 5.79 5 4 8.25 4Z" fill="black" fill-opacity="0.4"/>
</g>
<path d="M4.25 8C5.49 8 6.5 9.01 6.5 10.25L6.5 13.75C6.5 14.37 6.25 14.93 5.84 15.34C5.43 15.75 4.87 16 4.25 16C3.01 16 2 14.99 2 13.75L2 10.25C2 9.63 2.25 9.06997 2.66 8.65997C3.07 8.24997 3.63 8 4.25 8Z" fill="#4C3C90"/>
<path d="M4.25 8C5.49 8 6.5 9.01 6.5 10.25L6.5 13.75C6.5 14.37 6.25 14.93 5.84 15.34C5.43 15.75 4.87 16 4.25 16C3.01 16 2 14.99 2 13.75L2 10.25C2 9.63 2.25 9.06997 2.66 8.65997C3.07 8.24997 3.63 8 4.25 8Z" fill="black" fill-opacity="0.4"/>
<path d="M13.75 12L13.75 16C13.75 16.41 13.41 16.75 13 16.75C12.59 16.75 12.25 16.41 12.25 16L12.25 12C12.25 11.59 12.59 11.25 13 11.25C13.41 11.25 13.75 11.59 13.75 12Z" fill="#4C3C90"/>
<path d="M13.75 12L13.75 16C13.75 16.41 13.41 16.75 13 16.75C12.59 16.75 12.25 16.41 12.25 16L12.25 12C12.25 11.59 12.59 11.25 13 11.25C13.41 11.25 13.75 11.59 13.75 12Z" fill="black" fill-opacity="0.4"/>
<path d="M17.75 8L17.75 16C17.75 16.41 17.41 16.75 17 16.75C16.59 16.75 16.25 16.41 16.25 16L16.25 8C16.25 7.59 16.59 7.25 17 7.25C17.41 7.25 17.75 7.59 17.75 8Z" fill="#4C3C90"/>
<path d="M17.75 8L17.75 16C17.75 16.41 17.41 16.75 17 16.75C16.59 16.75 16.25 16.41 16.25 16L16.25 8C16.25 7.59 16.59 7.25 17 7.25C17.41 7.25 17.75 7.59 17.75 8Z" fill="black" fill-opacity="0.4"/>
</svg>
