<svg width="48" height="48" viewBox="0 0 48 48" fill="none" xmlns="http://www.w3.org/2000/svg">
<path d="M-0.0454102 23.961V-0.136719H24.0524H48.1501V23.961V48.0588H24.0524H-0.0454102V23.961ZM29.7919 42.3432C27.4054 40.8509 25.7365 38.3794 25.2675 35.6434C25.0738 34.5133 25.0554 34.566 25.6212 34.6289C28.0644 34.9003 30.4653 35.9259 31.8705 37.2983C32.8706 38.275 33.0953 38.9183 33.1522 40.9675L33.1934 42.4527H37.6177H42.042V40.8684C42.042 39.2063 41.9567 38.551 41.625 37.6645C40.9925 35.9738 39.5158 34.8022 37.2288 34.1766C35.9207 33.8188 33.8395 33.5858 31.9385 33.5843C31.2558 33.5837 30.8299 33.5513 30.8299 33.4997C30.8299 33.4537 30.9522 33.4159 31.1018 33.4157C31.7423 33.4149 33.8107 33.2329 34.957 33.0764C38.8408 32.5463 41.1118 31.5437 41.8201 30.0465C42.0017 29.6627 42.0418 29.4587 42.041 28.9238C42.0375 26.6149 40.5681 25.2681 37.4867 24.7494C36.2052 24.5336 32.6018 24.4668 25.2081 24.5217L18.1221 24.5742L18.4725 24.7977C20.4607 26.0658 22.0566 28.243 22.6281 30.4666C22.8157 31.1967 22.9899 32.3309 22.9245 32.3964C22.8546 32.4662 21.1759 32.1687 20.6044 31.9851C18.6255 31.3495 16.58 29.8215 15.4914 28.1656L15.1412 27.6329L15.1192 30.5663C15.1071 32.1797 15.1071 34.8217 15.1192 36.4374L15.1412 39.375L15.5571 38.7593C16.3517 37.5828 17.9096 36.2336 19.2412 35.5686C19.9268 35.2262 21.1761 34.8424 22.0618 34.7021C22.5184 34.6298 22.913 34.5916 22.9386 34.6173C23.0141 34.6928 22.733 36.2038 22.5366 36.778C21.8995 38.6407 20.5872 40.1039 18.8374 40.9027C18.0172 41.2771 17.4508 41.4014 16.5636 41.4017C15.341 41.4021 14.5142 40.9914 14.0715 40.1637L13.8861 39.817L13.8635 32.1401L13.8409 24.4631H9.95179H6.06271V30.6497C6.06271 37.2722 6.06268 37.2717 6.49206 38.4364C6.99258 39.7941 8.10432 40.9113 9.57958 41.5391C10.5479 41.9512 11.6147 42.1974 13.3004 42.3978C13.4385 42.4142 17.2414 42.4311 21.7514 42.4353C28.1263 42.4412 29.9158 42.4207 29.7919 42.3432ZM25.1865 31.9309C25.3344 30.7126 25.9579 29.186 26.7364 28.1359C27.2772 27.4065 28.336 26.4025 28.9126 26.0727C30.1014 25.3925 31.4545 25.3938 32.3468 26.0759C33.4369 26.9092 33.3045 28.2812 32.009 29.5767C30.6558 30.9299 28.4961 31.9585 26.3115 32.2903C25.0599 32.4804 25.1175 32.4988 25.1865 31.9309V31.9309Z" fill="black"/>
<path d="M-0.0454102 23.961V-0.136719H24.0524H48.1501V23.961V48.0588H24.0524H-0.0454102V23.961ZM29.7919 42.3432C27.4054 40.8509 25.7365 38.3794 25.2675 35.6434C25.0738 34.5133 25.0554 34.566 25.6212 34.6289C28.0644 34.9003 30.4653 35.9259 31.8705 37.2983C32.8706 38.275 33.0953 38.9183 33.1522 40.9675L33.1934 42.4527H37.6177H42.042V40.8684C42.042 39.2063 41.9567 38.551 41.625 37.6645C40.9925 35.9738 39.5158 34.8022 37.2288 34.1766C35.9207 33.8188 33.8395 33.5858 31.9385 33.5843C31.2558 33.5837 30.8299 33.5513 30.8299 33.4997C30.8299 33.4537 30.9522 33.4159 31.1018 33.4157C31.7423 33.4149 33.8107 33.2329 34.957 33.0764C38.8408 32.5463 41.1118 31.5437 41.8201 30.0465C42.0017 29.6627 42.0418 29.4587 42.041 28.9238C42.0375 26.6149 40.5681 25.2681 37.4867 24.7494C36.2052 24.5336 32.6018 24.4668 25.2081 24.5217L18.1221 24.5742L18.4725 24.7977C20.4607 26.0658 22.0566 28.243 22.6281 30.4666C22.8157 31.1967 22.9899 32.3309 22.9245 32.3964C22.8546 32.4662 21.1759 32.1687 20.6044 31.9851C18.6255 31.3495 16.58 29.8215 15.4914 28.1656L15.1412 27.6329L15.1192 30.5663C15.1071 32.1797 15.1071 34.8217 15.1192 36.4374L15.1412 39.375L15.5571 38.7593C16.3517 37.5828 17.9096 36.2336 19.2412 35.5686C19.9268 35.2262 21.1761 34.8424 22.0618 34.7021C22.5184 34.6298 22.913 34.5916 22.9386 34.6173C23.0141 34.6928 22.733 36.2038 22.5366 36.778C21.8995 38.6407 20.5872 40.1039 18.8374 40.9027C18.0172 41.2771 17.4508 41.4014 16.5636 41.4017C15.341 41.4021 14.5142 40.9914 14.0715 40.1637L13.8861 39.817L13.8635 32.1401L13.8409 24.4631H9.95179H6.06271V30.6497C6.06271 37.2722 6.06268 37.2717 6.49206 38.4364C6.99258 39.7941 8.10432 40.9113 9.57958 41.5391C10.5479 41.9512 11.6147 42.1974 13.3004 42.3978C13.4385 42.4142 17.2414 42.4311 21.7514 42.4353C28.1263 42.4412 29.9158 42.4207 29.7919 42.3432ZM25.1865 31.9309C25.3344 30.7126 25.9579 29.186 26.7364 28.1359C27.2772 27.4065 28.336 26.4025 28.9126 26.0727C30.1014 25.3925 31.4545 25.3938 32.3468 26.0759C33.4369 26.9092 33.3045 28.2812 32.009 29.5767C30.6558 30.9299 28.4961 31.9585 26.3115 32.2903C25.0599 32.4804 25.1175 32.4988 25.1865 31.9309V31.9309Z" fill="#4C3C90"/>
</svg>
