<svg width="32" height="32" viewBox="0 0 32 32" fill="none" xmlns="http://www.w3.org/2000/svg">
<path d="M11.9998 29.3333H19.9998C26.6665 29.3333 29.3332 26.6666 29.3332 20V12C29.3332 5.33329 26.6665 2.66663 19.9998 2.66663H11.9998C5.33317 2.66663 2.6665 5.33329 2.6665 12V20C2.6665 26.6666 5.33317 29.3333 11.9998 29.3333Z" fill="#4C3C90"/>
<path d="M11.9998 29.3333H19.9998C26.6665 29.3333 29.3332 26.6666 29.3332 20V12C29.3332 5.33329 26.6665 2.66663 19.9998 2.66663H11.9998C5.33317 2.66663 2.6665 5.33329 2.6665 12V20C2.6665 26.6666 5.33317 29.3333 11.9998 29.3333Z" fill="black" fill-opacity="0.4"/>
<path d="M11.9998 29.3333H19.9998C26.6665 29.3333 29.3332 26.6666 29.3332 20V12C29.3332 5.33329 26.6665 2.66663 19.9998 2.66663H11.9998C5.33317 2.66663 2.6665 5.33329 2.6665 12V20C2.6665 26.6666 5.33317 29.3333 11.9998 29.3333Z" stroke="#4C3C90" stroke-width="1.5" stroke-linecap="round" stroke-linejoin="round"/>
<path d="M11.9998 29.3333H19.9998C26.6665 29.3333 29.3332 26.6666 29.3332 20V12C29.3332 5.33329 26.6665 2.66663 19.9998 2.66663H11.9998C5.33317 2.66663 2.6665 5.33329 2.6665 12V20C2.6665 26.6666 5.33317 29.3333 11.9998 29.3333Z" stroke="black" stroke-opacity="0.4" stroke-width="1.5" stroke-linecap="round" stroke-linejoin="round"/>
<path d="M16 21.3333V10.6666" stroke="white" stroke-width="2" stroke-linecap="round" stroke-linejoin="round"/>
<path d="M10.6665 16H21.3332" stroke="white" stroke-width="2" stroke-linecap="round" stroke-linejoin="round"/>
</svg>
