<svg width="24" height="25" viewBox="0 0 24 25" fill="none" xmlns="http://www.w3.org/2000/svg">
<path opacity="0.4" d="M20.5 7.5L20.5 17.5C20.5 20.5 19 22.5 15.5 22.5L8.5 22.5C5 22.5 3.5 20.5 3.5 17.5L3.5 7.5C3.5 4.5 5 2.5 8.5 2.5L15.5 2.5C19 2.5 20.5 4.5 20.5 7.5Z" fill="#EDEBF4"/>
<path d="M12.87 12.5C12.87 13.34 12.61 14.19 12.08 14.84L9.57997 17.97C9.31997 18.29 8.84997 18.35 8.52997 18.09C8.20997 17.83 8.14997 17.36 8.40997 17.04L10.91 13.91C11.52 13.15 11.52 11.86 10.91 11.1L8.40997 7.96998C8.14997 7.64998 8.19997 7.16998 8.52997 6.91998C8.84997 6.65998 9.32997 6.70998 9.57997 7.03998L12.08 10.17C12.61 10.81 12.87 11.66 12.87 12.5Z" fill="#EDEBF4"/>
</svg>
