<svg width="32" height="32" viewBox="0 0 32 32" fill="none" xmlns="http://www.w3.org/2000/svg">
<rect width="32" height="32" rx="16" fill="#DBD8E9"/>
<path d="M22.6667 20.6667V22.6667H9.33337V20.6667C9.33337 20.3 9.63337 20 10 20H22C22.3667 20 22.6667 20.3 22.6667 20.6667Z" fill="#4C3C90" stroke="#4C3C90" stroke-width="1.5" stroke-miterlimit="10" stroke-linecap="round" stroke-linejoin="round"/>
<path opacity="0.6" d="M13.3333 15.3334H10.6666V20H13.3333V15.3334Z" fill="#4C3C90"/>
<path opacity="0.4" d="M16 15.3334H13.3334V20H16V15.3334Z" fill="#4C3C90"/>
<path opacity="0.6" d="M18.6667 15.3334H16V20H18.6667V15.3334Z" fill="#4C3C90"/>
<path opacity="0.4" d="M21.3333 15.3334H18.6666V20H21.3333V15.3334Z" fill="#4C3C90"/>
<path d="M23.3333 23.1666H8.66663C8.39329 23.1666 8.16663 22.94 8.16663 22.6666C8.16663 22.3933 8.39329 22.1666 8.66663 22.1666H23.3333C23.6066 22.1666 23.8333 22.3933 23.8333 22.6666C23.8333 22.94 23.6066 23.1666 23.3333 23.1666Z" fill="#4C3C90"/>
<path d="M22.2467 11.8334L16.2467 9.43343C16.1134 9.3801 15.8867 9.3801 15.7534 9.43343L9.75338 11.8334C9.52004 11.9267 9.33337 12.2001 9.33337 12.4534V14.6667C9.33337 15.0334 9.63337 15.3334 10 15.3334H22C22.3667 15.3334 22.6667 15.0334 22.6667 14.6667V12.4534C22.6667 12.2001 22.48 11.9267 22.2467 11.8334ZM16 13.6667C15.4467 13.6667 15 13.2201 15 12.6667C15 12.1134 15.4467 11.6667 16 11.6667C16.5534 11.6667 17 12.1134 17 12.6667C17 13.2201 16.5534 13.6667 16 13.6667Z" fill="#4C3C90"/>
</svg>
