<svg width="598" height="499" viewBox="0 0 598 499" fill="none" xmlns="http://www.w3.org/2000/svg">
<mask id="path-1-inside-1_140_21848" fill="white">
<path fill-rule="evenodd" clip-rule="evenodd" d="M0 529V232C128.13 232 232 128.13 232 0H678V309.735C654.19 301.483 628.618 297 602 297C473.87 297 370 400.87 370 529H0Z"/>
</mask>
<path fill-rule="evenodd" clip-rule="evenodd" d="M0 529V232C128.13 232 232 128.13 232 0H678V309.735C654.19 301.483 628.618 297 602 297C473.87 297 370 400.87 370 529H0Z" fill="#EDEBF4"/>
<path d="M0 232V228H-4V232H0ZM0 529H-4V533H0V529ZM232 0V-4H228V0H232ZM678 0H682V-4H678V0ZM678 309.735L676.69 313.514L682 315.354V309.735H678ZM370 529V533H374V529H370ZM-4 232V529H4V232H-4ZM228 0C228 125.921 125.921 228 0 228V236C130.339 236 236 130.339 236 0H228ZM678 -4H232V4H678V-4ZM682 309.735V0H674V309.735H682ZM602 301C628.166 301 653.295 305.406 676.69 313.514L679.31 305.955C655.084 297.559 629.07 293 602 293V301ZM374 529C374 403.079 476.079 301 602 301V293C471.661 293 366 398.661 366 529H374ZM0 533H370V525H0V533Z" fill="#4C3C90" mask="url(#path-1-inside-1_140_21848)"/>
</svg>
