<svg width="32" height="32" viewBox="0 0 32 32" fill="none" xmlns="http://www.w3.org/2000/svg">
<rect width="32" height="32" rx="16" fill="#DBD8E9"/>
<path opacity="0.4" d="M20.2534 16.5602V19.8468C20.2534 20.6935 19.5934 21.6002 18.8 21.8668L16.6734 22.5735C16.3 22.7002 15.6934 22.7002 15.3267 22.5735L13.2 21.8668C12.4 21.6002 11.7467 20.6935 11.7467 19.8468L11.7534 16.5602L14.7 18.4802C15.42 18.9535 16.6067 18.9535 17.3267 18.4802L20.2534 16.5602Z" fill="#4C3C90"/>
<path d="M21.32 12.3067L17.3267 9.68666C16.6067 9.21333 15.42 9.21333 14.7 9.68666L10.6867 12.3067C9.40001 13.14 9.40001 15.0267 10.6867 15.8667L11.7533 16.56L14.7 18.48C15.42 18.9533 16.6067 18.9533 17.3267 18.48L20.2533 16.56L21.1667 15.96V18C21.1667 18.2733 21.3933 18.5 21.6667 18.5C21.94 18.5 22.1667 18.2733 22.1667 18V14.72C22.4333 13.86 22.16 12.86 21.32 12.3067Z" fill="#4C3C90"/>
</svg>
