<svg width="32" height="32" viewBox="0 0 32 32" fill="none" xmlns="http://www.w3.org/2000/svg">
<rect width="32" height="32" rx="16" fill="#DBD8E9"/>
<path opacity="0.4" d="M18.7934 9.33337H13.2067C10.78 9.33337 9.33337 10.78 9.33337 13.2067V18.7867C9.33337 21.22 10.78 22.6667 13.2067 22.6667H18.7867C21.2134 22.6667 22.66 21.22 22.66 18.7934V13.2067C22.6667 10.78 21.22 9.33337 18.7934 9.33337Z" fill="#4C3C90"/>
<path d="M12.5867 20.6001C12.3133 20.6001 12.0867 20.3734 12.0867 20.1001V18.7201C12.0867 18.4468 12.3133 18.2201 12.5867 18.2201C12.86 18.2201 13.0867 18.4468 13.0867 18.7201V20.1001C13.0867 20.3801 12.86 20.6001 12.5867 20.6001Z" fill="#4C3C90"/>
<path d="M16 20.6C15.7267 20.6 15.5 20.3734 15.5 20.1V17.3334C15.5 17.06 15.7267 16.8334 16 16.8334C16.2733 16.8334 16.5 17.06 16.5 17.3334V20.1C16.5 20.38 16.2733 20.6 16 20.6Z" fill="#4C3C90"/>
<path d="M19.4133 20.6C19.14 20.6 18.9133 20.3734 18.9133 20.1V15.9534C18.9133 15.68 19.14 15.4534 19.4133 15.4534C19.6867 15.4534 19.9133 15.68 19.9133 15.9534V20.1C19.9133 20.38 19.6933 20.6 19.4133 20.6Z" fill="#4C3C90"/>
<path d="M19.9134 11.88C19.9134 11.8467 19.9 11.8067 19.8934 11.7734C19.8867 11.7467 19.88 11.7134 19.8734 11.6867C19.86 11.66 19.84 11.64 19.8267 11.6134C19.8067 11.5867 19.7867 11.5534 19.76 11.5334C19.7534 11.5267 19.7534 11.52 19.7467 11.52C19.7267 11.5067 19.7067 11.5 19.6867 11.4867C19.66 11.4667 19.6267 11.4467 19.5934 11.4334C19.56 11.42 19.5267 11.42 19.4934 11.4134C19.4667 11.4067 19.4467 11.4 19.42 11.4H17.4667C17.1934 11.4 16.9667 11.6267 16.9667 11.9C16.9667 12.1734 17.1934 12.4 17.4667 12.4H18.3C16.7134 14.0667 14.7134 15.24 12.4667 15.8067C12.2 15.8734 12.0334 16.1467 12.1 16.4134C12.1534 16.64 12.36 16.7934 12.5867 16.7934C12.6267 16.7934 12.6667 16.7867 12.7067 16.78C15.0867 16.1867 17.2134 14.9534 18.9134 13.2067V13.8534C18.9134 14.1267 19.14 14.3534 19.4134 14.3534C19.6867 14.3534 19.9134 14.1267 19.9134 13.8534V11.9C19.9134 11.8934 19.9134 11.8867 19.9134 11.88Z" fill="#4C3C90"/>
</svg>
