<svg width="64" height="53" viewBox="0 0 64 53" fill="none" xmlns="http://www.w3.org/2000/svg">
<path d="M20.1338 53.0001C44.2788 53.0001 57.4888 32.9913 57.4888 15.6451C57.4888 15.0826 57.4762 14.5076 57.4512 13.9451C60.021 12.0867 62.2387 9.7848 64 7.14758C61.6067 8.21239 59.0657 8.90781 56.4638 9.21008C59.2034 7.56788 61.2548 4.98805 62.2375 1.94883C59.6601 3.47628 56.8415 4.55375 53.9025 5.13508C51.9222 3.03095 49.304 1.63777 46.4525 1.17092C43.601 0.704084 40.6752 1.18959 38.1273 2.55238C35.5794 3.91517 33.5515 6.07934 32.3569 8.71029C31.1624 11.3412 30.8678 14.2924 31.5187 17.1076C26.3 16.8457 21.1945 15.49 16.5333 13.1284C11.8721 10.7668 7.75918 7.45195 4.46125 3.39883C2.78507 6.28877 2.27215 9.70851 3.02675 12.963C3.78135 16.2176 5.74683 19.0626 8.52375 20.9201C6.43901 20.8539 4.39994 20.2926 2.575 19.2826V19.4451C2.57313 22.4779 3.62159 25.4177 5.54216 27.7648C7.46272 30.112 10.1369 31.7216 13.11 32.3201C11.1788 32.8485 9.15195 32.9254 7.18625 32.5451C8.02521 35.1533 9.65753 37.4345 11.8554 39.0703C14.0532 40.7062 16.707 41.615 19.4463 41.6701C14.7958 45.3231 9.05113 47.3045 3.1375 47.2951C2.08877 47.2935 1.04106 47.2292 0 47.1026C6.00762 50.9568 12.9961 53.0038 20.1338 53.0001Z" fill="#00acee "/>
</svg>
