<svg width="140" height="96" viewBox="0 0 140 96" fill="none" xmlns="http://www.w3.org/2000/svg">
<g clip-path="url(#clip0_175_6471)">
<path d="M90.0762 42.6546C89.8564 42.4848 89.6566 41.6856 89.4119 42.5897C89.0538 44.348 88.4092 46.0356 87.5037 47.5848C87.279 48.0143 87.0442 48.4339 86.7994 48.8485C86.3499 49.6078 85.8704 50.3421 85.3908 51.0763C85.3758 51.1013 85.3559 51.1263 85.3409 51.1513L85.3259 51.1662C85.3211 51.1773 85.3143 51.1875 85.3059 51.1962C84.9983 51.4811 84.6637 51.7354 84.3069 51.9555C84.5696 51.4888 84.7361 50.9741 84.7964 50.442C84.8264 50.1572 84.8364 49.7976 84.7115 49.7976C84.6715 49.7976 84.6216 49.8276 84.5567 49.9125C84.0991 50.5801 83.5825 51.2054 83.0132 51.7806C82.8483 51.9505 82.6785 52.1153 82.5087 52.2801C82.4787 52.3051 82.4437 52.3301 82.4137 52.3601C82.066 53.066 81.7867 53.8037 81.5796 54.5629C81.205 54.0834 80.8053 53.9635 80.0511 54.9825C79.5479 55.7204 79.1557 56.5282 78.8872 57.3801C78.8959 57.004 78.7947 56.6336 78.5959 56.3142C78.3972 55.9948 78.1096 55.7403 77.7683 55.5819C77.4986 55.7267 77.2289 55.8666 76.9541 56.0015C76.0066 56.7177 75.0193 57.3798 73.9971 57.9845C73.8777 58.1334 73.774 58.2941 73.6874 58.4641C73.5975 58.3991 73.5175 58.3492 73.4376 58.2992C72.0573 59.0956 70.55 59.6481 68.982 59.9326C64.4065 58.6089 60.2207 56.2562 57.4334 53.464C57.3955 53.8189 57.2939 54.164 57.1337 54.483C56.9836 53.7959 56.7765 53.1225 56.5143 52.47C56.1491 52.0432 55.8105 51.5945 55.5003 51.1263C54.9658 50.3121 54.4014 50.7816 54.1366 51.8855C54.0734 52.5638 53.8149 53.2093 53.3924 53.7437C53.2535 53.3395 53.163 52.9204 53.1226 52.4949C53.2575 47.5498 52.3284 47.2601 50.675 43.1042C50.8449 42.305 51.0347 39.6176 51.5192 36.9902C52.0787 33.9232 52.9228 30.8962 52.813 30.4716C52.2185 28.094 52.2935 26.8852 52.3384 24.6374C52.3734 22.8042 53.6421 22.6244 53.4173 18.4835C53.3174 16.7152 54.4613 16.1458 54.2365 13.5433C54.2365 6.82996 60.6202 -0.24807 70.6903 0.0066786C78.0631 0.231457 82.3888 4.08266 84.177 11.4104C84.7515 13.7631 85.9003 15.5064 86.6046 17.8091C85.8973 17.4593 85.2619 16.9798 84.7315 16.3955C84.8214 17.0249 85.9653 17.7792 86.4348 20.6114C85.8404 20.4765 85.7755 20.1718 85.4008 20.0619C86.2949 21.4206 86.6796 21.2957 86.9893 22.04C87.3887 23.2322 87.6174 24.475 87.6686 25.7313C87.7885 28.2938 87.3239 27.6994 88.1781 30.077C89.2216 32.8559 89.7727 35.7953 89.8065 38.7635C89.8165 38.8384 89.8315 38.9183 89.8415 38.9982C89.9713 39.8874 90.0862 40.7715 90.1761 41.6756C90.1747 42.0044 90.1412 42.3323 90.0762 42.6546Z" fill="#414042"/>
<path d="M69.8459 30.9858C69.8417 30.9543 69.8409 30.9224 69.8436 30.8906C69.8433 30.889 69.8434 30.8874 69.8438 30.8858C69.8442 30.8842 69.8449 30.8827 69.8459 30.8813C69.847 30.8843 69.8474 30.8875 69.8471 30.8906C69.8508 30.9223 69.8504 30.9543 69.8459 30.9858Z" fill="white"/>
<path d="M74.2455 24.7778C74.2348 24.7855 74.2255 24.7947 74.2149 24.8024C73.9675 25.002 73.6925 25.1645 73.3983 25.2849C73.6685 25.0963 73.9516 24.9269 74.2455 24.7778Z" fill="white"/>
<path d="M69.8471 30.8906C69.8474 30.8875 69.847 30.8843 69.8459 30.8813C69.8449 30.8827 69.8442 30.8842 69.8438 30.8858C69.8434 30.8874 69.8433 30.889 69.8436 30.8906C69.8409 30.9224 69.8417 30.9543 69.8459 30.9858C69.8504 30.9543 69.8508 30.9223 69.8471 30.8906Z" fill="white"/>
<path d="M69.8459 30.9858C69.8417 30.9543 69.8409 30.9224 69.8436 30.8906C69.8433 30.889 69.8434 30.8874 69.8438 30.8858C69.8442 30.8842 69.8449 30.8827 69.8459 30.8813C69.847 30.8843 69.8474 30.8875 69.8471 30.8906C69.8508 30.9223 69.8504 30.9543 69.8459 30.9858Z" fill="white"/>
<path d="M62.05 32.7358C62.0407 32.7521 62.0314 32.7672 62.0233 32.7834V32.7846L62.0164 32.7881C62.0268 32.7707 62.0384 32.7532 62.05 32.7358Z" fill="white"/>
<path d="M62.3611 32.2852C62.252 32.4315 62.1475 32.5824 62.0499 32.7357C62.1395 32.5762 62.2437 32.4254 62.3611 32.2852Z" fill="white"/>
<path d="M82.3591 22.6373C81.7876 20.6487 79.198 20.148 77.158 20.6728C74.7459 21.2932 75.6448 21.6018 71.5268 23.0923C70.5132 23.4591 71.2602 24.5737 71.6753 24.9598C72.0155 25.2738 72.8742 25.5471 74.0905 25.0554C74.8514 24.6832 75.6483 24.3895 76.4687 24.1787C77.5697 23.9392 78.6516 23.6191 79.7055 23.2209C79.5631 23.2424 75.5439 23.6617 76.3366 23.005C78.4753 21.2334 82.3591 22.6373 82.3591 22.6373Z" fill="white"/>
<path d="M68.5578 24.9602C68.973 24.5741 69.7824 23.1569 68.7064 23.0927C65.8182 22.9204 65.8367 22.5502 62.743 21.5722C60.7347 20.9372 57.5166 20.6491 56.9452 22.6377C56.9452 22.6377 60.8291 21.2337 62.9675 23.0053C63.7602 23.662 59.7411 23.2428 59.5986 23.2213C60.6526 23.6195 61.7344 23.9396 62.8354 24.1791C63.886 24.4736 64.9137 24.8443 65.9104 25.288C66.3419 25.4696 66.8133 25.5349 67.2778 25.4773C67.7424 25.4198 68.1837 25.2415 68.5578 24.9602Z" fill="white"/>
<path d="M75.7051 26.2139C75.588 26.296 75.4553 26.3533 75.3152 26.3821C75.1752 26.411 75.0307 26.4109 74.8906 26.3818C74.7506 26.3528 74.618 26.2954 74.501 26.2131C74.384 26.1309 74.285 26.0256 74.2102 25.9037L73.6864 26.2151C73.8588 26.4533 74.0922 26.6406 74.3621 26.7574C74.6319 26.8741 74.9283 26.916 75.2199 26.8786C76.3157 26.8066 76.5762 26.2319 76.6929 25.8815C76.7654 25.6094 76.7925 25.3273 76.7733 25.0464C76.5056 25.113 76.4414 25.1271 76.4414 25.1271C76.4842 25.33 76.4762 25.5403 76.4182 25.7393C76.3602 25.9383 76.254 26.12 76.109 26.2682C76.2947 25.9356 76.3542 25.5472 76.2767 25.1743L75.9396 25.2709C75.9396 25.2709 76.1452 25.9804 75.7051 26.2139Z" fill="white"/>
<path d="M78.1098 27.0473C78.2826 26.9847 78.4402 26.8864 78.5726 26.7589C78.7049 26.6313 78.8089 26.4774 78.8779 26.3071C79.0449 25.8766 78.5387 25.362 78.5387 25.362C78.597 25.4657 78.6473 25.5736 78.6892 25.6849C78.7733 25.9688 78.8172 25.9809 78.6255 26.3234C78.4234 26.6847 78.4371 26.2593 78.488 26.0939C78.666 25.5167 77.9698 24.8757 77.9254 24.8252C77.9468 24.8835 78.2321 25.8873 77.887 26.309C77.4978 26.7847 77.5331 26.7685 76.1544 27.1753C77.0568 27.2397 77.533 27.2719 77.9331 26.9946H77.9361C78.0281 26.931 78.1115 26.8558 78.1843 26.7709L78.192 26.7616C78.3738 26.4845 78.5221 26.5487 78.4295 26.6817C78.3472 26.8229 78.2387 26.947 78.1098 27.0473Z" fill="white"/>
<path d="M81.8335 25.9525C81.4782 25.6425 80.9847 25.278 80.5248 25.7818C80.0649 26.2857 80.346 27.0173 79.7283 27.7023C78.7599 28.7777 76.4815 28.4292 75.7409 28.2668C75.0547 28.1158 74.117 27.398 72.1313 27.2194C70.6361 27.3556 69.1317 27.3556 67.6366 27.2194C65.5923 27.3414 64.6381 28.1343 63.9425 28.2865C63.2017 28.449 60.9236 28.7986 59.9552 27.722C59.3363 27.0382 59.6173 26.3055 59.1586 25.8016C58.6988 25.2977 58.2053 25.6622 57.8489 25.9734C57.4924 26.2834 58.2053 28.3155 58.974 28.9876C59.2686 29.3198 59.6641 29.5462 60.0997 29.632C60.5354 29.7178 60.9871 29.6583 61.3857 29.4626C62.6165 28.9285 62.4446 29.4277 62.4446 29.4277C61.9465 30.3647 61.813 30.6597 61.3625 30.9395C62.282 30.5993 63.9994 30.1349 64.9504 28.9969C65.8781 27.888 67.5409 27.5943 67.9566 27.5362H67.9577C69.1805 27.4605 70.4065 27.45 71.6304 27.5049C71.8557 27.5316 73.7321 27.78 74.733 28.9772C75.6839 30.1151 77.4013 30.5796 78.3209 30.9197C77.8704 30.6388 77.7369 30.3453 77.2375 29.408C77.2375 29.408 77.0669 28.9085 78.2977 29.443C78.6962 29.6386 79.148 29.698 79.5836 29.6122C80.0192 29.5265 80.4147 29.3002 80.7094 28.9681C81.4782 28.2958 82.19 26.2636 81.8335 25.9525Z" fill="white"/>
<path d="M65.8353 26.2152L65.3115 25.9038C65.2367 26.0257 65.1378 26.131 65.0208 26.2132C64.9037 26.2955 64.7711 26.3529 64.6311 26.3819C64.4911 26.411 64.3466 26.4111 64.2065 26.3822C64.0664 26.3534 63.9337 26.2961 63.8166 26.214C63.3766 25.9805 63.5819 25.2709 63.5819 25.2709L63.2447 25.1743C63.1672 25.5472 63.2268 25.9356 63.4125 26.2682C63.2675 26.12 63.1613 25.9384 63.1033 25.7393C63.0453 25.5403 63.0373 25.33 63.08 25.1271C63.08 25.1271 63.0159 25.113 62.7482 25.0464C62.7289 25.3273 62.7561 25.6094 62.8285 25.8815C62.9453 26.2319 63.2058 26.8066 64.3016 26.8786C64.5932 26.9161 64.8896 26.8742 65.1595 26.7575C65.4294 26.6408 65.6629 26.4534 65.8353 26.2152Z" fill="white"/>
<path d="M61.3299 26.7616L61.3375 26.7709C61.4103 26.8558 61.4937 26.931 61.5856 26.9945H61.5888C61.9886 27.2719 62.465 27.2397 63.3674 27.1753C61.9888 26.7686 62.024 26.7847 61.6347 26.309C61.2897 25.8872 61.5748 24.8835 61.5964 24.8252C61.552 24.8758 60.8558 25.5168 61.0337 26.0939C61.0847 26.2593 61.0984 26.6847 60.8963 26.3234C60.7046 25.9808 60.7485 25.9688 60.8326 25.6849C60.8745 25.5736 60.9248 25.4657 60.983 25.362C60.983 25.362 60.4769 25.8765 60.6439 26.3071C60.7129 26.4774 60.817 26.6313 60.9493 26.7588C61.0817 26.8864 61.2393 26.9846 61.4121 27.0472C61.2832 26.9468 61.1746 26.8227 61.0924 26.6814C60.9997 26.5487 61.148 26.4845 61.3299 26.7616Z" fill="white"/>
<path d="M69.4645 26.9581C68.8411 26.8584 68.2116 26.8008 67.5804 26.7858C67.0942 26.781 66.6147 26.8995 66.1868 27.1304C67.2735 26.9915 68.3692 26.9339 69.4645 26.9581Z" fill="white"/>
<path d="M68.364 26.425C68.1011 26.4989 67.2771 26.6507 67.2771 26.6507C68.0089 26.5933 68.7452 26.6387 69.4645 26.7856C69.3484 26.6104 69.1766 26.4795 68.9769 26.4141C68.7772 26.3487 68.5613 26.3525 68.364 26.425Z" fill="white"/>
<path d="M71.4871 26.4064C71.2981 26.3413 71.0922 26.3446 70.9054 26.4158C70.7187 26.487 70.5628 26.6216 70.4651 26.796C71.1358 26.6302 71.8275 26.5652 72.5174 26.6033C72.5174 26.6033 71.7372 26.4732 71.4871 26.4064Z" fill="white"/>
<path d="M73.5482 27.1304C73.1497 26.901 72.6973 26.782 72.2375 26.7857C71.6434 26.8008 71.0512 26.8584 70.4653 26.9581C71.4959 26.9338 72.5267 26.9915 73.5482 27.1304Z" fill="white"/>
<path d="M77.1129 33.7421C77.692 33.8033 78.0288 33.8323 78.2807 33.8673C78.2481 33.6953 78.2125 33.5388 78.1749 33.4002C77.8741 33.1867 77.5475 33.0123 77.2028 32.8811C77.5782 32.9574 77.8513 33.0077 78.066 33.052C77.9869 32.7886 77.8562 32.5436 77.6814 32.3313C77.4593 32.1939 77.2242 32.0789 76.9795 31.9878C77.182 32.0291 77.3541 32.0625 77.504 32.0917C76.937 31.3877 76.2914 30.7509 75.5797 30.1936C75.8238 30.6595 76.1157 31.0988 76.4506 31.5045C77.1077 32.3054 76.0906 31.7537 76.0117 31.7109L76.007 31.7079C75.9036 31.6296 75.7864 31.5441 75.6586 31.4513C75.6784 33.5704 72.1543 33.753 72.1543 33.753C72.8559 33.4992 73.4898 33.0877 74.0075 32.5504C74.8528 31.6495 75.2302 31.1092 74.5416 29.767C73.8519 28.4228 71.532 27.9638 70.9839 28.3894C70.6043 28.6856 71.1 29.376 70.509 29.8369C70.3365 29.9801 70.1399 30.0914 69.9284 30.1654C69.8936 30.1817 69.8554 30.189 69.8171 30.1868C69.7788 30.1846 69.7417 30.173 69.709 30.1529C69.5207 30.0701 69.3436 29.964 69.1818 29.8369C68.5908 29.376 69.0878 28.6856 68.7069 28.3894C68.1588 27.964 65.84 28.4228 65.1504 29.767C64.4606 31.1092 65.8865 32.3898 65.9806 32.4702C66.4619 32.9175 66.9853 33.3173 67.5434 33.664C67.0491 33.7612 66.5392 33.7463 66.0514 33.6202C65.2409 33.4242 64.2621 33.1854 64.0334 31.4511C63.7931 31.6253 63.598 31.7712 63.44 31.8933L63.4378 31.8953C62.4426 32.6421 63.2055 31.5627 63.267 31.4772L63.2705 31.472C63.5903 31.0731 63.8718 30.6449 64.1112 30.1932C63.4757 30.6914 62.8914 31.2518 62.3672 31.866L62.3614 31.8722C62.2522 32.0036 62.1477 32.1392 62.0502 32.2768C62.0409 32.2913 62.0316 32.305 62.0235 32.3196V32.3206C62.0144 32.3356 62.0067 32.3506 61.998 32.3652C62.1933 32.3263 62.4332 32.2811 62.7431 32.2182C62.4221 32.3397 62.1168 32.4994 61.834 32.694C61.7547 32.8835 61.6951 33.0807 61.6562 33.2824C61.871 33.238 62.1443 33.1875 62.52 33.1113C62.2005 33.2322 61.8967 33.391 61.6151 33.5842C61.6082 33.6729 61.6092 33.7253 61.6092 33.7253L61.6162 33.7191C61.5252 33.8406 61.4326 33.9729 61.3398 34.1132C61.6034 34.0703 61.9485 34.0423 62.6099 33.9724C62.109 34.0717 61.621 34.2274 61.1552 34.4365L61.1378 34.433C60.2752 35.8955 59.8272 37.5652 59.8419 39.263C60.741 39.5126 61.6912 39.5126 62.5903 39.263C62.8637 38.4856 63.0947 37.6939 63.2824 36.8915V38.9011C64.1336 38.4833 65.0165 38.1332 65.9229 37.8541C66.0505 37.8145 65.9623 36.9218 66.4465 35.6172C66.3188 36.7715 66.5847 37.6559 66.7287 37.6174C67.4731 37.4155 68.2345 37.2821 69.0033 37.2189C70.1517 36.7186 69.85 36.2691 69.7176 34.2812C70.0963 35.2055 70.321 36.1856 70.383 37.1825C74.6235 37.5161 76.4093 38.9011 76.4093 38.9011V36.8915C76.597 37.6939 76.828 38.4856 77.1013 39.263C78.0005 39.5125 78.9506 39.5125 79.8498 39.263C79.8682 37.437 79.3482 35.6462 78.3546 34.1141C77.9537 33.9502 77.5378 33.8256 77.1129 33.7421ZM68.3677 32.6495C68.0345 32.4085 67.0069 32.2073 66.4971 31.4773C66.1627 30.9966 66.0048 30.2206 66.5134 29.8149C66.7076 29.673 66.9339 29.5813 67.1721 29.548C67.4104 29.5147 67.6532 29.5409 67.8789 29.6242C68.2121 29.7837 68.1007 30.0277 68.5291 30.3593C68.7486 30.5291 69.2537 30.763 69.3895 30.984C69.8029 31.6639 68.629 32.6244 68.3677 32.6495ZM69.8459 30.7057C69.8416 30.6773 69.8409 30.6486 69.8435 30.62C69.8433 30.6186 69.8434 30.6171 69.8438 30.6156C69.8442 30.6142 69.8449 30.6129 69.8459 30.6118C69.8469 30.6144 69.8473 30.6172 69.847 30.62C69.8507 30.6485 69.8503 30.6773 69.8459 30.7057ZM70.2349 31.1259C70.5126 30.8349 70.8236 30.5776 71.1614 30.3593C71.591 30.0277 71.4784 29.7837 71.8128 29.6242C72.0383 29.5409 72.2809 29.5147 72.519 29.548C72.7571 29.5813 72.9832 29.673 73.1772 29.8149C73.6858 30.2206 73.529 30.9966 73.1946 31.4773C72.6851 32.2073 71.6561 32.4085 71.324 32.6495C71.0616 32.6244 69.8215 31.8048 70.2349 31.1259Z" fill="white"/>
<path d="M75.2331 39.2639C72.238 37.8805 70.5007 37.9279 69.9737 37.9279C68.1617 38.097 66.3873 38.5477 64.7143 39.2639C61.5783 40.5752 60.2342 40.2529 60.1529 40.1502C59.9361 41.0279 59.8914 41.9394 60.0215 42.8341L60.014 42.8309C60.0187 42.8474 60.0246 42.8625 60.0293 42.8789C60.0696 43.0593 60.1296 43.2347 60.2082 43.402C60.9497 45.3141 62.3848 46.2805 62.8498 47.4842C63.4566 46.6976 66.1756 45.8953 69.845 47.0204L69.8481 47.022C69.9063 47.0633 70.8484 47.7266 70.9925 48.5294C71.0614 47.915 71.4321 47.5458 71.7432 47.6593H71.7462C71.8182 47.6853 71.8902 47.7128 71.9623 47.7405L71.9715 47.745C72.0588 47.7986 72.7865 48.2567 72.7221 48.8604C72.6672 49.3766 72.5413 49.5421 72.4938 49.5865C73.223 48.9556 74.0018 48.3843 74.8225 47.8782C74.8363 47.8721 74.8501 47.8644 74.8638 47.8582C75.0882 47.7448 75.3044 47.6159 75.5108 47.4722C75.72 47.3274 75.8887 47.1925 75.996 47.1029C76.016 47.086 76.036 47.0692 76.051 47.0554C76.0617 47.0461 76.0724 47.0385 76.0816 47.0293C76.1076 47.0049 76.1216 46.9926 76.1216 46.9926C76.3294 46.7998 76.5259 46.595 76.71 46.3794C77.4275 45.5016 78.0223 44.5303 78.4782 43.4922L76.5813 42.6523L76.7334 42.5447C76.7334 42.5447 76.7516 42.5542 76.7849 42.571C77.3546 42.8782 77.9717 43.0881 78.6105 43.1921C79.0833 42.144 79.4258 41.0419 79.6302 39.9104C79.5492 40.0131 78.3185 40.6887 75.2331 39.2639Z" fill="white"/>
<path d="M77.0709 19.2077C74.5498 19.8508 72.4028 22.2316 72.4028 22.2316C73.5888 21.4965 74.8429 20.8773 76.1477 20.3829C78.059 19.7203 78.142 20.0928 81.6584 18.7512C80.1149 18.6674 78.5677 18.8214 77.0709 19.2077Z" fill="white"/>
<path d="M85.4373 21.0771L86.1257 22.2686C87.0248 24.4532 86.2862 25.0313 85.8095 26.3656C85.3834 27.5581 85.9452 27.9695 85.9452 27.9695C86.0203 27.4422 86.1526 26.9247 86.3396 26.426C86.6733 27.2193 86.9716 27.2855 86.3872 29.8645C86.3872 29.8645 87.4749 28.0142 87.0554 24.7775C86.6359 21.5408 85.4373 21.0771 85.4373 21.0771Z" fill="white"/>
<path d="M85.9628 20.1679L85.9073 19.9081C85.8008 19.4783 85.6387 19.0641 85.4251 18.6762C85.2256 18.2852 85.0051 17.9069 84.7901 17.5273C84.6836 17.3371 84.5759 17.1471 84.4835 16.9517C84.4008 16.7516 84.3369 16.5443 84.2925 16.3324L83.9451 15.0688L84.2334 16.3482C84.2743 16.5648 84.3359 16.7769 84.4175 16.9816C84.5087 17.1829 84.6136 17.3749 84.7172 17.5675C84.9263 17.9515 85.1402 18.332 85.3316 18.7227C85.4852 19.0237 85.6136 19.337 85.7154 19.6593L84.6425 18.3344L84.5197 18.1828L84.5559 18.3736C84.7427 19.3576 84.9725 20.3306 85.2455 21.2928L84.9367 19.8263C84.8471 19.4033 84.7651 18.9792 84.6906 18.5538L85.7976 19.9581L85.9628 20.1679Z" fill="white"/>
<path d="M61.7882 55.2601C60.4923 53.4098 63.6964 49.8964 63.6964 49.8064C63.6964 49.7164 62.4678 50.9453 60.4978 52.818C59.3867 53.8742 57.0903 51.8845 56.0336 50.8482L55.8738 50.6306C55.7903 50.5208 55.6958 50.4199 55.5917 50.3294C55.4828 50.233 55.3568 50.1579 55.2201 50.1081C55.0716 50.0562 54.91 50.0549 54.7606 50.1042C54.6195 50.1553 54.4928 50.2393 54.3909 50.3494C54.2946 50.4501 54.2106 50.5618 54.1407 50.6823C54.0059 50.9138 53.895 51.1584 53.8097 51.4123C53.7854 51.4818 53.7647 51.5522 53.7425 51.6221C53.7375 50.6313 53.7542 49.634 53.7298 48.6357C53.7252 48.1108 53.6892 47.5867 53.6219 47.0662C53.6033 46.922 53.5647 46.781 53.5073 46.6474L53.3381 46.3001C53.2272 46.0677 53.1183 45.8343 53.0127 45.5994C52.9374 45.4328 52.8719 45.2624 52.7999 45.0946C52.8685 44.0849 53.3084 41.2834 55.9818 37.9278C59.3443 33.7078 60.0145 31.8649 60.0145 31.8649C60.0145 31.8649 52.5006 40.5213 52.4713 38.1748C52.4751 38.1502 52.478 38.1254 52.4818 38.1008C52.7278 36.5409 53.0154 34.9863 53.4059 33.4632C53.5044 33.0829 53.6109 32.7055 53.7255 32.3311C53.784 32.1446 53.8427 31.958 53.907 31.7741L54.0038 31.4985C54.0376 31.4017 54.073 31.3052 54.1029 31.2074C54.3382 30.4308 54.4874 29.6307 54.5479 28.8215C54.6491 27.2293 54.6549 25.6325 54.5652 24.0396C54.537 23.248 54.5083 22.4585 54.5023 21.6719C54.4981 21.1774 54.5093 20.6847 54.532 20.1941C55.4887 18.8607 59.7215 13.2205 63.5019 12.2903C58.6031 12.2894 55.8248 17.8844 55.4941 14.0747C55.467 13.4862 55.4757 12.8966 55.52 12.3092C55.5975 11.5473 55.786 10.8009 56.0794 10.0935C56.3742 9.37502 56.7284 8.68242 57.1384 8.02288L57.2906 7.77262L57.4498 7.52631C57.5551 7.36148 57.6623 7.19779 57.7745 7.0368C57.9938 6.70972 58.2183 6.39668 58.4601 6.09328C59.4252 4.87599 60.6131 3.85343 61.9604 3.08015C63.3152 2.31158 64.7865 1.76963 66.3161 1.47573C67.8522 1.17958 69.4196 1.0794 70.9809 1.17758C71.7627 1.22415 72.5415 1.31252 73.3139 1.44232C74.0861 1.56922 74.8503 1.74101 75.6026 1.95681C77.1009 2.38569 78.4747 3.16725 79.609 4.23606C80.7238 5.33411 81.5979 6.65216 82.1757 8.10639C82.4753 8.83356 82.7342 9.5768 82.9513 10.3327C83.1767 11.0877 83.3662 11.8602 83.6361 12.6143C84.1126 13.9497 84.7147 15.2369 85.4343 16.4586C85.2484 16.2897 85.0637 16.1193 84.8803 15.9473C84.5664 15.6573 84.2547 15.3647 83.9454 15.0694C84.2333 15.3857 84.5236 15.7 84.8161 16.012C85.1129 16.3211 85.4083 16.628 85.7205 16.927L86.1365 17.3257L85.8406 16.8246C85.0376 15.4667 84.3812 14.0273 83.8825 12.5306C83.634 11.7864 83.4617 11.0139 83.2415 10.2489C83.0308 9.47908 82.7775 8.72153 82.4827 7.97982C81.9045 6.47179 81.0186 5.10068 79.8814 3.95379C78.7129 2.82454 77.2911 1.99142 75.7348 1.52408C74.1975 1.06374 72.613 0.779231 71.0116 0.67602C69.4071 0.564669 67.795 0.657233 66.2138 0.951497C64.6226 1.24432 63.0911 1.79977 61.6821 2.59513C60.2716 3.40084 59.0271 4.46738 58.0149 5.73793C57.7623 6.05352 57.5243 6.38424 57.3017 6.71451C57.1871 6.8784 57.077 7.04574 56.9686 7.21447L56.8049 7.46667L56.6477 7.72377C56.2195 8.40954 55.8495 9.12989 55.5413 9.8773C55.2277 10.6361 55.0273 11.437 54.9466 12.2541C54.8648 13.0737 54.9345 13.8837 54.928 14.6531C54.927 15.0349 54.8966 15.4161 54.8372 15.7932C54.7751 16.1681 54.6806 16.537 54.5549 16.8956C54.4958 17.0688 54.4181 17.2742 54.3608 17.4701C54.3009 17.6679 54.2529 17.8677 54.2096 18.0679C54.1269 18.466 54.0664 18.8684 54.0285 19.2732C53.9624 20.0328 53.9353 20.7952 53.9473 21.5575C53.5727 22.0403 53.1 22.9807 52.8671 24.7774C52.6414 26.7457 52.9525 28.7385 53.7674 30.5443C53.7259 30.7169 53.6806 30.8881 53.628 31.0569C53.6006 31.1486 53.5681 31.2382 53.5375 31.3287L53.439 31.6141C53.3738 31.8046 53.3148 31.9963 53.2559 32.188C53.141 32.572 53.0387 32.9586 52.9428 33.3461C52.5644 34.8975 52.2939 36.4657 52.0648 38.0378C51.8396 39.6111 51.6583 41.1889 51.521 42.7714L51.5176 42.8114L51.5313 42.8493C51.8853 43.8233 52.274 44.7929 52.7132 45.7357C52.8226 45.9718 52.9356 46.2062 53.0504 46.4398L53.2255 46.7885C53.2686 46.8938 53.2981 47.0042 53.3133 47.1169C53.3813 47.6231 53.4192 48.1329 53.4269 48.6436C53.4587 49.6751 53.4447 50.7082 53.4646 51.7482C53.4678 51.8787 53.4716 52.0088 53.4807 52.1428C53.4807 52.1428 53.4928 52.1978 53.5219 52.8739C53.7317 52.4254 53.7786 52.3245 53.8384 52.1942C53.9263 51.9673 53.9996 51.735 54.0577 51.4987C54.1352 51.2607 54.2366 51.0313 54.3603 50.8138C54.4622 50.6066 54.6312 50.4399 54.8399 50.3409C54.9379 50.3074 55.0443 50.3077 55.1421 50.3419C55.2494 50.3807 55.3485 50.4393 55.4343 50.5146C55.5263 50.5934 55.61 50.6815 55.6841 50.7773L55.9182 51.0844C56.2314 51.4997 56.5635 51.9001 56.9004 52.296C57.5805 53.0823 58.3118 53.8228 59.0894 54.5128C59.8659 55.2026 60.6922 55.8343 61.5616 56.4025C62.4311 56.9678 63.3431 57.4649 64.2893 57.8894C62.4602 57.0126 61.1616 55.7902 59.683 54.4289C60.353 54.7805 61.0588 55.0591 61.7882 55.2601ZM53.7966 22.2687L53.9545 21.9955C53.9688 22.6862 53.997 23.3747 54.024 24.0606C54.0545 24.8175 54.0862 25.5741 54.0984 26.3276C53.6215 25.021 52.9065 24.4318 53.7966 22.2687ZM53.5827 26.4263C53.7781 26.9038 53.9449 27.3925 54.0822 27.8898C54.0715 28.1865 54.0608 28.4829 54.0373 28.778C53.9943 29.3525 53.9092 29.9231 53.7826 30.4851C53.2372 28.0387 53.2565 27.2018 53.5827 26.4263Z" fill="white"/>
<path d="M89.1961 38.1427L87.9373 32.0181C88.1294 33.2503 88.0002 34.5113 87.5622 35.6791C87.1242 36.8468 86.3922 37.8817 85.4371 38.6836C81.9972 41.7385 81.6583 42.2778 81.6583 42.2778C86.7916 38.8318 89.0299 37.8084 89.1959 39.6541C89.256 39.1521 89.256 38.6447 89.1961 38.1427Z" fill="white"/>
<path d="M87.9374 32.0177C87.9165 31.9014 87.9001 31.8364 87.9001 31.8364L87.9374 32.0177Z" fill="white"/>
<path d="M0.428955 80.5686V80.0129H1.78762V80.7744C1.78762 82.771 2.67263 83.3884 4.79269 83.3884C6.97449 83.3884 7.59198 82.7298 7.59198 81.1243C7.59198 79.1072 6.68634 78.7367 4.19579 77.8104C1.60235 76.843 0.470311 75.9373 0.470311 73.6732C0.470311 71.3473 1.66413 70.1123 4.62811 70.1123H4.79269C7.75672 70.1123 8.92997 71.5737 8.92997 74.126V74.7229H7.57131V73.9407C7.57131 72.1295 6.7685 71.4091 4.64849 71.4091C2.52848 71.4091 1.86978 72.1706 1.86978 73.6114C1.86978 75.5669 3.0636 75.8345 5.43062 76.7401C7.81826 77.6458 8.99156 78.4074 8.99156 81.0213C8.99156 83.5531 7.85943 84.6851 4.83376 84.6851H4.62806C1.62273 84.6852 0.428955 83.4296 0.428955 80.5686Z" fill="#6D6E71"/>
<path d="M10.855 79.8481V74.9288C10.855 71.656 12.3781 70.1123 15.1363 70.1123H15.3011C18.0593 70.1123 19.5824 71.6558 19.5824 74.9288V79.8481C19.5824 83.1002 18.1416 84.6851 15.3216 84.6851H15.1158C12.2958 84.6851 10.855 83.1002 10.855 79.8481ZM18.1414 79.9305V74.8464C18.1414 72.3558 17.1945 71.4091 15.2186 71.4091C13.2426 71.4091 12.2958 72.3558 12.2958 74.8464V79.9305C12.2958 82.3799 13.2426 83.3884 15.2186 83.3884C17.1946 83.3884 18.1414 82.3799 18.1414 79.9305Z" fill="#6D6E71"/>
<path d="M29.8839 71.7177H22.7621V76.5959H29.0605V77.9132H22.7621V84.3968H21.3213V70.4004H29.8839V71.7177Z" fill="#6D6E71"/>
<path d="M35.3488 71.7177H31.2323V70.4004H40.9064V71.7177H36.7897V84.397H35.3488V71.7177Z" fill="#6D6E71"/>
<path d="M48.917 79.6835V75.1758C48.917 71.8413 50.5842 70.1123 53.713 70.1123H53.8778C56.9859 70.1123 58.6737 71.8413 58.6737 75.0524H55.9975C55.9975 73.2617 55.277 72.5825 53.8773 72.5825C52.457 72.5825 51.7572 73.2618 51.7572 74.8878V79.8483C51.7572 81.4744 52.4366 82.2154 53.8568 82.2154C55.3388 82.2154 56.0386 81.7214 56.0386 80.3835V79.6425H53.9597V76.9667H58.6732V79.9718C58.6732 83.4916 56.7384 84.6853 53.9391 84.6853H53.651C50.4813 84.6851 48.917 82.915 48.917 79.6835Z" fill="#414042"/>
<path d="M60.543 79.6835V75.1758C60.543 71.8413 62.2102 70.1123 65.3389 70.1123H65.5037C68.6324 70.1123 70.2996 71.8413 70.2996 75.1758V79.6835C70.2996 82.9153 68.7353 84.6851 65.5655 84.6851H65.2773C62.1072 84.6851 60.543 82.915 60.543 79.6835ZM67.4589 79.9098V74.9494C67.4589 73.3232 66.7796 72.5823 65.4212 72.5823C64.0629 72.5823 63.3832 73.3232 63.3832 74.9494V79.9098C63.3832 81.536 64.0626 82.2152 65.4212 82.2152C66.7799 82.2152 67.4588 81.536 67.4588 79.9098H67.4589Z" fill="#414042"/>
<path d="M79.2291 84.397L76.7385 79.2923H75.2359V84.397H72.4778V70.4004H76.4092C80.567 70.4004 82.1519 71.7383 82.1519 74.8463C82.1519 76.987 81.4109 78.2838 79.5789 78.9013L82.3165 84.397H79.2291ZM75.2359 76.7195H76.7797C78.6529 76.7195 79.3115 76.2461 79.3115 74.8671C79.3115 73.4674 78.6528 73.0146 76.7797 73.0146H75.2359V76.7195Z" fill="#414042"/>
<path d="M89.5448 72.9939V81.8035H92.6529V84.397H83.6375V81.8035H86.7455V72.9939H83.6375V70.4004H92.6529V72.9939H89.5448Z" fill="#414042"/>
<path d="M97.8112 81.7211H104.274V84.397H94.9708V70.4004H97.8112V81.7211Z" fill="#414042"/>
<path d="M109.151 81.7211H115.614V84.397H106.31V70.4004H109.151V81.7211Z" fill="#414042"/>
<path d="M125.306 81.4741H120.963L120.264 84.3969H117.547L120.984 70.2769H125.471L128.909 84.3969H125.986L125.306 81.4741ZM123.063 72.0884L121.539 79.0455H124.75L123.268 72.0884H123.063Z" fill="#414042"/>
<path d="M129.732 80.054V79.9098H132.429V80.1569C132.429 81.8652 133.087 82.2975 134.672 82.2975C136.36 82.2975 136.772 81.8859 136.772 80.7332C136.772 79.4776 136.154 79.2718 133.787 78.3867C131.255 77.4193 129.773 76.5754 129.773 74.0437C129.773 71.4912 131.235 70.1123 134.528 70.1123H134.693C137.966 70.1123 139.509 71.5531 139.509 74.62V74.7641H136.834V74.5171C136.834 72.9528 136.175 72.5 134.611 72.5C132.944 72.5 132.532 72.9116 132.532 73.9202C132.532 75.0729 133.376 75.3404 135.517 76.0814C138.233 77.0488 139.571 77.8721 139.571 80.5479C139.571 83.3472 138.213 84.6851 134.817 84.6851H134.508C131.132 84.6851 129.732 83.2237 129.732 80.054Z" fill="#414042"/>
<path d="M32.562 94.2782V94.0458H33.1303V94.3644C33.1303 95.1994 33.5004 95.4577 34.3873 95.4577C35.2999 95.4577 35.5581 95.1823 35.5581 94.5107C35.5581 93.667 35.1793 93.5121 34.1375 93.1247C33.0528 92.7201 32.5793 92.3413 32.5793 91.3942C32.5793 90.4213 33.0788 89.9048 34.3183 89.9048H34.3873C35.6269 89.9048 36.1177 90.516 36.1177 91.5836V91.8334H35.5495V91.5062C35.5495 90.7486 35.2138 90.4473 34.3269 90.4473C33.4401 90.4473 33.1647 90.7659 33.1647 91.3685C33.1647 92.1864 33.6642 92.2983 34.6542 92.6772C35.6528 93.056 36.1434 93.3745 36.1434 94.4678C36.1434 95.5268 35.6701 96.0004 34.4044 96.0004H34.3183C33.0614 96.0002 32.562 95.4748 32.562 94.2782Z" fill="#414042"/>
<path d="M38.1071 93.977V91.9193C38.1071 90.5507 38.7441 89.9048 39.8977 89.9048H39.9667C41.1202 89.9048 41.7573 90.5505 41.7573 91.9193V93.977C41.7573 95.3372 41.1547 96 39.9751 96H39.8891C38.7095 96.0002 38.1071 95.3372 38.1071 93.977ZM41.1547 94.0113V91.8849C41.1547 90.8432 40.7587 90.4471 39.9322 90.4471C39.1057 90.4471 38.7096 90.8432 38.7096 91.8849V94.0113C38.7096 95.0358 39.1057 95.4577 39.9322 95.4577C40.7587 95.4577 41.1547 95.0359 41.1547 94.0113V94.0113Z" fill="#414042"/>
<path d="M47.5344 90.5761H44.5556V92.6164H47.1901V93.1674H44.5556V95.8793H43.953V90.0249H47.5345L47.5344 90.5761Z" fill="#414042"/>
<path d="M50.7892 90.5761H49.0674V90.0249H53.1137V90.5759H51.3919V95.8791H50.7892V90.5761Z" fill="#414042"/>
<path d="M54.2249 90.0249H54.8275L55.5506 95.1129H55.6109L56.3427 90.972H57.0313L57.7631 95.1129H57.8148L58.5466 90.0249H59.1147L58.2194 95.8791H57.4016L56.6873 91.8414H56.6528L55.9468 95.8791H55.1204L54.2249 90.0249Z" fill="#414042"/>
<path d="M63.3424 94.2607H61.1296L60.639 95.8791H60.0449L61.8184 89.9561H62.6965L64.4528 95.8791H63.8246L63.3424 94.2607ZM61.2934 93.7098H63.1789L62.2664 90.4726H62.2232L61.2934 93.7098Z" fill="#414042"/>
<path d="M69.1713 95.8791L67.966 93.4083H66.7693V95.8791H66.1667V90.0249H67.613C69.1369 90.0249 69.7568 90.55 69.7568 91.6951C69.791 92.0622 69.6901 92.4292 69.4729 92.7272C69.2558 93.0252 68.9373 93.2337 68.5774 93.3135L69.8429 95.879L69.1713 95.8791ZM67.6389 92.866C68.7237 92.866 69.137 92.5473 69.137 91.7121C69.137 90.8685 68.7064 90.5758 67.6303 90.5758H66.7693V92.8658L67.6389 92.866Z" fill="#414042"/>
<path d="M71.7719 90.0249H75.2844V90.5759H72.3658V92.6163H75.0261V93.1673H72.3658V95.3281H75.2844V95.8791H71.7719V90.0249Z" fill="#414042"/>
<path d="M86.3395 90.0249V95.8791H85.7368V93.2103H83.4038V95.8791H82.7925V90.0249H83.4038V92.6593H85.7368V90.0249H86.3395Z" fill="#414042"/>
<path d="M88.3202 93.977V91.9193C88.3202 90.5507 88.9573 89.9048 90.1108 89.9048H90.1798C91.3334 89.9048 91.9705 90.5505 91.9705 91.9193V93.977C91.9705 95.3372 91.3678 96 90.1884 96H90.1022C88.9228 96.0002 88.3202 95.3372 88.3202 93.977ZM91.3678 94.0113V91.8849C91.3678 90.8432 90.9718 90.4471 90.1454 90.4471C89.3189 90.4471 88.9228 90.8432 88.9228 91.8849V94.0113C88.9228 95.0358 89.3189 95.4577 90.1454 95.4577C90.9718 95.4577 91.3678 95.0359 91.3678 94.0113V94.0113Z" fill="#414042"/>
<path d="M93.9167 93.9767V90.0249H94.5194V94.011C94.5194 95.0441 94.9155 95.4574 95.7505 95.4574C96.5856 95.4574 96.973 95.0528 96.973 94.011V90.0249H97.5324V93.9765C97.5324 95.354 96.9471 95.9995 95.7848 95.9995H95.6987C94.5107 95.9999 93.9167 95.3455 93.9167 93.9767Z" fill="#414042"/>
<path d="M99.5131 94.2782V94.0458H100.081V94.3644C100.081 95.1994 100.451 95.4577 101.338 95.4577C102.251 95.4577 102.509 95.1823 102.509 94.5107C102.509 93.667 102.13 93.5121 101.089 93.1247C100.004 92.7201 99.5301 92.3413 99.5301 91.3942C99.5301 90.4213 100.03 89.9048 101.269 89.9048H101.338C102.578 89.9048 103.069 90.516 103.069 91.5836V91.8334H102.5V91.5062C102.5 90.7486 102.165 90.4473 101.278 90.4473C100.391 90.4473 100.116 90.7659 100.116 91.3685C100.116 92.1864 100.615 92.2983 101.605 92.6772C102.604 93.056 103.094 93.3745 103.094 94.4678C103.094 95.5268 102.621 96.0004 101.355 96.0004H101.269C100.012 96.0002 99.5131 95.4748 99.5131 94.2782Z" fill="#414042"/>
<path d="M105.247 90.0249H108.76V90.5759H105.841V92.6163H108.502V93.1673H105.841V95.3281H108.76V95.8791H105.247V90.0249Z" fill="#414042"/>
<g style="mix-blend-mode:color">
<path d="M90.0758 42.6546C89.856 42.4848 89.6562 41.6856 89.4114 42.5897C89.0534 44.348 88.4088 46.0356 87.5033 47.5848C87.2785 48.0143 87.0438 48.4339 86.799 48.8485C86.3495 49.6078 85.8699 50.3421 85.3904 51.0763C85.3754 51.1013 85.3555 51.1263 85.3405 51.1513L85.3255 51.1662C85.3207 51.1773 85.3139 51.1875 85.3055 51.1962C84.9979 51.4811 84.6633 51.7354 84.3065 51.9555C84.5692 51.4888 84.7357 50.9741 84.796 50.442C84.826 50.1572 84.836 49.7976 84.7111 49.7976C84.6711 49.7976 84.6212 49.8276 84.5563 49.9125C84.0987 50.5801 83.5821 51.2054 83.0128 51.7806C82.8479 51.9505 82.6781 52.1153 82.5082 52.2801C82.4783 52.3051 82.4433 52.3301 82.4133 52.3601C82.0656 53.066 81.7863 53.8037 81.5792 54.5629C81.2045 54.0834 80.8049 53.9635 80.0507 54.9825C79.5475 55.7204 79.1553 56.5282 78.8868 57.3801C78.8955 57.004 78.7943 56.6336 78.5955 56.3142C78.3968 55.9948 78.1091 55.7403 77.7679 55.5819C77.4982 55.7267 77.2285 55.8666 76.9537 56.0015C76.0062 56.7177 75.0189 57.3798 73.9967 57.9845C73.8773 58.1334 73.7736 58.2941 73.687 58.4641C73.597 58.3991 73.5171 58.3492 73.4372 58.2992C72.0568 59.0956 70.5496 59.6481 68.9816 59.9326C64.4061 58.6089 60.2202 56.2562 57.433 53.464C57.3951 53.8189 57.2935 54.164 57.1333 54.483C56.9832 53.7959 56.7761 53.1225 56.5139 52.47C56.1487 52.0432 55.8101 51.5945 55.4999 51.1263C54.9654 50.3121 54.401 50.7816 54.1362 51.8855C54.073 52.5638 53.8145 53.2093 53.392 53.7437C53.2531 53.3395 53.1626 52.9204 53.1222 52.4949C53.2571 47.5498 52.328 47.2601 50.6746 43.1042C50.8445 42.305 51.0343 39.6176 51.5188 36.9902C52.0783 33.9232 52.9224 30.8962 52.8125 30.4716C52.2181 28.094 52.2931 26.8852 52.338 24.6374C52.373 22.8042 53.6417 22.6244 53.4169 18.4835C53.317 16.7152 54.4609 16.1458 54.2361 13.5433C54.2361 6.82995 60.6198 -0.24807 70.6899 0.0066786C78.0626 0.231457 82.3884 4.08266 84.1766 11.4104C84.7511 13.7631 85.8999 15.5064 86.6042 17.8091C85.8969 17.4593 85.2615 16.9798 84.7311 16.3955C84.821 17.0249 85.9649 17.7792 86.4344 20.6114C85.84 20.4765 85.7751 20.1718 85.4004 20.0619C86.2945 21.4206 86.6792 21.2957 86.9888 22.04C87.3883 23.2322 87.617 24.475 87.6682 25.7313C87.7881 28.2938 87.3235 27.6994 88.1777 30.077C89.2212 32.8559 89.7723 35.7954 89.8061 38.7635C89.8161 38.8384 89.8311 38.9183 89.841 38.9982C89.9709 39.8874 90.0858 40.7715 90.1757 41.6756C90.1743 42.0044 90.1408 42.3323 90.0758 42.6546Z" fill="white"/>
<path d="M69.8455 30.9857C69.8413 30.9542 69.8405 30.9223 69.8432 30.8905C69.8429 30.8889 69.843 30.8872 69.8434 30.8856C69.8438 30.8841 69.8445 30.8826 69.8455 30.8812C69.8465 30.8842 69.8469 30.8874 69.8467 30.8905C69.8504 30.9222 69.85 30.9542 69.8455 30.9857Z" fill="white"/>
<path d="M74.2451 24.7776C74.2344 24.7852 74.2252 24.7944 74.2145 24.8021C73.9672 25.0017 73.6921 25.1643 73.3979 25.2847C73.6682 25.0961 73.9513 24.9266 74.2451 24.7776Z" fill="white"/>
<path d="M69.8467 30.8905C69.8469 30.8874 69.8465 30.8842 69.8455 30.8812C69.8445 30.8826 69.8438 30.8841 69.8434 30.8856C69.843 30.8872 69.8429 30.8889 69.8432 30.8905C69.8405 30.9223 69.8413 30.9542 69.8455 30.9857C69.85 30.9542 69.8504 30.9222 69.8467 30.8905Z" fill="white"/>
<path d="M69.8455 30.9857C69.8413 30.9542 69.8405 30.9223 69.8432 30.8905C69.8429 30.8889 69.843 30.8872 69.8434 30.8856C69.8438 30.8841 69.8445 30.8826 69.8455 30.8812C69.8465 30.8842 69.8469 30.8874 69.8467 30.8905C69.8504 30.9222 69.85 30.9542 69.8455 30.9857Z" fill="white"/>
<path d="M62.0496 32.7356C62.0403 32.7518 62.0311 32.7669 62.0229 32.7832V32.7844L62.016 32.7879C62.0264 32.7704 62.038 32.753 62.0496 32.7356Z" fill="white"/>
<path d="M62.3608 32.2851C62.2516 32.4314 62.1472 32.5823 62.0496 32.7356C62.1392 32.5761 62.2433 32.4253 62.3608 32.2851Z" fill="white"/>
<path d="M82.3587 22.6374C81.7872 20.6488 79.1976 20.1481 77.1576 20.6729C74.7455 21.2933 75.6444 21.6019 71.5263 23.0924C70.5128 23.4592 71.2598 24.5738 71.6749 24.9599C72.015 25.2739 72.8738 25.5472 74.0901 25.0555C74.851 24.6833 75.6479 24.3896 76.4683 24.1788C77.5693 23.9393 78.6511 23.6192 79.7051 23.221C79.5627 23.2425 75.5435 23.6618 76.3362 23.0051C78.4749 21.2334 82.3587 22.6374 82.3587 22.6374Z" fill="white"/>
<path d="M68.5574 24.9599C68.9726 24.5738 69.782 23.1567 68.706 23.0924C65.8179 22.9201 65.8364 22.5499 62.7426 21.5719C60.7343 20.9369 57.5163 20.6488 56.9448 22.6374C56.9448 22.6374 60.8287 21.2334 62.9671 23.0051C63.7598 23.6618 59.7408 23.2425 59.5982 23.221C60.6522 23.6192 61.7341 23.9393 62.835 24.1788C63.8856 24.4733 64.9133 24.844 65.9101 25.2877C66.3415 25.4693 66.813 25.5346 67.2775 25.477C67.742 25.4195 68.1833 25.2412 68.5574 24.9599Z" fill="white"/>
<path d="M75.7047 26.2138C75.5876 26.2959 75.4549 26.3531 75.3148 26.382C75.1748 26.4109 75.0303 26.4108 74.8902 26.3817C74.7502 26.3526 74.6176 26.2952 74.5006 26.213C74.3836 26.1308 74.2846 26.0255 74.2098 25.9035L73.686 26.215C73.8584 26.4532 74.0918 26.6405 74.3617 26.7572C74.6315 26.874 74.9279 26.9159 75.2195 26.8784C76.3153 26.8065 76.5758 26.2317 76.6925 25.8814C76.765 25.6093 76.7921 25.3271 76.7729 25.0462C76.5052 25.1128 76.441 25.127 76.441 25.127C76.4838 25.3298 76.4758 25.5401 76.4178 25.7392C76.3598 25.9382 76.2536 26.1199 76.1086 26.268C76.2943 25.9354 76.3538 25.5471 76.2763 25.1741L75.9392 25.2707C75.9392 25.2707 76.1448 25.9803 75.7047 26.2138Z" fill="white"/>
<path d="M78.1094 27.0471C78.2822 26.9844 78.4398 26.8862 78.5722 26.7586C78.7045 26.6311 78.8085 26.4772 78.8775 26.3068C79.0445 25.8764 78.5384 25.3617 78.5384 25.3617C78.5966 25.4654 78.6469 25.5734 78.6888 25.6847C78.7729 25.9686 78.8168 25.9806 78.6251 26.3232C78.423 26.6844 78.4367 26.259 78.4877 26.0937C78.6656 25.5165 77.9694 24.8755 77.925 24.825C77.9464 24.8832 78.2317 25.887 77.8867 26.3087C77.4975 26.7845 77.5327 26.7683 76.154 27.1751C77.0564 27.2395 77.5326 27.2716 77.9327 26.9943H77.9358C78.0277 26.9308 78.1112 26.8556 78.1839 26.7707L78.1916 26.7614C78.3734 26.4842 78.5217 26.5485 78.4291 26.6815C78.3468 26.8226 78.2383 26.9467 78.1094 27.0471Z" fill="white"/>
<path d="M81.8331 25.9525C81.4778 25.6426 80.9843 25.278 80.5244 25.7818C80.0645 26.2857 80.3456 27.0173 79.7279 27.7023C78.7595 28.7777 76.4811 28.4293 75.7405 28.2668C75.0543 28.1158 74.1167 27.398 72.1309 27.2194C70.6358 27.3556 69.1314 27.3556 67.6362 27.2194C65.5919 27.3414 64.6377 28.1343 63.9422 28.2865C63.2013 28.449 60.9232 28.7986 59.9549 27.7221C59.336 27.0382 59.6169 26.3055 59.1583 25.8016C58.6985 25.2977 58.205 25.6622 57.8485 25.9734C57.4921 26.2834 58.205 28.3155 58.9736 28.9877C59.2682 29.3199 59.6637 29.5462 60.0994 29.632C60.535 29.7178 60.9868 29.6583 61.3853 29.4626C62.6162 28.9285 62.4443 29.4277 62.4443 29.4277C61.9461 30.3647 61.8126 30.6598 61.3621 30.9395C62.2817 30.5993 63.999 30.1349 64.95 28.9969C65.8778 27.888 67.5405 27.5943 67.9562 27.5362H67.9573C69.1802 27.4605 70.4061 27.45 71.6301 27.5049C71.8553 27.5316 73.7317 27.78 74.7326 28.9772C75.6836 30.1151 77.4009 30.5796 78.3205 30.9198C77.87 30.6388 77.7365 30.3453 77.2372 29.408C77.2372 29.408 77.0665 28.9085 78.2973 29.443C78.6959 29.6386 79.1476 29.698 79.5832 29.6123C80.0188 29.5265 80.4143 29.3002 80.709 28.9681C81.4778 28.2958 82.1896 26.2636 81.8331 25.9525Z" fill="white"/>
<path d="M65.835 26.215L65.3111 25.9035C65.2363 26.0254 65.1374 26.1308 65.0204 26.213C64.9034 26.2952 64.7708 26.3526 64.6307 26.3817C64.4907 26.4108 64.3462 26.4109 64.2061 26.382C64.0661 26.3531 63.9334 26.2959 63.8163 26.2138C63.3762 25.9803 63.5815 25.2706 63.5815 25.2706L63.2444 25.174C63.1669 25.547 63.2265 25.9353 63.4121 26.2679C63.2671 26.1198 63.1609 25.9381 63.1029 25.7391C63.0449 25.54 63.037 25.3297 63.0797 25.1269C63.0797 25.1269 63.0155 25.1127 62.7478 25.0461C62.7286 25.327 62.7557 25.6092 62.8282 25.8813C62.945 26.2316 63.2054 26.8064 64.3012 26.8783C64.5929 26.9158 64.8893 26.874 65.1592 26.7573C65.4291 26.6405 65.6625 26.4532 65.835 26.215Z" fill="white"/>
<path d="M61.3295 26.7614L61.3371 26.7707C61.4098 26.8556 61.4933 26.9308 61.5852 26.9944H61.5884C61.9882 27.2717 62.4646 27.2395 63.367 27.1751C61.9884 26.7684 62.0236 26.7845 61.6343 26.3088C61.2893 25.8871 61.5744 24.8833 61.596 24.825C61.5516 24.8756 60.8554 25.5166 61.0333 26.0938C61.0843 26.2591 61.098 26.6845 60.8959 26.3232C60.7041 25.9807 60.7481 25.9686 60.8322 25.6847C60.8741 25.5734 60.9244 25.4655 60.9826 25.3618C60.9826 25.3618 60.4765 25.8763 60.6435 26.3069C60.7125 26.4772 60.8166 26.6311 60.9489 26.7587C61.0812 26.8862 61.2389 26.9844 61.4117 27.0471C61.2827 26.9467 61.1742 26.8225 61.092 26.6812C60.9993 26.5486 61.1476 26.4843 61.3295 26.7614Z" fill="white"/>
<path d="M69.4642 26.9581C68.8407 26.8583 68.2112 26.8007 67.58 26.7857C67.0938 26.7809 66.6143 26.8995 66.1864 27.1304C67.2732 26.9914 68.3688 26.9338 69.4642 26.9581Z" fill="white"/>
<path d="M68.3637 26.4251C68.1008 26.499 67.2768 26.6509 67.2768 26.6509C68.0086 26.5934 68.7449 26.6388 69.4642 26.7857C69.3481 26.6105 69.1763 26.4796 68.9766 26.4142C68.7769 26.3488 68.561 26.3526 68.3637 26.4251Z" fill="white"/>
<path d="M71.4868 26.4065C71.2978 26.3414 71.0919 26.3447 70.9051 26.4159C70.7183 26.4871 70.5624 26.6217 70.4647 26.7961C71.1355 26.6303 71.8272 26.5653 72.5171 26.6034C72.5171 26.6034 71.7368 26.4733 71.4868 26.4065Z" fill="white"/>
<path d="M73.5478 27.1304C73.1493 26.901 72.6969 26.782 72.2371 26.7857C71.643 26.8008 71.0508 26.8584 70.4649 26.9581C71.4955 26.9338 72.5263 26.9915 73.5478 27.1304Z" fill="white"/>
<path d="M77.1125 33.7421C77.6917 33.8034 78.0285 33.8324 78.2804 33.8674C78.2478 33.6953 78.2122 33.5388 78.1746 33.4002C77.8738 33.1868 77.5471 33.0123 77.2025 32.8812C77.5778 32.9575 77.851 33.0077 78.0657 33.052C77.9866 32.7886 77.8559 32.5436 77.6811 32.3313C77.459 32.1939 77.2239 32.0789 76.9792 31.9879C77.1817 32.0291 77.3538 32.0625 77.5037 32.0918C76.9367 31.3878 76.2911 30.7509 75.5794 30.1937C75.8235 30.6596 76.1154 31.0989 76.4502 31.5045C77.1074 32.3055 76.0903 31.7538 76.0113 31.711L76.0067 31.7079C75.9033 31.6296 75.786 31.5441 75.6583 31.4513C75.6781 33.5705 72.154 33.7531 72.154 33.7531C72.8556 33.4992 73.4895 33.0878 74.0071 32.5505C74.8525 31.6495 75.2299 31.1093 74.5413 29.7671C73.8516 28.4229 71.5316 27.9639 70.9836 28.3894C70.604 28.6857 71.0997 29.376 70.5087 29.837C70.3362 29.9801 70.1396 30.0914 69.9281 30.1655C69.8933 30.1817 69.8551 30.189 69.8168 30.1868C69.7785 30.1847 69.7413 30.173 69.7087 30.153C69.5204 30.0702 69.3432 29.964 69.1815 29.837C68.5904 29.376 69.0875 28.6857 68.7065 28.3894C68.1585 27.9641 65.8397 28.4229 65.15 29.7671C64.4603 31.1093 65.8862 32.3899 65.9803 32.4702C66.4616 32.9175 66.985 33.3173 67.5431 33.664C67.0488 33.7613 66.5389 33.7463 66.0511 33.6203C65.2406 33.4243 64.2618 33.1854 64.0331 31.4511C63.7927 31.6253 63.5977 31.7713 63.4397 31.8933L63.4374 31.8954C62.4423 32.6421 63.2052 31.5627 63.2667 31.4773L63.2702 31.472C63.59 31.0731 63.8715 30.645 64.1109 30.1933C63.4753 30.6915 62.8911 31.2519 62.3668 31.8661L62.361 31.8723C62.2518 32.0036 62.1474 32.1392 62.0499 32.2769C62.0406 32.2914 62.0313 32.305 62.0232 32.3197C62.0141 32.3347 62.0063 32.3506 61.9977 32.3653C62.193 32.3264 62.4329 32.2812 62.7428 32.2182C62.4217 32.3397 62.1165 32.4995 61.8337 32.694C61.7544 32.8836 61.6948 33.0807 61.6559 33.2825C61.8707 33.2381 62.144 33.1876 62.5196 33.1114C62.2002 33.2323 61.8964 33.391 61.6148 33.5843C61.6079 33.6729 61.6089 33.7254 61.6089 33.7254L61.6158 33.7192C61.5249 33.8406 61.4323 33.9729 61.3395 34.1132C61.6031 34.0704 61.9482 34.0423 62.6095 33.9724C62.1087 34.0717 61.6207 34.2275 61.1549 34.4366L61.1375 34.4331C60.2749 35.8955 59.8269 37.5652 59.8416 39.263C60.7407 39.5127 61.6909 39.5127 62.59 39.263C62.8634 38.4856 63.0944 37.694 63.282 36.8916V38.9012C64.1333 38.4833 65.0162 38.1332 65.9225 37.8541C66.0502 37.8145 65.962 36.9218 66.4462 35.6172C66.3184 36.7716 66.5844 37.656 66.7283 37.6174C67.4728 37.4155 68.2342 37.2821 69.003 37.219C70.1514 36.7186 69.8497 36.2691 69.7173 34.2812C70.0959 35.2055 70.3207 36.1856 70.3826 37.1826C74.6232 37.5162 76.409 38.9012 76.409 38.9012V36.8916C76.5966 37.694 76.8276 38.4856 77.101 39.263C78.0001 39.5126 78.9503 39.5126 79.8494 39.263C79.8679 37.4371 79.3478 35.6462 78.3543 34.1141C77.9534 33.9503 77.5375 33.8257 77.1125 33.7421ZM68.3674 32.6496C68.0342 32.4086 67.0066 32.2074 66.4968 31.4774C66.1624 30.9967 66.0045 30.2207 66.513 29.815C66.7073 29.673 66.9336 29.5814 67.1718 29.5481C67.4101 29.5148 67.6529 29.541 67.8785 29.6242C68.2118 29.7838 68.1004 30.0278 68.5288 30.3593C68.7483 30.5292 69.2534 30.763 69.3892 30.9841C69.8026 31.664 68.6287 32.6245 68.3674 32.6496ZM69.8455 30.7057C69.8413 30.6774 69.8405 30.6486 69.8432 30.6201C69.843 30.6186 69.8431 30.6171 69.8435 30.6157C69.8439 30.6143 69.8446 30.6129 69.8455 30.6118C69.8466 30.6144 69.847 30.6173 69.8467 30.6201C69.8504 30.6485 69.85 30.6774 69.8455 30.7057ZM70.2345 31.1259C70.5123 30.835 70.8233 30.5777 71.1611 30.3593C71.5907 30.0278 71.4781 29.7838 71.8125 29.6242C72.038 29.5409 72.2806 29.5148 72.5187 29.548C72.7568 29.5813 72.9829 29.673 73.1769 29.815C73.6855 30.2207 73.5287 30.9967 73.1943 31.4774C72.6848 32.2074 71.6558 32.4086 71.3237 32.6496C71.0613 32.6245 69.8212 31.8048 70.2345 31.1259Z" fill="white"/>
<path d="M75.2327 39.2638C72.2376 37.8804 70.5003 37.9278 69.9733 37.9278C68.1613 38.0969 66.3869 38.5476 64.7139 39.2638C61.5779 40.5751 60.2338 40.2528 60.1525 40.1501C59.9357 41.0278 59.891 41.9393 60.0211 42.834L60.0136 42.8308C60.0183 42.8473 60.0242 42.8624 60.0289 42.8788C60.0692 43.0592 60.1292 43.2346 60.2078 43.4019C60.9493 45.314 62.3844 46.2804 62.8494 47.4841C63.4562 46.6975 66.1753 45.8952 69.8446 47.0203L69.8477 47.0219C69.9059 47.0632 70.848 47.7265 70.9921 48.5293C71.061 47.9149 71.4317 47.5458 71.7428 47.6592H71.7458C71.8178 47.6852 71.8898 47.7127 71.9619 47.7404L71.9711 47.7449C72.0584 47.7986 72.7861 48.2566 72.7217 48.8603C72.6668 49.3765 72.5409 49.542 72.4934 49.5864C73.2226 48.9555 74.0014 48.3842 74.8221 47.8781C74.8359 47.872 74.8497 47.8643 74.8634 47.8581C75.0878 47.7447 75.304 47.6158 75.5104 47.4721C75.7197 47.3273 75.8883 47.1924 75.9956 47.1028C76.0156 47.0859 76.0356 47.0691 76.0506 47.0553C76.0613 47.046 76.072 47.0385 76.0812 47.0292C76.1072 47.0048 76.1212 46.9925 76.1212 46.9925C76.329 46.7997 76.5255 46.5949 76.7096 46.3793C77.4271 45.5015 78.0219 44.5302 78.4778 43.4921L76.5809 42.6522L76.733 42.5446C76.733 42.5446 76.7512 42.5541 76.7845 42.571C77.3542 42.8781 77.9713 43.088 78.6101 43.192C79.0829 42.1439 79.4254 41.0418 79.6298 39.9103C79.5488 40.013 78.3181 40.6886 75.2327 39.2638Z" fill="white"/>
<path d="M77.0706 19.2075C74.5494 19.8506 72.4025 22.2314 72.4025 22.2314C73.5885 21.4962 74.8426 20.8771 76.1474 20.3826C78.0587 19.72 78.1417 20.0926 81.6581 18.7509C80.1146 18.6672 78.5673 18.8212 77.0706 19.2075Z" fill="white"/>
<path d="M85.4369 21.077L86.1253 22.2685C87.0244 24.4531 86.2858 25.0311 85.8091 26.3655C85.3831 27.5579 85.9449 27.9694 85.9449 27.9694C86.0199 27.4421 86.1522 26.9246 86.3392 26.4259C86.673 27.2192 86.9712 27.2854 86.3868 29.8644C86.3868 29.8644 87.4745 28.0141 87.055 24.7774C86.6355 21.5406 85.4369 21.077 85.4369 21.077Z" fill="white"/>
<path d="M85.9625 20.168L85.907 19.9083C85.8004 19.4784 85.6383 19.0643 85.4247 18.6763C85.2253 18.2854 85.0047 17.9071 84.7898 17.5275C84.6833 17.3372 84.5756 17.1472 84.4832 16.9519C84.4005 16.7518 84.3365 16.5444 84.2922 16.3325L83.9448 15.069L84.2331 16.3484C84.274 16.5649 84.3356 16.777 84.4172 16.9817C84.5084 17.183 84.6133 17.375 84.7169 17.5676C84.926 17.9516 85.1398 18.3321 85.3313 18.7228C85.4849 19.0238 85.6133 19.3371 85.715 19.6594L84.5194 18.183L84.5556 18.3737C84.7424 19.3577 84.9722 20.3308 85.2452 21.2929L84.9364 19.8264C84.8468 19.4035 84.7648 18.9793 84.6903 18.5539L85.9625 20.168Z" fill="white"/>
<path d="M61.7878 55.2598C60.4919 53.4096 63.696 49.8962 63.696 49.8062C63.696 49.7162 62.4674 50.9451 60.4974 52.8178C59.3863 53.874 57.0899 51.8843 56.0332 50.848L55.8734 50.6304C55.7899 50.5206 55.6954 50.4197 55.5913 50.3292C55.4824 50.2328 55.3564 50.1577 55.2197 50.1079C55.0712 50.056 54.9096 50.0547 54.7602 50.104C54.6191 50.1551 54.4924 50.2391 54.3905 50.3492C54.2942 50.4499 54.2102 50.5616 54.1403 50.6821C54.0055 50.9136 53.8946 51.1582 53.8092 51.4121C53.785 51.4816 53.7643 51.552 53.7421 51.6219C53.7371 50.6311 53.7538 49.6338 53.7293 48.6355C53.7248 48.1106 53.6888 47.5865 53.6215 47.066C53.6028 46.9218 53.5643 46.7808 53.5069 46.6472L53.3377 46.2999C53.2268 46.0675 53.1179 45.8341 53.0123 45.5992C52.937 45.4326 52.8715 45.2622 52.7995 45.0944C52.8681 44.0847 53.3079 41.2832 55.9814 37.9276C59.3439 33.7076 60.014 31.8647 60.014 31.8647C60.014 31.8647 52.5002 40.5211 52.4709 38.1746C52.4747 38.15 52.4776 38.1252 52.4814 38.1006C52.7274 36.5407 53.015 34.9861 53.4054 33.463C53.5039 33.0827 53.6105 32.7053 53.7251 32.3309C53.7836 32.1444 53.8423 31.9578 53.9066 31.7739L54.0034 31.4983C54.0371 31.4015 54.0726 31.305 54.1025 31.2072C54.3377 30.4306 54.487 29.6305 54.5475 28.8213C54.6487 27.2291 54.6545 25.6323 54.5648 24.0394C54.5366 23.2478 54.5079 22.4583 54.5019 21.6717C54.4977 21.1772 54.5089 20.6845 54.5316 20.1939C55.4883 18.8605 59.7211 13.2203 63.5014 12.2901C58.6027 12.2892 55.8244 17.8842 55.4937 14.0745C55.4666 13.486 55.4752 12.8964 55.5196 12.309C55.5971 11.5471 55.7856 10.8007 56.079 10.0933C56.3738 9.37482 56.728 8.68222 57.138 8.02268L57.2902 7.77242L57.4494 7.52611C57.5547 7.36127 57.6619 7.19759 57.7741 7.0366C57.9934 6.70952 58.2179 6.39648 58.4597 6.09308C59.4248 4.87579 60.6127 3.85323 61.96 3.07995C63.3148 2.31138 64.7861 1.76942 66.3157 1.47553C67.8518 1.17938 69.4192 1.0792 70.9805 1.17738C71.7623 1.22395 72.5411 1.31232 73.3135 1.44211C74.0857 1.56902 74.8499 1.74081 75.6022 1.95661C77.1005 2.38548 78.4743 3.16704 79.6086 4.23586C80.7234 5.33391 81.5975 6.65196 82.1753 8.10619C82.4749 8.83335 82.7338 9.5766 82.9509 10.3325C83.1762 11.0875 83.3658 11.86 83.6357 12.6141C84.1122 13.9495 84.7143 15.2367 85.4339 16.4584C85.248 16.2895 85.0633 16.1191 84.8799 15.9471C84.5659 15.6571 84.2541 15.3643 83.9448 15.069C84.2327 15.3853 84.5232 15.6998 84.8157 16.0118C85.1125 16.3209 85.4079 16.6278 85.72 16.9268L86.1361 17.3255L85.8401 16.8244C85.0372 15.4665 84.3808 14.0271 83.882 12.5304C83.6336 11.7862 83.4613 11.0137 83.2411 10.2487C83.0304 9.47888 82.7771 8.72133 82.4822 7.97961C81.904 6.47158 81.0182 5.10048 79.881 3.95358C78.7125 2.82433 77.2907 1.99122 75.7344 1.52388C74.1971 1.06354 72.6126 0.77903 71.0112 0.675818C69.4067 0.564468 67.7946 0.657031 66.2134 0.951295C64.6222 1.24412 63.0907 1.79957 61.6817 2.59492C60.2712 3.40064 59.0267 4.46718 58.0145 5.73773C57.7619 6.05332 57.5238 6.38404 57.3013 6.71431C57.1867 6.8782 57.0765 7.04554 56.9682 7.21427L56.8045 7.46647L56.6473 7.72357C56.2191 8.40934 55.8491 9.12969 55.5409 9.8771C55.2273 10.6359 55.0269 11.4368 54.9462 12.2539C54.8644 13.0735 54.9341 13.8835 54.9276 14.6529C54.9265 15.0347 54.8962 15.4159 54.8367 15.793C54.7746 16.1679 54.6802 16.5368 54.5545 16.8954C54.4953 17.0686 54.4177 17.274 54.3604 17.4699C54.3005 17.6677 54.2525 17.8675 54.2092 18.0677C54.1265 18.4658 54.066 18.8682 54.0281 19.273C53.962 20.0326 53.9349 20.795 53.9469 21.5573C53.5723 22.0401 53.0996 22.9805 52.8667 24.7772C52.641 26.7455 52.952 28.7383 53.767 30.5441C53.7255 30.7167 53.6802 30.8879 53.6276 31.0567C53.6002 31.1484 53.5677 31.238 53.5371 31.3285L53.4386 31.6139C53.3734 31.8044 53.3143 31.9961 53.2555 32.1877C53.1406 32.5718 53.0383 32.9584 52.9424 33.3459C52.564 34.8973 52.2934 36.4655 52.0644 38.0376C51.8391 39.6109 51.6579 41.1887 51.5206 42.7712L51.5172 42.8112L51.5309 42.8491C51.8849 43.8231 52.2736 44.7927 52.7128 45.7355C52.8222 45.9716 52.9352 46.206 53.05 46.4395L53.225 46.7883C53.2682 46.8936 53.2977 47.004 53.3129 47.1167C53.3809 47.6229 53.4188 48.1327 53.4264 48.6434C53.4583 49.6749 53.4443 50.708 53.4642 51.748C53.4674 51.8785 53.4712 52.0086 53.4803 52.1426C53.4803 52.1426 53.4924 52.1976 53.5214 52.8737C53.7312 52.4251 53.7782 52.3242 53.838 52.194C53.9259 51.9671 53.9992 51.7348 54.0573 51.4985C54.1348 51.2605 54.2362 51.0311 54.3599 50.8136C54.4618 50.6064 54.6308 50.4397 54.8395 50.3406C54.9375 50.3072 55.0439 50.3075 55.1417 50.3416C55.249 50.3805 55.3481 50.4391 55.4339 50.5144C55.5259 50.5932 55.6096 50.6813 55.6837 50.7771L55.9178 51.0842C56.231 51.4995 56.5631 51.8999 56.9 52.2958C57.5801 53.0821 58.3114 53.8226 59.089 54.5126C59.8655 55.2024 60.6917 55.8341 61.5612 56.4023C62.4307 56.9676 63.3427 57.4647 64.2889 57.8892C62.4597 57.0124 61.1612 55.79 59.6826 54.4287C60.3526 54.7803 61.0583 55.0589 61.7878 55.2598ZM53.7962 22.2685L53.9541 21.9953C53.9683 22.686 53.9966 23.3745 54.0236 24.0604C54.0541 24.8173 54.0857 25.5739 54.098 26.3274C53.621 25.0208 52.9061 24.4316 53.7962 22.2685ZM53.5823 26.4261C53.7777 26.9036 53.9445 27.3923 54.0818 27.8896C54.0711 28.1862 54.0603 28.4827 54.0369 28.7778C53.9939 29.3523 53.9087 29.9229 53.7821 30.4849C53.2368 28.0385 53.2561 27.2016 53.5823 26.4261Z" fill="white"/>
<path d="M89.1958 38.1425L87.937 32.0179C88.1291 33.2501 87.9998 34.5111 87.5618 35.6789C87.1238 36.8466 86.3919 37.8815 85.4368 38.6834C81.9969 41.7383 81.658 42.2776 81.658 42.2776C86.7913 38.8316 89.0296 37.8082 89.1955 39.6539C89.2556 39.1519 89.2557 38.6445 89.1958 38.1425Z" fill="white"/>
<path d="M87.937 32.0179C87.9161 31.9015 87.8998 31.8365 87.8998 31.8365L87.937 32.0179Z" fill="white"/>
<path d="M0.428589 80.5683V80.0126H1.78725V80.7741C1.78725 82.7707 2.67227 83.3881 4.79233 83.3881C6.97413 83.3881 7.59162 82.7295 7.59162 81.124C7.59162 79.1069 6.68597 78.7364 4.19543 77.8101C1.60199 76.8427 0.469945 75.937 0.469945 73.6729C0.469945 71.347 1.66376 70.112 4.62774 70.112H4.79233C7.75636 70.112 8.92961 71.5734 8.92961 74.1257V74.7226H7.57095V73.9404C7.57095 72.1292 6.76813 71.4088 4.64812 71.4088C2.52811 71.4088 1.86941 72.1703 1.86941 73.6111C1.86941 75.5666 3.06323 75.8342 5.43025 76.7398C7.8179 77.6455 8.99119 78.4071 8.99119 81.021C8.99119 83.5528 7.85906 84.6848 4.8334 84.6848H4.6277C1.62236 84.6849 0.428589 83.4293 0.428589 80.5683Z" fill="white"/>
<path d="M10.8546 79.8479V74.9285C10.8546 71.6558 12.3777 70.1121 15.1358 70.1121H15.3007C18.0589 70.1121 19.582 71.6555 19.582 74.9285V79.8479C19.582 83.1 18.1412 84.6849 15.3212 84.6849H15.1154C12.2954 84.6849 10.8546 83.1 10.8546 79.8479ZM18.141 79.9303V74.8461C18.141 72.3556 17.1941 71.4088 15.2182 71.4088C13.2422 71.4088 12.2954 72.3556 12.2954 74.8461V79.9303C12.2954 82.3796 13.2422 83.3881 15.2182 83.3881C17.1942 83.3881 18.141 82.3796 18.141 79.9303Z" fill="white"/>
<path d="M29.8835 71.7175H22.7617V76.5957H29.0601V77.913H22.7617V84.3966H21.3209V70.4002H29.8835V71.7175Z" fill="white"/>
<path d="M35.3484 71.7175H31.2319V70.4002H40.906V71.7175H36.7893V84.3968H35.3484V71.7175Z" fill="white"/>
<path d="M48.9166 79.6832V75.1755C48.9166 71.8411 50.5838 70.1121 53.7125 70.1121H53.8774C56.9855 70.1121 58.6733 71.8411 58.6733 75.0522H55.9971C55.9971 73.2615 55.2766 72.5823 53.8769 72.5823C52.4566 72.5823 51.7568 73.2616 51.7568 74.8876V79.8481C51.7568 81.4741 52.4361 82.2152 53.8563 82.2152C55.3383 82.2152 56.0382 81.7211 56.0382 80.3832V79.6422H53.9592V76.9665H58.6728V79.9716C58.6728 83.4913 56.738 84.6851 53.9387 84.6851H53.6506C50.4809 84.6849 48.9166 82.9148 48.9166 79.6832Z" fill="white"/>
<path d="M60.5426 79.6832V75.1755C60.5426 71.8411 62.2098 70.1121 65.3385 70.1121H65.5033C68.632 70.1121 70.2992 71.8411 70.2992 75.1755V79.6832C70.2992 82.915 68.7349 84.6849 65.5651 84.6849H65.2769C62.1068 84.6849 60.5426 82.9148 60.5426 79.6832ZM67.4585 79.9096V74.9491C67.4585 73.323 66.7792 72.5821 65.4208 72.5821C64.0625 72.5821 63.3828 73.323 63.3828 74.9491V79.9096C63.3828 81.5357 64.0622 82.215 65.4208 82.215C66.7795 82.215 67.4585 81.5357 67.4585 79.9096Z" fill="white"/>
<path d="M79.2288 84.3968L76.7382 79.2921H75.2356V84.3968H72.4775V70.4002H76.4089C80.5667 70.4002 82.1516 71.7381 82.1516 74.8461C82.1516 76.9868 81.4106 78.2836 79.5786 78.9011L82.3162 84.3968H79.2288ZM75.2356 76.7194H76.7794C78.6525 76.7194 79.3112 76.2459 79.3112 74.8669C79.3112 73.4672 78.6524 73.0144 76.7794 73.0144H75.2356V76.7194Z" fill="white"/>
<path d="M89.5444 72.9938V81.8033H92.6525V84.3968H83.6371V81.8033H86.7451V72.9938H83.6371V70.4002H92.6525V72.9938H89.5444Z" fill="white"/>
<path d="M97.8108 81.7209H104.274V84.3968H94.9704V70.4002H97.8108V81.7209Z" fill="white"/>
<path d="M109.15 81.7209H115.613V84.3968H106.31V70.4002H109.15V81.7209Z" fill="white"/>
<path d="M125.306 81.474H120.963L120.263 84.3968H117.546L120.984 70.2767H125.471L128.908 84.3968H125.985L125.306 81.474ZM123.062 72.0882L121.539 79.0454H124.75L123.268 72.0882H123.062Z" fill="white"/>
<path d="M129.732 80.0537V79.9096H132.428V80.1566C132.428 81.865 133.087 82.2973 134.672 82.2973C136.36 82.2973 136.771 81.8857 136.771 80.7329C136.771 79.4774 136.154 79.2715 133.787 78.3865C131.255 77.4191 129.773 76.5751 129.773 74.0435C129.773 71.491 131.234 70.1121 134.528 70.1121H134.693C137.965 70.1121 139.509 71.5529 139.509 74.6198V74.7638H136.833V74.5168C136.833 72.9525 136.175 72.4997 134.61 72.4997C132.943 72.4997 132.531 72.9113 132.531 73.92C132.531 75.0727 133.376 75.3401 135.516 76.0812C138.233 77.0486 139.571 77.8719 139.571 80.5477C139.571 83.347 138.212 84.6849 134.816 84.6849H134.508C131.132 84.6849 129.732 83.2235 129.732 80.0537Z" fill="white"/>
<path d="M32.5617 94.278V94.0456H33.13V94.3642C33.13 95.1992 33.5001 95.4575 34.387 95.4575C35.2996 95.4575 35.5578 95.1821 35.5578 94.5105C35.5578 93.6668 35.179 93.5118 34.1372 93.1244C33.0525 92.7198 32.579 92.341 32.579 91.394C32.579 90.4211 33.0785 89.9045 34.318 89.9045H34.387C35.6266 89.9045 36.1174 90.5158 36.1174 91.5834V91.8331H35.5491V91.506C35.5491 90.7484 35.2135 90.4471 34.3266 90.4471C33.4398 90.4471 33.1644 90.7657 33.1644 91.3683C33.1644 92.1861 33.6639 92.2981 34.6538 92.677C35.6525 93.0557 36.1431 93.3742 36.1431 94.4676C36.1431 95.5266 35.6697 96.0001 34.4041 96.0001H34.318C33.0611 95.9999 32.5617 95.4746 32.5617 94.278Z" fill="white"/>
<path d="M38.1066 93.9767V91.9191C38.1066 90.5505 38.7437 89.9045 39.8973 89.9045H39.9663C41.1198 89.9045 41.7569 90.5503 41.7569 91.9191V93.9767C41.7569 95.337 41.1543 95.9997 39.9747 95.9997H39.8887C38.7091 95.9999 38.1066 95.337 38.1066 93.9767ZM41.1543 94.0111V91.8846C41.1543 90.843 40.7583 90.4469 39.9318 90.4469C39.1053 90.4469 38.7092 90.843 38.7092 91.8846V94.011C38.7092 95.0356 39.1053 95.4575 39.9318 95.4575C40.7583 95.4575 41.1543 95.0357 41.1543 94.0111Z" fill="white"/>
<path d="M47.5341 90.5761H44.5553V92.6165H47.1898V93.1675H44.5553V95.8793H43.9527V90.025H47.5341L47.5341 90.5761Z" fill="white"/>
<path d="M50.7889 90.5761H49.0671V90.025H53.1134V90.576H51.3916V95.8792H50.7889V90.5761Z" fill="white"/>
<path d="M54.2245 90.025H54.8272L55.5503 95.113H55.6106L56.3424 90.972H57.031L57.7628 95.113H57.8145L58.5463 90.025H59.1144L58.2191 95.8792H57.4013L56.687 91.8415H56.6525L55.9465 95.8792H55.1201L54.2245 90.025Z" fill="white"/>
<path d="M63.3421 94.2608H61.1293L60.6387 95.8792H60.0446L61.8181 89.9561H62.6962L64.4525 95.8792H63.8243L63.3421 94.2608ZM61.2931 93.7099H63.1786L62.2661 90.4727H62.2229L61.2931 93.7099Z" fill="white"/>
<path d="M69.171 95.8792L67.9656 93.4084H66.769V95.8792H66.1664V90.025H67.6127C69.1366 90.025 69.7564 90.5501 69.7564 91.6952C69.7907 92.0623 69.6897 92.4293 69.4726 92.7273C69.2554 93.0253 68.937 93.2337 68.577 93.3136L69.8425 95.8791L69.171 95.8792ZM67.6386 92.866C68.7233 92.866 69.1366 92.5474 69.1366 91.7122C69.1366 90.8685 68.7061 90.5758 67.6299 90.5758H66.769V92.8659L67.6386 92.866Z" fill="white"/>
<path d="M71.7715 90.025H75.2841V90.576H72.3654V92.6164H75.0257V93.1674H72.3654V95.3282H75.2841V95.8792H71.7715V90.025Z" fill="white"/>
<path d="M86.3392 90.025V95.8792H85.7365V93.2103H83.4035V95.8792H82.7922V90.025H83.4035V92.6594H85.7365V90.025H86.3392Z" fill="white"/>
<path d="M88.3199 93.9767V91.9191C88.3199 90.5505 88.957 89.9045 90.1105 89.9045H90.1795C91.333 89.9045 91.9701 90.5503 91.9701 91.9191V93.9767C91.9701 95.337 91.3675 95.9997 90.1881 95.9997H90.1019C88.9225 95.9999 88.3199 95.337 88.3199 93.9767ZM91.3675 94.0111V91.8846C91.3675 90.843 90.9715 90.4469 90.145 90.4469C89.3185 90.4469 88.9225 90.843 88.9225 91.8846V94.011C88.9225 95.0356 89.3185 95.4575 90.145 95.4575C90.9715 95.4575 91.3675 95.0357 91.3675 94.0111Z" fill="white"/>
<path d="M93.9164 93.9767V90.025H94.5191V94.011C94.5191 95.0442 94.9151 95.4575 95.7502 95.4575C96.5853 95.4575 96.9726 95.0529 96.9726 94.011V90.025H97.5321V93.9766C97.5321 95.3541 96.9467 95.9996 95.7844 95.9996H95.6984C94.5104 95.9999 93.9164 95.3456 93.9164 93.9767Z" fill="white"/>
<path d="M99.5127 94.278V94.0456H100.081V94.3642C100.081 95.1992 100.451 95.4575 101.338 95.4575C102.25 95.4575 102.509 95.1821 102.509 94.5105C102.509 93.6668 102.13 93.5118 101.088 93.1244C100.003 92.7198 99.5297 92.341 99.5297 91.394C99.5297 90.4211 100.029 89.9045 101.269 89.9045H101.338C102.577 89.9045 103.068 90.5158 103.068 91.5834V91.8331H102.5V91.506C102.5 90.7484 102.164 90.4471 101.277 90.4471C100.391 90.4471 100.115 90.7657 100.115 91.3683C100.115 92.1861 100.615 92.2981 101.605 92.677C102.603 93.0557 103.094 93.3742 103.094 94.4676C103.094 95.5266 102.621 96.0001 101.355 96.0001H101.269C100.012 95.9999 99.5127 95.4746 99.5127 94.278Z" fill="white"/>
<path d="M105.247 90.025H108.76V90.576H105.841V92.6164H108.501V93.1674H105.841V95.3282H108.76V95.8792H105.247V90.025Z" fill="white"/>
</g>
</g>
<defs>
<clipPath id="clip0_175_6471">
<rect width="139.142" height="96" fill="white" transform="translate(0.428955)"/>
</clipPath>
</defs>
</svg>
